<?xml version="1.0" encoding="utf-8" standalone="no"?>
<!DOCTYPE svg PUBLIC "-//W3C//DTD SVG 1.1//EN"
  "http://www.w3.org/Graphics/SVG/1.1/DTD/svg11.dtd">
<!-- Created with matplotlib (https://matplotlib.org/) -->
<svg height="345.6pt" version="1.1" viewBox="0 0 460.8 345.6" width="460.8pt" xmlns="http://www.w3.org/2000/svg" xmlns:xlink="http://www.w3.org/1999/xlink">
 <defs>
  <style type="text/css">
*{stroke-linecap:butt;stroke-linejoin:round;}
  </style>
 </defs>
 <g id="figure_1">
  <g id="patch_1">
   <path d="M 0 345.6 
L 460.8 345.6 
L 460.8 0 
L 0 0 
z
" style="fill:#ffffff;"/>
  </g>
  <g id="axes_1">
   <g id="patch_2">
    <path d="M 57.6 307.584 
L 414.72 307.584 
L 414.72 41.472 
L 57.6 41.472 
z
" style="fill:#ffffff;"/>
   </g>
   <g id="matplotlib.axis_1">
    <g id="xtick_1">
     <g id="line2d_1">
      <path clip-path="url(#p1bcfb6d7c4)" d="M 101.904591 307.584 
L 101.904591 41.472 
" style="fill:none;stroke:#cccccc;stroke-linecap:round;stroke-width:0.8;"/>
     </g>
     <g id="text_1">
      <!-- 0.6 -->
      <defs>
       <path d="M 31.78125 66.40625 
Q 24.171875 66.40625 20.328125 58.90625 
Q 16.5 51.421875 16.5 36.375 
Q 16.5 21.390625 20.328125 13.890625 
Q 24.171875 6.390625 31.78125 6.390625 
Q 39.453125 6.390625 43.28125 13.890625 
Q 47.125 21.390625 47.125 36.375 
Q 47.125 51.421875 43.28125 58.90625 
Q 39.453125 66.40625 31.78125 66.40625 
z
M 31.78125 74.21875 
Q 44.046875 74.21875 50.515625 64.515625 
Q 56.984375 54.828125 56.984375 36.375 
Q 56.984375 17.96875 50.515625 8.265625 
Q 44.046875 -1.421875 31.78125 -1.421875 
Q 19.53125 -1.421875 13.0625 8.265625 
Q 6.59375 17.96875 6.59375 36.375 
Q 6.59375 54.828125 13.0625 64.515625 
Q 19.53125 74.21875 31.78125 74.21875 
z
" id="DejaVuSans-48"/>
       <path d="M 10.6875 12.40625 
L 21 12.40625 
L 21 0 
L 10.6875 0 
z
" id="DejaVuSans-46"/>
       <path d="M 33.015625 40.375 
Q 26.375 40.375 22.484375 35.828125 
Q 18.609375 31.296875 18.609375 23.390625 
Q 18.609375 15.53125 22.484375 10.953125 
Q 26.375 6.390625 33.015625 6.390625 
Q 39.65625 6.390625 43.53125 10.953125 
Q 47.40625 15.53125 47.40625 23.390625 
Q 47.40625 31.296875 43.53125 35.828125 
Q 39.65625 40.375 33.015625 40.375 
z
M 52.59375 71.296875 
L 52.59375 62.3125 
Q 48.875 64.0625 45.09375 64.984375 
Q 41.3125 65.921875 37.59375 65.921875 
Q 27.828125 65.921875 22.671875 59.328125 
Q 17.53125 52.734375 16.796875 39.40625 
Q 19.671875 43.65625 24.015625 45.921875 
Q 28.375 48.1875 33.59375 48.1875 
Q 44.578125 48.1875 50.953125 41.515625 
Q 57.328125 34.859375 57.328125 23.390625 
Q 57.328125 12.15625 50.6875 5.359375 
Q 44.046875 -1.421875 33.015625 -1.421875 
Q 20.359375 -1.421875 13.671875 8.265625 
Q 6.984375 17.96875 6.984375 36.375 
Q 6.984375 53.65625 15.1875 63.9375 
Q 23.390625 74.21875 37.203125 74.21875 
Q 40.921875 74.21875 44.703125 73.484375 
Q 48.484375 72.75 52.59375 71.296875 
z
" id="DejaVuSans-54"/>
      </defs>
      <g style="fill:#262626;" transform="translate(93.953029 322.182437)scale(0.1 -0.1)">
       <use xlink:href="#DejaVuSans-48"/>
       <use x="63.623047" xlink:href="#DejaVuSans-46"/>
       <use x="95.410156" xlink:href="#DejaVuSans-54"/>
      </g>
     </g>
    </g>
    <g id="xtick_2">
     <g id="line2d_2">
      <path clip-path="url(#p1bcfb6d7c4)" d="M 151.568868 307.584 
L 151.568868 41.472 
" style="fill:none;stroke:#cccccc;stroke-linecap:round;stroke-width:0.8;"/>
     </g>
     <g id="text_2">
      <!-- 0.8 -->
      <defs>
       <path d="M 31.78125 34.625 
Q 24.75 34.625 20.71875 30.859375 
Q 16.703125 27.09375 16.703125 20.515625 
Q 16.703125 13.921875 20.71875 10.15625 
Q 24.75 6.390625 31.78125 6.390625 
Q 38.8125 6.390625 42.859375 10.171875 
Q 46.921875 13.96875 46.921875 20.515625 
Q 46.921875 27.09375 42.890625 30.859375 
Q 38.875 34.625 31.78125 34.625 
z
M 21.921875 38.8125 
Q 15.578125 40.375 12.03125 44.71875 
Q 8.5 49.078125 8.5 55.328125 
Q 8.5 64.0625 14.71875 69.140625 
Q 20.953125 74.21875 31.78125 74.21875 
Q 42.671875 74.21875 48.875 69.140625 
Q 55.078125 64.0625 55.078125 55.328125 
Q 55.078125 49.078125 51.53125 44.71875 
Q 48 40.375 41.703125 38.8125 
Q 48.828125 37.15625 52.796875 32.3125 
Q 56.78125 27.484375 56.78125 20.515625 
Q 56.78125 9.90625 50.3125 4.234375 
Q 43.84375 -1.421875 31.78125 -1.421875 
Q 19.734375 -1.421875 13.25 4.234375 
Q 6.78125 9.90625 6.78125 20.515625 
Q 6.78125 27.484375 10.78125 32.3125 
Q 14.796875 37.15625 21.921875 38.8125 
z
M 18.3125 54.390625 
Q 18.3125 48.734375 21.84375 45.5625 
Q 25.390625 42.390625 31.78125 42.390625 
Q 38.140625 42.390625 41.71875 45.5625 
Q 45.3125 48.734375 45.3125 54.390625 
Q 45.3125 60.0625 41.71875 63.234375 
Q 38.140625 66.40625 31.78125 66.40625 
Q 25.390625 66.40625 21.84375 63.234375 
Q 18.3125 60.0625 18.3125 54.390625 
z
" id="DejaVuSans-56"/>
      </defs>
      <g style="fill:#262626;" transform="translate(143.617306 322.182437)scale(0.1 -0.1)">
       <use xlink:href="#DejaVuSans-48"/>
       <use x="63.623047" xlink:href="#DejaVuSans-46"/>
       <use x="95.410156" xlink:href="#DejaVuSans-56"/>
      </g>
     </g>
    </g>
    <g id="xtick_3">
     <g id="line2d_3">
      <path clip-path="url(#p1bcfb6d7c4)" d="M 201.233145 307.584 
L 201.233145 41.472 
" style="fill:none;stroke:#cccccc;stroke-linecap:round;stroke-width:0.8;"/>
     </g>
     <g id="text_3">
      <!-- 1.0 -->
      <defs>
       <path d="M 12.40625 8.296875 
L 28.515625 8.296875 
L 28.515625 63.921875 
L 10.984375 60.40625 
L 10.984375 69.390625 
L 28.421875 72.90625 
L 38.28125 72.90625 
L 38.28125 8.296875 
L 54.390625 8.296875 
L 54.390625 0 
L 12.40625 0 
z
" id="DejaVuSans-49"/>
      </defs>
      <g style="fill:#262626;" transform="translate(193.281582 322.182437)scale(0.1 -0.1)">
       <use xlink:href="#DejaVuSans-49"/>
       <use x="63.623047" xlink:href="#DejaVuSans-46"/>
       <use x="95.410156" xlink:href="#DejaVuSans-48"/>
      </g>
     </g>
    </g>
    <g id="xtick_4">
     <g id="line2d_4">
      <path clip-path="url(#p1bcfb6d7c4)" d="M 250.897422 307.584 
L 250.897422 41.472 
" style="fill:none;stroke:#cccccc;stroke-linecap:round;stroke-width:0.8;"/>
     </g>
     <g id="text_4">
      <!-- 1.2 -->
      <defs>
       <path d="M 19.1875 8.296875 
L 53.609375 8.296875 
L 53.609375 0 
L 7.328125 0 
L 7.328125 8.296875 
Q 12.9375 14.109375 22.625 23.890625 
Q 32.328125 33.6875 34.8125 36.53125 
Q 39.546875 41.84375 41.421875 45.53125 
Q 43.3125 49.21875 43.3125 52.78125 
Q 43.3125 58.59375 39.234375 62.25 
Q 35.15625 65.921875 28.609375 65.921875 
Q 23.96875 65.921875 18.8125 64.3125 
Q 13.671875 62.703125 7.8125 59.421875 
L 7.8125 69.390625 
Q 13.765625 71.78125 18.9375 73 
Q 24.125 74.21875 28.421875 74.21875 
Q 39.75 74.21875 46.484375 68.546875 
Q 53.21875 62.890625 53.21875 53.421875 
Q 53.21875 48.921875 51.53125 44.890625 
Q 49.859375 40.875 45.40625 35.40625 
Q 44.1875 33.984375 37.640625 27.21875 
Q 31.109375 20.453125 19.1875 8.296875 
z
" id="DejaVuSans-50"/>
      </defs>
      <g style="fill:#262626;" transform="translate(242.945859 322.182437)scale(0.1 -0.1)">
       <use xlink:href="#DejaVuSans-49"/>
       <use x="63.623047" xlink:href="#DejaVuSans-46"/>
       <use x="95.410156" xlink:href="#DejaVuSans-50"/>
      </g>
     </g>
    </g>
    <g id="xtick_5">
     <g id="line2d_5">
      <path clip-path="url(#p1bcfb6d7c4)" d="M 300.561698 307.584 
L 300.561698 41.472 
" style="fill:none;stroke:#cccccc;stroke-linecap:round;stroke-width:0.8;"/>
     </g>
     <g id="text_5">
      <!-- 1.4 -->
      <defs>
       <path d="M 37.796875 64.3125 
L 12.890625 25.390625 
L 37.796875 25.390625 
z
M 35.203125 72.90625 
L 47.609375 72.90625 
L 47.609375 25.390625 
L 58.015625 25.390625 
L 58.015625 17.1875 
L 47.609375 17.1875 
L 47.609375 0 
L 37.796875 0 
L 37.796875 17.1875 
L 4.890625 17.1875 
L 4.890625 26.703125 
z
" id="DejaVuSans-52"/>
      </defs>
      <g style="fill:#262626;" transform="translate(292.610136 322.182437)scale(0.1 -0.1)">
       <use xlink:href="#DejaVuSans-49"/>
       <use x="63.623047" xlink:href="#DejaVuSans-46"/>
       <use x="95.410156" xlink:href="#DejaVuSans-52"/>
      </g>
     </g>
    </g>
    <g id="xtick_6">
     <g id="line2d_6">
      <path clip-path="url(#p1bcfb6d7c4)" d="M 350.225975 307.584 
L 350.225975 41.472 
" style="fill:none;stroke:#cccccc;stroke-linecap:round;stroke-width:0.8;"/>
     </g>
     <g id="text_6">
      <!-- 1.6 -->
      <g style="fill:#262626;" transform="translate(342.274413 322.182437)scale(0.1 -0.1)">
       <use xlink:href="#DejaVuSans-49"/>
       <use x="63.623047" xlink:href="#DejaVuSans-46"/>
       <use x="95.410156" xlink:href="#DejaVuSans-54"/>
      </g>
     </g>
    </g>
    <g id="xtick_7">
     <g id="line2d_7">
      <path clip-path="url(#p1bcfb6d7c4)" d="M 399.890252 307.584 
L 399.890252 41.472 
" style="fill:none;stroke:#cccccc;stroke-linecap:round;stroke-width:0.8;"/>
     </g>
     <g id="text_7">
      <!-- 1.8 -->
      <g style="fill:#262626;" transform="translate(391.938689 322.182437)scale(0.1 -0.1)">
       <use xlink:href="#DejaVuSans-49"/>
       <use x="63.623047" xlink:href="#DejaVuSans-46"/>
       <use x="95.410156" xlink:href="#DejaVuSans-56"/>
      </g>
     </g>
    </g>
    <g id="text_8">
     <!-- Loading_Time -->
     <defs>
      <path d="M 9.8125 72.90625 
L 19.671875 72.90625 
L 19.671875 8.296875 
L 55.171875 8.296875 
L 55.171875 0 
L 9.8125 0 
z
" id="DejaVuSans-76"/>
      <path d="M 30.609375 48.390625 
Q 23.390625 48.390625 19.1875 42.75 
Q 14.984375 37.109375 14.984375 27.296875 
Q 14.984375 17.484375 19.15625 11.84375 
Q 23.34375 6.203125 30.609375 6.203125 
Q 37.796875 6.203125 41.984375 11.859375 
Q 46.1875 17.53125 46.1875 27.296875 
Q 46.1875 37.015625 41.984375 42.703125 
Q 37.796875 48.390625 30.609375 48.390625 
z
M 30.609375 56 
Q 42.328125 56 49.015625 48.375 
Q 55.71875 40.765625 55.71875 27.296875 
Q 55.71875 13.875 49.015625 6.21875 
Q 42.328125 -1.421875 30.609375 -1.421875 
Q 18.84375 -1.421875 12.171875 6.21875 
Q 5.515625 13.875 5.515625 27.296875 
Q 5.515625 40.765625 12.171875 48.375 
Q 18.84375 56 30.609375 56 
z
" id="DejaVuSans-111"/>
      <path d="M 34.28125 27.484375 
Q 23.390625 27.484375 19.1875 25 
Q 14.984375 22.515625 14.984375 16.5 
Q 14.984375 11.71875 18.140625 8.90625 
Q 21.296875 6.109375 26.703125 6.109375 
Q 34.1875 6.109375 38.703125 11.40625 
Q 43.21875 16.703125 43.21875 25.484375 
L 43.21875 27.484375 
z
M 52.203125 31.203125 
L 52.203125 0 
L 43.21875 0 
L 43.21875 8.296875 
Q 40.140625 3.328125 35.546875 0.953125 
Q 30.953125 -1.421875 24.3125 -1.421875 
Q 15.921875 -1.421875 10.953125 3.296875 
Q 6 8.015625 6 15.921875 
Q 6 25.140625 12.171875 29.828125 
Q 18.359375 34.515625 30.609375 34.515625 
L 43.21875 34.515625 
L 43.21875 35.40625 
Q 43.21875 41.609375 39.140625 45 
Q 35.0625 48.390625 27.6875 48.390625 
Q 23 48.390625 18.546875 47.265625 
Q 14.109375 46.140625 10.015625 43.890625 
L 10.015625 52.203125 
Q 14.9375 54.109375 19.578125 55.046875 
Q 24.21875 56 28.609375 56 
Q 40.484375 56 46.34375 49.84375 
Q 52.203125 43.703125 52.203125 31.203125 
z
" id="DejaVuSans-97"/>
      <path d="M 45.40625 46.390625 
L 45.40625 75.984375 
L 54.390625 75.984375 
L 54.390625 0 
L 45.40625 0 
L 45.40625 8.203125 
Q 42.578125 3.328125 38.25 0.953125 
Q 33.9375 -1.421875 27.875 -1.421875 
Q 17.96875 -1.421875 11.734375 6.484375 
Q 5.515625 14.40625 5.515625 27.296875 
Q 5.515625 40.1875 11.734375 48.09375 
Q 17.96875 56 27.875 56 
Q 33.9375 56 38.25 53.625 
Q 42.578125 51.265625 45.40625 46.390625 
z
M 14.796875 27.296875 
Q 14.796875 17.390625 18.875 11.75 
Q 22.953125 6.109375 30.078125 6.109375 
Q 37.203125 6.109375 41.296875 11.75 
Q 45.40625 17.390625 45.40625 27.296875 
Q 45.40625 37.203125 41.296875 42.84375 
Q 37.203125 48.484375 30.078125 48.484375 
Q 22.953125 48.484375 18.875 42.84375 
Q 14.796875 37.203125 14.796875 27.296875 
z
" id="DejaVuSans-100"/>
      <path d="M 9.421875 54.6875 
L 18.40625 54.6875 
L 18.40625 0 
L 9.421875 0 
z
M 9.421875 75.984375 
L 18.40625 75.984375 
L 18.40625 64.59375 
L 9.421875 64.59375 
z
" id="DejaVuSans-105"/>
      <path d="M 54.890625 33.015625 
L 54.890625 0 
L 45.90625 0 
L 45.90625 32.71875 
Q 45.90625 40.484375 42.875 44.328125 
Q 39.84375 48.1875 33.796875 48.1875 
Q 26.515625 48.1875 22.3125 43.546875 
Q 18.109375 38.921875 18.109375 30.90625 
L 18.109375 0 
L 9.078125 0 
L 9.078125 54.6875 
L 18.109375 54.6875 
L 18.109375 46.1875 
Q 21.34375 51.125 25.703125 53.5625 
Q 30.078125 56 35.796875 56 
Q 45.21875 56 50.046875 50.171875 
Q 54.890625 44.34375 54.890625 33.015625 
z
" id="DejaVuSans-110"/>
      <path d="M 45.40625 27.984375 
Q 45.40625 37.75 41.375 43.109375 
Q 37.359375 48.484375 30.078125 48.484375 
Q 22.859375 48.484375 18.828125 43.109375 
Q 14.796875 37.75 14.796875 27.984375 
Q 14.796875 18.265625 18.828125 12.890625 
Q 22.859375 7.515625 30.078125 7.515625 
Q 37.359375 7.515625 41.375 12.890625 
Q 45.40625 18.265625 45.40625 27.984375 
z
M 54.390625 6.78125 
Q 54.390625 -7.171875 48.1875 -13.984375 
Q 42 -20.796875 29.203125 -20.796875 
Q 24.46875 -20.796875 20.265625 -20.09375 
Q 16.0625 -19.390625 12.109375 -17.921875 
L 12.109375 -9.1875 
Q 16.0625 -11.328125 19.921875 -12.34375 
Q 23.78125 -13.375 27.78125 -13.375 
Q 36.625 -13.375 41.015625 -8.765625 
Q 45.40625 -4.15625 45.40625 5.171875 
L 45.40625 9.625 
Q 42.625 4.78125 38.28125 2.390625 
Q 33.9375 0 27.875 0 
Q 17.828125 0 11.671875 7.65625 
Q 5.515625 15.328125 5.515625 27.984375 
Q 5.515625 40.671875 11.671875 48.328125 
Q 17.828125 56 27.875 56 
Q 33.9375 56 38.28125 53.609375 
Q 42.625 51.21875 45.40625 46.390625 
L 45.40625 54.6875 
L 54.390625 54.6875 
z
" id="DejaVuSans-103"/>
      <path d="M 50.984375 -16.609375 
L 50.984375 -23.578125 
L -0.984375 -23.578125 
L -0.984375 -16.609375 
z
" id="DejaVuSans-95"/>
      <path d="M -0.296875 72.90625 
L 61.375 72.90625 
L 61.375 64.59375 
L 35.5 64.59375 
L 35.5 0 
L 25.59375 0 
L 25.59375 64.59375 
L -0.296875 64.59375 
z
" id="DejaVuSans-84"/>
      <path d="M 52 44.1875 
Q 55.375 50.25 60.0625 53.125 
Q 64.75 56 71.09375 56 
Q 79.640625 56 84.28125 50.015625 
Q 88.921875 44.046875 88.921875 33.015625 
L 88.921875 0 
L 79.890625 0 
L 79.890625 32.71875 
Q 79.890625 40.578125 77.09375 44.375 
Q 74.3125 48.1875 68.609375 48.1875 
Q 61.625 48.1875 57.5625 43.546875 
Q 53.515625 38.921875 53.515625 30.90625 
L 53.515625 0 
L 44.484375 0 
L 44.484375 32.71875 
Q 44.484375 40.625 41.703125 44.40625 
Q 38.921875 48.1875 33.109375 48.1875 
Q 26.21875 48.1875 22.15625 43.53125 
Q 18.109375 38.875 18.109375 30.90625 
L 18.109375 0 
L 9.078125 0 
L 9.078125 54.6875 
L 18.109375 54.6875 
L 18.109375 46.1875 
Q 21.1875 51.21875 25.484375 53.609375 
Q 29.78125 56 35.6875 56 
Q 41.65625 56 45.828125 52.96875 
Q 50 49.953125 52 44.1875 
z
" id="DejaVuSans-109"/>
      <path d="M 56.203125 29.59375 
L 56.203125 25.203125 
L 14.890625 25.203125 
Q 15.484375 15.921875 20.484375 11.0625 
Q 25.484375 6.203125 34.421875 6.203125 
Q 39.59375 6.203125 44.453125 7.46875 
Q 49.3125 8.734375 54.109375 11.28125 
L 54.109375 2.78125 
Q 49.265625 0.734375 44.1875 -0.34375 
Q 39.109375 -1.421875 33.890625 -1.421875 
Q 20.796875 -1.421875 13.15625 6.1875 
Q 5.515625 13.8125 5.515625 26.8125 
Q 5.515625 40.234375 12.765625 48.109375 
Q 20.015625 56 32.328125 56 
Q 43.359375 56 49.78125 48.890625 
Q 56.203125 41.796875 56.203125 29.59375 
z
M 47.21875 32.234375 
Q 47.125 39.59375 43.09375 43.984375 
Q 39.0625 48.390625 32.421875 48.390625 
Q 24.90625 48.390625 20.390625 44.140625 
Q 15.875 39.890625 15.1875 32.171875 
z
" id="DejaVuSans-101"/>
     </defs>
     <g style="fill:#262626;" transform="translate(201.457656 335.860562)scale(0.1 -0.1)">
      <use xlink:href="#DejaVuSans-76"/>
      <use x="55.697266" xlink:href="#DejaVuSans-111"/>
      <use x="116.878906" xlink:href="#DejaVuSans-97"/>
      <use x="178.158203" xlink:href="#DejaVuSans-100"/>
      <use x="241.634766" xlink:href="#DejaVuSans-105"/>
      <use x="269.417969" xlink:href="#DejaVuSans-110"/>
      <use x="332.796875" xlink:href="#DejaVuSans-103"/>
      <use x="396.273438" xlink:href="#DejaVuSans-95"/>
      <use x="446.273438" xlink:href="#DejaVuSans-84"/>
      <use x="507.310547" xlink:href="#DejaVuSans-105"/>
      <use x="535.09375" xlink:href="#DejaVuSans-109"/>
      <use x="632.505859" xlink:href="#DejaVuSans-101"/>
     </g>
    </g>
   </g>
   <g id="matplotlib.axis_2">
    <g id="ytick_1">
     <g id="text_9">
      <!-- /48492 -->
      <defs>
       <path d="M 25.390625 72.90625 
L 33.6875 72.90625 
L 8.296875 -9.28125 
L 0 -9.28125 
z
" id="DejaVuSans-47"/>
       <path d="M 10.984375 1.515625 
L 10.984375 10.5 
Q 14.703125 8.734375 18.5 7.8125 
Q 22.3125 6.890625 25.984375 6.890625 
Q 35.75 6.890625 40.890625 13.453125 
Q 46.046875 20.015625 46.78125 33.40625 
Q 43.953125 29.203125 39.59375 26.953125 
Q 35.25 24.703125 29.984375 24.703125 
Q 19.046875 24.703125 12.671875 31.3125 
Q 6.296875 37.9375 6.296875 49.421875 
Q 6.296875 60.640625 12.9375 67.421875 
Q 19.578125 74.21875 30.609375 74.21875 
Q 43.265625 74.21875 49.921875 64.515625 
Q 56.59375 54.828125 56.59375 36.375 
Q 56.59375 19.140625 48.40625 8.859375 
Q 40.234375 -1.421875 26.421875 -1.421875 
Q 22.703125 -1.421875 18.890625 -0.6875 
Q 15.09375 0.046875 10.984375 1.515625 
z
M 30.609375 32.421875 
Q 37.25 32.421875 41.125 36.953125 
Q 45.015625 41.5 45.015625 49.421875 
Q 45.015625 57.28125 41.125 61.84375 
Q 37.25 66.40625 30.609375 66.40625 
Q 23.96875 66.40625 20.09375 61.84375 
Q 16.21875 57.28125 16.21875 49.421875 
Q 16.21875 41.5 20.09375 36.953125 
Q 23.96875 32.421875 30.609375 32.421875 
z
" id="DejaVuSans-57"/>
      </defs>
      <g style="fill:#262626;" transform="translate(15.41875 71.882419)scale(0.1 -0.1)">
       <use xlink:href="#DejaVuSans-47"/>
       <use x="33.691406" xlink:href="#DejaVuSans-52"/>
       <use x="97.314453" xlink:href="#DejaVuSans-56"/>
       <use x="160.9375" xlink:href="#DejaVuSans-52"/>
       <use x="224.560547" xlink:href="#DejaVuSans-57"/>
       <use x="288.183594" xlink:href="#DejaVuSans-50"/>
      </g>
     </g>
    </g>
    <g id="ytick_2">
     <g id="text_10">
      <!-- /24706 -->
      <defs>
       <path d="M 8.203125 72.90625 
L 55.078125 72.90625 
L 55.078125 68.703125 
L 28.609375 0 
L 18.3125 0 
L 43.21875 64.59375 
L 8.203125 64.59375 
z
" id="DejaVuSans-55"/>
      </defs>
      <g style="fill:#262626;" transform="translate(15.41875 125.104819)scale(0.1 -0.1)">
       <use xlink:href="#DejaVuSans-47"/>
       <use x="33.691406" xlink:href="#DejaVuSans-50"/>
       <use x="97.314453" xlink:href="#DejaVuSans-52"/>
       <use x="160.9375" xlink:href="#DejaVuSans-55"/>
       <use x="224.560547" xlink:href="#DejaVuSans-48"/>
       <use x="288.183594" xlink:href="#DejaVuSans-54"/>
      </g>
     </g>
    </g>
    <g id="ytick_3">
     <g id="text_11">
      <!-- /1617 -->
      <g style="fill:#262626;" transform="translate(21.78125 178.327219)scale(0.1 -0.1)">
       <use xlink:href="#DejaVuSans-47"/>
       <use x="33.691406" xlink:href="#DejaVuSans-49"/>
       <use x="97.314453" xlink:href="#DejaVuSans-54"/>
       <use x="160.9375" xlink:href="#DejaVuSans-49"/>
       <use x="224.560547" xlink:href="#DejaVuSans-55"/>
      </g>
     </g>
    </g>
    <g id="ytick_4">
     <g id="text_12">
      <!-- /19882 -->
      <g style="fill:#262626;" transform="translate(15.41875 231.549619)scale(0.1 -0.1)">
       <use xlink:href="#DejaVuSans-47"/>
       <use x="33.691406" xlink:href="#DejaVuSans-49"/>
       <use x="97.314453" xlink:href="#DejaVuSans-57"/>
       <use x="160.9375" xlink:href="#DejaVuSans-56"/>
       <use x="224.560547" xlink:href="#DejaVuSans-56"/>
       <use x="288.183594" xlink:href="#DejaVuSans-50"/>
      </g>
     </g>
    </g>
    <g id="ytick_5">
     <g id="text_13">
      <!-- /18922 -->
      <g style="fill:#262626;" transform="translate(15.41875 284.772019)scale(0.1 -0.1)">
       <use xlink:href="#DejaVuSans-47"/>
       <use x="33.691406" xlink:href="#DejaVuSans-49"/>
       <use x="97.314453" xlink:href="#DejaVuSans-56"/>
       <use x="160.9375" xlink:href="#DejaVuSans-57"/>
       <use x="224.560547" xlink:href="#DejaVuSans-50"/>
       <use x="288.183594" xlink:href="#DejaVuSans-50"/>
      </g>
     </g>
    </g>
    <g id="text_14">
     <!-- URL -->
     <defs>
      <path d="M 8.6875 72.90625 
L 18.609375 72.90625 
L 18.609375 28.609375 
Q 18.609375 16.890625 22.84375 11.734375 
Q 27.09375 6.59375 36.625 6.59375 
Q 46.09375 6.59375 50.34375 11.734375 
Q 54.59375 16.890625 54.59375 28.609375 
L 54.59375 72.90625 
L 64.5 72.90625 
L 64.5 27.390625 
Q 64.5 13.140625 57.4375 5.859375 
Q 50.390625 -1.421875 36.625 -1.421875 
Q 22.796875 -1.421875 15.734375 5.859375 
Q 8.6875 13.140625 8.6875 27.390625 
z
" id="DejaVuSans-85"/>
      <path d="M 44.390625 34.1875 
Q 47.5625 33.109375 50.5625 29.59375 
Q 53.5625 26.078125 56.59375 19.921875 
L 66.609375 0 
L 56 0 
L 46.6875 18.703125 
Q 43.0625 26.03125 39.671875 28.421875 
Q 36.28125 30.8125 30.421875 30.8125 
L 19.671875 30.8125 
L 19.671875 0 
L 9.8125 0 
L 9.8125 72.90625 
L 32.078125 72.90625 
Q 44.578125 72.90625 50.734375 67.671875 
Q 56.890625 62.453125 56.890625 51.90625 
Q 56.890625 45.015625 53.6875 40.46875 
Q 50.484375 35.9375 44.390625 34.1875 
z
M 19.671875 64.796875 
L 19.671875 38.921875 
L 32.078125 38.921875 
Q 39.203125 38.921875 42.84375 42.21875 
Q 46.484375 45.515625 46.484375 51.90625 
Q 46.484375 58.296875 42.84375 61.546875 
Q 39.203125 64.796875 32.078125 64.796875 
z
" id="DejaVuSans-82"/>
     </defs>
     <g style="fill:#262626;" transform="translate(9.339063 184.447531)rotate(-90)scale(0.1 -0.1)">
      <use xlink:href="#DejaVuSans-85"/>
      <use x="73.193359" xlink:href="#DejaVuSans-82"/>
      <use x="142.675781" xlink:href="#DejaVuSans-76"/>
     </g>
    </g>
   </g>
   <g id="PolyCollection_1">
    <defs>
     <path d="M 77.464031 -277.5168 
L 77.464031 -293.000814 
L 78.424927 -293.892489 
L 79.385822 -294.737044 
L 80.346718 -295.523786 
L 81.307614 -296.242799 
L 82.26851 -296.885191 
L 83.229405 -297.443305 
L 84.190301 -297.910885 
L 85.151197 -298.28321 
L 86.112092 -298.557171 
L 87.072988 -298.7313 
L 88.033884 -298.80576 
L 88.994779 -298.782273 
L 89.955675 -298.664024 
L 90.916571 -298.455519 
L 91.877467 -298.162424 
L 92.838362 -297.791374 
L 93.799258 -297.349785 
L 94.760154 -296.845646 
L 95.721049 -296.287322 
L 96.681945 -295.683367 
L 97.642841 -295.042345 
L 98.603736 -294.372671 
L 99.564632 -293.68247 
L 100.525528 -292.979461 
L 101.486424 -292.270856 
L 102.447319 -291.56329 
L 103.408215 -290.862762 
L 104.369111 -290.174602 
L 105.330006 -289.503456 
L 106.290902 -288.85328 
L 107.251798 -288.227362 
L 108.212693 -287.628341 
L 109.173589 -287.05825 
L 110.134485 -286.518555 
L 111.09538 -286.010214 
L 112.056276 -285.53373 
L 113.017172 -285.089209 
L 113.978068 -284.676424 
L 114.938963 -284.294867 
L 115.899859 -283.943809 
L 116.860755 -283.622347 
L 117.82165 -283.329445 
L 118.782546 -283.063975 
L 119.743442 -282.824737 
L 120.704337 -282.610484 
L 121.665233 -282.41993 
L 122.626129 -282.251755 
L 123.587025 -282.104601 
L 124.54792 -281.977071 
L 125.508816 -281.867716 
L 126.469712 -281.775029 
L 127.430607 -281.697439 
L 128.391503 -281.633311 
L 129.352399 -281.580943 
L 130.313294 -281.538581 
L 131.27419 -281.504432 
L 132.235086 -281.47669 
L 133.195982 -281.45356 
L 134.156877 -281.433297 
L 135.117773 -281.414242 
L 136.078669 -281.394857 
L 137.039564 -281.373768 
L 138.00046 -281.349794 
L 138.961356 -281.321978 
L 139.922251 -281.289604 
L 140.883147 -281.252214 
L 141.844043 -281.209602 
L 142.804939 -281.161811 
L 143.765834 -281.109106 
L 144.72673 -281.051954 
L 145.687626 -280.990976 
L 146.648521 -280.926913 
L 147.609417 -280.860572 
L 148.570313 -280.792783 
L 149.531208 -280.72435 
L 150.492104 -280.656008 
L 151.453 -280.588387 
L 152.413895 -280.521981 
L 153.374791 -280.457131 
L 154.335687 -280.394011 
L 155.296583 -280.332628 
L 156.257478 -280.272832 
L 157.218374 -280.214328 
L 158.17927 -280.156705 
L 159.140165 -280.099459 
L 160.101061 -280.042026 
L 161.061957 -279.983819 
L 162.022852 -279.924255 
L 162.983748 -279.862788 
L 163.944644 -279.798936 
L 164.90554 -279.732303 
L 165.866435 -279.662599 
L 166.827331 -279.589646 
L 167.788227 -279.513389 
L 168.749122 -279.433896 
L 169.710018 -279.35135 
L 170.670914 -279.266045 
L 171.631809 -279.178373 
L 172.592705 -279.088808 
L 172.592705 -277.5168 
L 172.592705 -277.5168 
L 171.631809 -277.5168 
L 170.670914 -277.5168 
L 169.710018 -277.5168 
L 168.749122 -277.5168 
L 167.788227 -277.5168 
L 166.827331 -277.5168 
L 165.866435 -277.5168 
L 164.90554 -277.5168 
L 163.944644 -277.5168 
L 162.983748 -277.5168 
L 162.022852 -277.5168 
L 161.061957 -277.5168 
L 160.101061 -277.5168 
L 159.140165 -277.5168 
L 158.17927 -277.5168 
L 157.218374 -277.5168 
L 156.257478 -277.5168 
L 155.296583 -277.5168 
L 154.335687 -277.5168 
L 153.374791 -277.5168 
L 152.413895 -277.5168 
L 151.453 -277.5168 
L 150.492104 -277.5168 
L 149.531208 -277.5168 
L 148.570313 -277.5168 
L 147.609417 -277.5168 
L 146.648521 -277.5168 
L 145.687626 -277.5168 
L 144.72673 -277.5168 
L 143.765834 -277.5168 
L 142.804939 -277.5168 
L 141.844043 -277.5168 
L 140.883147 -277.5168 
L 139.922251 -277.5168 
L 138.961356 -277.5168 
L 138.00046 -277.5168 
L 137.039564 -277.5168 
L 136.078669 -277.5168 
L 135.117773 -277.5168 
L 134.156877 -277.5168 
L 133.195982 -277.5168 
L 132.235086 -277.5168 
L 131.27419 -277.5168 
L 130.313294 -277.5168 
L 129.352399 -277.5168 
L 128.391503 -277.5168 
L 127.430607 -277.5168 
L 126.469712 -277.5168 
L 125.508816 -277.5168 
L 124.54792 -277.5168 
L 123.587025 -277.5168 
L 122.626129 -277.5168 
L 121.665233 -277.5168 
L 120.704337 -277.5168 
L 119.743442 -277.5168 
L 118.782546 -277.5168 
L 117.82165 -277.5168 
L 116.860755 -277.5168 
L 115.899859 -277.5168 
L 114.938963 -277.5168 
L 113.978068 -277.5168 
L 113.017172 -277.5168 
L 112.056276 -277.5168 
L 111.09538 -277.5168 
L 110.134485 -277.5168 
L 109.173589 -277.5168 
L 108.212693 -277.5168 
L 107.251798 -277.5168 
L 106.290902 -277.5168 
L 105.330006 -277.5168 
L 104.369111 -277.5168 
L 103.408215 -277.5168 
L 102.447319 -277.5168 
L 101.486424 -277.5168 
L 100.525528 -277.5168 
L 99.564632 -277.5168 
L 98.603736 -277.5168 
L 97.642841 -277.5168 
L 96.681945 -277.5168 
L 95.721049 -277.5168 
L 94.760154 -277.5168 
L 93.799258 -277.5168 
L 92.838362 -277.5168 
L 91.877467 -277.5168 
L 90.916571 -277.5168 
L 89.955675 -277.5168 
L 88.994779 -277.5168 
L 88.033884 -277.5168 
L 87.072988 -277.5168 
L 86.112092 -277.5168 
L 85.151197 -277.5168 
L 84.190301 -277.5168 
L 83.229405 -277.5168 
L 82.26851 -277.5168 
L 81.307614 -277.5168 
L 80.346718 -277.5168 
L 79.385822 -277.5168 
L 78.424927 -277.5168 
L 77.464031 -277.5168 
z
" id="m2a150d34af"/>
    </defs>
    <g clip-path="url(#p1bcfb6d7c4)">
     <use style="fill:#3274a1;" x="0" xlink:href="#m2a150d34af" y="345.6"/>
    </g>
   </g>
   <g id="PolyCollection_2">
    <defs>
     <path d="M 101.670533 -275.967345 
L 101.670533 -277.5168 
L 103.504218 -277.5168 
L 105.337904 -277.5168 
L 107.171589 -277.5168 
L 109.005275 -277.5168 
L 110.838961 -277.5168 
L 112.672646 -277.5168 
L 114.506332 -277.5168 
L 116.340018 -277.5168 
L 118.173703 -277.5168 
L 120.007389 -277.5168 
L 121.841075 -277.5168 
L 123.67476 -277.5168 
L 125.508446 -277.5168 
L 127.342131 -277.5168 
L 129.175817 -277.5168 
L 131.009503 -277.5168 
L 132.843188 -277.5168 
L 134.676874 -277.5168 
L 136.51056 -277.5168 
L 138.344245 -277.5168 
L 140.177931 -277.5168 
L 142.011616 -277.5168 
L 143.845302 -277.5168 
L 145.678988 -277.5168 
L 147.512673 -277.5168 
L 149.346359 -277.5168 
L 151.180045 -277.5168 
L 153.01373 -277.5168 
L 154.847416 -277.5168 
L 156.681102 -277.5168 
L 158.514787 -277.5168 
L 160.348473 -277.5168 
L 162.182158 -277.5168 
L 164.015844 -277.5168 
L 165.84953 -277.5168 
L 167.683215 -277.5168 
L 169.516901 -277.5168 
L 171.350587 -277.5168 
L 173.184272 -277.5168 
L 175.017958 -277.5168 
L 176.851643 -277.5168 
L 178.685329 -277.5168 
L 180.519015 -277.5168 
L 182.3527 -277.5168 
L 184.186386 -277.5168 
L 186.020072 -277.5168 
L 187.853757 -277.5168 
L 189.687443 -277.5168 
L 191.521129 -277.5168 
L 193.354814 -277.5168 
L 195.1885 -277.5168 
L 197.022185 -277.5168 
L 198.855871 -277.5168 
L 200.689557 -277.5168 
L 202.523242 -277.5168 
L 204.356928 -277.5168 
L 206.190614 -277.5168 
L 208.024299 -277.5168 
L 209.857985 -277.5168 
L 211.691671 -277.5168 
L 213.525356 -277.5168 
L 215.359042 -277.5168 
L 217.192727 -277.5168 
L 219.026413 -277.5168 
L 220.860099 -277.5168 
L 222.693784 -277.5168 
L 224.52747 -277.5168 
L 226.361156 -277.5168 
L 228.194841 -277.5168 
L 230.028527 -277.5168 
L 231.862212 -277.5168 
L 233.695898 -277.5168 
L 235.529584 -277.5168 
L 237.363269 -277.5168 
L 239.196955 -277.5168 
L 241.030641 -277.5168 
L 242.864326 -277.5168 
L 244.698012 -277.5168 
L 246.531698 -277.5168 
L 248.365383 -277.5168 
L 250.199069 -277.5168 
L 252.032754 -277.5168 
L 253.86644 -277.5168 
L 255.700126 -277.5168 
L 257.533811 -277.5168 
L 259.367497 -277.5168 
L 261.201183 -277.5168 
L 263.034868 -277.5168 
L 264.868554 -277.5168 
L 266.702239 -277.5168 
L 268.535925 -277.5168 
L 270.369611 -277.5168 
L 272.203296 -277.5168 
L 274.036982 -277.5168 
L 275.870668 -277.5168 
L 277.704353 -277.5168 
L 279.538039 -277.5168 
L 281.371725 -277.5168 
L 283.20541 -277.5168 
L 283.20541 -276.886887 
L 283.20541 -276.886887 
L 281.371725 -276.862297 
L 279.538039 -276.841386 
L 277.704353 -276.824078 
L 275.870668 -276.810189 
L 274.036982 -276.799445 
L 272.203296 -276.791503 
L 270.369611 -276.785956 
L 268.535925 -276.782334 
L 266.702239 -276.780086 
L 264.868554 -276.77855 
L 263.034868 -276.776917 
L 261.201183 -276.774186 
L 259.367497 -276.769123 
L 257.533811 -276.760223 
L 255.700126 -276.745698 
L 253.86644 -276.723474 
L 252.032754 -276.691219 
L 250.199069 -276.646402 
L 248.365383 -276.586369 
L 246.531698 -276.508446 
L 244.698012 -276.41006 
L 242.864326 -276.288865 
L 241.030641 -276.142867 
L 239.196955 -275.970543 
L 237.363269 -275.770934 
L 235.529584 -275.543716 
L 233.695898 -275.289238 
L 231.862212 -275.008521 
L 230.028527 -274.703218 
L 228.194841 -274.375548 
L 226.361156 -274.028189 
L 224.52747 -273.664157 
L 222.693784 -273.286675 
L 220.860099 -272.899033 
L 219.026413 -272.504469 
L 217.192727 -272.106065 
L 215.359042 -271.706675 
L 213.525356 -271.308885 
L 211.691671 -270.915011 
L 209.857985 -270.527124 
L 208.024299 -270.147104 
L 206.190614 -269.776697 
L 204.356928 -269.41758 
L 202.523242 -269.071403 
L 200.689557 -268.739817 
L 198.855871 -268.424459 
L 197.022185 -268.126916 
L 195.1885 -267.848659 
L 193.354814 -267.590964 
L 191.521129 -267.354832 
L 189.687443 -267.140933 
L 187.853757 -266.949587 
L 186.020072 -266.780791 
L 184.186386 -266.634307 
L 182.3527 -266.509794 
L 180.519015 -266.406995 
L 178.685329 -266.325923 
L 176.851643 -266.267061 
L 175.017958 -266.231509 
L 173.184272 -266.221077 
L 171.350587 -266.238288 
L 169.516901 -266.286278 
L 167.683215 -266.36861 
L 165.84953 -266.488983 
L 164.015844 -266.650894 
L 162.182158 -266.857254 
L 160.348473 -267.11002 
L 158.514787 -267.409871 
L 156.681102 -267.755954 
L 154.847416 -268.14575 
L 153.01373 -268.575052 
L 151.180045 -269.038074 
L 149.346359 -269.527671 
L 147.512673 -270.035661 
L 145.678988 -270.553212 
L 143.845302 -271.071263 
L 142.011616 -271.580949 
L 140.177931 -272.073993 
L 138.344245 -272.543049 
L 136.51056 -272.981963 
L 134.676874 -273.385955 
L 132.843188 -273.751719 
L 131.009503 -274.077436 
L 129.175817 -274.362721 
L 127.342131 -274.608513 
L 125.508446 -274.816914 
L 123.67476 -274.991009 
L 121.841075 -275.134654 
L 120.007389 -275.252268 
L 118.173703 -275.348609 
L 116.340018 -275.428569 
L 114.506332 -275.49697 
L 112.672646 -275.558376 
L 110.838961 -275.61693 
L 109.005275 -275.67621 
L 107.171589 -275.739121 
L 105.337904 -275.807824 
L 103.504218 -275.883697 
L 101.670533 -275.967345 
z
" id="mb3f246e384"/>
    </defs>
    <g clip-path="url(#p1bcfb6d7c4)">
     <use style="fill:#e1812c;" x="0" xlink:href="#mb3f246e384" y="345.6"/>
    </g>
   </g>
   <g id="PolyCollection_3">
    <defs>
     <path d="M 73.832727 -224.2944 
L 73.832727 -242.625121 
L 75.622661 -243.496307 
L 77.412596 -244.232681 
L 79.20253 -244.818698 
L 80.992464 -245.242914 
L 82.782398 -245.498468 
L 84.572332 -245.58336 
L 86.362266 -245.500494 
L 88.152201 -245.257484 
L 89.942135 -244.866243 
L 91.732069 -244.342373 
L 93.522003 -243.704405 
L 95.311937 -242.972924 
L 97.101871 -242.169635 
L 98.891805 -241.316435 
L 100.68174 -240.434523 
L 102.471674 -239.54361 
L 104.261608 -238.661253 
L 106.051542 -237.802355 
L 107.841476 -236.978831 
L 109.63141 -236.199463 
L 111.421345 -235.469915 
L 113.211279 -234.792917 
L 115.001213 -234.168566 
L 116.791147 -233.594743 
L 118.581081 -233.067594 
L 120.371015 -232.582037 
L 122.160949 -232.132284 
L 123.950884 -231.712321 
L 125.740818 -231.31634 
L 127.530752 -230.939095 
L 129.320686 -230.576167 
L 131.11062 -230.224139 
L 132.900554 -229.880674 
L 134.690489 -229.544511 
L 136.480423 -229.215382 
L 138.270357 -228.893866 
L 140.060291 -228.581208 
L 141.850225 -228.279101 
L 143.640159 -227.989477 
L 145.430094 -227.714292 
L 147.220028 -227.455342 
L 149.009962 -227.214108 
L 150.799896 -226.991644 
L 152.58983 -226.788504 
L 154.379764 -226.604716 
L 156.169698 -226.439784 
L 157.959633 -226.29274 
L 159.749567 -226.162208 
L 161.539501 -226.046495 
L 163.329435 -225.943688 
L 165.119369 -225.851761 
L 166.909303 -225.768669 
L 168.699238 -225.692445 
L 170.489172 -225.621272 
L 172.279106 -225.553545 
L 174.06904 -225.487919 
L 175.858974 -225.423336 
L 177.648908 -225.35903 
L 179.438842 -225.294529 
L 181.228777 -225.229632 
L 183.018711 -225.164384 
L 184.808645 -225.099039 
L 186.598579 -225.034019 
L 188.388513 -224.969875 
L 190.178447 -224.90724 
L 191.968382 -224.846797 
L 193.758316 -224.789241 
L 195.54825 -224.735252 
L 197.338184 -224.685476 
L 199.128118 -224.640507 
L 200.918052 -224.600884 
L 202.707986 -224.567083 
L 204.497921 -224.539526 
L 206.287855 -224.51858 
L 208.077789 -224.50456 
L 209.867723 -224.497742 
L 211.657657 -224.498351 
L 213.447591 -224.506568 
L 215.237526 -224.522516 
L 217.02746 -224.546245 
L 218.817394 -224.577716 
L 220.607328 -224.616774 
L 222.397262 -224.663126 
L 224.187196 -224.716313 
L 225.977131 -224.775689 
L 227.767065 -224.840402 
L 229.556999 -224.909388 
L 231.346933 -224.981371 
L 233.136867 -225.054884 
L 234.926801 -225.128291 
L 236.716735 -225.199835 
L 238.50667 -225.267694 
L 240.296604 -225.330041 
L 242.086538 -225.385124 
L 243.876472 -225.431335 
L 245.666406 -225.467284 
L 247.45634 -225.491864 
L 249.246275 -225.504304 
L 251.036209 -225.504205 
L 251.036209 -224.2944 
L 251.036209 -224.2944 
L 249.246275 -224.2944 
L 247.45634 -224.2944 
L 245.666406 -224.2944 
L 243.876472 -224.2944 
L 242.086538 -224.2944 
L 240.296604 -224.2944 
L 238.50667 -224.2944 
L 236.716735 -224.2944 
L 234.926801 -224.2944 
L 233.136867 -224.2944 
L 231.346933 -224.2944 
L 229.556999 -224.2944 
L 227.767065 -224.2944 
L 225.977131 -224.2944 
L 224.187196 -224.2944 
L 222.397262 -224.2944 
L 220.607328 -224.2944 
L 218.817394 -224.2944 
L 217.02746 -224.2944 
L 215.237526 -224.2944 
L 213.447591 -224.2944 
L 211.657657 -224.2944 
L 209.867723 -224.2944 
L 208.077789 -224.2944 
L 206.287855 -224.2944 
L 204.497921 -224.2944 
L 202.707986 -224.2944 
L 200.918052 -224.2944 
L 199.128118 -224.2944 
L 197.338184 -224.2944 
L 195.54825 -224.2944 
L 193.758316 -224.2944 
L 191.968382 -224.2944 
L 190.178447 -224.2944 
L 188.388513 -224.2944 
L 186.598579 -224.2944 
L 184.808645 -224.2944 
L 183.018711 -224.2944 
L 181.228777 -224.2944 
L 179.438842 -224.2944 
L 177.648908 -224.2944 
L 175.858974 -224.2944 
L 174.06904 -224.2944 
L 172.279106 -224.2944 
L 170.489172 -224.2944 
L 168.699238 -224.2944 
L 166.909303 -224.2944 
L 165.119369 -224.2944 
L 163.329435 -224.2944 
L 161.539501 -224.2944 
L 159.749567 -224.2944 
L 157.959633 -224.2944 
L 156.169698 -224.2944 
L 154.379764 -224.2944 
L 152.58983 -224.2944 
L 150.799896 -224.2944 
L 149.009962 -224.2944 
L 147.220028 -224.2944 
L 145.430094 -224.2944 
L 143.640159 -224.2944 
L 141.850225 -224.2944 
L 140.060291 -224.2944 
L 138.270357 -224.2944 
L 136.480423 -224.2944 
L 134.690489 -224.2944 
L 132.900554 -224.2944 
L 131.11062 -224.2944 
L 129.320686 -224.2944 
L 127.530752 -224.2944 
L 125.740818 -224.2944 
L 123.950884 -224.2944 
L 122.160949 -224.2944 
L 120.371015 -224.2944 
L 118.581081 -224.2944 
L 116.791147 -224.2944 
L 115.001213 -224.2944 
L 113.211279 -224.2944 
L 111.421345 -224.2944 
L 109.63141 -224.2944 
L 107.841476 -224.2944 
L 106.051542 -224.2944 
L 104.261608 -224.2944 
L 102.471674 -224.2944 
L 100.68174 -224.2944 
L 98.891805 -224.2944 
L 97.101871 -224.2944 
L 95.311937 -224.2944 
L 93.522003 -224.2944 
L 91.732069 -224.2944 
L 89.942135 -224.2944 
L 88.152201 -224.2944 
L 86.362266 -224.2944 
L 84.572332 -224.2944 
L 82.782398 -224.2944 
L 80.992464 -224.2944 
L 79.20253 -224.2944 
L 77.412596 -224.2944 
L 75.622661 -224.2944 
L 73.832727 -224.2944 
z
" id="ma842a3e8c5"/>
    </defs>
    <g clip-path="url(#p1bcfb6d7c4)">
     <use style="fill:#3274a1;" x="0" xlink:href="#ma842a3e8c5" y="345.6"/>
    </g>
   </g>
   <g id="PolyCollection_4">
    <defs>
     <path d="M 92.781224 -219.582935 
L 92.781224 -224.2944 
L 95.057938 -224.2944 
L 97.334651 -224.2944 
L 99.611365 -224.2944 
L 101.888078 -224.2944 
L 104.164792 -224.2944 
L 106.441506 -224.2944 
L 108.718219 -224.2944 
L 110.994933 -224.2944 
L 113.271646 -224.2944 
L 115.54836 -224.2944 
L 117.825073 -224.2944 
L 120.101787 -224.2944 
L 122.378501 -224.2944 
L 124.655214 -224.2944 
L 126.931928 -224.2944 
L 129.208641 -224.2944 
L 131.485355 -224.2944 
L 133.762069 -224.2944 
L 136.038782 -224.2944 
L 138.315496 -224.2944 
L 140.592209 -224.2944 
L 142.868923 -224.2944 
L 145.145637 -224.2944 
L 147.42235 -224.2944 
L 149.699064 -224.2944 
L 151.975777 -224.2944 
L 154.252491 -224.2944 
L 156.529204 -224.2944 
L 158.805918 -224.2944 
L 161.082632 -224.2944 
L 163.359345 -224.2944 
L 165.636059 -224.2944 
L 167.912772 -224.2944 
L 170.189486 -224.2944 
L 172.4662 -224.2944 
L 174.742913 -224.2944 
L 177.019627 -224.2944 
L 179.29634 -224.2944 
L 181.573054 -224.2944 
L 183.849768 -224.2944 
L 186.126481 -224.2944 
L 188.403195 -224.2944 
L 190.679908 -224.2944 
L 192.956622 -224.2944 
L 195.233336 -224.2944 
L 197.510049 -224.2944 
L 199.786763 -224.2944 
L 202.063476 -224.2944 
L 204.34019 -224.2944 
L 206.616903 -224.2944 
L 208.893617 -224.2944 
L 211.170331 -224.2944 
L 213.447044 -224.2944 
L 215.723758 -224.2944 
L 218.000471 -224.2944 
L 220.277185 -224.2944 
L 222.553899 -224.2944 
L 224.830612 -224.2944 
L 227.107326 -224.2944 
L 229.384039 -224.2944 
L 231.660753 -224.2944 
L 233.937467 -224.2944 
L 236.21418 -224.2944 
L 238.490894 -224.2944 
L 240.767607 -224.2944 
L 243.044321 -224.2944 
L 245.321034 -224.2944 
L 247.597748 -224.2944 
L 249.874462 -224.2944 
L 252.151175 -224.2944 
L 254.427889 -224.2944 
L 256.704602 -224.2944 
L 258.981316 -224.2944 
L 261.25803 -224.2944 
L 263.534743 -224.2944 
L 265.811457 -224.2944 
L 268.08817 -224.2944 
L 270.364884 -224.2944 
L 272.641598 -224.2944 
L 274.918311 -224.2944 
L 277.195025 -224.2944 
L 279.471738 -224.2944 
L 281.748452 -224.2944 
L 284.025166 -224.2944 
L 286.301879 -224.2944 
L 288.578593 -224.2944 
L 290.855306 -224.2944 
L 293.13202 -224.2944 
L 295.408733 -224.2944 
L 297.685447 -224.2944 
L 299.962161 -224.2944 
L 302.238874 -224.2944 
L 304.515588 -224.2944 
L 306.792301 -224.2944 
L 309.069015 -224.2944 
L 311.345729 -224.2944 
L 313.622442 -224.2944 
L 315.899156 -224.2944 
L 318.175869 -224.2944 
L 318.175869 -223.583383 
L 318.175869 -223.583383 
L 315.899156 -223.554707 
L 313.622442 -223.529606 
L 311.345729 -223.508218 
L 309.069015 -223.490562 
L 306.792301 -223.476529 
L 304.515588 -223.465881 
L 302.238874 -223.458247 
L 299.962161 -223.453125 
L 297.685447 -223.449884 
L 295.408733 -223.44777 
L 293.13202 -223.445922 
L 290.855306 -223.443387 
L 288.578593 -223.439142 
L 286.301879 -223.432125 
L 284.025166 -223.421271 
L 281.748452 -223.405551 
L 279.471738 -223.384012 
L 277.195025 -223.355824 
L 274.918311 -223.320317 
L 272.641598 -223.277012 
L 270.364884 -223.225645 
L 268.08817 -223.166177 
L 265.811457 -223.098784 
L 263.534743 -223.023834 
L 261.25803 -222.941846 
L 258.981316 -222.853432 
L 256.704602 -222.759223 
L 254.427889 -222.659791 
L 252.151175 -222.555568 
L 249.874462 -222.44676 
L 247.597748 -222.33328 
L 245.321034 -222.214691 
L 243.044321 -222.090171 
L 240.767607 -221.958504 
L 238.490894 -221.818101 
L 236.21418 -221.667044 
L 233.937467 -221.503166 
L 231.660753 -221.324148 
L 229.384039 -221.127638 
L 227.107326 -220.911389 
L 224.830612 -220.673391 
L 222.553899 -220.41201 
L 220.277185 -220.126117 
L 218.000471 -219.815197 
L 215.723758 -219.479433 
L 213.447044 -219.119768 
L 211.170331 -218.737929 
L 208.893617 -218.336424 
L 206.616903 -217.918501 
L 204.34019 -217.488081 
L 202.063476 -217.049662 
L 199.786763 -216.608204 
L 197.510049 -216.168993 
L 195.233336 -215.737503 
L 192.956622 -215.31925 
L 190.679908 -214.919647 
L 188.403195 -214.543875 
L 186.126481 -214.196753 
L 183.849768 -213.882635 
L 181.573054 -213.605315 
L 179.29634 -213.367954 
L 177.019627 -213.173018 
L 174.742913 -213.022234 
L 172.4662 -212.916564 
L 170.189486 -212.85619 
L 167.912772 -212.840509 
L 165.636059 -212.868151 
L 163.359345 -212.937002 
L 161.082632 -213.044249 
L 158.805918 -213.186443 
L 156.529204 -213.359573 
L 154.252491 -213.559165 
L 151.975777 -213.780404 
L 149.699064 -214.018262 
L 147.42235 -214.267649 
L 145.145637 -214.523576 
L 142.868923 -214.781317 
L 140.592209 -215.036569 
L 138.315496 -215.285613 
L 136.038782 -215.525443 
L 133.762069 -215.753883 
L 131.485355 -215.969658 
L 129.208641 -216.172443 
L 126.931928 -216.362852 
L 124.655214 -216.542396 
L 122.378501 -216.713385 
L 120.101787 -216.8788 
L 117.825073 -217.042118 
L 115.54836 -217.207114 
L 113.271646 -217.377648 
L 110.994933 -217.557435 
L 108.718219 -217.749837 
L 106.441506 -217.957659 
L 104.164792 -218.182985 
L 101.888078 -218.427053 
L 99.611365 -218.690174 
L 97.334651 -218.97171 
L 95.057938 -219.270098 
L 92.781224 -219.582935 
z
" id="m6d89531af1"/>
    </defs>
    <g clip-path="url(#p1bcfb6d7c4)">
     <use style="fill:#e1812c;" x="0" xlink:href="#m6d89531af1" y="345.6"/>
    </g>
   </g>
   <g id="PolyCollection_5">
    <defs>
     <path d="M 81.550972 -171.072 
L 81.550972 -187.583126 
L 82.693978 -188.621378 
L 83.836983 -189.561185 
L 84.979989 -190.384656 
L 86.122994 -191.076867 
L 87.266 -191.626346 
L 88.409005 -192.025396 
L 89.552011 -192.270235 
L 90.695016 -192.36096 
L 91.838022 -192.301353 
L 92.981028 -192.098551 
L 94.124033 -191.762612 
L 95.267039 -191.306004 
L 96.410044 -190.743056 
L 97.55305 -190.089392 
L 98.696055 -189.361379 
L 99.839061 -188.575597 
L 100.982066 -187.748362 
L 102.125072 -186.895297 
L 103.268077 -186.030961 
L 104.411083 -185.168555 
L 105.554089 -184.319682 
L 106.697094 -183.494194 
L 107.8401 -182.700106 
L 108.983105 -181.943579 
L 110.126111 -181.228988 
L 111.269116 -180.559045 
L 112.412122 -179.934983 
L 113.555127 -179.356792 
L 114.698133 -178.823474 
L 115.841138 -178.333324 
L 116.984144 -177.884185 
L 118.127149 -177.473701 
L 119.270155 -177.099504 
L 120.413161 -176.759368 
L 121.556166 -176.451287 
L 122.699172 -176.173506 
L 123.842177 -175.924481 
L 124.985183 -175.702811 
L 126.128188 -175.507134 
L 127.271194 -175.336004 
L 128.414199 -175.187788 
L 129.557205 -175.060576 
L 130.70021 -174.952121 
L 131.843216 -174.859834 
L 132.986221 -174.780804 
L 134.129227 -174.711876 
L 135.272233 -174.649751 
L 136.415238 -174.59111 
L 137.558244 -174.532749 
L 138.701249 -174.471715 
L 139.844255 -174.405416 
L 140.98726 -174.331719 
L 142.130266 -174.249009 
L 143.273271 -174.156226 
L 144.416277 -174.052856 
L 145.559282 -173.938911 
L 146.702288 -173.814875 
L 147.845293 -173.681638 
L 148.988299 -173.540419 
L 150.131305 -173.392695 
L 151.27431 -173.240115 
L 152.417316 -173.084437 
L 153.560321 -172.927458 
L 154.703327 -172.770964 
L 155.846332 -172.61668 
L 156.989338 -172.466228 
L 158.132343 -172.321102 
L 159.275349 -172.182636 
L 160.418354 -172.05199 
L 161.56136 -171.930132 
L 162.704365 -171.817839 
L 163.847371 -171.715693 
L 164.990377 -171.624087 
L 166.133382 -171.543241 
L 167.276388 -171.473222 
L 168.419393 -171.413957 
L 169.562399 -171.365267 
L 170.705404 -171.326881 
L 171.84841 -171.298463 
L 172.991415 -171.279622 
L 174.134421 -171.269928 
L 175.277426 -171.268908 
L 176.420432 -171.276045 
L 177.563437 -171.290766 
L 178.706443 -171.312427 
L 179.849449 -171.340292 
L 180.992454 -171.37352 
L 182.13546 -171.411151 
L 183.278465 -171.452096 
L 184.421471 -171.495149 
L 185.564476 -171.538995 
L 186.707482 -171.582245 
L 187.850487 -171.623475 
L 188.993493 -171.661275 
L 190.136498 -171.694308 
L 191.279504 -171.721372 
L 192.422509 -171.741456 
L 193.565515 -171.753794 
L 194.708521 -171.757902 
L 194.708521 -171.072 
L 194.708521 -171.072 
L 193.565515 -171.072 
L 192.422509 -171.072 
L 191.279504 -171.072 
L 190.136498 -171.072 
L 188.993493 -171.072 
L 187.850487 -171.072 
L 186.707482 -171.072 
L 185.564476 -171.072 
L 184.421471 -171.072 
L 183.278465 -171.072 
L 182.13546 -171.072 
L 180.992454 -171.072 
L 179.849449 -171.072 
L 178.706443 -171.072 
L 177.563437 -171.072 
L 176.420432 -171.072 
L 175.277426 -171.072 
L 174.134421 -171.072 
L 172.991415 -171.072 
L 171.84841 -171.072 
L 170.705404 -171.072 
L 169.562399 -171.072 
L 168.419393 -171.072 
L 167.276388 -171.072 
L 166.133382 -171.072 
L 164.990377 -171.072 
L 163.847371 -171.072 
L 162.704365 -171.072 
L 161.56136 -171.072 
L 160.418354 -171.072 
L 159.275349 -171.072 
L 158.132343 -171.072 
L 156.989338 -171.072 
L 155.846332 -171.072 
L 154.703327 -171.072 
L 153.560321 -171.072 
L 152.417316 -171.072 
L 151.27431 -171.072 
L 150.131305 -171.072 
L 148.988299 -171.072 
L 147.845293 -171.072 
L 146.702288 -171.072 
L 145.559282 -171.072 
L 144.416277 -171.072 
L 143.273271 -171.072 
L 142.130266 -171.072 
L 140.98726 -171.072 
L 139.844255 -171.072 
L 138.701249 -171.072 
L 137.558244 -171.072 
L 136.415238 -171.072 
L 135.272233 -171.072 
L 134.129227 -171.072 
L 132.986221 -171.072 
L 131.843216 -171.072 
L 130.70021 -171.072 
L 129.557205 -171.072 
L 128.414199 -171.072 
L 127.271194 -171.072 
L 126.128188 -171.072 
L 124.985183 -171.072 
L 123.842177 -171.072 
L 122.699172 -171.072 
L 121.556166 -171.072 
L 120.413161 -171.072 
L 119.270155 -171.072 
L 118.127149 -171.072 
L 116.984144 -171.072 
L 115.841138 -171.072 
L 114.698133 -171.072 
L 113.555127 -171.072 
L 112.412122 -171.072 
L 111.269116 -171.072 
L 110.126111 -171.072 
L 108.983105 -171.072 
L 107.8401 -171.072 
L 106.697094 -171.072 
L 105.554089 -171.072 
L 104.411083 -171.072 
L 103.268077 -171.072 
L 102.125072 -171.072 
L 100.982066 -171.072 
L 99.839061 -171.072 
L 98.696055 -171.072 
L 97.55305 -171.072 
L 96.410044 -171.072 
L 95.267039 -171.072 
L 94.124033 -171.072 
L 92.981028 -171.072 
L 91.838022 -171.072 
L 90.695016 -171.072 
L 89.552011 -171.072 
L 88.409005 -171.072 
L 87.266 -171.072 
L 86.122994 -171.072 
L 84.979989 -171.072 
L 83.836983 -171.072 
L 82.693978 -171.072 
L 81.550972 -171.072 
z
" id="ma78c562415"/>
    </defs>
    <g clip-path="url(#p1bcfb6d7c4)">
     <use style="fill:#3274a1;" x="0" xlink:href="#ma78c562415" y="345.6"/>
    </g>
   </g>
   <g id="PolyCollection_6">
    <defs>
     <path d="M 96.730515 -168.533383 
L 96.730515 -171.072 
L 99.778563 -171.072 
L 102.826611 -171.072 
L 105.874659 -171.072 
L 108.922707 -171.072 
L 111.970755 -171.072 
L 115.018803 -171.072 
L 118.066851 -171.072 
L 121.114899 -171.072 
L 124.162947 -171.072 
L 127.210995 -171.072 
L 130.259043 -171.072 
L 133.307092 -171.072 
L 136.35514 -171.072 
L 139.403188 -171.072 
L 142.451236 -171.072 
L 145.499284 -171.072 
L 148.547332 -171.072 
L 151.59538 -171.072 
L 154.643428 -171.072 
L 157.691476 -171.072 
L 160.739524 -171.072 
L 163.787572 -171.072 
L 166.83562 -171.072 
L 169.883668 -171.072 
L 172.931716 -171.072 
L 175.979764 -171.072 
L 179.027812 -171.072 
L 182.07586 -171.072 
L 185.123909 -171.072 
L 188.171957 -171.072 
L 191.220005 -171.072 
L 194.268053 -171.072 
L 197.316101 -171.072 
L 200.364149 -171.072 
L 203.412197 -171.072 
L 206.460245 -171.072 
L 209.508293 -171.072 
L 212.556341 -171.072 
L 215.604389 -171.072 
L 218.652437 -171.072 
L 221.700485 -171.072 
L 224.748533 -171.072 
L 227.796581 -171.072 
L 230.844629 -171.072 
L 233.892677 -171.072 
L 236.940726 -171.072 
L 239.988774 -171.072 
L 243.036822 -171.072 
L 246.08487 -171.072 
L 249.132918 -171.072 
L 252.180966 -171.072 
L 255.229014 -171.072 
L 258.277062 -171.072 
L 261.32511 -171.072 
L 264.373158 -171.072 
L 267.421206 -171.072 
L 270.469254 -171.072 
L 273.517302 -171.072 
L 276.56535 -171.072 
L 279.613398 -171.072 
L 282.661446 -171.072 
L 285.709495 -171.072 
L 288.757543 -171.072 
L 291.805591 -171.072 
L 294.853639 -171.072 
L 297.901687 -171.072 
L 300.949735 -171.072 
L 303.997783 -171.072 
L 307.045831 -171.072 
L 310.093879 -171.072 
L 313.141927 -171.072 
L 316.189975 -171.072 
L 319.238023 -171.072 
L 322.286071 -171.072 
L 325.334119 -171.072 
L 328.382167 -171.072 
L 331.430215 -171.072 
L 334.478263 -171.072 
L 337.526312 -171.072 
L 340.57436 -171.072 
L 343.622408 -171.072 
L 346.670456 -171.072 
L 349.718504 -171.072 
L 352.766552 -171.072 
L 355.8146 -171.072 
L 358.862648 -171.072 
L 361.910696 -171.072 
L 364.958744 -171.072 
L 368.006792 -171.072 
L 371.05484 -171.072 
L 374.102888 -171.072 
L 377.150936 -171.072 
L 380.198984 -171.072 
L 383.247032 -171.072 
L 386.29508 -171.072 
L 389.343129 -171.072 
L 392.391177 -171.072 
L 395.439225 -171.072 
L 398.487273 -171.072 
L 398.487273 -170.767898 
L 398.487273 -170.767898 
L 395.439225 -170.770514 
L 392.391177 -170.778225 
L 389.343129 -170.790641 
L 386.29508 -170.807147 
L 383.247032 -170.826953 
L 380.198984 -170.849161 
L 377.150936 -170.872825 
L 374.102888 -170.897022 
L 371.05484 -170.920908 
L 368.006792 -170.94376 
L 364.958744 -170.965007 
L 361.910696 -170.98424 
L 358.862648 -171.00121 
L 355.8146 -171.015812 
L 352.766552 -171.028062 
L 349.718504 -171.038062 
L 346.670456 -171.045971 
L 343.622408 -171.051972 
L 340.57436 -171.056242 
L 337.526312 -171.058928 
L 334.478263 -171.060129 
L 331.430215 -171.059881 
L 328.382167 -171.058144 
L 325.334119 -171.054804 
L 322.286071 -171.049667 
L 319.238023 -171.042468 
L 316.189975 -171.032874 
L 313.141927 -171.020504 
L 310.093879 -171.004936 
L 307.045831 -170.985731 
L 303.997783 -170.962446 
L 300.949735 -170.934657 
L 297.901687 -170.901968 
L 294.853639 -170.864028 
L 291.805591 -170.820529 
L 288.757543 -170.77121 
L 285.709495 -170.715849 
L 282.661446 -170.654243 
L 279.613398 -170.586198 
L 276.56535 -170.511509 
L 273.517302 -170.429939 
L 270.469254 -170.341206 
L 267.421206 -170.244972 
L 264.373158 -170.140838 
L 261.32511 -170.028336 
L 258.277062 -169.906936 
L 255.229014 -169.776045 
L 252.180966 -169.635011 
L 249.132918 -169.483134 
L 246.08487 -169.319676 
L 243.036822 -169.143884 
L 239.988774 -168.955022 
L 236.940726 -168.752419 
L 233.892677 -168.535539 
L 230.844629 -168.304061 
L 227.796581 -168.05798 
L 224.748533 -167.797712 
L 221.700485 -167.524195 
L 218.652437 -167.238979 
L 215.604389 -166.944277 
L 212.556341 -166.642989 
L 209.508293 -166.338659 
L 206.460245 -166.035386 
L 203.412197 -165.737673 
L 200.364149 -165.450231 
L 197.316101 -165.177739 
L 194.268053 -164.924596 
L 191.220005 -164.694667 
L 188.171957 -164.49107 
L 185.123909 -164.315995 
L 182.07586 -164.170616 
L 179.027812 -164.055061 
L 175.979764 -163.968491 
L 172.931716 -163.909246 
L 169.883668 -163.87507 
L 166.83562 -163.863385 
L 163.787572 -163.871586 
L 160.739524 -163.897325 
L 157.691476 -163.938764 
L 154.643428 -163.994761 
L 151.59538 -164.064969 
L 148.547332 -164.149848 
L 145.499284 -164.250577 
L 142.451236 -164.36889 
L 139.403188 -164.506838 
L 136.35514 -164.666522 
L 133.307092 -164.849806 
L 130.259043 -165.058049 
L 127.210995 -165.291879 
L 124.162947 -165.551026 
L 121.114899 -165.834227 
L 118.066851 -166.139204 
L 115.018803 -166.462729 
L 111.970755 -166.800741 
L 108.922707 -167.148532 
L 105.874659 -167.500963 
L 102.826611 -167.85271 
L 99.778563 -168.198507 
L 96.730515 -168.533383 
z
" id="m4557013a3f"/>
    </defs>
    <g clip-path="url(#p1bcfb6d7c4)">
     <use style="fill:#e1812c;" x="0" xlink:href="#m4557013a3f" y="345.6"/>
    </g>
   </g>
   <g id="PolyCollection_7">
    <defs>
     <path d="M 76.260997 -117.8496 
L 76.260997 -136.082431 
L 78.267704 -136.864395 
L 80.27441 -137.544005 
L 82.281117 -138.111072 
L 84.287824 -138.557841 
L 86.294531 -138.879179 
L 88.301237 -139.072663 
L 90.307944 -139.13856 
L 92.314651 -139.079699 
L 94.321357 -138.901266 
L 96.328064 -138.610508 
L 98.334771 -138.216397 
L 100.341477 -137.729242 
L 102.348184 -137.1603 
L 104.354891 -136.521381 
L 106.361597 -135.824479 
L 108.368304 -135.081445 
L 110.375011 -134.303697 
L 112.381718 -133.501997 
L 114.388424 -132.686276 
L 116.395131 -131.865523 
L 118.401838 -131.047724 
L 120.408544 -130.239849 
L 122.415251 -129.44788 
L 124.421958 -128.676868 
L 126.428664 -127.931014 
L 128.435371 -127.213758 
L 130.442078 -126.527875 
L 132.448785 -125.875573 
L 134.455491 -125.258574 
L 136.462198 -124.678188 
L 138.468905 -124.135375 
L 140.475611 -123.630779 
L 142.482318 -123.16476 
L 144.489025 -122.737404 
L 146.495731 -122.348518 
L 148.502438 -121.997621 
L 150.509145 -121.683928 
L 152.515851 -121.406332 
L 154.522558 -121.163384 
L 156.529265 -120.953293 
L 158.535972 -120.773918 
L 160.542678 -120.622785 
L 162.549385 -120.497115 
L 164.556092 -120.39387 
L 166.562798 -120.309807 
L 168.569505 -120.241551 
L 170.576212 -120.185682 
L 172.582918 -120.13882 
L 174.589625 -120.097723 
L 176.596332 -120.05938 
L 178.603039 -120.021092 
L 180.609745 -119.980556 
L 182.616452 -119.93592 
L 184.623159 -119.88583 
L 186.629865 -119.829451 
L 188.636572 -119.76647 
L 190.643279 -119.697076 
L 192.649985 -119.621919 
L 194.656692 -119.542058 
L 196.663399 -119.458883 
L 198.670106 -119.374039 
L 200.676812 -119.289334 
L 202.683519 -119.206652 
L 204.690226 -119.127864 
L 206.696932 -119.054744 
L 208.703639 -118.988903 
L 210.710346 -118.931722 
L 212.717052 -118.884307 
L 214.723759 -118.847458 
L 216.730466 -118.821646 
L 218.737172 -118.807013 
L 220.743879 -118.803378 
L 222.750586 -118.810255 
L 224.757293 -118.826884 
L 226.763999 -118.852269 
L 228.770706 -118.885218 
L 230.777413 -118.924386 
L 232.784119 -118.968326 
L 234.790826 -119.015532 
L 236.797533 -119.064486 
L 238.804239 -119.113694 
L 240.810946 -119.161727 
L 242.817653 -119.207246 
L 244.82436 -119.249034 
L 246.831066 -119.28601 
L 248.837773 -119.317245 
L 250.84448 -119.341971 
L 252.851186 -119.359582 
L 254.857893 -119.369636 
L 256.8646 -119.371849 
L 258.871306 -119.366091 
L 260.878013 -119.352376 
L 262.88472 -119.330852 
L 264.891427 -119.30179 
L 266.898133 -119.265574 
L 268.90484 -119.222692 
L 270.911547 -119.173718 
L 272.918253 -119.119304 
L 274.92496 -119.060167 
L 274.92496 -117.8496 
L 274.92496 -117.8496 
L 272.918253 -117.8496 
L 270.911547 -117.8496 
L 268.90484 -117.8496 
L 266.898133 -117.8496 
L 264.891427 -117.8496 
L 262.88472 -117.8496 
L 260.878013 -117.8496 
L 258.871306 -117.8496 
L 256.8646 -117.8496 
L 254.857893 -117.8496 
L 252.851186 -117.8496 
L 250.84448 -117.8496 
L 248.837773 -117.8496 
L 246.831066 -117.8496 
L 244.82436 -117.8496 
L 242.817653 -117.8496 
L 240.810946 -117.8496 
L 238.804239 -117.8496 
L 236.797533 -117.8496 
L 234.790826 -117.8496 
L 232.784119 -117.8496 
L 230.777413 -117.8496 
L 228.770706 -117.8496 
L 226.763999 -117.8496 
L 224.757293 -117.8496 
L 222.750586 -117.8496 
L 220.743879 -117.8496 
L 218.737172 -117.8496 
L 216.730466 -117.8496 
L 214.723759 -117.8496 
L 212.717052 -117.8496 
L 210.710346 -117.8496 
L 208.703639 -117.8496 
L 206.696932 -117.8496 
L 204.690226 -117.8496 
L 202.683519 -117.8496 
L 200.676812 -117.8496 
L 198.670106 -117.8496 
L 196.663399 -117.8496 
L 194.656692 -117.8496 
L 192.649985 -117.8496 
L 190.643279 -117.8496 
L 188.636572 -117.8496 
L 186.629865 -117.8496 
L 184.623159 -117.8496 
L 182.616452 -117.8496 
L 180.609745 -117.8496 
L 178.603039 -117.8496 
L 176.596332 -117.8496 
L 174.589625 -117.8496 
L 172.582918 -117.8496 
L 170.576212 -117.8496 
L 168.569505 -117.8496 
L 166.562798 -117.8496 
L 164.556092 -117.8496 
L 162.549385 -117.8496 
L 160.542678 -117.8496 
L 158.535972 -117.8496 
L 156.529265 -117.8496 
L 154.522558 -117.8496 
L 152.515851 -117.8496 
L 150.509145 -117.8496 
L 148.502438 -117.8496 
L 146.495731 -117.8496 
L 144.489025 -117.8496 
L 142.482318 -117.8496 
L 140.475611 -117.8496 
L 138.468905 -117.8496 
L 136.462198 -117.8496 
L 134.455491 -117.8496 
L 132.448785 -117.8496 
L 130.442078 -117.8496 
L 128.435371 -117.8496 
L 126.428664 -117.8496 
L 124.421958 -117.8496 
L 122.415251 -117.8496 
L 120.408544 -117.8496 
L 118.401838 -117.8496 
L 116.395131 -117.8496 
L 114.388424 -117.8496 
L 112.381718 -117.8496 
L 110.375011 -117.8496 
L 108.368304 -117.8496 
L 106.361597 -117.8496 
L 104.354891 -117.8496 
L 102.348184 -117.8496 
L 100.341477 -117.8496 
L 98.334771 -117.8496 
L 96.328064 -117.8496 
L 94.321357 -117.8496 
L 92.314651 -117.8496 
L 90.307944 -117.8496 
L 88.301237 -117.8496 
L 86.294531 -117.8496 
L 84.287824 -117.8496 
L 82.281117 -117.8496 
L 80.27441 -117.8496 
L 78.267704 -117.8496 
L 76.260997 -117.8496 
z
" id="m9a93a96296"/>
    </defs>
    <g clip-path="url(#p1bcfb6d7c4)">
     <use style="fill:#3274a1;" x="0" xlink:href="#m9a93a96296" y="345.6"/>
    </g>
   </g>
   <g id="PolyCollection_8">
    <defs>
     <path d="M 97.031865 -110.288445 
L 97.031865 -117.8496 
L 99.635899 -117.8496 
L 102.239932 -117.8496 
L 104.843965 -117.8496 
L 107.447999 -117.8496 
L 110.052032 -117.8496 
L 112.656066 -117.8496 
L 115.260099 -117.8496 
L 117.864132 -117.8496 
L 120.468166 -117.8496 
L 123.072199 -117.8496 
L 125.676232 -117.8496 
L 128.280266 -117.8496 
L 130.884299 -117.8496 
L 133.488332 -117.8496 
L 136.092366 -117.8496 
L 138.696399 -117.8496 
L 141.300433 -117.8496 
L 143.904466 -117.8496 
L 146.508499 -117.8496 
L 149.112533 -117.8496 
L 151.716566 -117.8496 
L 154.320599 -117.8496 
L 156.924633 -117.8496 
L 159.528666 -117.8496 
L 162.132699 -117.8496 
L 164.736733 -117.8496 
L 167.340766 -117.8496 
L 169.944799 -117.8496 
L 172.548833 -117.8496 
L 175.152866 -117.8496 
L 177.7569 -117.8496 
L 180.360933 -117.8496 
L 182.964966 -117.8496 
L 185.569 -117.8496 
L 188.173033 -117.8496 
L 190.777066 -117.8496 
L 193.3811 -117.8496 
L 195.985133 -117.8496 
L 198.589166 -117.8496 
L 201.1932 -117.8496 
L 203.797233 -117.8496 
L 206.401267 -117.8496 
L 209.0053 -117.8496 
L 211.609333 -117.8496 
L 214.213367 -117.8496 
L 216.8174 -117.8496 
L 219.421433 -117.8496 
L 222.025467 -117.8496 
L 224.6295 -117.8496 
L 227.233533 -117.8496 
L 229.837567 -117.8496 
L 232.4416 -117.8496 
L 235.045634 -117.8496 
L 237.649667 -117.8496 
L 240.2537 -117.8496 
L 242.857734 -117.8496 
L 245.461767 -117.8496 
L 248.0658 -117.8496 
L 250.669834 -117.8496 
L 253.273867 -117.8496 
L 255.8779 -117.8496 
L 258.481934 -117.8496 
L 261.085967 -117.8496 
L 263.690001 -117.8496 
L 266.294034 -117.8496 
L 268.898067 -117.8496 
L 271.502101 -117.8496 
L 274.106134 -117.8496 
L 276.710167 -117.8496 
L 279.314201 -117.8496 
L 281.918234 -117.8496 
L 284.522267 -117.8496 
L 287.126301 -117.8496 
L 289.730334 -117.8496 
L 292.334368 -117.8496 
L 294.938401 -117.8496 
L 297.542434 -117.8496 
L 300.146468 -117.8496 
L 302.750501 -117.8496 
L 305.354534 -117.8496 
L 307.958568 -117.8496 
L 310.562601 -117.8496 
L 313.166634 -117.8496 
L 315.770668 -117.8496 
L 318.374701 -117.8496 
L 320.978735 -117.8496 
L 323.582768 -117.8496 
L 326.186801 -117.8496 
L 328.790835 -117.8496 
L 331.394868 -117.8496 
L 333.998901 -117.8496 
L 336.602935 -117.8496 
L 339.206968 -117.8496 
L 341.811001 -117.8496 
L 344.415035 -117.8496 
L 347.019068 -117.8496 
L 349.623102 -117.8496 
L 352.227135 -117.8496 
L 354.831168 -117.8496 
L 354.831168 -117.247132 
L 354.831168 -117.247132 
L 352.227135 -117.251426 
L 349.623102 -117.264125 
L 347.019068 -117.284694 
L 344.415035 -117.312281 
L 341.811001 -117.345781 
L 339.206968 -117.383901 
L 336.602935 -117.42525 
L 333.998901 -117.468419 
L 331.394868 -117.512056 
L 328.790835 -117.554937 
L 326.186801 -117.596015 
L 323.582768 -117.634448 
L 320.978735 -117.669619 
L 318.374701 -117.701127 
L 315.770668 -117.728772 
L 313.166634 -117.752523 
L 310.562601 -117.772478 
L 307.958568 -117.788826 
L 305.354534 -117.801794 
L 302.750501 -117.811607 
L 300.146468 -117.818446 
L 297.542434 -117.822397 
L 294.938401 -117.823421 
L 292.334368 -117.821307 
L 289.730334 -117.815639 
L 287.126301 -117.805754 
L 284.522267 -117.790717 
L 281.918234 -117.769282 
L 279.314201 -117.739879 
L 276.710167 -117.700596 
L 274.106134 -117.649192 
L 271.502101 -117.583124 
L 268.898067 -117.499599 
L 266.294034 -117.395662 
L 263.690001 -117.268309 
L 261.085967 -117.114641 
L 258.481934 -116.932027 
L 255.8779 -116.7183 
L 253.273867 -116.471948 
L 250.669834 -116.192295 
L 248.0658 -115.879652 
L 245.461767 -115.535422 
L 242.857734 -115.162137 
L 240.2537 -114.763424 
L 237.649667 -114.343884 
L 235.045634 -113.908888 
L 232.4416 -113.464308 
L 229.837567 -113.016188 
L 227.233533 -112.57039 
L 224.6295 -112.132238 
L 222.025467 -111.706198 
L 219.421433 -111.29562 
L 216.8174 -110.902565 
L 214.213367 -110.527741 
L 211.609333 -110.170552 
L 209.0053 -109.829253 
L 206.401267 -109.501204 
L 203.797233 -109.183198 
L 201.1932 -108.87183 
L 198.589166 -108.563881 
L 195.985133 -108.256674 
L 193.3811 -107.948386 
L 190.777066 -107.638274 
L 188.173033 -107.326818 
L 185.569 -107.015752 
L 182.964966 -106.707995 
L 180.360933 -106.407491 
L 177.7569 -106.118963 
L 175.152866 -105.847612 
L 172.548833 -105.598776 
L 169.944799 -105.377573 
L 167.340766 -105.188567 
L 164.736733 -105.035456 
L 162.132699 -104.920831 
L 159.528666 -104.845995 
L 156.924633 -104.810885 
L 154.320599 -104.814081 
L 151.716566 -104.852918 
L 149.112533 -104.923693 
L 146.508499 -105.021958 
L 143.904466 -105.142881 
L 141.300433 -105.281649 
L 138.696399 -105.433883 
L 136.092366 -105.596042 
L 133.488332 -105.765757 
L 130.884299 -105.94209 
L 128.280266 -106.125666 
L 125.676232 -106.318671 
L 123.072199 -106.524709 
L 120.468166 -106.748507 
L 117.864132 -106.995506 
L 115.260099 -107.271354 
L 112.656066 -107.581354 
L 110.052032 -107.929913 
L 107.447999 -108.320032 
L 104.843965 -108.752908 
L 102.239932 -109.227661 
L 99.635899 -109.741231 
L 97.031865 -110.288445 
z
" id="mffb533ef00"/>
    </defs>
    <g clip-path="url(#p1bcfb6d7c4)">
     <use style="fill:#e1812c;" x="0" xlink:href="#mffb533ef00" y="345.6"/>
    </g>
   </g>
   <g id="PolyCollection_9">
    <defs>
     <path d="M 77.338281 -64.6272 
L 77.338281 -80.290305 
L 78.142673 -81.413808 
L 78.947065 -82.455599 
L 79.751457 -83.393003 
L 80.555849 -84.205437 
L 81.360241 -84.875272 
L 82.164633 -85.388575 
L 82.969025 -85.73569 
L 83.773417 -85.911614 
L 84.57781 -85.91616 
L 85.382202 -85.753877 
L 86.186594 -85.433761 
L 86.990986 -84.968762 
L 87.795378 -84.375128 
L 88.59977 -83.671627 
L 89.404162 -82.878704 
L 90.208554 -82.017614 
L 91.012946 -81.109591 
L 91.817338 -80.175085 
L 92.62173 -79.233113 
L 93.426122 -78.300738 
L 94.230514 -77.392704 
L 95.034906 -76.521214 
L 95.839299 -75.695861 
L 96.643691 -74.923683 
L 97.448083 -74.209337 
L 98.252475 -73.555353 
L 99.056867 -72.962444 
L 99.861259 -72.429858 
L 100.665651 -71.955722 
L 101.470043 -71.537378 
L 102.274435 -71.17168 
L 103.078827 -70.855233 
L 103.883219 -70.584588 
L 104.687611 -70.35636 
L 105.492003 -70.167291 
L 106.296395 -70.014259 
L 107.100788 -69.894242 
L 107.90518 -69.804247 
L 108.709572 -69.741228 
L 109.513964 -69.701992 
L 110.318356 -69.68313 
L 111.122748 -69.680955 
L 111.92714 -69.691488 
L 112.731532 -69.710473 
L 113.535924 -69.73343 
L 114.340316 -69.755748 
L 115.144708 -69.772815 
L 115.9491 -69.780153 
L 116.753492 -69.773585 
L 117.557884 -69.749384 
L 118.362277 -69.704423 
L 119.166669 -69.636293 
L 119.971061 -69.543398 
L 120.775453 -69.425007 
L 121.579845 -69.281267 
L 122.384237 -69.113181 
L 123.188629 -68.922539 
L 123.993021 -68.711824 
L 124.797413 -68.484088 
L 125.601805 -68.24281 
L 126.406197 -67.99175 
L 127.210589 -67.734791 
L 128.014981 -67.475802 
L 128.819373 -67.2185 
L 129.623766 -66.966343 
L 130.428158 -66.722438 
L 131.23255 -66.489474 
L 132.036942 -66.269684 
L 132.841334 -66.064823 
L 133.645726 -65.876177 
L 134.450118 -65.704582 
L 135.25451 -65.550466 
L 136.058902 -65.413891 
L 136.863294 -65.294617 
L 137.667686 -65.192154 
L 138.472078 -65.105822 
L 139.27647 -65.034807 
L 140.080862 -64.978204 
L 140.885255 -64.935057 
L 141.689647 -64.904387 
L 142.494039 -64.885212 
L 143.298431 -64.876554 
L 144.102823 -64.877438 
L 144.907215 -64.886883 
L 145.711607 -64.903895 
L 146.515999 -64.927449 
L 147.320391 -64.956474 
L 148.124783 -64.989848 
L 148.929175 -65.026389 
L 149.733567 -65.064862 
L 150.537959 -65.103991 
L 151.342351 -65.14248 
L 152.146744 -65.179042 
L 152.951136 -65.212438 
L 153.755528 -65.241519 
L 154.55992 -65.265264 
L 155.364312 -65.282828 
L 156.168704 -65.293572 
L 156.973096 -65.29709 
L 156.973096 -64.6272 
L 156.973096 -64.6272 
L 156.168704 -64.6272 
L 155.364312 -64.6272 
L 154.55992 -64.6272 
L 153.755528 -64.6272 
L 152.951136 -64.6272 
L 152.146744 -64.6272 
L 151.342351 -64.6272 
L 150.537959 -64.6272 
L 149.733567 -64.6272 
L 148.929175 -64.6272 
L 148.124783 -64.6272 
L 147.320391 -64.6272 
L 146.515999 -64.6272 
L 145.711607 -64.6272 
L 144.907215 -64.6272 
L 144.102823 -64.6272 
L 143.298431 -64.6272 
L 142.494039 -64.6272 
L 141.689647 -64.6272 
L 140.885255 -64.6272 
L 140.080862 -64.6272 
L 139.27647 -64.6272 
L 138.472078 -64.6272 
L 137.667686 -64.6272 
L 136.863294 -64.6272 
L 136.058902 -64.6272 
L 135.25451 -64.6272 
L 134.450118 -64.6272 
L 133.645726 -64.6272 
L 132.841334 -64.6272 
L 132.036942 -64.6272 
L 131.23255 -64.6272 
L 130.428158 -64.6272 
L 129.623766 -64.6272 
L 128.819373 -64.6272 
L 128.014981 -64.6272 
L 127.210589 -64.6272 
L 126.406197 -64.6272 
L 125.601805 -64.6272 
L 124.797413 -64.6272 
L 123.993021 -64.6272 
L 123.188629 -64.6272 
L 122.384237 -64.6272 
L 121.579845 -64.6272 
L 120.775453 -64.6272 
L 119.971061 -64.6272 
L 119.166669 -64.6272 
L 118.362277 -64.6272 
L 117.557884 -64.6272 
L 116.753492 -64.6272 
L 115.9491 -64.6272 
L 115.144708 -64.6272 
L 114.340316 -64.6272 
L 113.535924 -64.6272 
L 112.731532 -64.6272 
L 111.92714 -64.6272 
L 111.122748 -64.6272 
L 110.318356 -64.6272 
L 109.513964 -64.6272 
L 108.709572 -64.6272 
L 107.90518 -64.6272 
L 107.100788 -64.6272 
L 106.296395 -64.6272 
L 105.492003 -64.6272 
L 104.687611 -64.6272 
L 103.883219 -64.6272 
L 103.078827 -64.6272 
L 102.274435 -64.6272 
L 101.470043 -64.6272 
L 100.665651 -64.6272 
L 99.861259 -64.6272 
L 99.056867 -64.6272 
L 98.252475 -64.6272 
L 97.448083 -64.6272 
L 96.643691 -64.6272 
L 95.839299 -64.6272 
L 95.034906 -64.6272 
L 94.230514 -64.6272 
L 93.426122 -64.6272 
L 92.62173 -64.6272 
L 91.817338 -64.6272 
L 91.012946 -64.6272 
L 90.208554 -64.6272 
L 89.404162 -64.6272 
L 88.59977 -64.6272 
L 87.795378 -64.6272 
L 86.990986 -64.6272 
L 86.186594 -64.6272 
L 85.382202 -64.6272 
L 84.57781 -64.6272 
L 83.773417 -64.6272 
L 82.969025 -64.6272 
L 82.164633 -64.6272 
L 81.360241 -64.6272 
L 80.555849 -64.6272 
L 79.751457 -64.6272 
L 78.947065 -64.6272 
L 78.142673 -64.6272 
L 77.338281 -64.6272 
z
" id="ma66a159508"/>
    </defs>
    <g clip-path="url(#p1bcfb6d7c4)">
     <use style="fill:#3274a1;" x="0" xlink:href="#ma66a159508" y="345.6"/>
    </g>
   </g>
   <g id="PolyCollection_10">
    <defs>
     <path d="M 100.227543 -61.048863 
L 100.227543 -64.6272 
L 102.706084 -64.6272 
L 105.184625 -64.6272 
L 107.663166 -64.6272 
L 110.141707 -64.6272 
L 112.620247 -64.6272 
L 115.098788 -64.6272 
L 117.577329 -64.6272 
L 120.05587 -64.6272 
L 122.534411 -64.6272 
L 125.012952 -64.6272 
L 127.491493 -64.6272 
L 129.970034 -64.6272 
L 132.448575 -64.6272 
L 134.927116 -64.6272 
L 137.405656 -64.6272 
L 139.884197 -64.6272 
L 142.362738 -64.6272 
L 144.841279 -64.6272 
L 147.31982 -64.6272 
L 149.798361 -64.6272 
L 152.276902 -64.6272 
L 154.755443 -64.6272 
L 157.233984 -64.6272 
L 159.712525 -64.6272 
L 162.191065 -64.6272 
L 164.669606 -64.6272 
L 167.148147 -64.6272 
L 169.626688 -64.6272 
L 172.105229 -64.6272 
L 174.58377 -64.6272 
L 177.062311 -64.6272 
L 179.540852 -64.6272 
L 182.019393 -64.6272 
L 184.497933 -64.6272 
L 186.976474 -64.6272 
L 189.455015 -64.6272 
L 191.933556 -64.6272 
L 194.412097 -64.6272 
L 196.890638 -64.6272 
L 199.369179 -64.6272 
L 201.84772 -64.6272 
L 204.326261 -64.6272 
L 206.804802 -64.6272 
L 209.283342 -64.6272 
L 211.761883 -64.6272 
L 214.240424 -64.6272 
L 216.718965 -64.6272 
L 219.197506 -64.6272 
L 221.676047 -64.6272 
L 224.154588 -64.6272 
L 226.633129 -64.6272 
L 229.11167 -64.6272 
L 231.590211 -64.6272 
L 234.068751 -64.6272 
L 236.547292 -64.6272 
L 239.025833 -64.6272 
L 241.504374 -64.6272 
L 243.982915 -64.6272 
L 246.461456 -64.6272 
L 248.939997 -64.6272 
L 251.418538 -64.6272 
L 253.897079 -64.6272 
L 256.37562 -64.6272 
L 258.85416 -64.6272 
L 261.332701 -64.6272 
L 263.811242 -64.6272 
L 266.289783 -64.6272 
L 268.768324 -64.6272 
L 271.246865 -64.6272 
L 273.725406 -64.6272 
L 276.203947 -64.6272 
L 278.682488 -64.6272 
L 281.161029 -64.6272 
L 283.639569 -64.6272 
L 286.11811 -64.6272 
L 288.596651 -64.6272 
L 291.075192 -64.6272 
L 293.553733 -64.6272 
L 296.032274 -64.6272 
L 298.510815 -64.6272 
L 300.989356 -64.6272 
L 303.467897 -64.6272 
L 305.946438 -64.6272 
L 308.424978 -64.6272 
L 310.903519 -64.6272 
L 313.38206 -64.6272 
L 315.860601 -64.6272 
L 318.339142 -64.6272 
L 320.817683 -64.6272 
L 323.296224 -64.6272 
L 325.774765 -64.6272 
L 328.253306 -64.6272 
L 330.731847 -64.6272 
L 333.210387 -64.6272 
L 335.688928 -64.6272 
L 338.167469 -64.6272 
L 340.64601 -64.6272 
L 343.124551 -64.6272 
L 345.603092 -64.6272 
L 345.603092 -64.253632 
L 345.603092 -64.253632 
L 343.124551 -64.239487 
L 340.64601 -64.228676 
L 338.167469 -64.221481 
L 335.688928 -64.218093 
L 333.210387 -64.218602 
L 330.731847 -64.222994 
L 328.253306 -64.231152 
L 325.774765 -64.242858 
L 323.296224 -64.257807 
L 320.817683 -64.275611 
L 318.339142 -64.295822 
L 315.860601 -64.31794 
L 313.38206 -64.341439 
L 310.903519 -64.365783 
L 308.424978 -64.390441 
L 305.946438 -64.414908 
L 303.467897 -64.43872 
L 300.989356 -64.461461 
L 298.510815 -64.482774 
L 296.032274 -64.502364 
L 293.553733 -64.519997 
L 291.075192 -64.5355 
L 288.596651 -64.54875 
L 286.11811 -64.559669 
L 283.639569 -64.568213 
L 281.161029 -64.574362 
L 278.682488 -64.578112 
L 276.203947 -64.579468 
L 273.725406 -64.578432 
L 271.246865 -64.575008 
L 268.768324 -64.569189 
L 266.289783 -64.560963 
L 263.811242 -64.550308 
L 261.332701 -64.53719 
L 258.85416 -64.52156 
L 256.37562 -64.503344 
L 253.897079 -64.482436 
L 251.418538 -64.458679 
L 248.939997 -64.431847 
L 246.461456 -64.401624 
L 243.982915 -64.367574 
L 241.504374 -64.329119 
L 239.025833 -64.285515 
L 236.547292 -64.235834 
L 234.068751 -64.178952 
L 231.590211 -64.113555 
L 229.11167 -64.038151 
L 226.633129 -63.951104 
L 224.154588 -63.850679 
L 221.676047 -63.735112 
L 219.197506 -63.602682 
L 216.718965 -63.45181 
L 214.240424 -63.281159 
L 211.761883 -63.089735 
L 209.283342 -62.876999 
L 206.804802 -62.642963 
L 204.326261 -62.388279 
L 201.84772 -62.114312 
L 199.369179 -61.823187 
L 196.890638 -61.517814 
L 194.412097 -61.201874 
L 191.933556 -60.879778 
L 189.455015 -60.556577 
L 186.976474 -60.23784 
L 184.497933 -59.929488 
L 182.019393 -59.637591 
L 179.540852 -59.368134 
L 177.062311 -59.126762 
L 174.58377 -58.918511 
L 172.105229 -58.747551 
L 169.626688 -58.616936 
L 167.148147 -58.528414 
L 164.669606 -58.482274 
L 162.191065 -58.477282 
L 159.712525 -58.510693 
L 157.233984 -58.578357 
L 154.755443 -58.674919 
L 152.276902 -58.794094 
L 149.798361 -58.929025 
L 147.31982 -59.072673 
L 144.841279 -59.218237 
L 142.362738 -59.359566 
L 139.884197 -59.491529 
L 137.405656 -59.610317 
L 134.927116 -59.713657 
L 132.448575 -59.800923 
L 129.970034 -59.87312 
L 127.491493 -59.932767 
L 125.012952 -59.983663 
L 122.534411 -60.030577 
L 120.05587 -60.078865 
L 117.577329 -60.134065 
L 115.098788 -60.201482 
L 112.620247 -60.285811 
L 110.141707 -60.390811 
L 107.663166 -60.519059 
L 105.184625 -60.671801 
L 102.706084 -60.848895 
L 100.227543 -61.048863 
z
" id="m5989b9d875"/>
    </defs>
    <g clip-path="url(#p1bcfb6d7c4)">
     <use style="fill:#e1812c;" x="0" xlink:href="#m5989b9d875" y="345.6"/>
    </g>
   </g>
   <g id="patch_3">
    <path clip-path="url(#p1bcfb6d7c4)" d="M -47.088239 68.0832 
L -47.088239 68.0832 
L -47.088239 68.0832 
L -47.088239 68.0832 
z
" style="fill:#3274a1;"/>
   </g>
   <g id="patch_4">
    <path clip-path="url(#p1bcfb6d7c4)" d="M -47.088239 68.0832 
L -47.088239 68.0832 
L -47.088239 68.0832 
L -47.088239 68.0832 
z
" style="fill:#e1812c;"/>
   </g>
   <g id="patch_5">
    <path d="M 57.6 307.584 
L 57.6 41.472 
" style="fill:none;stroke:#cccccc;stroke-linecap:square;stroke-linejoin:miter;stroke-width:0.8;"/>
   </g>
   <g id="patch_6">
    <path d="M 414.72 307.584 
L 414.72 41.472 
" style="fill:none;stroke:#cccccc;stroke-linecap:square;stroke-linejoin:miter;stroke-width:0.8;"/>
   </g>
   <g id="patch_7">
    <path d="M 57.6 307.584 
L 414.72 307.584 
" style="fill:none;stroke:#cccccc;stroke-linecap:square;stroke-linejoin:miter;stroke-width:0.8;"/>
   </g>
   <g id="patch_8">
    <path d="M 57.6 41.472 
L 414.72 41.472 
" style="fill:none;stroke:#cccccc;stroke-linecap:square;stroke-linejoin:miter;stroke-width:0.8;"/>
   </g>
   <g id="text_15">
    <!-- A: Loading_Time      0.554128 -->
    <defs>
     <path d="M 34.1875 63.1875 
L 20.796875 26.90625 
L 47.609375 26.90625 
z
M 28.609375 72.90625 
L 39.796875 72.90625 
L 67.578125 0 
L 57.328125 0 
L 50.6875 18.703125 
L 17.828125 18.703125 
L 11.1875 0 
L 0.78125 0 
z
" id="DejaVuSans-65"/>
     <path d="M 11.71875 12.40625 
L 22.015625 12.40625 
L 22.015625 0 
L 11.71875 0 
z
M 11.71875 51.703125 
L 22.015625 51.703125 
L 22.015625 39.3125 
L 11.71875 39.3125 
z
" id="DejaVuSans-58"/>
     <path id="DejaVuSans-32"/>
     <path d="M 10.796875 72.90625 
L 49.515625 72.90625 
L 49.515625 64.59375 
L 19.828125 64.59375 
L 19.828125 46.734375 
Q 21.96875 47.46875 24.109375 47.828125 
Q 26.265625 48.1875 28.421875 48.1875 
Q 40.625 48.1875 47.75 41.5 
Q 54.890625 34.8125 54.890625 23.390625 
Q 54.890625 11.625 47.5625 5.09375 
Q 40.234375 -1.421875 26.90625 -1.421875 
Q 22.3125 -1.421875 17.546875 -0.640625 
Q 12.796875 0.140625 7.71875 1.703125 
L 7.71875 11.625 
Q 12.109375 9.234375 16.796875 8.0625 
Q 21.484375 6.890625 26.703125 6.890625 
Q 35.15625 6.890625 40.078125 11.328125 
Q 45.015625 15.765625 45.015625 23.390625 
Q 45.015625 31 40.078125 35.4375 
Q 35.15625 39.890625 26.703125 39.890625 
Q 22.75 39.890625 18.8125 39.015625 
Q 14.890625 38.140625 10.796875 36.28125 
z
" id="DejaVuSans-53"/>
    </defs>
    <g style="fill:#262626;" transform="translate(146.415 -18.945)scale(0.12 -0.12)">
     <use xlink:href="#DejaVuSans-65"/>
     <use x="68.392578" xlink:href="#DejaVuSans-58"/>
     <use x="102.083984" xlink:href="#DejaVuSans-32"/>
     <use x="133.871094" xlink:href="#DejaVuSans-76"/>
     <use x="189.568359" xlink:href="#DejaVuSans-111"/>
     <use x="250.75" xlink:href="#DejaVuSans-97"/>
     <use x="312.029297" xlink:href="#DejaVuSans-100"/>
     <use x="375.505859" xlink:href="#DejaVuSans-105"/>
     <use x="403.289062" xlink:href="#DejaVuSans-110"/>
     <use x="466.667969" xlink:href="#DejaVuSans-103"/>
     <use x="530.144531" xlink:href="#DejaVuSans-95"/>
     <use x="580.144531" xlink:href="#DejaVuSans-84"/>
     <use x="641.181641" xlink:href="#DejaVuSans-105"/>
     <use x="668.964844" xlink:href="#DejaVuSans-109"/>
     <use x="766.376953" xlink:href="#DejaVuSans-101"/>
     <use x="827.900391" xlink:href="#DejaVuSans-32"/>
     <use x="859.6875" xlink:href="#DejaVuSans-32"/>
     <use x="891.474609" xlink:href="#DejaVuSans-32"/>
     <use x="923.261719" xlink:href="#DejaVuSans-32"/>
     <use x="955.048828" xlink:href="#DejaVuSans-32"/>
     <use x="986.835938" xlink:href="#DejaVuSans-32"/>
     <use x="1018.623047" xlink:href="#DejaVuSans-48"/>
     <use x="1082.246094" xlink:href="#DejaVuSans-46"/>
     <use x="1114.033203" xlink:href="#DejaVuSans-53"/>
     <use x="1177.65625" xlink:href="#DejaVuSans-53"/>
     <use x="1241.279297" xlink:href="#DejaVuSans-52"/>
     <use x="1304.902344" xlink:href="#DejaVuSans-49"/>
     <use x="1368.525391" xlink:href="#DejaVuSans-50"/>
     <use x="1432.148438" xlink:href="#DejaVuSans-56"/>
    </g>
    <!-- Status-Code     200.000000 -->
    <defs>
     <path d="M 53.515625 70.515625 
L 53.515625 60.890625 
Q 47.90625 63.578125 42.921875 64.890625 
Q 37.9375 66.21875 33.296875 66.21875 
Q 25.25 66.21875 20.875 63.09375 
Q 16.5 59.96875 16.5 54.203125 
Q 16.5 49.359375 19.40625 46.890625 
Q 22.3125 44.4375 30.421875 42.921875 
L 36.375 41.703125 
Q 47.40625 39.59375 52.65625 34.296875 
Q 57.90625 29 57.90625 20.125 
Q 57.90625 9.515625 50.796875 4.046875 
Q 43.703125 -1.421875 29.984375 -1.421875 
Q 24.8125 -1.421875 18.96875 -0.25 
Q 13.140625 0.921875 6.890625 3.21875 
L 6.890625 13.375 
Q 12.890625 10.015625 18.65625 8.296875 
Q 24.421875 6.59375 29.984375 6.59375 
Q 38.421875 6.59375 43.015625 9.90625 
Q 47.609375 13.234375 47.609375 19.390625 
Q 47.609375 24.75 44.3125 27.78125 
Q 41.015625 30.8125 33.5 32.328125 
L 27.484375 33.5 
Q 16.453125 35.6875 11.515625 40.375 
Q 6.59375 45.0625 6.59375 53.421875 
Q 6.59375 63.09375 13.40625 68.65625 
Q 20.21875 74.21875 32.171875 74.21875 
Q 37.3125 74.21875 42.625 73.28125 
Q 47.953125 72.359375 53.515625 70.515625 
z
" id="DejaVuSans-83"/>
     <path d="M 18.3125 70.21875 
L 18.3125 54.6875 
L 36.8125 54.6875 
L 36.8125 47.703125 
L 18.3125 47.703125 
L 18.3125 18.015625 
Q 18.3125 11.328125 20.140625 9.421875 
Q 21.96875 7.515625 27.59375 7.515625 
L 36.8125 7.515625 
L 36.8125 0 
L 27.59375 0 
Q 17.1875 0 13.234375 3.875 
Q 9.28125 7.765625 9.28125 18.015625 
L 9.28125 47.703125 
L 2.6875 47.703125 
L 2.6875 54.6875 
L 9.28125 54.6875 
L 9.28125 70.21875 
z
" id="DejaVuSans-116"/>
     <path d="M 8.5 21.578125 
L 8.5 54.6875 
L 17.484375 54.6875 
L 17.484375 21.921875 
Q 17.484375 14.15625 20.5 10.265625 
Q 23.53125 6.390625 29.59375 6.390625 
Q 36.859375 6.390625 41.078125 11.03125 
Q 45.3125 15.671875 45.3125 23.6875 
L 45.3125 54.6875 
L 54.296875 54.6875 
L 54.296875 0 
L 45.3125 0 
L 45.3125 8.40625 
Q 42.046875 3.421875 37.71875 1 
Q 33.40625 -1.421875 27.6875 -1.421875 
Q 18.265625 -1.421875 13.375 4.4375 
Q 8.5 10.296875 8.5 21.578125 
z
M 31.109375 56 
z
" id="DejaVuSans-117"/>
     <path d="M 44.28125 53.078125 
L 44.28125 44.578125 
Q 40.484375 46.53125 36.375 47.5 
Q 32.28125 48.484375 27.875 48.484375 
Q 21.1875 48.484375 17.84375 46.4375 
Q 14.5 44.390625 14.5 40.28125 
Q 14.5 37.15625 16.890625 35.375 
Q 19.28125 33.59375 26.515625 31.984375 
L 29.59375 31.296875 
Q 39.15625 29.25 43.1875 25.515625 
Q 47.21875 21.78125 47.21875 15.09375 
Q 47.21875 7.46875 41.1875 3.015625 
Q 35.15625 -1.421875 24.609375 -1.421875 
Q 20.21875 -1.421875 15.453125 -0.5625 
Q 10.6875 0.296875 5.421875 2 
L 5.421875 11.28125 
Q 10.40625 8.6875 15.234375 7.390625 
Q 20.0625 6.109375 24.8125 6.109375 
Q 31.15625 6.109375 34.5625 8.28125 
Q 37.984375 10.453125 37.984375 14.40625 
Q 37.984375 18.0625 35.515625 20.015625 
Q 33.0625 21.96875 24.703125 23.78125 
L 21.578125 24.515625 
Q 13.234375 26.265625 9.515625 29.90625 
Q 5.8125 33.546875 5.8125 39.890625 
Q 5.8125 47.609375 11.28125 51.796875 
Q 16.75 56 26.8125 56 
Q 31.78125 56 36.171875 55.265625 
Q 40.578125 54.546875 44.28125 53.078125 
z
" id="DejaVuSans-115"/>
     <path d="M 4.890625 31.390625 
L 31.203125 31.390625 
L 31.203125 23.390625 
L 4.890625 23.390625 
z
" id="DejaVuSans-45"/>
     <path d="M 64.40625 67.28125 
L 64.40625 56.890625 
Q 59.421875 61.53125 53.78125 63.8125 
Q 48.140625 66.109375 41.796875 66.109375 
Q 29.296875 66.109375 22.65625 58.46875 
Q 16.015625 50.828125 16.015625 36.375 
Q 16.015625 21.96875 22.65625 14.328125 
Q 29.296875 6.6875 41.796875 6.6875 
Q 48.140625 6.6875 53.78125 8.984375 
Q 59.421875 11.28125 64.40625 15.921875 
L 64.40625 5.609375 
Q 59.234375 2.09375 53.4375 0.328125 
Q 47.65625 -1.421875 41.21875 -1.421875 
Q 24.65625 -1.421875 15.125 8.703125 
Q 5.609375 18.84375 5.609375 36.375 
Q 5.609375 53.953125 15.125 64.078125 
Q 24.65625 74.21875 41.21875 74.21875 
Q 47.75 74.21875 53.53125 72.484375 
Q 59.328125 70.75 64.40625 67.28125 
z
" id="DejaVuSans-67"/>
    </defs>
    <g style="fill:#262626;" transform="translate(153.71625 -5.173875)scale(0.12 -0.12)">
     <use xlink:href="#DejaVuSans-83"/>
     <use x="63.476562" xlink:href="#DejaVuSans-116"/>
     <use x="102.685547" xlink:href="#DejaVuSans-97"/>
     <use x="163.964844" xlink:href="#DejaVuSans-116"/>
     <use x="203.173828" xlink:href="#DejaVuSans-117"/>
     <use x="266.552734" xlink:href="#DejaVuSans-115"/>
     <use x="318.652344" xlink:href="#DejaVuSans-45"/>
     <use x="354.736328" xlink:href="#DejaVuSans-67"/>
     <use x="424.560547" xlink:href="#DejaVuSans-111"/>
     <use x="485.742188" xlink:href="#DejaVuSans-100"/>
     <use x="549.21875" xlink:href="#DejaVuSans-101"/>
     <use x="610.742188" xlink:href="#DejaVuSans-32"/>
     <use x="642.529297" xlink:href="#DejaVuSans-32"/>
     <use x="674.316406" xlink:href="#DejaVuSans-32"/>
     <use x="706.103516" xlink:href="#DejaVuSans-32"/>
     <use x="737.890625" xlink:href="#DejaVuSans-32"/>
     <use x="769.677734" xlink:href="#DejaVuSans-50"/>
     <use x="833.300781" xlink:href="#DejaVuSans-48"/>
     <use x="896.923828" xlink:href="#DejaVuSans-48"/>
     <use x="960.546875" xlink:href="#DejaVuSans-46"/>
     <use x="992.333984" xlink:href="#DejaVuSans-48"/>
     <use x="1055.957031" xlink:href="#DejaVuSans-48"/>
     <use x="1119.580078" xlink:href="#DejaVuSans-48"/>
     <use x="1183.203125" xlink:href="#DejaVuSans-48"/>
     <use x="1246.826172" xlink:href="#DejaVuSans-48"/>
     <use x="1310.449219" xlink:href="#DejaVuSans-48"/>
    </g>
    <!-- dtype: float64; D: Loading_Time      0.847235 -->
    <defs>
     <path d="M 32.171875 -5.078125 
Q 28.375 -14.84375 24.75 -17.8125 
Q 21.140625 -20.796875 15.09375 -20.796875 
L 7.90625 -20.796875 
L 7.90625 -13.28125 
L 13.1875 -13.28125 
Q 16.890625 -13.28125 18.9375 -11.515625 
Q 21 -9.765625 23.484375 -3.21875 
L 25.09375 0.875 
L 2.984375 54.6875 
L 12.5 54.6875 
L 29.59375 11.921875 
L 46.6875 54.6875 
L 56.203125 54.6875 
z
" id="DejaVuSans-121"/>
     <path d="M 18.109375 8.203125 
L 18.109375 -20.796875 
L 9.078125 -20.796875 
L 9.078125 54.6875 
L 18.109375 54.6875 
L 18.109375 46.390625 
Q 20.953125 51.265625 25.265625 53.625 
Q 29.59375 56 35.59375 56 
Q 45.5625 56 51.78125 48.09375 
Q 58.015625 40.1875 58.015625 27.296875 
Q 58.015625 14.40625 51.78125 6.484375 
Q 45.5625 -1.421875 35.59375 -1.421875 
Q 29.59375 -1.421875 25.265625 0.953125 
Q 20.953125 3.328125 18.109375 8.203125 
z
M 48.6875 27.296875 
Q 48.6875 37.203125 44.609375 42.84375 
Q 40.53125 48.484375 33.40625 48.484375 
Q 26.265625 48.484375 22.1875 42.84375 
Q 18.109375 37.203125 18.109375 27.296875 
Q 18.109375 17.390625 22.1875 11.75 
Q 26.265625 6.109375 33.40625 6.109375 
Q 40.53125 6.109375 44.609375 11.75 
Q 48.6875 17.390625 48.6875 27.296875 
z
" id="DejaVuSans-112"/>
     <path d="M 37.109375 75.984375 
L 37.109375 68.5 
L 28.515625 68.5 
Q 23.6875 68.5 21.796875 66.546875 
Q 19.921875 64.59375 19.921875 59.515625 
L 19.921875 54.6875 
L 34.71875 54.6875 
L 34.71875 47.703125 
L 19.921875 47.703125 
L 19.921875 0 
L 10.890625 0 
L 10.890625 47.703125 
L 2.296875 47.703125 
L 2.296875 54.6875 
L 10.890625 54.6875 
L 10.890625 58.5 
Q 10.890625 67.625 15.140625 71.796875 
Q 19.390625 75.984375 28.609375 75.984375 
z
" id="DejaVuSans-102"/>
     <path d="M 9.421875 75.984375 
L 18.40625 75.984375 
L 18.40625 0 
L 9.421875 0 
z
" id="DejaVuSans-108"/>
     <path d="M 11.71875 51.703125 
L 22.015625 51.703125 
L 22.015625 39.3125 
L 11.71875 39.3125 
z
M 11.71875 12.40625 
L 22.015625 12.40625 
L 22.015625 4 
L 14.015625 -11.625 
L 7.71875 -11.625 
L 11.71875 4 
z
" id="DejaVuSans-59"/>
     <path d="M 19.671875 64.796875 
L 19.671875 8.109375 
L 31.59375 8.109375 
Q 46.6875 8.109375 53.6875 14.9375 
Q 60.6875 21.78125 60.6875 36.53125 
Q 60.6875 51.171875 53.6875 57.984375 
Q 46.6875 64.796875 31.59375 64.796875 
z
M 9.8125 72.90625 
L 30.078125 72.90625 
Q 51.265625 72.90625 61.171875 64.09375 
Q 71.09375 55.28125 71.09375 36.53125 
Q 71.09375 17.671875 61.125 8.828125 
Q 51.171875 0 30.078125 0 
L 9.8125 0 
z
" id="DejaVuSans-68"/>
     <path d="M 40.578125 39.3125 
Q 47.65625 37.796875 51.625 33 
Q 55.609375 28.21875 55.609375 21.1875 
Q 55.609375 10.40625 48.1875 4.484375 
Q 40.765625 -1.421875 27.09375 -1.421875 
Q 22.515625 -1.421875 17.65625 -0.515625 
Q 12.796875 0.390625 7.625 2.203125 
L 7.625 11.71875 
Q 11.71875 9.328125 16.59375 8.109375 
Q 21.484375 6.890625 26.8125 6.890625 
Q 36.078125 6.890625 40.9375 10.546875 
Q 45.796875 14.203125 45.796875 21.1875 
Q 45.796875 27.640625 41.28125 31.265625 
Q 36.765625 34.90625 28.71875 34.90625 
L 20.21875 34.90625 
L 20.21875 43.015625 
L 29.109375 43.015625 
Q 36.375 43.015625 40.234375 45.921875 
Q 44.09375 48.828125 44.09375 54.296875 
Q 44.09375 59.90625 40.109375 62.90625 
Q 36.140625 65.921875 28.71875 65.921875 
Q 24.65625 65.921875 20.015625 65.03125 
Q 15.375 64.15625 9.8125 62.3125 
L 9.8125 71.09375 
Q 15.4375 72.65625 20.34375 73.4375 
Q 25.25 74.21875 29.59375 74.21875 
Q 40.828125 74.21875 47.359375 69.109375 
Q 53.90625 64.015625 53.90625 55.328125 
Q 53.90625 49.265625 50.4375 45.09375 
Q 46.96875 40.921875 40.578125 39.3125 
z
" id="DejaVuSans-51"/>
    </defs>
    <g style="fill:#262626;" transform="translate(99.714375 8.2635)scale(0.12 -0.12)">
     <use xlink:href="#DejaVuSans-100"/>
     <use x="63.476562" xlink:href="#DejaVuSans-116"/>
     <use x="102.685547" xlink:href="#DejaVuSans-121"/>
     <use x="161.865234" xlink:href="#DejaVuSans-112"/>
     <use x="225.341797" xlink:href="#DejaVuSans-101"/>
     <use x="286.865234" xlink:href="#DejaVuSans-58"/>
     <use x="320.556641" xlink:href="#DejaVuSans-32"/>
     <use x="352.34375" xlink:href="#DejaVuSans-102"/>
     <use x="387.548828" xlink:href="#DejaVuSans-108"/>
     <use x="415.332031" xlink:href="#DejaVuSans-111"/>
     <use x="476.513672" xlink:href="#DejaVuSans-97"/>
     <use x="537.792969" xlink:href="#DejaVuSans-116"/>
     <use x="577.001953" xlink:href="#DejaVuSans-54"/>
     <use x="640.625" xlink:href="#DejaVuSans-52"/>
     <use x="704.248047" xlink:href="#DejaVuSans-59"/>
     <use x="737.939453" xlink:href="#DejaVuSans-32"/>
     <use x="769.726562" xlink:href="#DejaVuSans-68"/>
     <use x="846.728516" xlink:href="#DejaVuSans-58"/>
     <use x="880.419922" xlink:href="#DejaVuSans-32"/>
     <use x="912.207031" xlink:href="#DejaVuSans-76"/>
     <use x="967.904297" xlink:href="#DejaVuSans-111"/>
     <use x="1029.085938" xlink:href="#DejaVuSans-97"/>
     <use x="1090.365234" xlink:href="#DejaVuSans-100"/>
     <use x="1153.841797" xlink:href="#DejaVuSans-105"/>
     <use x="1181.625" xlink:href="#DejaVuSans-110"/>
     <use x="1245.003906" xlink:href="#DejaVuSans-103"/>
     <use x="1308.480469" xlink:href="#DejaVuSans-95"/>
     <use x="1358.480469" xlink:href="#DejaVuSans-84"/>
     <use x="1419.517578" xlink:href="#DejaVuSans-105"/>
     <use x="1447.300781" xlink:href="#DejaVuSans-109"/>
     <use x="1544.712891" xlink:href="#DejaVuSans-101"/>
     <use x="1606.236328" xlink:href="#DejaVuSans-32"/>
     <use x="1638.023438" xlink:href="#DejaVuSans-32"/>
     <use x="1669.810547" xlink:href="#DejaVuSans-32"/>
     <use x="1701.597656" xlink:href="#DejaVuSans-32"/>
     <use x="1733.384766" xlink:href="#DejaVuSans-32"/>
     <use x="1765.171875" xlink:href="#DejaVuSans-32"/>
     <use x="1796.958984" xlink:href="#DejaVuSans-48"/>
     <use x="1860.582031" xlink:href="#DejaVuSans-46"/>
     <use x="1892.369141" xlink:href="#DejaVuSans-56"/>
     <use x="1955.992188" xlink:href="#DejaVuSans-52"/>
     <use x="2019.615234" xlink:href="#DejaVuSans-55"/>
     <use x="2083.238281" xlink:href="#DejaVuSans-50"/>
     <use x="2146.861328" xlink:href="#DejaVuSans-51"/>
     <use x="2210.484375" xlink:href="#DejaVuSans-53"/>
    </g>
    <!-- Status-Code     200.000000 -->
    <g style="fill:#262626;" transform="translate(153.71625 22.034625)scale(0.12 -0.12)">
     <use xlink:href="#DejaVuSans-83"/>
     <use x="63.476562" xlink:href="#DejaVuSans-116"/>
     <use x="102.685547" xlink:href="#DejaVuSans-97"/>
     <use x="163.964844" xlink:href="#DejaVuSans-116"/>
     <use x="203.173828" xlink:href="#DejaVuSans-117"/>
     <use x="266.552734" xlink:href="#DejaVuSans-115"/>
     <use x="318.652344" xlink:href="#DejaVuSans-45"/>
     <use x="354.736328" xlink:href="#DejaVuSans-67"/>
     <use x="424.560547" xlink:href="#DejaVuSans-111"/>
     <use x="485.742188" xlink:href="#DejaVuSans-100"/>
     <use x="549.21875" xlink:href="#DejaVuSans-101"/>
     <use x="610.742188" xlink:href="#DejaVuSans-32"/>
     <use x="642.529297" xlink:href="#DejaVuSans-32"/>
     <use x="674.316406" xlink:href="#DejaVuSans-32"/>
     <use x="706.103516" xlink:href="#DejaVuSans-32"/>
     <use x="737.890625" xlink:href="#DejaVuSans-32"/>
     <use x="769.677734" xlink:href="#DejaVuSans-50"/>
     <use x="833.300781" xlink:href="#DejaVuSans-48"/>
     <use x="896.923828" xlink:href="#DejaVuSans-48"/>
     <use x="960.546875" xlink:href="#DejaVuSans-46"/>
     <use x="992.333984" xlink:href="#DejaVuSans-48"/>
     <use x="1055.957031" xlink:href="#DejaVuSans-48"/>
     <use x="1119.580078" xlink:href="#DejaVuSans-48"/>
     <use x="1183.203125" xlink:href="#DejaVuSans-48"/>
     <use x="1246.826172" xlink:href="#DejaVuSans-48"/>
     <use x="1310.449219" xlink:href="#DejaVuSans-48"/>
    </g>
    <!-- dtype: float64 -->
    <g style="fill:#262626;" transform="translate(193.904063 35.472)scale(0.12 -0.12)">
     <use xlink:href="#DejaVuSans-100"/>
     <use x="63.476562" xlink:href="#DejaVuSans-116"/>
     <use x="102.685547" xlink:href="#DejaVuSans-121"/>
     <use x="161.865234" xlink:href="#DejaVuSans-112"/>
     <use x="225.341797" xlink:href="#DejaVuSans-101"/>
     <use x="286.865234" xlink:href="#DejaVuSans-58"/>
     <use x="320.556641" xlink:href="#DejaVuSans-32"/>
     <use x="352.34375" xlink:href="#DejaVuSans-102"/>
     <use x="387.548828" xlink:href="#DejaVuSans-108"/>
     <use x="415.332031" xlink:href="#DejaVuSans-111"/>
     <use x="476.513672" xlink:href="#DejaVuSans-97"/>
     <use x="537.792969" xlink:href="#DejaVuSans-116"/>
     <use x="577.001953" xlink:href="#DejaVuSans-54"/>
     <use x="640.625" xlink:href="#DejaVuSans-52"/>
    </g>
   </g>
   <g id="legend_1">
    <g id="patch_9">
     <path d="M 368.02 93.506375 
L 407.72 93.506375 
Q 409.72 93.506375 409.72 91.506375 
L 409.72 48.472 
Q 409.72 46.472 407.72 46.472 
L 368.02 46.472 
Q 366.02 46.472 366.02 48.472 
L 366.02 91.506375 
Q 366.02 93.506375 368.02 93.506375 
z
" style="fill:#ffffff;opacity:0.8;stroke:#cccccc;stroke-linejoin:miter;"/>
    </g>
    <g id="text_16">
     <!-- Mode -->
     <defs>
      <path d="M 9.8125 72.90625 
L 24.515625 72.90625 
L 43.109375 23.296875 
L 61.8125 72.90625 
L 76.515625 72.90625 
L 76.515625 0 
L 66.890625 0 
L 66.890625 64.015625 
L 48.09375 14.015625 
L 38.1875 14.015625 
L 19.390625 64.015625 
L 19.390625 0 
L 9.8125 0 
z
" id="DejaVuSans-77"/>
     </defs>
     <g style="fill:#262626;" transform="translate(374.245781 58.070438)scale(0.1 -0.1)">
      <use xlink:href="#DejaVuSans-77"/>
      <use x="86.279297" xlink:href="#DejaVuSans-111"/>
      <use x="147.460938" xlink:href="#DejaVuSans-100"/>
      <use x="210.9375" xlink:href="#DejaVuSans-101"/>
     </g>
    </g>
    <g id="patch_10">
     <path d="M 370.02 72.748563 
L 390.02 72.748563 
L 390.02 65.748563 
L 370.02 65.748563 
z
" style="fill:#3274a1;"/>
    </g>
    <g id="text_17">
     <!-- A -->
     <g style="fill:#262626;" transform="translate(398.02 72.748563)scale(0.1 -0.1)">
      <use xlink:href="#DejaVuSans-65"/>
     </g>
    </g>
    <g id="patch_11">
     <path d="M 370.02 87.426688 
L 390.02 87.426688 
L 390.02 80.426688 
L 370.02 80.426688 
z
" style="fill:#e1812c;"/>
    </g>
    <g id="text_18">
     <!-- D -->
     <g style="fill:#262626;" transform="translate(398.02 87.426688)scale(0.1 -0.1)">
      <use xlink:href="#DejaVuSans-68"/>
     </g>
    </g>
   </g>
  </g>
 </g>
 <defs>
  <clipPath id="p1bcfb6d7c4">
   <rect height="266.112" width="357.12" x="57.6" y="41.472"/>
  </clipPath>
 </defs>
</svg>
