<?xml version="1.0" encoding="utf-8" standalone="no"?>
<!DOCTYPE svg PUBLIC "-//W3C//DTD SVG 1.1//EN"
  "http://www.w3.org/Graphics/SVG/1.1/DTD/svg11.dtd">
<!-- Created with matplotlib (https://matplotlib.org/) -->
<svg height="345.6pt" version="1.1" viewBox="0 0 460.8 345.6" width="460.8pt" xmlns="http://www.w3.org/2000/svg" xmlns:xlink="http://www.w3.org/1999/xlink">
 <defs>
  <style type="text/css">
*{stroke-linecap:butt;stroke-linejoin:round;}
  </style>
 </defs>
 <g id="figure_1">
  <g id="patch_1">
   <path d="M 0 345.6 
L 460.8 345.6 
L 460.8 0 
L 0 0 
z
" style="fill:#ffffff;"/>
  </g>
  <g id="axes_1">
   <g id="patch_2">
    <path d="M 57.6 307.584 
L 414.72 307.584 
L 414.72 41.472 
L 57.6 41.472 
z
" style="fill:#ffffff;"/>
   </g>
   <g id="matplotlib.axis_1">
    <g id="xtick_1">
     <g id="line2d_1">
      <path clip-path="url(#p29cfebe0f2)" d="M 57.6 307.584 
L 57.6 41.472 
" style="fill:none;stroke:#cccccc;stroke-linecap:round;stroke-width:0.8;"/>
     </g>
     <g id="text_1">
      <!-- 0.0 -->
      <defs>
       <path d="M 31.78125 66.40625 
Q 24.171875 66.40625 20.328125 58.90625 
Q 16.5 51.421875 16.5 36.375 
Q 16.5 21.390625 20.328125 13.890625 
Q 24.171875 6.390625 31.78125 6.390625 
Q 39.453125 6.390625 43.28125 13.890625 
Q 47.125 21.390625 47.125 36.375 
Q 47.125 51.421875 43.28125 58.90625 
Q 39.453125 66.40625 31.78125 66.40625 
z
M 31.78125 74.21875 
Q 44.046875 74.21875 50.515625 64.515625 
Q 56.984375 54.828125 56.984375 36.375 
Q 56.984375 17.96875 50.515625 8.265625 
Q 44.046875 -1.421875 31.78125 -1.421875 
Q 19.53125 -1.421875 13.0625 8.265625 
Q 6.59375 17.96875 6.59375 36.375 
Q 6.59375 54.828125 13.0625 64.515625 
Q 19.53125 74.21875 31.78125 74.21875 
z
" id="DejaVuSans-48"/>
       <path d="M 10.6875 12.40625 
L 21 12.40625 
L 21 0 
L 10.6875 0 
z
" id="DejaVuSans-46"/>
      </defs>
      <g style="fill:#262626;" transform="translate(49.648438 322.182437)scale(0.1 -0.1)">
       <use xlink:href="#DejaVuSans-48"/>
       <use x="63.623047" xlink:href="#DejaVuSans-46"/>
       <use x="95.410156" xlink:href="#DejaVuSans-48"/>
      </g>
     </g>
    </g>
    <g id="xtick_2">
     <g id="line2d_2">
      <path clip-path="url(#p29cfebe0f2)" d="M 87.36 307.584 
L 87.36 41.472 
" style="fill:none;stroke:#cccccc;stroke-linecap:round;stroke-width:0.8;"/>
     </g>
     <g id="text_2">
      <!-- 0.2 -->
      <defs>
       <path d="M 19.1875 8.296875 
L 53.609375 8.296875 
L 53.609375 0 
L 7.328125 0 
L 7.328125 8.296875 
Q 12.9375 14.109375 22.625 23.890625 
Q 32.328125 33.6875 34.8125 36.53125 
Q 39.546875 41.84375 41.421875 45.53125 
Q 43.3125 49.21875 43.3125 52.78125 
Q 43.3125 58.59375 39.234375 62.25 
Q 35.15625 65.921875 28.609375 65.921875 
Q 23.96875 65.921875 18.8125 64.3125 
Q 13.671875 62.703125 7.8125 59.421875 
L 7.8125 69.390625 
Q 13.765625 71.78125 18.9375 73 
Q 24.125 74.21875 28.421875 74.21875 
Q 39.75 74.21875 46.484375 68.546875 
Q 53.21875 62.890625 53.21875 53.421875 
Q 53.21875 48.921875 51.53125 44.890625 
Q 49.859375 40.875 45.40625 35.40625 
Q 44.1875 33.984375 37.640625 27.21875 
Q 31.109375 20.453125 19.1875 8.296875 
z
" id="DejaVuSans-50"/>
      </defs>
      <g style="fill:#262626;" transform="translate(79.408438 322.182437)scale(0.1 -0.1)">
       <use xlink:href="#DejaVuSans-48"/>
       <use x="63.623047" xlink:href="#DejaVuSans-46"/>
       <use x="95.410156" xlink:href="#DejaVuSans-50"/>
      </g>
     </g>
    </g>
    <g id="xtick_3">
     <g id="line2d_3">
      <path clip-path="url(#p29cfebe0f2)" d="M 117.12 307.584 
L 117.12 41.472 
" style="fill:none;stroke:#cccccc;stroke-linecap:round;stroke-width:0.8;"/>
     </g>
     <g id="text_3">
      <!-- 0.4 -->
      <defs>
       <path d="M 37.796875 64.3125 
L 12.890625 25.390625 
L 37.796875 25.390625 
z
M 35.203125 72.90625 
L 47.609375 72.90625 
L 47.609375 25.390625 
L 58.015625 25.390625 
L 58.015625 17.1875 
L 47.609375 17.1875 
L 47.609375 0 
L 37.796875 0 
L 37.796875 17.1875 
L 4.890625 17.1875 
L 4.890625 26.703125 
z
" id="DejaVuSans-52"/>
      </defs>
      <g style="fill:#262626;" transform="translate(109.168438 322.182437)scale(0.1 -0.1)">
       <use xlink:href="#DejaVuSans-48"/>
       <use x="63.623047" xlink:href="#DejaVuSans-46"/>
       <use x="95.410156" xlink:href="#DejaVuSans-52"/>
      </g>
     </g>
    </g>
    <g id="xtick_4">
     <g id="line2d_4">
      <path clip-path="url(#p29cfebe0f2)" d="M 146.88 307.584 
L 146.88 41.472 
" style="fill:none;stroke:#cccccc;stroke-linecap:round;stroke-width:0.8;"/>
     </g>
     <g id="text_4">
      <!-- 0.6 -->
      <defs>
       <path d="M 33.015625 40.375 
Q 26.375 40.375 22.484375 35.828125 
Q 18.609375 31.296875 18.609375 23.390625 
Q 18.609375 15.53125 22.484375 10.953125 
Q 26.375 6.390625 33.015625 6.390625 
Q 39.65625 6.390625 43.53125 10.953125 
Q 47.40625 15.53125 47.40625 23.390625 
Q 47.40625 31.296875 43.53125 35.828125 
Q 39.65625 40.375 33.015625 40.375 
z
M 52.59375 71.296875 
L 52.59375 62.3125 
Q 48.875 64.0625 45.09375 64.984375 
Q 41.3125 65.921875 37.59375 65.921875 
Q 27.828125 65.921875 22.671875 59.328125 
Q 17.53125 52.734375 16.796875 39.40625 
Q 19.671875 43.65625 24.015625 45.921875 
Q 28.375 48.1875 33.59375 48.1875 
Q 44.578125 48.1875 50.953125 41.515625 
Q 57.328125 34.859375 57.328125 23.390625 
Q 57.328125 12.15625 50.6875 5.359375 
Q 44.046875 -1.421875 33.015625 -1.421875 
Q 20.359375 -1.421875 13.671875 8.265625 
Q 6.984375 17.96875 6.984375 36.375 
Q 6.984375 53.65625 15.1875 63.9375 
Q 23.390625 74.21875 37.203125 74.21875 
Q 40.921875 74.21875 44.703125 73.484375 
Q 48.484375 72.75 52.59375 71.296875 
z
" id="DejaVuSans-54"/>
      </defs>
      <g style="fill:#262626;" transform="translate(138.928438 322.182437)scale(0.1 -0.1)">
       <use xlink:href="#DejaVuSans-48"/>
       <use x="63.623047" xlink:href="#DejaVuSans-46"/>
       <use x="95.410156" xlink:href="#DejaVuSans-54"/>
      </g>
     </g>
    </g>
    <g id="xtick_5">
     <g id="line2d_5">
      <path clip-path="url(#p29cfebe0f2)" d="M 176.64 307.584 
L 176.64 41.472 
" style="fill:none;stroke:#cccccc;stroke-linecap:round;stroke-width:0.8;"/>
     </g>
     <g id="text_5">
      <!-- 0.8 -->
      <defs>
       <path d="M 31.78125 34.625 
Q 24.75 34.625 20.71875 30.859375 
Q 16.703125 27.09375 16.703125 20.515625 
Q 16.703125 13.921875 20.71875 10.15625 
Q 24.75 6.390625 31.78125 6.390625 
Q 38.8125 6.390625 42.859375 10.171875 
Q 46.921875 13.96875 46.921875 20.515625 
Q 46.921875 27.09375 42.890625 30.859375 
Q 38.875 34.625 31.78125 34.625 
z
M 21.921875 38.8125 
Q 15.578125 40.375 12.03125 44.71875 
Q 8.5 49.078125 8.5 55.328125 
Q 8.5 64.0625 14.71875 69.140625 
Q 20.953125 74.21875 31.78125 74.21875 
Q 42.671875 74.21875 48.875 69.140625 
Q 55.078125 64.0625 55.078125 55.328125 
Q 55.078125 49.078125 51.53125 44.71875 
Q 48 40.375 41.703125 38.8125 
Q 48.828125 37.15625 52.796875 32.3125 
Q 56.78125 27.484375 56.78125 20.515625 
Q 56.78125 9.90625 50.3125 4.234375 
Q 43.84375 -1.421875 31.78125 -1.421875 
Q 19.734375 -1.421875 13.25 4.234375 
Q 6.78125 9.90625 6.78125 20.515625 
Q 6.78125 27.484375 10.78125 32.3125 
Q 14.796875 37.15625 21.921875 38.8125 
z
M 18.3125 54.390625 
Q 18.3125 48.734375 21.84375 45.5625 
Q 25.390625 42.390625 31.78125 42.390625 
Q 38.140625 42.390625 41.71875 45.5625 
Q 45.3125 48.734375 45.3125 54.390625 
Q 45.3125 60.0625 41.71875 63.234375 
Q 38.140625 66.40625 31.78125 66.40625 
Q 25.390625 66.40625 21.84375 63.234375 
Q 18.3125 60.0625 18.3125 54.390625 
z
" id="DejaVuSans-56"/>
      </defs>
      <g style="fill:#262626;" transform="translate(168.688438 322.182437)scale(0.1 -0.1)">
       <use xlink:href="#DejaVuSans-48"/>
       <use x="63.623047" xlink:href="#DejaVuSans-46"/>
       <use x="95.410156" xlink:href="#DejaVuSans-56"/>
      </g>
     </g>
    </g>
    <g id="xtick_6">
     <g id="line2d_6">
      <path clip-path="url(#p29cfebe0f2)" d="M 206.4 307.584 
L 206.4 41.472 
" style="fill:none;stroke:#cccccc;stroke-linecap:round;stroke-width:0.8;"/>
     </g>
     <g id="text_6">
      <!-- 1.0 -->
      <defs>
       <path d="M 12.40625 8.296875 
L 28.515625 8.296875 
L 28.515625 63.921875 
L 10.984375 60.40625 
L 10.984375 69.390625 
L 28.421875 72.90625 
L 38.28125 72.90625 
L 38.28125 8.296875 
L 54.390625 8.296875 
L 54.390625 0 
L 12.40625 0 
z
" id="DejaVuSans-49"/>
      </defs>
      <g style="fill:#262626;" transform="translate(198.448438 322.182437)scale(0.1 -0.1)">
       <use xlink:href="#DejaVuSans-49"/>
       <use x="63.623047" xlink:href="#DejaVuSans-46"/>
       <use x="95.410156" xlink:href="#DejaVuSans-48"/>
      </g>
     </g>
    </g>
    <g id="xtick_7">
     <g id="line2d_7">
      <path clip-path="url(#p29cfebe0f2)" d="M 236.16 307.584 
L 236.16 41.472 
" style="fill:none;stroke:#cccccc;stroke-linecap:round;stroke-width:0.8;"/>
     </g>
     <g id="text_7">
      <!-- 1.2 -->
      <g style="fill:#262626;" transform="translate(228.208438 322.182437)scale(0.1 -0.1)">
       <use xlink:href="#DejaVuSans-49"/>
       <use x="63.623047" xlink:href="#DejaVuSans-46"/>
       <use x="95.410156" xlink:href="#DejaVuSans-50"/>
      </g>
     </g>
    </g>
    <g id="xtick_8">
     <g id="line2d_8">
      <path clip-path="url(#p29cfebe0f2)" d="M 265.92 307.584 
L 265.92 41.472 
" style="fill:none;stroke:#cccccc;stroke-linecap:round;stroke-width:0.8;"/>
     </g>
     <g id="text_8">
      <!-- 1.4 -->
      <g style="fill:#262626;" transform="translate(257.968437 322.182437)scale(0.1 -0.1)">
       <use xlink:href="#DejaVuSans-49"/>
       <use x="63.623047" xlink:href="#DejaVuSans-46"/>
       <use x="95.410156" xlink:href="#DejaVuSans-52"/>
      </g>
     </g>
    </g>
    <g id="xtick_9">
     <g id="line2d_9">
      <path clip-path="url(#p29cfebe0f2)" d="M 295.68 307.584 
L 295.68 41.472 
" style="fill:none;stroke:#cccccc;stroke-linecap:round;stroke-width:0.8;"/>
     </g>
     <g id="text_9">
      <!-- 1.6 -->
      <g style="fill:#262626;" transform="translate(287.728438 322.182437)scale(0.1 -0.1)">
       <use xlink:href="#DejaVuSans-49"/>
       <use x="63.623047" xlink:href="#DejaVuSans-46"/>
       <use x="95.410156" xlink:href="#DejaVuSans-54"/>
      </g>
     </g>
    </g>
    <g id="xtick_10">
     <g id="line2d_10">
      <path clip-path="url(#p29cfebe0f2)" d="M 325.44 307.584 
L 325.44 41.472 
" style="fill:none;stroke:#cccccc;stroke-linecap:round;stroke-width:0.8;"/>
     </g>
     <g id="text_10">
      <!-- 1.8 -->
      <g style="fill:#262626;" transform="translate(317.488438 322.182437)scale(0.1 -0.1)">
       <use xlink:href="#DejaVuSans-49"/>
       <use x="63.623047" xlink:href="#DejaVuSans-46"/>
       <use x="95.410156" xlink:href="#DejaVuSans-56"/>
      </g>
     </g>
    </g>
    <g id="xtick_11">
     <g id="line2d_11">
      <path clip-path="url(#p29cfebe0f2)" d="M 355.2 307.584 
L 355.2 41.472 
" style="fill:none;stroke:#cccccc;stroke-linecap:round;stroke-width:0.8;"/>
     </g>
     <g id="text_11">
      <!-- 2.0 -->
      <g style="fill:#262626;" transform="translate(347.248438 322.182437)scale(0.1 -0.1)">
       <use xlink:href="#DejaVuSans-50"/>
       <use x="63.623047" xlink:href="#DejaVuSans-46"/>
       <use x="95.410156" xlink:href="#DejaVuSans-48"/>
      </g>
     </g>
    </g>
    <g id="xtick_12">
     <g id="line2d_12">
      <path clip-path="url(#p29cfebe0f2)" d="M 384.96 307.584 
L 384.96 41.472 
" style="fill:none;stroke:#cccccc;stroke-linecap:round;stroke-width:0.8;"/>
     </g>
     <g id="text_12">
      <!-- 2.2 -->
      <g style="fill:#262626;" transform="translate(377.008438 322.182437)scale(0.1 -0.1)">
       <use xlink:href="#DejaVuSans-50"/>
       <use x="63.623047" xlink:href="#DejaVuSans-46"/>
       <use x="95.410156" xlink:href="#DejaVuSans-50"/>
      </g>
     </g>
    </g>
    <g id="xtick_13">
     <g id="line2d_13">
      <path clip-path="url(#p29cfebe0f2)" d="M 414.72 307.584 
L 414.72 41.472 
" style="fill:none;stroke:#cccccc;stroke-linecap:round;stroke-width:0.8;"/>
     </g>
     <g id="text_13">
      <!-- 2.4 -->
      <g style="fill:#262626;" transform="translate(406.768438 322.182437)scale(0.1 -0.1)">
       <use xlink:href="#DejaVuSans-50"/>
       <use x="63.623047" xlink:href="#DejaVuSans-46"/>
       <use x="95.410156" xlink:href="#DejaVuSans-52"/>
      </g>
     </g>
    </g>
    <g id="text_14">
     <!-- Loading_Time -->
     <defs>
      <path d="M 9.8125 72.90625 
L 19.671875 72.90625 
L 19.671875 8.296875 
L 55.171875 8.296875 
L 55.171875 0 
L 9.8125 0 
z
" id="DejaVuSans-76"/>
      <path d="M 30.609375 48.390625 
Q 23.390625 48.390625 19.1875 42.75 
Q 14.984375 37.109375 14.984375 27.296875 
Q 14.984375 17.484375 19.15625 11.84375 
Q 23.34375 6.203125 30.609375 6.203125 
Q 37.796875 6.203125 41.984375 11.859375 
Q 46.1875 17.53125 46.1875 27.296875 
Q 46.1875 37.015625 41.984375 42.703125 
Q 37.796875 48.390625 30.609375 48.390625 
z
M 30.609375 56 
Q 42.328125 56 49.015625 48.375 
Q 55.71875 40.765625 55.71875 27.296875 
Q 55.71875 13.875 49.015625 6.21875 
Q 42.328125 -1.421875 30.609375 -1.421875 
Q 18.84375 -1.421875 12.171875 6.21875 
Q 5.515625 13.875 5.515625 27.296875 
Q 5.515625 40.765625 12.171875 48.375 
Q 18.84375 56 30.609375 56 
z
" id="DejaVuSans-111"/>
      <path d="M 34.28125 27.484375 
Q 23.390625 27.484375 19.1875 25 
Q 14.984375 22.515625 14.984375 16.5 
Q 14.984375 11.71875 18.140625 8.90625 
Q 21.296875 6.109375 26.703125 6.109375 
Q 34.1875 6.109375 38.703125 11.40625 
Q 43.21875 16.703125 43.21875 25.484375 
L 43.21875 27.484375 
z
M 52.203125 31.203125 
L 52.203125 0 
L 43.21875 0 
L 43.21875 8.296875 
Q 40.140625 3.328125 35.546875 0.953125 
Q 30.953125 -1.421875 24.3125 -1.421875 
Q 15.921875 -1.421875 10.953125 3.296875 
Q 6 8.015625 6 15.921875 
Q 6 25.140625 12.171875 29.828125 
Q 18.359375 34.515625 30.609375 34.515625 
L 43.21875 34.515625 
L 43.21875 35.40625 
Q 43.21875 41.609375 39.140625 45 
Q 35.0625 48.390625 27.6875 48.390625 
Q 23 48.390625 18.546875 47.265625 
Q 14.109375 46.140625 10.015625 43.890625 
L 10.015625 52.203125 
Q 14.9375 54.109375 19.578125 55.046875 
Q 24.21875 56 28.609375 56 
Q 40.484375 56 46.34375 49.84375 
Q 52.203125 43.703125 52.203125 31.203125 
z
" id="DejaVuSans-97"/>
      <path d="M 45.40625 46.390625 
L 45.40625 75.984375 
L 54.390625 75.984375 
L 54.390625 0 
L 45.40625 0 
L 45.40625 8.203125 
Q 42.578125 3.328125 38.25 0.953125 
Q 33.9375 -1.421875 27.875 -1.421875 
Q 17.96875 -1.421875 11.734375 6.484375 
Q 5.515625 14.40625 5.515625 27.296875 
Q 5.515625 40.1875 11.734375 48.09375 
Q 17.96875 56 27.875 56 
Q 33.9375 56 38.25 53.625 
Q 42.578125 51.265625 45.40625 46.390625 
z
M 14.796875 27.296875 
Q 14.796875 17.390625 18.875 11.75 
Q 22.953125 6.109375 30.078125 6.109375 
Q 37.203125 6.109375 41.296875 11.75 
Q 45.40625 17.390625 45.40625 27.296875 
Q 45.40625 37.203125 41.296875 42.84375 
Q 37.203125 48.484375 30.078125 48.484375 
Q 22.953125 48.484375 18.875 42.84375 
Q 14.796875 37.203125 14.796875 27.296875 
z
" id="DejaVuSans-100"/>
      <path d="M 9.421875 54.6875 
L 18.40625 54.6875 
L 18.40625 0 
L 9.421875 0 
z
M 9.421875 75.984375 
L 18.40625 75.984375 
L 18.40625 64.59375 
L 9.421875 64.59375 
z
" id="DejaVuSans-105"/>
      <path d="M 54.890625 33.015625 
L 54.890625 0 
L 45.90625 0 
L 45.90625 32.71875 
Q 45.90625 40.484375 42.875 44.328125 
Q 39.84375 48.1875 33.796875 48.1875 
Q 26.515625 48.1875 22.3125 43.546875 
Q 18.109375 38.921875 18.109375 30.90625 
L 18.109375 0 
L 9.078125 0 
L 9.078125 54.6875 
L 18.109375 54.6875 
L 18.109375 46.1875 
Q 21.34375 51.125 25.703125 53.5625 
Q 30.078125 56 35.796875 56 
Q 45.21875 56 50.046875 50.171875 
Q 54.890625 44.34375 54.890625 33.015625 
z
" id="DejaVuSans-110"/>
      <path d="M 45.40625 27.984375 
Q 45.40625 37.75 41.375 43.109375 
Q 37.359375 48.484375 30.078125 48.484375 
Q 22.859375 48.484375 18.828125 43.109375 
Q 14.796875 37.75 14.796875 27.984375 
Q 14.796875 18.265625 18.828125 12.890625 
Q 22.859375 7.515625 30.078125 7.515625 
Q 37.359375 7.515625 41.375 12.890625 
Q 45.40625 18.265625 45.40625 27.984375 
z
M 54.390625 6.78125 
Q 54.390625 -7.171875 48.1875 -13.984375 
Q 42 -20.796875 29.203125 -20.796875 
Q 24.46875 -20.796875 20.265625 -20.09375 
Q 16.0625 -19.390625 12.109375 -17.921875 
L 12.109375 -9.1875 
Q 16.0625 -11.328125 19.921875 -12.34375 
Q 23.78125 -13.375 27.78125 -13.375 
Q 36.625 -13.375 41.015625 -8.765625 
Q 45.40625 -4.15625 45.40625 5.171875 
L 45.40625 9.625 
Q 42.625 4.78125 38.28125 2.390625 
Q 33.9375 0 27.875 0 
Q 17.828125 0 11.671875 7.65625 
Q 5.515625 15.328125 5.515625 27.984375 
Q 5.515625 40.671875 11.671875 48.328125 
Q 17.828125 56 27.875 56 
Q 33.9375 56 38.28125 53.609375 
Q 42.625 51.21875 45.40625 46.390625 
L 45.40625 54.6875 
L 54.390625 54.6875 
z
" id="DejaVuSans-103"/>
      <path d="M 50.984375 -16.609375 
L 50.984375 -23.578125 
L -0.984375 -23.578125 
L -0.984375 -16.609375 
z
" id="DejaVuSans-95"/>
      <path d="M -0.296875 72.90625 
L 61.375 72.90625 
L 61.375 64.59375 
L 35.5 64.59375 
L 35.5 0 
L 25.59375 0 
L 25.59375 64.59375 
L -0.296875 64.59375 
z
" id="DejaVuSans-84"/>
      <path d="M 52 44.1875 
Q 55.375 50.25 60.0625 53.125 
Q 64.75 56 71.09375 56 
Q 79.640625 56 84.28125 50.015625 
Q 88.921875 44.046875 88.921875 33.015625 
L 88.921875 0 
L 79.890625 0 
L 79.890625 32.71875 
Q 79.890625 40.578125 77.09375 44.375 
Q 74.3125 48.1875 68.609375 48.1875 
Q 61.625 48.1875 57.5625 43.546875 
Q 53.515625 38.921875 53.515625 30.90625 
L 53.515625 0 
L 44.484375 0 
L 44.484375 32.71875 
Q 44.484375 40.625 41.703125 44.40625 
Q 38.921875 48.1875 33.109375 48.1875 
Q 26.21875 48.1875 22.15625 43.53125 
Q 18.109375 38.875 18.109375 30.90625 
L 18.109375 0 
L 9.078125 0 
L 9.078125 54.6875 
L 18.109375 54.6875 
L 18.109375 46.1875 
Q 21.1875 51.21875 25.484375 53.609375 
Q 29.78125 56 35.6875 56 
Q 41.65625 56 45.828125 52.96875 
Q 50 49.953125 52 44.1875 
z
" id="DejaVuSans-109"/>
      <path d="M 56.203125 29.59375 
L 56.203125 25.203125 
L 14.890625 25.203125 
Q 15.484375 15.921875 20.484375 11.0625 
Q 25.484375 6.203125 34.421875 6.203125 
Q 39.59375 6.203125 44.453125 7.46875 
Q 49.3125 8.734375 54.109375 11.28125 
L 54.109375 2.78125 
Q 49.265625 0.734375 44.1875 -0.34375 
Q 39.109375 -1.421875 33.890625 -1.421875 
Q 20.796875 -1.421875 13.15625 6.1875 
Q 5.515625 13.8125 5.515625 26.8125 
Q 5.515625 40.234375 12.765625 48.109375 
Q 20.015625 56 32.328125 56 
Q 43.359375 56 49.78125 48.890625 
Q 56.203125 41.796875 56.203125 29.59375 
z
M 47.21875 32.234375 
Q 47.125 39.59375 43.09375 43.984375 
Q 39.0625 48.390625 32.421875 48.390625 
Q 24.90625 48.390625 20.390625 44.140625 
Q 15.875 39.890625 15.1875 32.171875 
z
" id="DejaVuSans-101"/>
     </defs>
     <g style="fill:#262626;" transform="translate(201.457656 335.860562)scale(0.1 -0.1)">
      <use xlink:href="#DejaVuSans-76"/>
      <use x="55.697266" xlink:href="#DejaVuSans-111"/>
      <use x="116.878906" xlink:href="#DejaVuSans-97"/>
      <use x="178.158203" xlink:href="#DejaVuSans-100"/>
      <use x="241.634766" xlink:href="#DejaVuSans-105"/>
      <use x="269.417969" xlink:href="#DejaVuSans-110"/>
      <use x="332.796875" xlink:href="#DejaVuSans-103"/>
      <use x="396.273438" xlink:href="#DejaVuSans-95"/>
      <use x="446.273438" xlink:href="#DejaVuSans-84"/>
      <use x="507.310547" xlink:href="#DejaVuSans-105"/>
      <use x="535.09375" xlink:href="#DejaVuSans-109"/>
      <use x="632.505859" xlink:href="#DejaVuSans-101"/>
     </g>
    </g>
   </g>
   <g id="matplotlib.axis_2">
    <g id="ytick_1">
     <g id="text_15">
      <!-- /48492 -->
      <defs>
       <path d="M 25.390625 72.90625 
L 33.6875 72.90625 
L 8.296875 -9.28125 
L 0 -9.28125 
z
" id="DejaVuSans-47"/>
       <path d="M 10.984375 1.515625 
L 10.984375 10.5 
Q 14.703125 8.734375 18.5 7.8125 
Q 22.3125 6.890625 25.984375 6.890625 
Q 35.75 6.890625 40.890625 13.453125 
Q 46.046875 20.015625 46.78125 33.40625 
Q 43.953125 29.203125 39.59375 26.953125 
Q 35.25 24.703125 29.984375 24.703125 
Q 19.046875 24.703125 12.671875 31.3125 
Q 6.296875 37.9375 6.296875 49.421875 
Q 6.296875 60.640625 12.9375 67.421875 
Q 19.578125 74.21875 30.609375 74.21875 
Q 43.265625 74.21875 49.921875 64.515625 
Q 56.59375 54.828125 56.59375 36.375 
Q 56.59375 19.140625 48.40625 8.859375 
Q 40.234375 -1.421875 26.421875 -1.421875 
Q 22.703125 -1.421875 18.890625 -0.6875 
Q 15.09375 0.046875 10.984375 1.515625 
z
M 30.609375 32.421875 
Q 37.25 32.421875 41.125 36.953125 
Q 45.015625 41.5 45.015625 49.421875 
Q 45.015625 57.28125 41.125 61.84375 
Q 37.25 66.40625 30.609375 66.40625 
Q 23.96875 66.40625 20.09375 61.84375 
Q 16.21875 57.28125 16.21875 49.421875 
Q 16.21875 41.5 20.09375 36.953125 
Q 23.96875 32.421875 30.609375 32.421875 
z
" id="DejaVuSans-57"/>
      </defs>
      <g style="fill:#262626;" transform="translate(15.41875 71.882419)scale(0.1 -0.1)">
       <use xlink:href="#DejaVuSans-47"/>
       <use x="33.691406" xlink:href="#DejaVuSans-52"/>
       <use x="97.314453" xlink:href="#DejaVuSans-56"/>
       <use x="160.9375" xlink:href="#DejaVuSans-52"/>
       <use x="224.560547" xlink:href="#DejaVuSans-57"/>
       <use x="288.183594" xlink:href="#DejaVuSans-50"/>
      </g>
     </g>
    </g>
    <g id="ytick_2">
     <g id="text_16">
      <!-- /24706 -->
      <defs>
       <path d="M 8.203125 72.90625 
L 55.078125 72.90625 
L 55.078125 68.703125 
L 28.609375 0 
L 18.3125 0 
L 43.21875 64.59375 
L 8.203125 64.59375 
z
" id="DejaVuSans-55"/>
      </defs>
      <g style="fill:#262626;" transform="translate(15.41875 125.104819)scale(0.1 -0.1)">
       <use xlink:href="#DejaVuSans-47"/>
       <use x="33.691406" xlink:href="#DejaVuSans-50"/>
       <use x="97.314453" xlink:href="#DejaVuSans-52"/>
       <use x="160.9375" xlink:href="#DejaVuSans-55"/>
       <use x="224.560547" xlink:href="#DejaVuSans-48"/>
       <use x="288.183594" xlink:href="#DejaVuSans-54"/>
      </g>
     </g>
    </g>
    <g id="ytick_3">
     <g id="text_17">
      <!-- /1617 -->
      <g style="fill:#262626;" transform="translate(21.78125 178.327219)scale(0.1 -0.1)">
       <use xlink:href="#DejaVuSans-47"/>
       <use x="33.691406" xlink:href="#DejaVuSans-49"/>
       <use x="97.314453" xlink:href="#DejaVuSans-54"/>
       <use x="160.9375" xlink:href="#DejaVuSans-49"/>
       <use x="224.560547" xlink:href="#DejaVuSans-55"/>
      </g>
     </g>
    </g>
    <g id="ytick_4">
     <g id="text_18">
      <!-- /19882 -->
      <g style="fill:#262626;" transform="translate(15.41875 231.549619)scale(0.1 -0.1)">
       <use xlink:href="#DejaVuSans-47"/>
       <use x="33.691406" xlink:href="#DejaVuSans-49"/>
       <use x="97.314453" xlink:href="#DejaVuSans-57"/>
       <use x="160.9375" xlink:href="#DejaVuSans-56"/>
       <use x="224.560547" xlink:href="#DejaVuSans-56"/>
       <use x="288.183594" xlink:href="#DejaVuSans-50"/>
      </g>
     </g>
    </g>
    <g id="ytick_5">
     <g id="text_19">
      <!-- /18922 -->
      <g style="fill:#262626;" transform="translate(15.41875 284.772019)scale(0.1 -0.1)">
       <use xlink:href="#DejaVuSans-47"/>
       <use x="33.691406" xlink:href="#DejaVuSans-49"/>
       <use x="97.314453" xlink:href="#DejaVuSans-56"/>
       <use x="160.9375" xlink:href="#DejaVuSans-57"/>
       <use x="224.560547" xlink:href="#DejaVuSans-50"/>
       <use x="288.183594" xlink:href="#DejaVuSans-50"/>
      </g>
     </g>
    </g>
    <g id="text_20">
     <!-- URL -->
     <defs>
      <path d="M 8.6875 72.90625 
L 18.609375 72.90625 
L 18.609375 28.609375 
Q 18.609375 16.890625 22.84375 11.734375 
Q 27.09375 6.59375 36.625 6.59375 
Q 46.09375 6.59375 50.34375 11.734375 
Q 54.59375 16.890625 54.59375 28.609375 
L 54.59375 72.90625 
L 64.5 72.90625 
L 64.5 27.390625 
Q 64.5 13.140625 57.4375 5.859375 
Q 50.390625 -1.421875 36.625 -1.421875 
Q 22.796875 -1.421875 15.734375 5.859375 
Q 8.6875 13.140625 8.6875 27.390625 
z
" id="DejaVuSans-85"/>
      <path d="M 44.390625 34.1875 
Q 47.5625 33.109375 50.5625 29.59375 
Q 53.5625 26.078125 56.59375 19.921875 
L 66.609375 0 
L 56 0 
L 46.6875 18.703125 
Q 43.0625 26.03125 39.671875 28.421875 
Q 36.28125 30.8125 30.421875 30.8125 
L 19.671875 30.8125 
L 19.671875 0 
L 9.8125 0 
L 9.8125 72.90625 
L 32.078125 72.90625 
Q 44.578125 72.90625 50.734375 67.671875 
Q 56.890625 62.453125 56.890625 51.90625 
Q 56.890625 45.015625 53.6875 40.46875 
Q 50.484375 35.9375 44.390625 34.1875 
z
M 19.671875 64.796875 
L 19.671875 38.921875 
L 32.078125 38.921875 
Q 39.203125 38.921875 42.84375 42.21875 
Q 46.484375 45.515625 46.484375 51.90625 
Q 46.484375 58.296875 42.84375 61.546875 
Q 39.203125 64.796875 32.078125 64.796875 
z
" id="DejaVuSans-82"/>
     </defs>
     <g style="fill:#262626;" transform="translate(9.339063 184.447531)rotate(-90)scale(0.1 -0.1)">
      <use xlink:href="#DejaVuSans-85"/>
      <use x="73.193359" xlink:href="#DejaVuSans-82"/>
      <use x="142.675781" xlink:href="#DejaVuSans-76"/>
     </g>
    </g>
   </g>
   <g id="PolyCollection_1">
    <defs>
     <path d="M 132.234643 -277.5168 
L 132.234643 -293.000814 
L 132.810434 -293.892489 
L 133.386225 -294.737044 
L 133.962017 -295.523786 
L 134.537808 -296.242799 
L 135.113599 -296.885191 
L 135.68939 -297.443305 
L 136.265182 -297.910885 
L 136.840973 -298.28321 
L 137.416764 -298.557171 
L 137.992555 -298.7313 
L 138.568347 -298.80576 
L 139.144138 -298.782273 
L 139.719929 -298.664024 
L 140.29572 -298.455519 
L 140.871512 -298.162424 
L 141.447303 -297.791374 
L 142.023094 -297.349785 
L 142.598885 -296.845646 
L 143.174677 -296.287322 
L 143.750468 -295.683367 
L 144.326259 -295.042345 
L 144.90205 -294.372671 
L 145.477842 -293.68247 
L 146.053633 -292.979461 
L 146.629424 -292.270856 
L 147.205215 -291.56329 
L 147.781007 -290.862762 
L 148.356798 -290.174602 
L 148.932589 -289.503456 
L 149.50838 -288.85328 
L 150.084172 -288.227362 
L 150.659963 -287.628341 
L 151.235754 -287.05825 
L 151.811545 -286.518555 
L 152.387337 -286.010214 
L 152.963128 -285.53373 
L 153.538919 -285.089209 
L 154.11471 -284.676424 
L 154.690502 -284.294867 
L 155.266293 -283.943809 
L 155.842084 -283.622347 
L 156.417875 -283.329445 
L 156.993667 -283.063975 
L 157.569458 -282.824737 
L 158.145249 -282.610484 
L 158.72104 -282.41993 
L 159.296832 -282.251755 
L 159.872623 -282.104601 
L 160.448414 -281.977071 
L 161.024205 -281.867716 
L 161.599996 -281.775029 
L 162.175788 -281.697439 
L 162.751579 -281.633311 
L 163.32737 -281.580943 
L 163.903161 -281.538581 
L 164.478953 -281.504432 
L 165.054744 -281.47669 
L 165.630535 -281.45356 
L 166.206326 -281.433297 
L 166.782118 -281.414242 
L 167.357909 -281.394857 
L 167.9337 -281.373768 
L 168.509491 -281.349794 
L 169.085283 -281.321978 
L 169.661074 -281.289604 
L 170.236865 -281.252214 
L 170.812656 -281.209602 
L 171.388448 -281.161811 
L 171.964239 -281.109106 
L 172.54003 -281.051954 
L 173.115821 -280.990976 
L 173.691613 -280.926913 
L 174.267404 -280.860572 
L 174.843195 -280.792783 
L 175.418986 -280.72435 
L 175.994778 -280.656008 
L 176.570569 -280.588387 
L 177.14636 -280.521981 
L 177.722151 -280.457131 
L 178.297943 -280.394011 
L 178.873734 -280.332628 
L 179.449525 -280.272832 
L 180.025316 -280.214328 
L 180.601108 -280.156705 
L 181.176899 -280.099459 
L 181.75269 -280.042026 
L 182.328481 -279.983819 
L 182.904273 -279.924255 
L 183.480064 -279.862788 
L 184.055855 -279.798936 
L 184.631646 -279.732303 
L 185.207438 -279.662599 
L 185.783229 -279.589646 
L 186.35902 -279.513389 
L 186.934811 -279.433896 
L 187.510603 -279.35135 
L 188.086394 -279.266045 
L 188.662185 -279.178373 
L 189.237976 -279.088808 
L 189.237976 -277.5168 
L 189.237976 -277.5168 
L 188.662185 -277.5168 
L 188.086394 -277.5168 
L 187.510603 -277.5168 
L 186.934811 -277.5168 
L 186.35902 -277.5168 
L 185.783229 -277.5168 
L 185.207438 -277.5168 
L 184.631646 -277.5168 
L 184.055855 -277.5168 
L 183.480064 -277.5168 
L 182.904273 -277.5168 
L 182.328481 -277.5168 
L 181.75269 -277.5168 
L 181.176899 -277.5168 
L 180.601108 -277.5168 
L 180.025316 -277.5168 
L 179.449525 -277.5168 
L 178.873734 -277.5168 
L 178.297943 -277.5168 
L 177.722151 -277.5168 
L 177.14636 -277.5168 
L 176.570569 -277.5168 
L 175.994778 -277.5168 
L 175.418986 -277.5168 
L 174.843195 -277.5168 
L 174.267404 -277.5168 
L 173.691613 -277.5168 
L 173.115821 -277.5168 
L 172.54003 -277.5168 
L 171.964239 -277.5168 
L 171.388448 -277.5168 
L 170.812656 -277.5168 
L 170.236865 -277.5168 
L 169.661074 -277.5168 
L 169.085283 -277.5168 
L 168.509491 -277.5168 
L 167.9337 -277.5168 
L 167.357909 -277.5168 
L 166.782118 -277.5168 
L 166.206326 -277.5168 
L 165.630535 -277.5168 
L 165.054744 -277.5168 
L 164.478953 -277.5168 
L 163.903161 -277.5168 
L 163.32737 -277.5168 
L 162.751579 -277.5168 
L 162.175788 -277.5168 
L 161.599996 -277.5168 
L 161.024205 -277.5168 
L 160.448414 -277.5168 
L 159.872623 -277.5168 
L 159.296832 -277.5168 
L 158.72104 -277.5168 
L 158.145249 -277.5168 
L 157.569458 -277.5168 
L 156.993667 -277.5168 
L 156.417875 -277.5168 
L 155.842084 -277.5168 
L 155.266293 -277.5168 
L 154.690502 -277.5168 
L 154.11471 -277.5168 
L 153.538919 -277.5168 
L 152.963128 -277.5168 
L 152.387337 -277.5168 
L 151.811545 -277.5168 
L 151.235754 -277.5168 
L 150.659963 -277.5168 
L 150.084172 -277.5168 
L 149.50838 -277.5168 
L 148.932589 -277.5168 
L 148.356798 -277.5168 
L 147.781007 -277.5168 
L 147.205215 -277.5168 
L 146.629424 -277.5168 
L 146.053633 -277.5168 
L 145.477842 -277.5168 
L 144.90205 -277.5168 
L 144.326259 -277.5168 
L 143.750468 -277.5168 
L 143.174677 -277.5168 
L 142.598885 -277.5168 
L 142.023094 -277.5168 
L 141.447303 -277.5168 
L 140.871512 -277.5168 
L 140.29572 -277.5168 
L 139.719929 -277.5168 
L 139.144138 -277.5168 
L 138.568347 -277.5168 
L 137.992555 -277.5168 
L 137.416764 -277.5168 
L 136.840973 -277.5168 
L 136.265182 -277.5168 
L 135.68939 -277.5168 
L 135.113599 -277.5168 
L 134.537808 -277.5168 
L 133.962017 -277.5168 
L 133.386225 -277.5168 
L 132.810434 -277.5168 
L 132.234643 -277.5168 
z
" id="mce9bccc0fe"/>
    </defs>
    <g clip-path="url(#p29cfebe0f2)">
     <use style="fill:#3274a1;" x="0" xlink:href="#mce9bccc0fe" y="345.6"/>
    </g>
   </g>
   <g id="PolyCollection_2">
    <defs>
     <path d="M 146.739746 -275.967345 
L 146.739746 -277.5168 
L 147.838534 -277.5168 
L 148.937321 -277.5168 
L 150.036109 -277.5168 
L 151.134896 -277.5168 
L 152.233684 -277.5168 
L 153.332471 -277.5168 
L 154.431259 -277.5168 
L 155.530046 -277.5168 
L 156.628834 -277.5168 
L 157.727621 -277.5168 
L 158.826409 -277.5168 
L 159.925196 -277.5168 
L 161.023983 -277.5168 
L 162.122771 -277.5168 
L 163.221558 -277.5168 
L 164.320346 -277.5168 
L 165.419133 -277.5168 
L 166.517921 -277.5168 
L 167.616708 -277.5168 
L 168.715496 -277.5168 
L 169.814283 -277.5168 
L 170.913071 -277.5168 
L 172.011858 -277.5168 
L 173.110645 -277.5168 
L 174.209433 -277.5168 
L 175.30822 -277.5168 
L 176.407008 -277.5168 
L 177.505795 -277.5168 
L 178.604583 -277.5168 
L 179.70337 -277.5168 
L 180.802158 -277.5168 
L 181.900945 -277.5168 
L 182.999733 -277.5168 
L 184.09852 -277.5168 
L 185.197308 -277.5168 
L 186.296095 -277.5168 
L 187.394882 -277.5168 
L 188.49367 -277.5168 
L 189.592457 -277.5168 
L 190.691245 -277.5168 
L 191.790032 -277.5168 
L 192.88882 -277.5168 
L 193.987607 -277.5168 
L 195.086395 -277.5168 
L 196.185182 -277.5168 
L 197.28397 -277.5168 
L 198.382757 -277.5168 
L 199.481544 -277.5168 
L 200.580332 -277.5168 
L 201.679119 -277.5168 
L 202.777907 -277.5168 
L 203.876694 -277.5168 
L 204.975482 -277.5168 
L 206.074269 -277.5168 
L 207.173057 -277.5168 
L 208.271844 -277.5168 
L 209.370632 -277.5168 
L 210.469419 -277.5168 
L 211.568206 -277.5168 
L 212.666994 -277.5168 
L 213.765781 -277.5168 
L 214.864569 -277.5168 
L 215.963356 -277.5168 
L 217.062144 -277.5168 
L 218.160931 -277.5168 
L 219.259719 -277.5168 
L 220.358506 -277.5168 
L 221.457294 -277.5168 
L 222.556081 -277.5168 
L 223.654869 -277.5168 
L 224.753656 -277.5168 
L 225.852443 -277.5168 
L 226.951231 -277.5168 
L 228.050018 -277.5168 
L 229.148806 -277.5168 
L 230.247593 -277.5168 
L 231.346381 -277.5168 
L 232.445168 -277.5168 
L 233.543956 -277.5168 
L 234.642743 -277.5168 
L 235.741531 -277.5168 
L 236.840318 -277.5168 
L 237.939105 -277.5168 
L 239.037893 -277.5168 
L 240.13668 -277.5168 
L 241.235468 -277.5168 
L 242.334255 -277.5168 
L 243.433043 -277.5168 
L 244.53183 -277.5168 
L 245.630618 -277.5168 
L 246.729405 -277.5168 
L 247.828193 -277.5168 
L 248.92698 -277.5168 
L 250.025768 -277.5168 
L 251.124555 -277.5168 
L 252.223342 -277.5168 
L 253.32213 -277.5168 
L 254.420917 -277.5168 
L 255.519705 -277.5168 
L 255.519705 -276.886887 
L 255.519705 -276.886887 
L 254.420917 -276.862297 
L 253.32213 -276.841386 
L 252.223342 -276.824078 
L 251.124555 -276.810189 
L 250.025768 -276.799445 
L 248.92698 -276.791503 
L 247.828193 -276.785956 
L 246.729405 -276.782334 
L 245.630618 -276.780086 
L 244.53183 -276.77855 
L 243.433043 -276.776917 
L 242.334255 -276.774186 
L 241.235468 -276.769123 
L 240.13668 -276.760223 
L 239.037893 -276.745698 
L 237.939105 -276.723474 
L 236.840318 -276.691219 
L 235.741531 -276.646402 
L 234.642743 -276.586369 
L 233.543956 -276.508446 
L 232.445168 -276.41006 
L 231.346381 -276.288865 
L 230.247593 -276.142867 
L 229.148806 -275.970543 
L 228.050018 -275.770934 
L 226.951231 -275.543716 
L 225.852443 -275.289238 
L 224.753656 -275.008521 
L 223.654869 -274.703218 
L 222.556081 -274.375548 
L 221.457294 -274.028189 
L 220.358506 -273.664157 
L 219.259719 -273.286675 
L 218.160931 -272.899033 
L 217.062144 -272.504469 
L 215.963356 -272.106065 
L 214.864569 -271.706675 
L 213.765781 -271.308885 
L 212.666994 -270.915011 
L 211.568206 -270.527124 
L 210.469419 -270.147104 
L 209.370632 -269.776697 
L 208.271844 -269.41758 
L 207.173057 -269.071403 
L 206.074269 -268.739817 
L 204.975482 -268.424459 
L 203.876694 -268.126916 
L 202.777907 -267.848659 
L 201.679119 -267.590964 
L 200.580332 -267.354832 
L 199.481544 -267.140933 
L 198.382757 -266.949587 
L 197.28397 -266.780791 
L 196.185182 -266.634307 
L 195.086395 -266.509794 
L 193.987607 -266.406995 
L 192.88882 -266.325923 
L 191.790032 -266.267061 
L 190.691245 -266.231509 
L 189.592457 -266.221077 
L 188.49367 -266.238288 
L 187.394882 -266.286278 
L 186.296095 -266.36861 
L 185.197308 -266.488983 
L 184.09852 -266.650894 
L 182.999733 -266.857254 
L 181.900945 -267.11002 
L 180.802158 -267.409871 
L 179.70337 -267.755954 
L 178.604583 -268.14575 
L 177.505795 -268.575052 
L 176.407008 -269.038074 
L 175.30822 -269.527671 
L 174.209433 -270.035661 
L 173.110645 -270.553212 
L 172.011858 -271.071263 
L 170.913071 -271.580949 
L 169.814283 -272.073993 
L 168.715496 -272.543049 
L 167.616708 -272.981963 
L 166.517921 -273.385955 
L 165.419133 -273.751719 
L 164.320346 -274.077436 
L 163.221558 -274.362721 
L 162.122771 -274.608513 
L 161.023983 -274.816914 
L 159.925196 -274.991009 
L 158.826409 -275.134654 
L 157.727621 -275.252268 
L 156.628834 -275.348609 
L 155.530046 -275.428569 
L 154.431259 -275.49697 
L 153.332471 -275.558376 
L 152.233684 -275.61693 
L 151.134896 -275.67621 
L 150.036109 -275.739121 
L 148.937321 -275.807824 
L 147.838534 -275.883697 
L 146.739746 -275.967345 
z
" id="ma44d1c2b83"/>
    </defs>
    <g clip-path="url(#p29cfebe0f2)">
     <use style="fill:#e1812c;" x="0" xlink:href="#ma44d1c2b83" y="345.6"/>
    </g>
   </g>
   <g id="PolyCollection_3">
    <defs>
     <path d="M 130.05868 -224.2944 
L 130.05868 -242.625121 
L 131.131251 -243.496307 
L 132.203821 -244.232681 
L 133.276392 -244.818698 
L 134.348963 -245.242914 
L 135.421533 -245.498468 
L 136.494104 -245.58336 
L 137.566674 -245.500494 
L 138.639245 -245.257484 
L 139.711815 -244.866243 
L 140.784386 -244.342373 
L 141.856956 -243.704405 
L 142.929527 -242.972924 
L 144.002097 -242.169635 
L 145.074668 -241.316435 
L 146.147239 -240.434523 
L 147.219809 -239.54361 
L 148.29238 -238.661253 
L 149.36495 -237.802355 
L 150.437521 -236.978831 
L 151.510091 -236.199463 
L 152.582662 -235.469915 
L 153.655232 -234.792917 
L 154.727803 -234.168566 
L 155.800373 -233.594743 
L 156.872944 -233.067594 
L 157.945515 -232.582037 
L 159.018085 -232.132284 
L 160.090656 -231.712321 
L 161.163226 -231.31634 
L 162.235797 -230.939095 
L 163.308367 -230.576167 
L 164.380938 -230.224139 
L 165.453508 -229.880674 
L 166.526079 -229.544511 
L 167.598649 -229.215382 
L 168.67122 -228.893866 
L 169.743791 -228.581208 
L 170.816361 -228.279101 
L 171.888932 -227.989477 
L 172.961502 -227.714292 
L 174.034073 -227.455342 
L 175.106643 -227.214108 
L 176.179214 -226.991644 
L 177.251784 -226.788504 
L 178.324355 -226.604716 
L 179.396925 -226.439784 
L 180.469496 -226.29274 
L 181.542067 -226.162208 
L 182.614637 -226.046495 
L 183.687208 -225.943688 
L 184.759778 -225.851761 
L 185.832349 -225.768669 
L 186.904919 -225.692445 
L 187.97749 -225.621272 
L 189.05006 -225.553545 
L 190.122631 -225.487919 
L 191.195201 -225.423336 
L 192.267772 -225.35903 
L 193.340343 -225.294529 
L 194.412913 -225.229632 
L 195.485484 -225.164384 
L 196.558054 -225.099039 
L 197.630625 -225.034019 
L 198.703195 -224.969875 
L 199.775766 -224.90724 
L 200.848336 -224.846797 
L 201.920907 -224.789241 
L 202.993478 -224.735252 
L 204.066048 -224.685476 
L 205.138619 -224.640507 
L 206.211189 -224.600884 
L 207.28376 -224.567083 
L 208.35633 -224.539526 
L 209.428901 -224.51858 
L 210.501471 -224.50456 
L 211.574042 -224.497742 
L 212.646612 -224.498351 
L 213.719183 -224.506568 
L 214.791754 -224.522516 
L 215.864324 -224.546245 
L 216.936895 -224.577716 
L 218.009465 -224.616774 
L 219.082036 -224.663126 
L 220.154606 -224.716313 
L 221.227177 -224.775689 
L 222.299747 -224.840402 
L 223.372318 -224.909388 
L 224.444888 -224.981371 
L 225.517459 -225.054884 
L 226.59003 -225.128291 
L 227.6626 -225.199835 
L 228.735171 -225.267694 
L 229.807741 -225.330041 
L 230.880312 -225.385124 
L 231.952882 -225.431335 
L 233.025453 -225.467284 
L 234.098023 -225.491864 
L 235.170594 -225.504304 
L 236.243164 -225.504205 
L 236.243164 -224.2944 
L 236.243164 -224.2944 
L 235.170594 -224.2944 
L 234.098023 -224.2944 
L 233.025453 -224.2944 
L 231.952882 -224.2944 
L 230.880312 -224.2944 
L 229.807741 -224.2944 
L 228.735171 -224.2944 
L 227.6626 -224.2944 
L 226.59003 -224.2944 
L 225.517459 -224.2944 
L 224.444888 -224.2944 
L 223.372318 -224.2944 
L 222.299747 -224.2944 
L 221.227177 -224.2944 
L 220.154606 -224.2944 
L 219.082036 -224.2944 
L 218.009465 -224.2944 
L 216.936895 -224.2944 
L 215.864324 -224.2944 
L 214.791754 -224.2944 
L 213.719183 -224.2944 
L 212.646612 -224.2944 
L 211.574042 -224.2944 
L 210.501471 -224.2944 
L 209.428901 -224.2944 
L 208.35633 -224.2944 
L 207.28376 -224.2944 
L 206.211189 -224.2944 
L 205.138619 -224.2944 
L 204.066048 -224.2944 
L 202.993478 -224.2944 
L 201.920907 -224.2944 
L 200.848336 -224.2944 
L 199.775766 -224.2944 
L 198.703195 -224.2944 
L 197.630625 -224.2944 
L 196.558054 -224.2944 
L 195.485484 -224.2944 
L 194.412913 -224.2944 
L 193.340343 -224.2944 
L 192.267772 -224.2944 
L 191.195201 -224.2944 
L 190.122631 -224.2944 
L 189.05006 -224.2944 
L 187.97749 -224.2944 
L 186.904919 -224.2944 
L 185.832349 -224.2944 
L 184.759778 -224.2944 
L 183.687208 -224.2944 
L 182.614637 -224.2944 
L 181.542067 -224.2944 
L 180.469496 -224.2944 
L 179.396925 -224.2944 
L 178.324355 -224.2944 
L 177.251784 -224.2944 
L 176.179214 -224.2944 
L 175.106643 -224.2944 
L 174.034073 -224.2944 
L 172.961502 -224.2944 
L 171.888932 -224.2944 
L 170.816361 -224.2944 
L 169.743791 -224.2944 
L 168.67122 -224.2944 
L 167.598649 -224.2944 
L 166.526079 -224.2944 
L 165.453508 -224.2944 
L 164.380938 -224.2944 
L 163.308367 -224.2944 
L 162.235797 -224.2944 
L 161.163226 -224.2944 
L 160.090656 -224.2944 
L 159.018085 -224.2944 
L 157.945515 -224.2944 
L 156.872944 -224.2944 
L 155.800373 -224.2944 
L 154.727803 -224.2944 
L 153.655232 -224.2944 
L 152.582662 -224.2944 
L 151.510091 -224.2944 
L 150.437521 -224.2944 
L 149.36495 -224.2944 
L 148.29238 -224.2944 
L 147.219809 -224.2944 
L 146.147239 -224.2944 
L 145.074668 -224.2944 
L 144.002097 -224.2944 
L 142.929527 -224.2944 
L 141.856956 -224.2944 
L 140.784386 -224.2944 
L 139.711815 -224.2944 
L 138.639245 -224.2944 
L 137.566674 -224.2944 
L 136.494104 -224.2944 
L 135.421533 -224.2944 
L 134.348963 -224.2944 
L 133.276392 -224.2944 
L 132.203821 -224.2944 
L 131.131251 -224.2944 
L 130.05868 -224.2944 
z
" id="m89cdf911c9"/>
    </defs>
    <g clip-path="url(#p29cfebe0f2)">
     <use style="fill:#3274a1;" x="0" xlink:href="#m89cdf911c9" y="345.6"/>
    </g>
   </g>
   <g id="PolyCollection_4">
    <defs>
     <path d="M 141.413064 -219.582935 
L 141.413064 -224.2944 
L 142.777324 -224.2944 
L 144.141585 -224.2944 
L 145.505845 -224.2944 
L 146.870105 -224.2944 
L 148.234365 -224.2944 
L 149.598625 -224.2944 
L 150.962886 -224.2944 
L 152.327146 -224.2944 
L 153.691406 -224.2944 
L 155.055666 -224.2944 
L 156.419926 -224.2944 
L 157.784187 -224.2944 
L 159.148447 -224.2944 
L 160.512707 -224.2944 
L 161.876967 -224.2944 
L 163.241227 -224.2944 
L 164.605488 -224.2944 
L 165.969748 -224.2944 
L 167.334008 -224.2944 
L 168.698268 -224.2944 
L 170.062529 -224.2944 
L 171.426789 -224.2944 
L 172.791049 -224.2944 
L 174.155309 -224.2944 
L 175.519569 -224.2944 
L 176.88383 -224.2944 
L 178.24809 -224.2944 
L 179.61235 -224.2944 
L 180.97661 -224.2944 
L 182.34087 -224.2944 
L 183.705131 -224.2944 
L 185.069391 -224.2944 
L 186.433651 -224.2944 
L 187.797911 -224.2944 
L 189.162171 -224.2944 
L 190.526432 -224.2944 
L 191.890692 -224.2944 
L 193.254952 -224.2944 
L 194.619212 -224.2944 
L 195.983472 -224.2944 
L 197.347733 -224.2944 
L 198.711993 -224.2944 
L 200.076253 -224.2944 
L 201.440513 -224.2944 
L 202.804773 -224.2944 
L 204.169034 -224.2944 
L 205.533294 -224.2944 
L 206.897554 -224.2944 
L 208.261814 -224.2944 
L 209.626074 -224.2944 
L 210.990335 -224.2944 
L 212.354595 -224.2944 
L 213.718855 -224.2944 
L 215.083115 -224.2944 
L 216.447375 -224.2944 
L 217.811636 -224.2944 
L 219.175896 -224.2944 
L 220.540156 -224.2944 
L 221.904416 -224.2944 
L 223.268677 -224.2944 
L 224.632937 -224.2944 
L 225.997197 -224.2944 
L 227.361457 -224.2944 
L 228.725717 -224.2944 
L 230.089978 -224.2944 
L 231.454238 -224.2944 
L 232.818498 -224.2944 
L 234.182758 -224.2944 
L 235.547018 -224.2944 
L 236.911279 -224.2944 
L 238.275539 -224.2944 
L 239.639799 -224.2944 
L 241.004059 -224.2944 
L 242.368319 -224.2944 
L 243.73258 -224.2944 
L 245.09684 -224.2944 
L 246.4611 -224.2944 
L 247.82536 -224.2944 
L 249.18962 -224.2944 
L 250.553881 -224.2944 
L 251.918141 -224.2944 
L 253.282401 -224.2944 
L 254.646661 -224.2944 
L 256.010921 -224.2944 
L 257.375182 -224.2944 
L 258.739442 -224.2944 
L 260.103702 -224.2944 
L 261.467962 -224.2944 
L 262.832222 -224.2944 
L 264.196483 -224.2944 
L 265.560743 -224.2944 
L 266.925003 -224.2944 
L 268.289263 -224.2944 
L 269.653523 -224.2944 
L 271.017784 -224.2944 
L 272.382044 -224.2944 
L 273.746304 -224.2944 
L 275.110564 -224.2944 
L 276.474825 -224.2944 
L 276.474825 -223.583383 
L 276.474825 -223.583383 
L 275.110564 -223.554707 
L 273.746304 -223.529606 
L 272.382044 -223.508218 
L 271.017784 -223.490562 
L 269.653523 -223.476529 
L 268.289263 -223.465881 
L 266.925003 -223.458247 
L 265.560743 -223.453125 
L 264.196483 -223.449884 
L 262.832222 -223.44777 
L 261.467962 -223.445922 
L 260.103702 -223.443387 
L 258.739442 -223.439142 
L 257.375182 -223.432125 
L 256.010921 -223.421271 
L 254.646661 -223.405551 
L 253.282401 -223.384012 
L 251.918141 -223.355824 
L 250.553881 -223.320317 
L 249.18962 -223.277012 
L 247.82536 -223.225645 
L 246.4611 -223.166177 
L 245.09684 -223.098784 
L 243.73258 -223.023834 
L 242.368319 -222.941846 
L 241.004059 -222.853432 
L 239.639799 -222.759223 
L 238.275539 -222.659791 
L 236.911279 -222.555568 
L 235.547018 -222.44676 
L 234.182758 -222.33328 
L 232.818498 -222.214691 
L 231.454238 -222.090171 
L 230.089978 -221.958504 
L 228.725717 -221.818101 
L 227.361457 -221.667044 
L 225.997197 -221.503166 
L 224.632937 -221.324148 
L 223.268677 -221.127638 
L 221.904416 -220.911389 
L 220.540156 -220.673391 
L 219.175896 -220.41201 
L 217.811636 -220.126117 
L 216.447375 -219.815197 
L 215.083115 -219.479433 
L 213.718855 -219.119768 
L 212.354595 -218.737929 
L 210.990335 -218.336424 
L 209.626074 -217.918501 
L 208.261814 -217.488081 
L 206.897554 -217.049662 
L 205.533294 -216.608204 
L 204.169034 -216.168993 
L 202.804773 -215.737503 
L 201.440513 -215.31925 
L 200.076253 -214.919647 
L 198.711993 -214.543875 
L 197.347733 -214.196753 
L 195.983472 -213.882635 
L 194.619212 -213.605315 
L 193.254952 -213.367954 
L 191.890692 -213.173018 
L 190.526432 -213.022234 
L 189.162171 -212.916564 
L 187.797911 -212.85619 
L 186.433651 -212.840509 
L 185.069391 -212.868151 
L 183.705131 -212.937002 
L 182.34087 -213.044249 
L 180.97661 -213.186443 
L 179.61235 -213.359573 
L 178.24809 -213.559165 
L 176.88383 -213.780404 
L 175.519569 -214.018262 
L 174.155309 -214.267649 
L 172.791049 -214.523576 
L 171.426789 -214.781317 
L 170.062529 -215.036569 
L 168.698268 -215.285613 
L 167.334008 -215.525443 
L 165.969748 -215.753883 
L 164.605488 -215.969658 
L 163.241227 -216.172443 
L 161.876967 -216.362852 
L 160.512707 -216.542396 
L 159.148447 -216.713385 
L 157.784187 -216.8788 
L 156.419926 -217.042118 
L 155.055666 -217.207114 
L 153.691406 -217.377648 
L 152.327146 -217.557435 
L 150.962886 -217.749837 
L 149.598625 -217.957659 
L 148.234365 -218.182985 
L 146.870105 -218.427053 
L 145.505845 -218.690174 
L 144.141585 -218.97171 
L 142.777324 -219.270098 
L 141.413064 -219.582935 
z
" id="md099bc9abb"/>
    </defs>
    <g clip-path="url(#p29cfebe0f2)">
     <use style="fill:#e1812c;" x="0" xlink:href="#md099bc9abb" y="345.6"/>
    </g>
   </g>
   <g id="PolyCollection_5">
    <defs>
     <path d="M 134.683634 -171.072 
L 134.683634 -187.583126 
L 135.36855 -188.621378 
L 136.053465 -189.561185 
L 136.738381 -190.384656 
L 137.423297 -191.076867 
L 138.108212 -191.626346 
L 138.793128 -192.025396 
L 139.478044 -192.270235 
L 140.16296 -192.36096 
L 140.847875 -192.301353 
L 141.532791 -192.098551 
L 142.217707 -191.762612 
L 142.902623 -191.306004 
L 143.587538 -190.743056 
L 144.272454 -190.089392 
L 144.95737 -189.361379 
L 145.642286 -188.575597 
L 146.327201 -187.748362 
L 147.012117 -186.895297 
L 147.697033 -186.030961 
L 148.381949 -185.168555 
L 149.066864 -184.319682 
L 149.75178 -183.494194 
L 150.436696 -182.700106 
L 151.121612 -181.943579 
L 151.806527 -181.228988 
L 152.491443 -180.559045 
L 153.176359 -179.934983 
L 153.861274 -179.356792 
L 154.54619 -178.823474 
L 155.231106 -178.333324 
L 155.916022 -177.884185 
L 156.600937 -177.473701 
L 157.285853 -177.099504 
L 157.970769 -176.759368 
L 158.655685 -176.451287 
L 159.3406 -176.173506 
L 160.025516 -175.924481 
L 160.710432 -175.702811 
L 161.395348 -175.507134 
L 162.080263 -175.336004 
L 162.765179 -175.187788 
L 163.450095 -175.060576 
L 164.135011 -174.952121 
L 164.819926 -174.859834 
L 165.504842 -174.780804 
L 166.189758 -174.711876 
L 166.874674 -174.649751 
L 167.559589 -174.59111 
L 168.244505 -174.532749 
L 168.929421 -174.471715 
L 169.614336 -174.405416 
L 170.299252 -174.331719 
L 170.984168 -174.249009 
L 171.669084 -174.156226 
L 172.353999 -174.052856 
L 173.038915 -173.938911 
L 173.723831 -173.814875 
L 174.408747 -173.681638 
L 175.093662 -173.540419 
L 175.778578 -173.392695 
L 176.463494 -173.240115 
L 177.14841 -173.084437 
L 177.833325 -172.927458 
L 178.518241 -172.770964 
L 179.203157 -172.61668 
L 179.888073 -172.466228 
L 180.572988 -172.321102 
L 181.257904 -172.182636 
L 181.94282 -172.05199 
L 182.627736 -171.930132 
L 183.312651 -171.817839 
L 183.997567 -171.715693 
L 184.682483 -171.624087 
L 185.367398 -171.543241 
L 186.052314 -171.473222 
L 186.73723 -171.413957 
L 187.422146 -171.365267 
L 188.107061 -171.326881 
L 188.791977 -171.298463 
L 189.476893 -171.279622 
L 190.161809 -171.269928 
L 190.846724 -171.268908 
L 191.53164 -171.276045 
L 192.216556 -171.290766 
L 192.901472 -171.312427 
L 193.586387 -171.340292 
L 194.271303 -171.37352 
L 194.956219 -171.411151 
L 195.641135 -171.452096 
L 196.32605 -171.495149 
L 197.010966 -171.538995 
L 197.695882 -171.582245 
L 198.380798 -171.623475 
L 199.065713 -171.661275 
L 199.750629 -171.694308 
L 200.435545 -171.721372 
L 201.12046 -171.741456 
L 201.805376 -171.753794 
L 202.490292 -171.757902 
L 202.490292 -171.072 
L 202.490292 -171.072 
L 201.805376 -171.072 
L 201.12046 -171.072 
L 200.435545 -171.072 
L 199.750629 -171.072 
L 199.065713 -171.072 
L 198.380798 -171.072 
L 197.695882 -171.072 
L 197.010966 -171.072 
L 196.32605 -171.072 
L 195.641135 -171.072 
L 194.956219 -171.072 
L 194.271303 -171.072 
L 193.586387 -171.072 
L 192.901472 -171.072 
L 192.216556 -171.072 
L 191.53164 -171.072 
L 190.846724 -171.072 
L 190.161809 -171.072 
L 189.476893 -171.072 
L 188.791977 -171.072 
L 188.107061 -171.072 
L 187.422146 -171.072 
L 186.73723 -171.072 
L 186.052314 -171.072 
L 185.367398 -171.072 
L 184.682483 -171.072 
L 183.997567 -171.072 
L 183.312651 -171.072 
L 182.627736 -171.072 
L 181.94282 -171.072 
L 181.257904 -171.072 
L 180.572988 -171.072 
L 179.888073 -171.072 
L 179.203157 -171.072 
L 178.518241 -171.072 
L 177.833325 -171.072 
L 177.14841 -171.072 
L 176.463494 -171.072 
L 175.778578 -171.072 
L 175.093662 -171.072 
L 174.408747 -171.072 
L 173.723831 -171.072 
L 173.038915 -171.072 
L 172.353999 -171.072 
L 171.669084 -171.072 
L 170.984168 -171.072 
L 170.299252 -171.072 
L 169.614336 -171.072 
L 168.929421 -171.072 
L 168.244505 -171.072 
L 167.559589 -171.072 
L 166.874674 -171.072 
L 166.189758 -171.072 
L 165.504842 -171.072 
L 164.819926 -171.072 
L 164.135011 -171.072 
L 163.450095 -171.072 
L 162.765179 -171.072 
L 162.080263 -171.072 
L 161.395348 -171.072 
L 160.710432 -171.072 
L 160.025516 -171.072 
L 159.3406 -171.072 
L 158.655685 -171.072 
L 157.970769 -171.072 
L 157.285853 -171.072 
L 156.600937 -171.072 
L 155.916022 -171.072 
L 155.231106 -171.072 
L 154.54619 -171.072 
L 153.861274 -171.072 
L 153.176359 -171.072 
L 152.491443 -171.072 
L 151.806527 -171.072 
L 151.121612 -171.072 
L 150.436696 -171.072 
L 149.75178 -171.072 
L 149.066864 -171.072 
L 148.381949 -171.072 
L 147.697033 -171.072 
L 147.012117 -171.072 
L 146.327201 -171.072 
L 145.642286 -171.072 
L 144.95737 -171.072 
L 144.272454 -171.072 
L 143.587538 -171.072 
L 142.902623 -171.072 
L 142.217707 -171.072 
L 141.532791 -171.072 
L 140.847875 -171.072 
L 140.16296 -171.072 
L 139.478044 -171.072 
L 138.793128 -171.072 
L 138.108212 -171.072 
L 137.423297 -171.072 
L 136.738381 -171.072 
L 136.053465 -171.072 
L 135.36855 -171.072 
L 134.683634 -171.072 
z
" id="mf6b481df9c"/>
    </defs>
    <g clip-path="url(#p29cfebe0f2)">
     <use style="fill:#3274a1;" x="0" xlink:href="#mf6b481df9c" y="345.6"/>
    </g>
   </g>
   <g id="PolyCollection_6">
    <defs>
     <path d="M 143.779572 -168.533383 
L 143.779572 -171.072 
L 145.606034 -171.072 
L 147.432496 -171.072 
L 149.258958 -171.072 
L 151.08542 -171.072 
L 152.911882 -171.072 
L 154.738343 -171.072 
L 156.564805 -171.072 
L 158.391267 -171.072 
L 160.217729 -171.072 
L 162.044191 -171.072 
L 163.870653 -171.072 
L 165.697115 -171.072 
L 167.523577 -171.072 
L 169.350039 -171.072 
L 171.176501 -171.072 
L 173.002963 -171.072 
L 174.829425 -171.072 
L 176.655886 -171.072 
L 178.482348 -171.072 
L 180.30881 -171.072 
L 182.135272 -171.072 
L 183.961734 -171.072 
L 185.788196 -171.072 
L 187.614658 -171.072 
L 189.44112 -171.072 
L 191.267582 -171.072 
L 193.094044 -171.072 
L 194.920506 -171.072 
L 196.746968 -171.072 
L 198.573429 -171.072 
L 200.399891 -171.072 
L 202.226353 -171.072 
L 204.052815 -171.072 
L 205.879277 -171.072 
L 207.705739 -171.072 
L 209.532201 -171.072 
L 211.358663 -171.072 
L 213.185125 -171.072 
L 215.011587 -171.072 
L 216.838049 -171.072 
L 218.664511 -171.072 
L 220.490973 -171.072 
L 222.317434 -171.072 
L 224.143896 -171.072 
L 225.970358 -171.072 
L 227.79682 -171.072 
L 229.623282 -171.072 
L 231.449744 -171.072 
L 233.276206 -171.072 
L 235.102668 -171.072 
L 236.92913 -171.072 
L 238.755592 -171.072 
L 240.582054 -171.072 
L 242.408516 -171.072 
L 244.234977 -171.072 
L 246.061439 -171.072 
L 247.887901 -171.072 
L 249.714363 -171.072 
L 251.540825 -171.072 
L 253.367287 -171.072 
L 255.193749 -171.072 
L 257.020211 -171.072 
L 258.846673 -171.072 
L 260.673135 -171.072 
L 262.499597 -171.072 
L 264.326059 -171.072 
L 266.15252 -171.072 
L 267.978982 -171.072 
L 269.805444 -171.072 
L 271.631906 -171.072 
L 273.458368 -171.072 
L 275.28483 -171.072 
L 277.111292 -171.072 
L 278.937754 -171.072 
L 280.764216 -171.072 
L 282.590678 -171.072 
L 284.41714 -171.072 
L 286.243602 -171.072 
L 288.070064 -171.072 
L 289.896525 -171.072 
L 291.722987 -171.072 
L 293.549449 -171.072 
L 295.375911 -171.072 
L 297.202373 -171.072 
L 299.028835 -171.072 
L 300.855297 -171.072 
L 302.681759 -171.072 
L 304.508221 -171.072 
L 306.334683 -171.072 
L 308.161145 -171.072 
L 309.987607 -171.072 
L 311.814068 -171.072 
L 313.64053 -171.072 
L 315.466992 -171.072 
L 317.293454 -171.072 
L 319.119916 -171.072 
L 320.946378 -171.072 
L 322.77284 -171.072 
L 324.599302 -171.072 
L 324.599302 -170.767898 
L 324.599302 -170.767898 
L 322.77284 -170.770514 
L 320.946378 -170.778225 
L 319.119916 -170.790641 
L 317.293454 -170.807147 
L 315.466992 -170.826953 
L 313.64053 -170.849161 
L 311.814068 -170.872825 
L 309.987607 -170.897022 
L 308.161145 -170.920908 
L 306.334683 -170.94376 
L 304.508221 -170.965007 
L 302.681759 -170.98424 
L 300.855297 -171.00121 
L 299.028835 -171.015812 
L 297.202373 -171.028062 
L 295.375911 -171.038062 
L 293.549449 -171.045971 
L 291.722987 -171.051972 
L 289.896525 -171.056242 
L 288.070064 -171.058928 
L 286.243602 -171.060129 
L 284.41714 -171.059881 
L 282.590678 -171.058144 
L 280.764216 -171.054804 
L 278.937754 -171.049667 
L 277.111292 -171.042468 
L 275.28483 -171.032874 
L 273.458368 -171.020504 
L 271.631906 -171.004936 
L 269.805444 -170.985731 
L 267.978982 -170.962446 
L 266.15252 -170.934657 
L 264.326059 -170.901968 
L 262.499597 -170.864028 
L 260.673135 -170.820529 
L 258.846673 -170.77121 
L 257.020211 -170.715849 
L 255.193749 -170.654243 
L 253.367287 -170.586198 
L 251.540825 -170.511509 
L 249.714363 -170.429939 
L 247.887901 -170.341206 
L 246.061439 -170.244972 
L 244.234977 -170.140838 
L 242.408516 -170.028336 
L 240.582054 -169.906936 
L 238.755592 -169.776045 
L 236.92913 -169.635011 
L 235.102668 -169.483134 
L 233.276206 -169.319676 
L 231.449744 -169.143884 
L 229.623282 -168.955022 
L 227.79682 -168.752419 
L 225.970358 -168.535539 
L 224.143896 -168.304061 
L 222.317434 -168.05798 
L 220.490973 -167.797712 
L 218.664511 -167.524195 
L 216.838049 -167.238979 
L 215.011587 -166.944277 
L 213.185125 -166.642989 
L 211.358663 -166.338659 
L 209.532201 -166.035386 
L 207.705739 -165.737673 
L 205.879277 -165.450231 
L 204.052815 -165.177739 
L 202.226353 -164.924596 
L 200.399891 -164.694667 
L 198.573429 -164.49107 
L 196.746968 -164.315995 
L 194.920506 -164.170616 
L 193.094044 -164.055061 
L 191.267582 -163.968491 
L 189.44112 -163.909246 
L 187.614658 -163.87507 
L 185.788196 -163.863385 
L 183.961734 -163.871586 
L 182.135272 -163.897325 
L 180.30881 -163.938764 
L 178.482348 -163.994761 
L 176.655886 -164.064969 
L 174.829425 -164.149848 
L 173.002963 -164.250577 
L 171.176501 -164.36889 
L 169.350039 -164.506838 
L 167.523577 -164.666522 
L 165.697115 -164.849806 
L 163.870653 -165.058049 
L 162.044191 -165.291879 
L 160.217729 -165.551026 
L 158.391267 -165.834227 
L 156.564805 -166.139204 
L 154.738343 -166.462729 
L 152.911882 -166.800741 
L 151.08542 -167.148532 
L 149.258958 -167.500963 
L 147.432496 -167.85271 
L 145.606034 -168.198507 
L 143.779572 -168.533383 
z
" id="m8f1901371a"/>
    </defs>
    <g clip-path="url(#p29cfebe0f2)">
     <use style="fill:#e1812c;" x="0" xlink:href="#m8f1901371a" y="345.6"/>
    </g>
   </g>
   <g id="PolyCollection_7">
    <defs>
     <path d="M 131.513757 -117.8496 
L 131.513757 -136.082431 
L 132.716222 -136.864395 
L 133.918688 -137.544005 
L 135.121154 -138.111072 
L 136.32362 -138.557841 
L 137.526085 -138.879179 
L 138.728551 -139.072663 
L 139.931017 -139.13856 
L 141.133482 -139.079699 
L 142.335948 -138.901266 
L 143.538414 -138.610508 
L 144.74088 -138.216397 
L 145.943345 -137.729242 
L 147.145811 -137.1603 
L 148.348277 -136.521381 
L 149.550743 -135.824479 
L 150.753208 -135.081445 
L 151.955674 -134.303697 
L 153.15814 -133.501997 
L 154.360606 -132.686276 
L 155.563071 -131.865523 
L 156.765537 -131.047724 
L 157.968003 -130.239849 
L 159.170469 -129.44788 
L 160.372934 -128.676868 
L 161.5754 -127.931014 
L 162.777866 -127.213758 
L 163.980332 -126.527875 
L 165.182797 -125.875573 
L 166.385263 -125.258574 
L 167.587729 -124.678188 
L 168.790194 -124.135375 
L 169.99266 -123.630779 
L 171.195126 -123.16476 
L 172.397592 -122.737404 
L 173.600057 -122.348518 
L 174.802523 -121.997621 
L 176.004989 -121.683928 
L 177.207455 -121.406332 
L 178.40992 -121.163384 
L 179.612386 -120.953293 
L 180.814852 -120.773918 
L 182.017318 -120.622785 
L 183.219783 -120.497115 
L 184.422249 -120.39387 
L 185.624715 -120.309807 
L 186.827181 -120.241551 
L 188.029646 -120.185682 
L 189.232112 -120.13882 
L 190.434578 -120.097723 
L 191.637044 -120.05938 
L 192.839509 -120.021092 
L 194.041975 -119.980556 
L 195.244441 -119.93592 
L 196.446906 -119.88583 
L 197.649372 -119.829451 
L 198.851838 -119.76647 
L 200.054304 -119.697076 
L 201.256769 -119.621919 
L 202.459235 -119.542058 
L 203.661701 -119.458883 
L 204.864167 -119.374039 
L 206.066632 -119.289334 
L 207.269098 -119.206652 
L 208.471564 -119.127864 
L 209.67403 -119.054744 
L 210.876495 -118.988903 
L 212.078961 -118.931722 
L 213.281427 -118.884307 
L 214.483893 -118.847458 
L 215.686358 -118.821646 
L 216.888824 -118.807013 
L 218.09129 -118.803378 
L 219.293756 -118.810255 
L 220.496221 -118.826884 
L 221.698687 -118.852269 
L 222.901153 -118.885218 
L 224.103618 -118.924386 
L 225.306084 -118.968326 
L 226.50855 -119.015532 
L 227.711016 -119.064486 
L 228.913481 -119.113694 
L 230.115947 -119.161727 
L 231.318413 -119.207246 
L 232.520879 -119.249034 
L 233.723344 -119.28601 
L 234.92581 -119.317245 
L 236.128276 -119.341971 
L 237.330742 -119.359582 
L 238.533207 -119.369636 
L 239.735673 -119.371849 
L 240.938139 -119.366091 
L 242.140605 -119.352376 
L 243.34307 -119.330852 
L 244.545536 -119.30179 
L 245.748002 -119.265574 
L 246.950468 -119.222692 
L 248.152933 -119.173718 
L 249.355399 -119.119304 
L 250.557865 -119.060167 
L 250.557865 -117.8496 
L 250.557865 -117.8496 
L 249.355399 -117.8496 
L 248.152933 -117.8496 
L 246.950468 -117.8496 
L 245.748002 -117.8496 
L 244.545536 -117.8496 
L 243.34307 -117.8496 
L 242.140605 -117.8496 
L 240.938139 -117.8496 
L 239.735673 -117.8496 
L 238.533207 -117.8496 
L 237.330742 -117.8496 
L 236.128276 -117.8496 
L 234.92581 -117.8496 
L 233.723344 -117.8496 
L 232.520879 -117.8496 
L 231.318413 -117.8496 
L 230.115947 -117.8496 
L 228.913481 -117.8496 
L 227.711016 -117.8496 
L 226.50855 -117.8496 
L 225.306084 -117.8496 
L 224.103618 -117.8496 
L 222.901153 -117.8496 
L 221.698687 -117.8496 
L 220.496221 -117.8496 
L 219.293756 -117.8496 
L 218.09129 -117.8496 
L 216.888824 -117.8496 
L 215.686358 -117.8496 
L 214.483893 -117.8496 
L 213.281427 -117.8496 
L 212.078961 -117.8496 
L 210.876495 -117.8496 
L 209.67403 -117.8496 
L 208.471564 -117.8496 
L 207.269098 -117.8496 
L 206.066632 -117.8496 
L 204.864167 -117.8496 
L 203.661701 -117.8496 
L 202.459235 -117.8496 
L 201.256769 -117.8496 
L 200.054304 -117.8496 
L 198.851838 -117.8496 
L 197.649372 -117.8496 
L 196.446906 -117.8496 
L 195.244441 -117.8496 
L 194.041975 -117.8496 
L 192.839509 -117.8496 
L 191.637044 -117.8496 
L 190.434578 -117.8496 
L 189.232112 -117.8496 
L 188.029646 -117.8496 
L 186.827181 -117.8496 
L 185.624715 -117.8496 
L 184.422249 -117.8496 
L 183.219783 -117.8496 
L 182.017318 -117.8496 
L 180.814852 -117.8496 
L 179.612386 -117.8496 
L 178.40992 -117.8496 
L 177.207455 -117.8496 
L 176.004989 -117.8496 
L 174.802523 -117.8496 
L 173.600057 -117.8496 
L 172.397592 -117.8496 
L 171.195126 -117.8496 
L 169.99266 -117.8496 
L 168.790194 -117.8496 
L 167.587729 -117.8496 
L 166.385263 -117.8496 
L 165.182797 -117.8496 
L 163.980332 -117.8496 
L 162.777866 -117.8496 
L 161.5754 -117.8496 
L 160.372934 -117.8496 
L 159.170469 -117.8496 
L 157.968003 -117.8496 
L 156.765537 -117.8496 
L 155.563071 -117.8496 
L 154.360606 -117.8496 
L 153.15814 -117.8496 
L 151.955674 -117.8496 
L 150.753208 -117.8496 
L 149.550743 -117.8496 
L 148.348277 -117.8496 
L 147.145811 -117.8496 
L 145.943345 -117.8496 
L 144.74088 -117.8496 
L 143.538414 -117.8496 
L 142.335948 -117.8496 
L 141.133482 -117.8496 
L 139.931017 -117.8496 
L 138.728551 -117.8496 
L 137.526085 -117.8496 
L 136.32362 -117.8496 
L 135.121154 -117.8496 
L 133.918688 -117.8496 
L 132.716222 -117.8496 
L 131.513757 -117.8496 
z
" id="mf79833d91b"/>
    </defs>
    <g clip-path="url(#p29cfebe0f2)">
     <use style="fill:#3274a1;" x="0" xlink:href="#mf79833d91b" y="345.6"/>
    </g>
   </g>
   <g id="PolyCollection_8">
    <defs>
     <path d="M 143.960148 -110.288445 
L 143.960148 -117.8496 
L 145.520546 -117.8496 
L 147.080944 -117.8496 
L 148.641342 -117.8496 
L 150.20174 -117.8496 
L 151.762138 -117.8496 
L 153.322536 -117.8496 
L 154.882933 -117.8496 
L 156.443331 -117.8496 
L 158.003729 -117.8496 
L 159.564127 -117.8496 
L 161.124525 -117.8496 
L 162.684923 -117.8496 
L 164.245321 -117.8496 
L 165.805719 -117.8496 
L 167.366117 -117.8496 
L 168.926515 -117.8496 
L 170.486912 -117.8496 
L 172.04731 -117.8496 
L 173.607708 -117.8496 
L 175.168106 -117.8496 
L 176.728504 -117.8496 
L 178.288902 -117.8496 
L 179.8493 -117.8496 
L 181.409698 -117.8496 
L 182.970096 -117.8496 
L 184.530493 -117.8496 
L 186.090891 -117.8496 
L 187.651289 -117.8496 
L 189.211687 -117.8496 
L 190.772085 -117.8496 
L 192.332483 -117.8496 
L 193.892881 -117.8496 
L 195.453279 -117.8496 
L 197.013677 -117.8496 
L 198.574075 -117.8496 
L 200.134472 -117.8496 
L 201.69487 -117.8496 
L 203.255268 -117.8496 
L 204.815666 -117.8496 
L 206.376064 -117.8496 
L 207.936462 -117.8496 
L 209.49686 -117.8496 
L 211.057258 -117.8496 
L 212.617656 -117.8496 
L 214.178053 -117.8496 
L 215.738451 -117.8496 
L 217.298849 -117.8496 
L 218.859247 -117.8496 
L 220.419645 -117.8496 
L 221.980043 -117.8496 
L 223.540441 -117.8496 
L 225.100839 -117.8496 
L 226.661237 -117.8496 
L 228.221635 -117.8496 
L 229.782032 -117.8496 
L 231.34243 -117.8496 
L 232.902828 -117.8496 
L 234.463226 -117.8496 
L 236.023624 -117.8496 
L 237.584022 -117.8496 
L 239.14442 -117.8496 
L 240.704818 -117.8496 
L 242.265216 -117.8496 
L 243.825613 -117.8496 
L 245.386011 -117.8496 
L 246.946409 -117.8496 
L 248.506807 -117.8496 
L 250.067205 -117.8496 
L 251.627603 -117.8496 
L 253.188001 -117.8496 
L 254.748399 -117.8496 
L 256.308797 -117.8496 
L 257.869194 -117.8496 
L 259.429592 -117.8496 
L 260.98999 -117.8496 
L 262.550388 -117.8496 
L 264.110786 -117.8496 
L 265.671184 -117.8496 
L 267.231582 -117.8496 
L 268.79198 -117.8496 
L 270.352378 -117.8496 
L 271.912776 -117.8496 
L 273.473173 -117.8496 
L 275.033571 -117.8496 
L 276.593969 -117.8496 
L 278.154367 -117.8496 
L 279.714765 -117.8496 
L 281.275163 -117.8496 
L 282.835561 -117.8496 
L 284.395959 -117.8496 
L 285.956357 -117.8496 
L 287.516754 -117.8496 
L 289.077152 -117.8496 
L 290.63755 -117.8496 
L 292.197948 -117.8496 
L 293.758346 -117.8496 
L 295.318744 -117.8496 
L 296.879142 -117.8496 
L 298.43954 -117.8496 
L 298.43954 -117.247132 
L 298.43954 -117.247132 
L 296.879142 -117.251426 
L 295.318744 -117.264125 
L 293.758346 -117.284694 
L 292.197948 -117.312281 
L 290.63755 -117.345781 
L 289.077152 -117.383901 
L 287.516754 -117.42525 
L 285.956357 -117.468419 
L 284.395959 -117.512056 
L 282.835561 -117.554937 
L 281.275163 -117.596015 
L 279.714765 -117.634448 
L 278.154367 -117.669619 
L 276.593969 -117.701127 
L 275.033571 -117.728772 
L 273.473173 -117.752523 
L 271.912776 -117.772478 
L 270.352378 -117.788826 
L 268.79198 -117.801794 
L 267.231582 -117.811607 
L 265.671184 -117.818446 
L 264.110786 -117.822397 
L 262.550388 -117.823421 
L 260.98999 -117.821307 
L 259.429592 -117.815639 
L 257.869194 -117.805754 
L 256.308797 -117.790717 
L 254.748399 -117.769282 
L 253.188001 -117.739879 
L 251.627603 -117.700596 
L 250.067205 -117.649192 
L 248.506807 -117.583124 
L 246.946409 -117.499599 
L 245.386011 -117.395662 
L 243.825613 -117.268309 
L 242.265216 -117.114641 
L 240.704818 -116.932027 
L 239.14442 -116.7183 
L 237.584022 -116.471948 
L 236.023624 -116.192295 
L 234.463226 -115.879652 
L 232.902828 -115.535422 
L 231.34243 -115.162137 
L 229.782032 -114.763424 
L 228.221635 -114.343884 
L 226.661237 -113.908888 
L 225.100839 -113.464308 
L 223.540441 -113.016188 
L 221.980043 -112.57039 
L 220.419645 -112.132238 
L 218.859247 -111.706198 
L 217.298849 -111.29562 
L 215.738451 -110.902565 
L 214.178053 -110.527741 
L 212.617656 -110.170552 
L 211.057258 -109.829253 
L 209.49686 -109.501204 
L 207.936462 -109.183198 
L 206.376064 -108.87183 
L 204.815666 -108.563881 
L 203.255268 -108.256674 
L 201.69487 -107.948386 
L 200.134472 -107.638274 
L 198.574075 -107.326818 
L 197.013677 -107.015752 
L 195.453279 -106.707995 
L 193.892881 -106.407491 
L 192.332483 -106.118963 
L 190.772085 -105.847612 
L 189.211687 -105.598776 
L 187.651289 -105.377573 
L 186.090891 -105.188567 
L 184.530493 -105.035456 
L 182.970096 -104.920831 
L 181.409698 -104.845995 
L 179.8493 -104.810885 
L 178.288902 -104.814081 
L 176.728504 -104.852918 
L 175.168106 -104.923693 
L 173.607708 -105.021958 
L 172.04731 -105.142881 
L 170.486912 -105.281649 
L 168.926515 -105.433883 
L 167.366117 -105.596042 
L 165.805719 -105.765757 
L 164.245321 -105.94209 
L 162.684923 -106.125666 
L 161.124525 -106.318671 
L 159.564127 -106.524709 
L 158.003729 -106.748507 
L 156.443331 -106.995506 
L 154.882933 -107.271354 
L 153.322536 -107.581354 
L 151.762138 -107.929913 
L 150.20174 -108.320032 
L 148.641342 -108.752908 
L 147.080944 -109.227661 
L 145.520546 -109.741231 
L 143.960148 -110.288445 
z
" id="m21a2b52f0f"/>
    </defs>
    <g clip-path="url(#p29cfebe0f2)">
     <use style="fill:#e1812c;" x="0" xlink:href="#m21a2b52f0f" y="345.6"/>
    </g>
   </g>
   <g id="PolyCollection_9">
    <defs>
     <path d="M 132.15929 -64.6272 
L 132.15929 -80.290305 
L 132.641301 -81.413808 
L 133.123312 -82.455599 
L 133.605322 -83.393003 
L 134.087333 -84.205437 
L 134.569343 -84.875272 
L 135.051354 -85.388575 
L 135.533365 -85.73569 
L 136.015375 -85.911614 
L 136.497386 -85.91616 
L 136.979396 -85.753877 
L 137.461407 -85.433761 
L 137.943418 -84.968762 
L 138.425428 -84.375128 
L 138.907439 -83.671627 
L 139.389449 -82.878704 
L 139.87146 -82.017614 
L 140.353471 -81.109591 
L 140.835481 -80.175085 
L 141.317492 -79.233113 
L 141.799502 -78.300738 
L 142.281513 -77.392704 
L 142.763524 -76.521214 
L 143.245534 -75.695861 
L 143.727545 -74.923683 
L 144.209555 -74.209337 
L 144.691566 -73.555353 
L 145.173577 -72.962444 
L 145.655587 -72.429858 
L 146.137598 -71.955722 
L 146.619608 -71.537378 
L 147.101619 -71.17168 
L 147.58363 -70.855233 
L 148.06564 -70.584588 
L 148.547651 -70.35636 
L 149.029661 -70.167291 
L 149.511672 -70.014259 
L 149.993683 -69.894242 
L 150.475693 -69.804247 
L 150.957704 -69.741228 
L 151.439714 -69.701992 
L 151.921725 -69.68313 
L 152.403736 -69.680955 
L 152.885746 -69.691488 
L 153.367757 -69.710473 
L 153.849768 -69.73343 
L 154.331778 -69.755748 
L 154.813789 -69.772815 
L 155.295799 -69.780153 
L 155.77781 -69.773585 
L 156.259821 -69.749384 
L 156.741831 -69.704423 
L 157.223842 -69.636293 
L 157.705852 -69.543398 
L 158.187863 -69.425007 
L 158.669874 -69.281267 
L 159.151884 -69.113181 
L 159.633895 -68.922539 
L 160.115905 -68.711824 
L 160.597916 -68.484088 
L 161.079927 -68.24281 
L 161.561937 -67.99175 
L 162.043948 -67.734791 
L 162.525958 -67.475802 
L 163.007969 -67.2185 
L 163.48998 -66.966343 
L 163.97199 -66.722438 
L 164.454001 -66.489474 
L 164.936011 -66.269684 
L 165.418022 -66.064823 
L 165.900033 -65.876177 
L 166.382043 -65.704582 
L 166.864054 -65.550466 
L 167.346064 -65.413891 
L 167.828075 -65.294617 
L 168.310086 -65.192154 
L 168.792096 -65.105822 
L 169.274107 -65.034807 
L 169.756117 -64.978204 
L 170.238128 -64.935057 
L 170.720139 -64.904387 
L 171.202149 -64.885212 
L 171.68416 -64.876554 
L 172.16617 -64.877438 
L 172.648181 -64.886883 
L 173.130192 -64.903895 
L 173.612202 -64.927449 
L 174.094213 -64.956474 
L 174.576224 -64.989848 
L 175.058234 -65.026389 
L 175.540245 -65.064862 
L 176.022255 -65.103991 
L 176.504266 -65.14248 
L 176.986277 -65.179042 
L 177.468287 -65.212438 
L 177.950298 -65.241519 
L 178.432308 -65.265264 
L 178.914319 -65.282828 
L 179.39633 -65.293572 
L 179.87834 -65.29709 
L 179.87834 -64.6272 
L 179.87834 -64.6272 
L 179.39633 -64.6272 
L 178.914319 -64.6272 
L 178.432308 -64.6272 
L 177.950298 -64.6272 
L 177.468287 -64.6272 
L 176.986277 -64.6272 
L 176.504266 -64.6272 
L 176.022255 -64.6272 
L 175.540245 -64.6272 
L 175.058234 -64.6272 
L 174.576224 -64.6272 
L 174.094213 -64.6272 
L 173.612202 -64.6272 
L 173.130192 -64.6272 
L 172.648181 -64.6272 
L 172.16617 -64.6272 
L 171.68416 -64.6272 
L 171.202149 -64.6272 
L 170.720139 -64.6272 
L 170.238128 -64.6272 
L 169.756117 -64.6272 
L 169.274107 -64.6272 
L 168.792096 -64.6272 
L 168.310086 -64.6272 
L 167.828075 -64.6272 
L 167.346064 -64.6272 
L 166.864054 -64.6272 
L 166.382043 -64.6272 
L 165.900033 -64.6272 
L 165.418022 -64.6272 
L 164.936011 -64.6272 
L 164.454001 -64.6272 
L 163.97199 -64.6272 
L 163.48998 -64.6272 
L 163.007969 -64.6272 
L 162.525958 -64.6272 
L 162.043948 -64.6272 
L 161.561937 -64.6272 
L 161.079927 -64.6272 
L 160.597916 -64.6272 
L 160.115905 -64.6272 
L 159.633895 -64.6272 
L 159.151884 -64.6272 
L 158.669874 -64.6272 
L 158.187863 -64.6272 
L 157.705852 -64.6272 
L 157.223842 -64.6272 
L 156.741831 -64.6272 
L 156.259821 -64.6272 
L 155.77781 -64.6272 
L 155.295799 -64.6272 
L 154.813789 -64.6272 
L 154.331778 -64.6272 
L 153.849768 -64.6272 
L 153.367757 -64.6272 
L 152.885746 -64.6272 
L 152.403736 -64.6272 
L 151.921725 -64.6272 
L 151.439714 -64.6272 
L 150.957704 -64.6272 
L 150.475693 -64.6272 
L 149.993683 -64.6272 
L 149.511672 -64.6272 
L 149.029661 -64.6272 
L 148.547651 -64.6272 
L 148.06564 -64.6272 
L 147.58363 -64.6272 
L 147.101619 -64.6272 
L 146.619608 -64.6272 
L 146.137598 -64.6272 
L 145.655587 -64.6272 
L 145.173577 -64.6272 
L 144.691566 -64.6272 
L 144.209555 -64.6272 
L 143.727545 -64.6272 
L 143.245534 -64.6272 
L 142.763524 -64.6272 
L 142.281513 -64.6272 
L 141.799502 -64.6272 
L 141.317492 -64.6272 
L 140.835481 -64.6272 
L 140.353471 -64.6272 
L 139.87146 -64.6272 
L 139.389449 -64.6272 
L 138.907439 -64.6272 
L 138.425428 -64.6272 
L 137.943418 -64.6272 
L 137.461407 -64.6272 
L 136.979396 -64.6272 
L 136.497386 -64.6272 
L 136.015375 -64.6272 
L 135.533365 -64.6272 
L 135.051354 -64.6272 
L 134.569343 -64.6272 
L 134.087333 -64.6272 
L 133.605322 -64.6272 
L 133.123312 -64.6272 
L 132.641301 -64.6272 
L 132.15929 -64.6272 
z
" id="mba5ac31906"/>
    </defs>
    <g clip-path="url(#p29cfebe0f2)">
     <use style="fill:#3274a1;" x="0" xlink:href="#mba5ac31906" y="345.6"/>
    </g>
   </g>
   <g id="PolyCollection_10">
    <defs>
     <path d="M 145.875073 -61.048863 
L 145.875073 -64.6272 
L 147.360273 -64.6272 
L 148.845473 -64.6272 
L 150.330673 -64.6272 
L 151.815873 -64.6272 
L 153.301073 -64.6272 
L 154.786272 -64.6272 
L 156.271472 -64.6272 
L 157.756672 -64.6272 
L 159.241872 -64.6272 
L 160.727072 -64.6272 
L 162.212272 -64.6272 
L 163.697472 -64.6272 
L 165.182671 -64.6272 
L 166.667871 -64.6272 
L 168.153071 -64.6272 
L 169.638271 -64.6272 
L 171.123471 -64.6272 
L 172.608671 -64.6272 
L 174.093871 -64.6272 
L 175.579071 -64.6272 
L 177.06427 -64.6272 
L 178.54947 -64.6272 
L 180.03467 -64.6272 
L 181.51987 -64.6272 
L 183.00507 -64.6272 
L 184.49027 -64.6272 
L 185.97547 -64.6272 
L 187.460669 -64.6272 
L 188.945869 -64.6272 
L 190.431069 -64.6272 
L 191.916269 -64.6272 
L 193.401469 -64.6272 
L 194.886669 -64.6272 
L 196.371869 -64.6272 
L 197.857069 -64.6272 
L 199.342268 -64.6272 
L 200.827468 -64.6272 
L 202.312668 -64.6272 
L 203.797868 -64.6272 
L 205.283068 -64.6272 
L 206.768268 -64.6272 
L 208.253468 -64.6272 
L 209.738667 -64.6272 
L 211.223867 -64.6272 
L 212.709067 -64.6272 
L 214.194267 -64.6272 
L 215.679467 -64.6272 
L 217.164667 -64.6272 
L 218.649867 -64.6272 
L 220.135066 -64.6272 
L 221.620266 -64.6272 
L 223.105466 -64.6272 
L 224.590666 -64.6272 
L 226.075866 -64.6272 
L 227.561066 -64.6272 
L 229.046266 -64.6272 
L 230.531466 -64.6272 
L 232.016665 -64.6272 
L 233.501865 -64.6272 
L 234.987065 -64.6272 
L 236.472265 -64.6272 
L 237.957465 -64.6272 
L 239.442665 -64.6272 
L 240.927865 -64.6272 
L 242.413064 -64.6272 
L 243.898264 -64.6272 
L 245.383464 -64.6272 
L 246.868664 -64.6272 
L 248.353864 -64.6272 
L 249.839064 -64.6272 
L 251.324264 -64.6272 
L 252.809464 -64.6272 
L 254.294663 -64.6272 
L 255.779863 -64.6272 
L 257.265063 -64.6272 
L 258.750263 -64.6272 
L 260.235463 -64.6272 
L 261.720663 -64.6272 
L 263.205863 -64.6272 
L 264.691062 -64.6272 
L 266.176262 -64.6272 
L 267.661462 -64.6272 
L 269.146662 -64.6272 
L 270.631862 -64.6272 
L 272.117062 -64.6272 
L 273.602262 -64.6272 
L 275.087461 -64.6272 
L 276.572661 -64.6272 
L 278.057861 -64.6272 
L 279.543061 -64.6272 
L 281.028261 -64.6272 
L 282.513461 -64.6272 
L 283.998661 -64.6272 
L 285.483861 -64.6272 
L 286.96906 -64.6272 
L 288.45426 -64.6272 
L 289.93946 -64.6272 
L 291.42466 -64.6272 
L 292.90986 -64.6272 
L 292.90986 -64.253632 
L 292.90986 -64.253632 
L 291.42466 -64.239487 
L 289.93946 -64.228676 
L 288.45426 -64.221481 
L 286.96906 -64.218093 
L 285.483861 -64.218602 
L 283.998661 -64.222994 
L 282.513461 -64.231152 
L 281.028261 -64.242858 
L 279.543061 -64.257807 
L 278.057861 -64.275611 
L 276.572661 -64.295822 
L 275.087461 -64.31794 
L 273.602262 -64.341439 
L 272.117062 -64.365783 
L 270.631862 -64.390441 
L 269.146662 -64.414908 
L 267.661462 -64.43872 
L 266.176262 -64.461461 
L 264.691062 -64.482774 
L 263.205863 -64.502364 
L 261.720663 -64.519997 
L 260.235463 -64.5355 
L 258.750263 -64.54875 
L 257.265063 -64.559669 
L 255.779863 -64.568213 
L 254.294663 -64.574362 
L 252.809464 -64.578112 
L 251.324264 -64.579468 
L 249.839064 -64.578432 
L 248.353864 -64.575008 
L 246.868664 -64.569189 
L 245.383464 -64.560963 
L 243.898264 -64.550308 
L 242.413064 -64.53719 
L 240.927865 -64.52156 
L 239.442665 -64.503344 
L 237.957465 -64.482436 
L 236.472265 -64.458679 
L 234.987065 -64.431847 
L 233.501865 -64.401624 
L 232.016665 -64.367574 
L 230.531466 -64.329119 
L 229.046266 -64.285515 
L 227.561066 -64.235834 
L 226.075866 -64.178952 
L 224.590666 -64.113555 
L 223.105466 -64.038151 
L 221.620266 -63.951104 
L 220.135066 -63.850679 
L 218.649867 -63.735112 
L 217.164667 -63.602682 
L 215.679467 -63.45181 
L 214.194267 -63.281159 
L 212.709067 -63.089735 
L 211.223867 -62.876999 
L 209.738667 -62.642963 
L 208.253468 -62.388279 
L 206.768268 -62.114312 
L 205.283068 -61.823187 
L 203.797868 -61.517814 
L 202.312668 -61.201874 
L 200.827468 -60.879778 
L 199.342268 -60.556577 
L 197.857069 -60.23784 
L 196.371869 -59.929488 
L 194.886669 -59.637591 
L 193.401469 -59.368134 
L 191.916269 -59.126762 
L 190.431069 -58.918511 
L 188.945869 -58.747551 
L 187.460669 -58.616936 
L 185.97547 -58.528414 
L 184.49027 -58.482274 
L 183.00507 -58.477282 
L 181.51987 -58.510693 
L 180.03467 -58.578357 
L 178.54947 -58.674919 
L 177.06427 -58.794094 
L 175.579071 -58.929025 
L 174.093871 -59.072673 
L 172.608671 -59.218237 
L 171.123471 -59.359566 
L 169.638271 -59.491529 
L 168.153071 -59.610317 
L 166.667871 -59.713657 
L 165.182671 -59.800923 
L 163.697472 -59.87312 
L 162.212272 -59.932767 
L 160.727072 -59.983663 
L 159.241872 -60.030577 
L 157.756672 -60.078865 
L 156.271472 -60.134065 
L 154.786272 -60.201482 
L 153.301073 -60.285811 
L 151.815873 -60.390811 
L 150.330673 -60.519059 
L 148.845473 -60.671801 
L 147.360273 -60.848895 
L 145.875073 -61.048863 
z
" id="m5dd5ae7890"/>
    </defs>
    <g clip-path="url(#p29cfebe0f2)">
     <use style="fill:#e1812c;" x="0" xlink:href="#m5dd5ae7890" y="345.6"/>
    </g>
   </g>
   <g id="patch_3">
    <path clip-path="url(#p29cfebe0f2)" d="M 57.6 68.0832 
L 57.6 68.0832 
L 57.6 68.0832 
L 57.6 68.0832 
z
" style="fill:#3274a1;"/>
   </g>
   <g id="patch_4">
    <path clip-path="url(#p29cfebe0f2)" d="M 57.6 68.0832 
L 57.6 68.0832 
L 57.6 68.0832 
L 57.6 68.0832 
z
" style="fill:#e1812c;"/>
   </g>
   <g id="patch_5">
    <path d="M 57.6 307.584 
L 57.6 41.472 
" style="fill:none;stroke:#cccccc;stroke-linecap:square;stroke-linejoin:miter;stroke-width:0.8;"/>
   </g>
   <g id="patch_6">
    <path d="M 414.72 307.584 
L 414.72 41.472 
" style="fill:none;stroke:#cccccc;stroke-linecap:square;stroke-linejoin:miter;stroke-width:0.8;"/>
   </g>
   <g id="patch_7">
    <path d="M 57.6 307.584 
L 414.72 307.584 
" style="fill:none;stroke:#cccccc;stroke-linecap:square;stroke-linejoin:miter;stroke-width:0.8;"/>
   </g>
   <g id="patch_8">
    <path d="M 57.6 41.472 
L 414.72 41.472 
" style="fill:none;stroke:#cccccc;stroke-linecap:square;stroke-linejoin:miter;stroke-width:0.8;"/>
   </g>
   <g id="text_21">
    <!-- A: 0.5541279315948486; D: 0.8472354412078857 -->
    <defs>
     <path d="M 34.1875 63.1875 
L 20.796875 26.90625 
L 47.609375 26.90625 
z
M 28.609375 72.90625 
L 39.796875 72.90625 
L 67.578125 0 
L 57.328125 0 
L 50.6875 18.703125 
L 17.828125 18.703125 
L 11.1875 0 
L 0.78125 0 
z
" id="DejaVuSans-65"/>
     <path d="M 11.71875 12.40625 
L 22.015625 12.40625 
L 22.015625 0 
L 11.71875 0 
z
M 11.71875 51.703125 
L 22.015625 51.703125 
L 22.015625 39.3125 
L 11.71875 39.3125 
z
" id="DejaVuSans-58"/>
     <path id="DejaVuSans-32"/>
     <path d="M 10.796875 72.90625 
L 49.515625 72.90625 
L 49.515625 64.59375 
L 19.828125 64.59375 
L 19.828125 46.734375 
Q 21.96875 47.46875 24.109375 47.828125 
Q 26.265625 48.1875 28.421875 48.1875 
Q 40.625 48.1875 47.75 41.5 
Q 54.890625 34.8125 54.890625 23.390625 
Q 54.890625 11.625 47.5625 5.09375 
Q 40.234375 -1.421875 26.90625 -1.421875 
Q 22.3125 -1.421875 17.546875 -0.640625 
Q 12.796875 0.140625 7.71875 1.703125 
L 7.71875 11.625 
Q 12.109375 9.234375 16.796875 8.0625 
Q 21.484375 6.890625 26.703125 6.890625 
Q 35.15625 6.890625 40.078125 11.328125 
Q 45.015625 15.765625 45.015625 23.390625 
Q 45.015625 31 40.078125 35.4375 
Q 35.15625 39.890625 26.703125 39.890625 
Q 22.75 39.890625 18.8125 39.015625 
Q 14.890625 38.140625 10.796875 36.28125 
z
" id="DejaVuSans-53"/>
     <path d="M 40.578125 39.3125 
Q 47.65625 37.796875 51.625 33 
Q 55.609375 28.21875 55.609375 21.1875 
Q 55.609375 10.40625 48.1875 4.484375 
Q 40.765625 -1.421875 27.09375 -1.421875 
Q 22.515625 -1.421875 17.65625 -0.515625 
Q 12.796875 0.390625 7.625 2.203125 
L 7.625 11.71875 
Q 11.71875 9.328125 16.59375 8.109375 
Q 21.484375 6.890625 26.8125 6.890625 
Q 36.078125 6.890625 40.9375 10.546875 
Q 45.796875 14.203125 45.796875 21.1875 
Q 45.796875 27.640625 41.28125 31.265625 
Q 36.765625 34.90625 28.71875 34.90625 
L 20.21875 34.90625 
L 20.21875 43.015625 
L 29.109375 43.015625 
Q 36.375 43.015625 40.234375 45.921875 
Q 44.09375 48.828125 44.09375 54.296875 
Q 44.09375 59.90625 40.109375 62.90625 
Q 36.140625 65.921875 28.71875 65.921875 
Q 24.65625 65.921875 20.015625 65.03125 
Q 15.375 64.15625 9.8125 62.3125 
L 9.8125 71.09375 
Q 15.4375 72.65625 20.34375 73.4375 
Q 25.25 74.21875 29.59375 74.21875 
Q 40.828125 74.21875 47.359375 69.109375 
Q 53.90625 64.015625 53.90625 55.328125 
Q 53.90625 49.265625 50.4375 45.09375 
Q 46.96875 40.921875 40.578125 39.3125 
z
" id="DejaVuSans-51"/>
     <path d="M 11.71875 51.703125 
L 22.015625 51.703125 
L 22.015625 39.3125 
L 11.71875 39.3125 
z
M 11.71875 12.40625 
L 22.015625 12.40625 
L 22.015625 4 
L 14.015625 -11.625 
L 7.71875 -11.625 
L 11.71875 4 
z
" id="DejaVuSans-59"/>
     <path d="M 19.671875 64.796875 
L 19.671875 8.109375 
L 31.59375 8.109375 
Q 46.6875 8.109375 53.6875 14.9375 
Q 60.6875 21.78125 60.6875 36.53125 
Q 60.6875 51.171875 53.6875 57.984375 
Q 46.6875 64.796875 31.59375 64.796875 
z
M 9.8125 72.90625 
L 30.078125 72.90625 
Q 51.265625 72.90625 61.171875 64.09375 
Q 71.09375 55.28125 71.09375 36.53125 
Q 71.09375 17.671875 61.125 8.828125 
Q 51.171875 0 30.078125 0 
L 9.8125 0 
z
" id="DejaVuSans-68"/>
    </defs>
    <g style="fill:#262626;" transform="translate(82.043438 35.472)scale(0.12 -0.12)">
     <use xlink:href="#DejaVuSans-65"/>
     <use x="68.392578" xlink:href="#DejaVuSans-58"/>
     <use x="102.083984" xlink:href="#DejaVuSans-32"/>
     <use x="133.871094" xlink:href="#DejaVuSans-48"/>
     <use x="197.494141" xlink:href="#DejaVuSans-46"/>
     <use x="229.28125" xlink:href="#DejaVuSans-53"/>
     <use x="292.904297" xlink:href="#DejaVuSans-53"/>
     <use x="356.527344" xlink:href="#DejaVuSans-52"/>
     <use x="420.150391" xlink:href="#DejaVuSans-49"/>
     <use x="483.773438" xlink:href="#DejaVuSans-50"/>
     <use x="547.396484" xlink:href="#DejaVuSans-55"/>
     <use x="611.019531" xlink:href="#DejaVuSans-57"/>
     <use x="674.642578" xlink:href="#DejaVuSans-51"/>
     <use x="738.265625" xlink:href="#DejaVuSans-49"/>
     <use x="801.888672" xlink:href="#DejaVuSans-53"/>
     <use x="865.511719" xlink:href="#DejaVuSans-57"/>
     <use x="929.134766" xlink:href="#DejaVuSans-52"/>
     <use x="992.757812" xlink:href="#DejaVuSans-56"/>
     <use x="1056.380859" xlink:href="#DejaVuSans-52"/>
     <use x="1120.003906" xlink:href="#DejaVuSans-56"/>
     <use x="1183.626953" xlink:href="#DejaVuSans-54"/>
     <use x="1247.25" xlink:href="#DejaVuSans-59"/>
     <use x="1280.941406" xlink:href="#DejaVuSans-32"/>
     <use x="1312.728516" xlink:href="#DejaVuSans-68"/>
     <use x="1389.730469" xlink:href="#DejaVuSans-58"/>
     <use x="1423.421875" xlink:href="#DejaVuSans-32"/>
     <use x="1455.208984" xlink:href="#DejaVuSans-48"/>
     <use x="1518.832031" xlink:href="#DejaVuSans-46"/>
     <use x="1550.619141" xlink:href="#DejaVuSans-56"/>
     <use x="1614.242188" xlink:href="#DejaVuSans-52"/>
     <use x="1677.865234" xlink:href="#DejaVuSans-55"/>
     <use x="1741.488281" xlink:href="#DejaVuSans-50"/>
     <use x="1805.111328" xlink:href="#DejaVuSans-51"/>
     <use x="1868.734375" xlink:href="#DejaVuSans-53"/>
     <use x="1932.357422" xlink:href="#DejaVuSans-52"/>
     <use x="1995.980469" xlink:href="#DejaVuSans-52"/>
     <use x="2059.603516" xlink:href="#DejaVuSans-49"/>
     <use x="2123.226562" xlink:href="#DejaVuSans-50"/>
     <use x="2186.849609" xlink:href="#DejaVuSans-48"/>
     <use x="2250.472656" xlink:href="#DejaVuSans-55"/>
     <use x="2314.095703" xlink:href="#DejaVuSans-56"/>
     <use x="2377.71875" xlink:href="#DejaVuSans-56"/>
     <use x="2441.341797" xlink:href="#DejaVuSans-53"/>
     <use x="2504.964844" xlink:href="#DejaVuSans-55"/>
    </g>
   </g>
   <g id="legend_1">
    <g id="patch_9">
     <path d="M 368.02 93.506375 
L 407.72 93.506375 
Q 409.72 93.506375 409.72 91.506375 
L 409.72 48.472 
Q 409.72 46.472 407.72 46.472 
L 368.02 46.472 
Q 366.02 46.472 366.02 48.472 
L 366.02 91.506375 
Q 366.02 93.506375 368.02 93.506375 
z
" style="fill:#ffffff;opacity:0.8;stroke:#cccccc;stroke-linejoin:miter;"/>
    </g>
    <g id="text_22">
     <!-- Mode -->
     <defs>
      <path d="M 9.8125 72.90625 
L 24.515625 72.90625 
L 43.109375 23.296875 
L 61.8125 72.90625 
L 76.515625 72.90625 
L 76.515625 0 
L 66.890625 0 
L 66.890625 64.015625 
L 48.09375 14.015625 
L 38.1875 14.015625 
L 19.390625 64.015625 
L 19.390625 0 
L 9.8125 0 
z
" id="DejaVuSans-77"/>
     </defs>
     <g style="fill:#262626;" transform="translate(374.245781 58.070438)scale(0.1 -0.1)">
      <use xlink:href="#DejaVuSans-77"/>
      <use x="86.279297" xlink:href="#DejaVuSans-111"/>
      <use x="147.460938" xlink:href="#DejaVuSans-100"/>
      <use x="210.9375" xlink:href="#DejaVuSans-101"/>
     </g>
    </g>
    <g id="patch_10">
     <path d="M 370.02 72.748563 
L 390.02 72.748563 
L 390.02 65.748563 
L 370.02 65.748563 
z
" style="fill:#3274a1;"/>
    </g>
    <g id="text_23">
     <!-- A -->
     <g style="fill:#262626;" transform="translate(398.02 72.748563)scale(0.1 -0.1)">
      <use xlink:href="#DejaVuSans-65"/>
     </g>
    </g>
    <g id="patch_11">
     <path d="M 370.02 87.426688 
L 390.02 87.426688 
L 390.02 80.426688 
L 370.02 80.426688 
z
" style="fill:#e1812c;"/>
    </g>
    <g id="text_24">
     <!-- D -->
     <g style="fill:#262626;" transform="translate(398.02 87.426688)scale(0.1 -0.1)">
      <use xlink:href="#DejaVuSans-68"/>
     </g>
    </g>
   </g>
  </g>
 </g>
 <defs>
  <clipPath id="p29cfebe0f2">
   <rect height="266.112" width="357.12" x="57.6" y="41.472"/>
  </clipPath>
 </defs>
</svg>
