<?xml version="1.0" encoding="utf-8" standalone="no"?>
<!DOCTYPE svg PUBLIC "-//W3C//DTD SVG 1.1//EN"
  "http://www.w3.org/Graphics/SVG/1.1/DTD/svg11.dtd">
<!-- Created with matplotlib (https://matplotlib.org/) -->
<svg height="345.6pt" version="1.1" viewBox="0 0 460.8 345.6" width="460.8pt" xmlns="http://www.w3.org/2000/svg" xmlns:xlink="http://www.w3.org/1999/xlink">
 <defs>
  <style type="text/css">
*{stroke-linecap:butt;stroke-linejoin:round;}
  </style>
 </defs>
 <g id="figure_1">
  <g id="patch_1">
   <path d="M 0 345.6 
L 460.8 345.6 
L 460.8 0 
L 0 0 
z
" style="fill:#ffffff;"/>
  </g>
  <g id="axes_1">
   <g id="patch_2">
    <path d="M 57.6 307.584 
L 414.72 307.584 
L 414.72 41.472 
L 57.6 41.472 
z
" style="fill:#ffffff;"/>
   </g>
   <g id="matplotlib.axis_1">
    <g id="xtick_1">
     <g id="line2d_1">
      <path clip-path="url(#pd61436d046)" d="M 58.706683 307.584 
L 58.706683 41.472 
" style="fill:none;stroke:#cccccc;stroke-linecap:round;stroke-width:0.8;"/>
     </g>
     <g id="text_1">
      <!-- 0.6 -->
      <defs>
       <path d="M 31.78125 66.40625 
Q 24.171875 66.40625 20.328125 58.90625 
Q 16.5 51.421875 16.5 36.375 
Q 16.5 21.390625 20.328125 13.890625 
Q 24.171875 6.390625 31.78125 6.390625 
Q 39.453125 6.390625 43.28125 13.890625 
Q 47.125 21.390625 47.125 36.375 
Q 47.125 51.421875 43.28125 58.90625 
Q 39.453125 66.40625 31.78125 66.40625 
z
M 31.78125 74.21875 
Q 44.046875 74.21875 50.515625 64.515625 
Q 56.984375 54.828125 56.984375 36.375 
Q 56.984375 17.96875 50.515625 8.265625 
Q 44.046875 -1.421875 31.78125 -1.421875 
Q 19.53125 -1.421875 13.0625 8.265625 
Q 6.59375 17.96875 6.59375 36.375 
Q 6.59375 54.828125 13.0625 64.515625 
Q 19.53125 74.21875 31.78125 74.21875 
z
" id="DejaVuSans-48"/>
       <path d="M 10.6875 12.40625 
L 21 12.40625 
L 21 0 
L 10.6875 0 
z
" id="DejaVuSans-46"/>
       <path d="M 33.015625 40.375 
Q 26.375 40.375 22.484375 35.828125 
Q 18.609375 31.296875 18.609375 23.390625 
Q 18.609375 15.53125 22.484375 10.953125 
Q 26.375 6.390625 33.015625 6.390625 
Q 39.65625 6.390625 43.53125 10.953125 
Q 47.40625 15.53125 47.40625 23.390625 
Q 47.40625 31.296875 43.53125 35.828125 
Q 39.65625 40.375 33.015625 40.375 
z
M 52.59375 71.296875 
L 52.59375 62.3125 
Q 48.875 64.0625 45.09375 64.984375 
Q 41.3125 65.921875 37.59375 65.921875 
Q 27.828125 65.921875 22.671875 59.328125 
Q 17.53125 52.734375 16.796875 39.40625 
Q 19.671875 43.65625 24.015625 45.921875 
Q 28.375 48.1875 33.59375 48.1875 
Q 44.578125 48.1875 50.953125 41.515625 
Q 57.328125 34.859375 57.328125 23.390625 
Q 57.328125 12.15625 50.6875 5.359375 
Q 44.046875 -1.421875 33.015625 -1.421875 
Q 20.359375 -1.421875 13.671875 8.265625 
Q 6.984375 17.96875 6.984375 36.375 
Q 6.984375 53.65625 15.1875 63.9375 
Q 23.390625 74.21875 37.203125 74.21875 
Q 40.921875 74.21875 44.703125 73.484375 
Q 48.484375 72.75 52.59375 71.296875 
z
" id="DejaVuSans-54"/>
      </defs>
      <g style="fill:#262626;" transform="translate(50.755121 322.182437)scale(0.1 -0.1)">
       <use xlink:href="#DejaVuSans-48"/>
       <use x="63.623047" xlink:href="#DejaVuSans-46"/>
       <use x="95.410156" xlink:href="#DejaVuSans-54"/>
      </g>
     </g>
    </g>
    <g id="xtick_2">
     <g id="line2d_2">
      <path clip-path="url(#pd61436d046)" d="M 103.495154 307.584 
L 103.495154 41.472 
" style="fill:none;stroke:#cccccc;stroke-linecap:round;stroke-width:0.8;"/>
     </g>
     <g id="text_2">
      <!-- 0.8 -->
      <defs>
       <path d="M 31.78125 34.625 
Q 24.75 34.625 20.71875 30.859375 
Q 16.703125 27.09375 16.703125 20.515625 
Q 16.703125 13.921875 20.71875 10.15625 
Q 24.75 6.390625 31.78125 6.390625 
Q 38.8125 6.390625 42.859375 10.171875 
Q 46.921875 13.96875 46.921875 20.515625 
Q 46.921875 27.09375 42.890625 30.859375 
Q 38.875 34.625 31.78125 34.625 
z
M 21.921875 38.8125 
Q 15.578125 40.375 12.03125 44.71875 
Q 8.5 49.078125 8.5 55.328125 
Q 8.5 64.0625 14.71875 69.140625 
Q 20.953125 74.21875 31.78125 74.21875 
Q 42.671875 74.21875 48.875 69.140625 
Q 55.078125 64.0625 55.078125 55.328125 
Q 55.078125 49.078125 51.53125 44.71875 
Q 48 40.375 41.703125 38.8125 
Q 48.828125 37.15625 52.796875 32.3125 
Q 56.78125 27.484375 56.78125 20.515625 
Q 56.78125 9.90625 50.3125 4.234375 
Q 43.84375 -1.421875 31.78125 -1.421875 
Q 19.734375 -1.421875 13.25 4.234375 
Q 6.78125 9.90625 6.78125 20.515625 
Q 6.78125 27.484375 10.78125 32.3125 
Q 14.796875 37.15625 21.921875 38.8125 
z
M 18.3125 54.390625 
Q 18.3125 48.734375 21.84375 45.5625 
Q 25.390625 42.390625 31.78125 42.390625 
Q 38.140625 42.390625 41.71875 45.5625 
Q 45.3125 48.734375 45.3125 54.390625 
Q 45.3125 60.0625 41.71875 63.234375 
Q 38.140625 66.40625 31.78125 66.40625 
Q 25.390625 66.40625 21.84375 63.234375 
Q 18.3125 60.0625 18.3125 54.390625 
z
" id="DejaVuSans-56"/>
      </defs>
      <g style="fill:#262626;" transform="translate(95.543592 322.182437)scale(0.1 -0.1)">
       <use xlink:href="#DejaVuSans-48"/>
       <use x="63.623047" xlink:href="#DejaVuSans-46"/>
       <use x="95.410156" xlink:href="#DejaVuSans-56"/>
      </g>
     </g>
    </g>
    <g id="xtick_3">
     <g id="line2d_3">
      <path clip-path="url(#pd61436d046)" d="M 148.283625 307.584 
L 148.283625 41.472 
" style="fill:none;stroke:#cccccc;stroke-linecap:round;stroke-width:0.8;"/>
     </g>
     <g id="text_3">
      <!-- 1.0 -->
      <defs>
       <path d="M 12.40625 8.296875 
L 28.515625 8.296875 
L 28.515625 63.921875 
L 10.984375 60.40625 
L 10.984375 69.390625 
L 28.421875 72.90625 
L 38.28125 72.90625 
L 38.28125 8.296875 
L 54.390625 8.296875 
L 54.390625 0 
L 12.40625 0 
z
" id="DejaVuSans-49"/>
      </defs>
      <g style="fill:#262626;" transform="translate(140.332063 322.182437)scale(0.1 -0.1)">
       <use xlink:href="#DejaVuSans-49"/>
       <use x="63.623047" xlink:href="#DejaVuSans-46"/>
       <use x="95.410156" xlink:href="#DejaVuSans-48"/>
      </g>
     </g>
    </g>
    <g id="xtick_4">
     <g id="line2d_4">
      <path clip-path="url(#pd61436d046)" d="M 193.072097 307.584 
L 193.072097 41.472 
" style="fill:none;stroke:#cccccc;stroke-linecap:round;stroke-width:0.8;"/>
     </g>
     <g id="text_4">
      <!-- 1.2 -->
      <defs>
       <path d="M 19.1875 8.296875 
L 53.609375 8.296875 
L 53.609375 0 
L 7.328125 0 
L 7.328125 8.296875 
Q 12.9375 14.109375 22.625 23.890625 
Q 32.328125 33.6875 34.8125 36.53125 
Q 39.546875 41.84375 41.421875 45.53125 
Q 43.3125 49.21875 43.3125 52.78125 
Q 43.3125 58.59375 39.234375 62.25 
Q 35.15625 65.921875 28.609375 65.921875 
Q 23.96875 65.921875 18.8125 64.3125 
Q 13.671875 62.703125 7.8125 59.421875 
L 7.8125 69.390625 
Q 13.765625 71.78125 18.9375 73 
Q 24.125 74.21875 28.421875 74.21875 
Q 39.75 74.21875 46.484375 68.546875 
Q 53.21875 62.890625 53.21875 53.421875 
Q 53.21875 48.921875 51.53125 44.890625 
Q 49.859375 40.875 45.40625 35.40625 
Q 44.1875 33.984375 37.640625 27.21875 
Q 31.109375 20.453125 19.1875 8.296875 
z
" id="DejaVuSans-50"/>
      </defs>
      <g style="fill:#262626;" transform="translate(185.120534 322.182437)scale(0.1 -0.1)">
       <use xlink:href="#DejaVuSans-49"/>
       <use x="63.623047" xlink:href="#DejaVuSans-46"/>
       <use x="95.410156" xlink:href="#DejaVuSans-50"/>
      </g>
     </g>
    </g>
    <g id="xtick_5">
     <g id="line2d_5">
      <path clip-path="url(#pd61436d046)" d="M 237.860568 307.584 
L 237.860568 41.472 
" style="fill:none;stroke:#cccccc;stroke-linecap:round;stroke-width:0.8;"/>
     </g>
     <g id="text_5">
      <!-- 1.4 -->
      <defs>
       <path d="M 37.796875 64.3125 
L 12.890625 25.390625 
L 37.796875 25.390625 
z
M 35.203125 72.90625 
L 47.609375 72.90625 
L 47.609375 25.390625 
L 58.015625 25.390625 
L 58.015625 17.1875 
L 47.609375 17.1875 
L 47.609375 0 
L 37.796875 0 
L 37.796875 17.1875 
L 4.890625 17.1875 
L 4.890625 26.703125 
z
" id="DejaVuSans-52"/>
      </defs>
      <g style="fill:#262626;" transform="translate(229.909005 322.182437)scale(0.1 -0.1)">
       <use xlink:href="#DejaVuSans-49"/>
       <use x="63.623047" xlink:href="#DejaVuSans-46"/>
       <use x="95.410156" xlink:href="#DejaVuSans-52"/>
      </g>
     </g>
    </g>
    <g id="xtick_6">
     <g id="line2d_6">
      <path clip-path="url(#pd61436d046)" d="M 282.649039 307.584 
L 282.649039 41.472 
" style="fill:none;stroke:#cccccc;stroke-linecap:round;stroke-width:0.8;"/>
     </g>
     <g id="text_6">
      <!-- 1.6 -->
      <g style="fill:#262626;" transform="translate(274.697477 322.182437)scale(0.1 -0.1)">
       <use xlink:href="#DejaVuSans-49"/>
       <use x="63.623047" xlink:href="#DejaVuSans-46"/>
       <use x="95.410156" xlink:href="#DejaVuSans-54"/>
      </g>
     </g>
    </g>
    <g id="xtick_7">
     <g id="line2d_7">
      <path clip-path="url(#pd61436d046)" d="M 327.43751 307.584 
L 327.43751 41.472 
" style="fill:none;stroke:#cccccc;stroke-linecap:round;stroke-width:0.8;"/>
     </g>
     <g id="text_7">
      <!-- 1.8 -->
      <g style="fill:#262626;" transform="translate(319.485948 322.182437)scale(0.1 -0.1)">
       <use xlink:href="#DejaVuSans-49"/>
       <use x="63.623047" xlink:href="#DejaVuSans-46"/>
       <use x="95.410156" xlink:href="#DejaVuSans-56"/>
      </g>
     </g>
    </g>
    <g id="xtick_8">
     <g id="line2d_8">
      <path clip-path="url(#pd61436d046)" d="M 372.225981 307.584 
L 372.225981 41.472 
" style="fill:none;stroke:#cccccc;stroke-linecap:round;stroke-width:0.8;"/>
     </g>
     <g id="text_8">
      <!-- 2.0 -->
      <g style="fill:#262626;" transform="translate(364.274419 322.182437)scale(0.1 -0.1)">
       <use xlink:href="#DejaVuSans-50"/>
       <use x="63.623047" xlink:href="#DejaVuSans-46"/>
       <use x="95.410156" xlink:href="#DejaVuSans-48"/>
      </g>
     </g>
    </g>
    <g id="text_9">
     <!-- Loading_Time -->
     <defs>
      <path d="M 9.8125 72.90625 
L 19.671875 72.90625 
L 19.671875 8.296875 
L 55.171875 8.296875 
L 55.171875 0 
L 9.8125 0 
z
" id="DejaVuSans-76"/>
      <path d="M 30.609375 48.390625 
Q 23.390625 48.390625 19.1875 42.75 
Q 14.984375 37.109375 14.984375 27.296875 
Q 14.984375 17.484375 19.15625 11.84375 
Q 23.34375 6.203125 30.609375 6.203125 
Q 37.796875 6.203125 41.984375 11.859375 
Q 46.1875 17.53125 46.1875 27.296875 
Q 46.1875 37.015625 41.984375 42.703125 
Q 37.796875 48.390625 30.609375 48.390625 
z
M 30.609375 56 
Q 42.328125 56 49.015625 48.375 
Q 55.71875 40.765625 55.71875 27.296875 
Q 55.71875 13.875 49.015625 6.21875 
Q 42.328125 -1.421875 30.609375 -1.421875 
Q 18.84375 -1.421875 12.171875 6.21875 
Q 5.515625 13.875 5.515625 27.296875 
Q 5.515625 40.765625 12.171875 48.375 
Q 18.84375 56 30.609375 56 
z
" id="DejaVuSans-111"/>
      <path d="M 34.28125 27.484375 
Q 23.390625 27.484375 19.1875 25 
Q 14.984375 22.515625 14.984375 16.5 
Q 14.984375 11.71875 18.140625 8.90625 
Q 21.296875 6.109375 26.703125 6.109375 
Q 34.1875 6.109375 38.703125 11.40625 
Q 43.21875 16.703125 43.21875 25.484375 
L 43.21875 27.484375 
z
M 52.203125 31.203125 
L 52.203125 0 
L 43.21875 0 
L 43.21875 8.296875 
Q 40.140625 3.328125 35.546875 0.953125 
Q 30.953125 -1.421875 24.3125 -1.421875 
Q 15.921875 -1.421875 10.953125 3.296875 
Q 6 8.015625 6 15.921875 
Q 6 25.140625 12.171875 29.828125 
Q 18.359375 34.515625 30.609375 34.515625 
L 43.21875 34.515625 
L 43.21875 35.40625 
Q 43.21875 41.609375 39.140625 45 
Q 35.0625 48.390625 27.6875 48.390625 
Q 23 48.390625 18.546875 47.265625 
Q 14.109375 46.140625 10.015625 43.890625 
L 10.015625 52.203125 
Q 14.9375 54.109375 19.578125 55.046875 
Q 24.21875 56 28.609375 56 
Q 40.484375 56 46.34375 49.84375 
Q 52.203125 43.703125 52.203125 31.203125 
z
" id="DejaVuSans-97"/>
      <path d="M 45.40625 46.390625 
L 45.40625 75.984375 
L 54.390625 75.984375 
L 54.390625 0 
L 45.40625 0 
L 45.40625 8.203125 
Q 42.578125 3.328125 38.25 0.953125 
Q 33.9375 -1.421875 27.875 -1.421875 
Q 17.96875 -1.421875 11.734375 6.484375 
Q 5.515625 14.40625 5.515625 27.296875 
Q 5.515625 40.1875 11.734375 48.09375 
Q 17.96875 56 27.875 56 
Q 33.9375 56 38.25 53.625 
Q 42.578125 51.265625 45.40625 46.390625 
z
M 14.796875 27.296875 
Q 14.796875 17.390625 18.875 11.75 
Q 22.953125 6.109375 30.078125 6.109375 
Q 37.203125 6.109375 41.296875 11.75 
Q 45.40625 17.390625 45.40625 27.296875 
Q 45.40625 37.203125 41.296875 42.84375 
Q 37.203125 48.484375 30.078125 48.484375 
Q 22.953125 48.484375 18.875 42.84375 
Q 14.796875 37.203125 14.796875 27.296875 
z
" id="DejaVuSans-100"/>
      <path d="M 9.421875 54.6875 
L 18.40625 54.6875 
L 18.40625 0 
L 9.421875 0 
z
M 9.421875 75.984375 
L 18.40625 75.984375 
L 18.40625 64.59375 
L 9.421875 64.59375 
z
" id="DejaVuSans-105"/>
      <path d="M 54.890625 33.015625 
L 54.890625 0 
L 45.90625 0 
L 45.90625 32.71875 
Q 45.90625 40.484375 42.875 44.328125 
Q 39.84375 48.1875 33.796875 48.1875 
Q 26.515625 48.1875 22.3125 43.546875 
Q 18.109375 38.921875 18.109375 30.90625 
L 18.109375 0 
L 9.078125 0 
L 9.078125 54.6875 
L 18.109375 54.6875 
L 18.109375 46.1875 
Q 21.34375 51.125 25.703125 53.5625 
Q 30.078125 56 35.796875 56 
Q 45.21875 56 50.046875 50.171875 
Q 54.890625 44.34375 54.890625 33.015625 
z
" id="DejaVuSans-110"/>
      <path d="M 45.40625 27.984375 
Q 45.40625 37.75 41.375 43.109375 
Q 37.359375 48.484375 30.078125 48.484375 
Q 22.859375 48.484375 18.828125 43.109375 
Q 14.796875 37.75 14.796875 27.984375 
Q 14.796875 18.265625 18.828125 12.890625 
Q 22.859375 7.515625 30.078125 7.515625 
Q 37.359375 7.515625 41.375 12.890625 
Q 45.40625 18.265625 45.40625 27.984375 
z
M 54.390625 6.78125 
Q 54.390625 -7.171875 48.1875 -13.984375 
Q 42 -20.796875 29.203125 -20.796875 
Q 24.46875 -20.796875 20.265625 -20.09375 
Q 16.0625 -19.390625 12.109375 -17.921875 
L 12.109375 -9.1875 
Q 16.0625 -11.328125 19.921875 -12.34375 
Q 23.78125 -13.375 27.78125 -13.375 
Q 36.625 -13.375 41.015625 -8.765625 
Q 45.40625 -4.15625 45.40625 5.171875 
L 45.40625 9.625 
Q 42.625 4.78125 38.28125 2.390625 
Q 33.9375 0 27.875 0 
Q 17.828125 0 11.671875 7.65625 
Q 5.515625 15.328125 5.515625 27.984375 
Q 5.515625 40.671875 11.671875 48.328125 
Q 17.828125 56 27.875 56 
Q 33.9375 56 38.28125 53.609375 
Q 42.625 51.21875 45.40625 46.390625 
L 45.40625 54.6875 
L 54.390625 54.6875 
z
" id="DejaVuSans-103"/>
      <path d="M 50.984375 -16.609375 
L 50.984375 -23.578125 
L -0.984375 -23.578125 
L -0.984375 -16.609375 
z
" id="DejaVuSans-95"/>
      <path d="M -0.296875 72.90625 
L 61.375 72.90625 
L 61.375 64.59375 
L 35.5 64.59375 
L 35.5 0 
L 25.59375 0 
L 25.59375 64.59375 
L -0.296875 64.59375 
z
" id="DejaVuSans-84"/>
      <path d="M 52 44.1875 
Q 55.375 50.25 60.0625 53.125 
Q 64.75 56 71.09375 56 
Q 79.640625 56 84.28125 50.015625 
Q 88.921875 44.046875 88.921875 33.015625 
L 88.921875 0 
L 79.890625 0 
L 79.890625 32.71875 
Q 79.890625 40.578125 77.09375 44.375 
Q 74.3125 48.1875 68.609375 48.1875 
Q 61.625 48.1875 57.5625 43.546875 
Q 53.515625 38.921875 53.515625 30.90625 
L 53.515625 0 
L 44.484375 0 
L 44.484375 32.71875 
Q 44.484375 40.625 41.703125 44.40625 
Q 38.921875 48.1875 33.109375 48.1875 
Q 26.21875 48.1875 22.15625 43.53125 
Q 18.109375 38.875 18.109375 30.90625 
L 18.109375 0 
L 9.078125 0 
L 9.078125 54.6875 
L 18.109375 54.6875 
L 18.109375 46.1875 
Q 21.1875 51.21875 25.484375 53.609375 
Q 29.78125 56 35.6875 56 
Q 41.65625 56 45.828125 52.96875 
Q 50 49.953125 52 44.1875 
z
" id="DejaVuSans-109"/>
      <path d="M 56.203125 29.59375 
L 56.203125 25.203125 
L 14.890625 25.203125 
Q 15.484375 15.921875 20.484375 11.0625 
Q 25.484375 6.203125 34.421875 6.203125 
Q 39.59375 6.203125 44.453125 7.46875 
Q 49.3125 8.734375 54.109375 11.28125 
L 54.109375 2.78125 
Q 49.265625 0.734375 44.1875 -0.34375 
Q 39.109375 -1.421875 33.890625 -1.421875 
Q 20.796875 -1.421875 13.15625 6.1875 
Q 5.515625 13.8125 5.515625 26.8125 
Q 5.515625 40.234375 12.765625 48.109375 
Q 20.015625 56 32.328125 56 
Q 43.359375 56 49.78125 48.890625 
Q 56.203125 41.796875 56.203125 29.59375 
z
M 47.21875 32.234375 
Q 47.125 39.59375 43.09375 43.984375 
Q 39.0625 48.390625 32.421875 48.390625 
Q 24.90625 48.390625 20.390625 44.140625 
Q 15.875 39.890625 15.1875 32.171875 
z
" id="DejaVuSans-101"/>
     </defs>
     <g style="fill:#262626;" transform="translate(201.457656 335.860562)scale(0.1 -0.1)">
      <use xlink:href="#DejaVuSans-76"/>
      <use x="55.697266" xlink:href="#DejaVuSans-111"/>
      <use x="116.878906" xlink:href="#DejaVuSans-97"/>
      <use x="178.158203" xlink:href="#DejaVuSans-100"/>
      <use x="241.634766" xlink:href="#DejaVuSans-105"/>
      <use x="269.417969" xlink:href="#DejaVuSans-110"/>
      <use x="332.796875" xlink:href="#DejaVuSans-103"/>
      <use x="396.273438" xlink:href="#DejaVuSans-95"/>
      <use x="446.273438" xlink:href="#DejaVuSans-84"/>
      <use x="507.310547" xlink:href="#DejaVuSans-105"/>
      <use x="535.09375" xlink:href="#DejaVuSans-109"/>
      <use x="632.505859" xlink:href="#DejaVuSans-101"/>
     </g>
    </g>
   </g>
   <g id="matplotlib.axis_2">
    <g id="ytick_1">
     <g id="text_10">
      <!-- /48492 -->
      <defs>
       <path d="M 25.390625 72.90625 
L 33.6875 72.90625 
L 8.296875 -9.28125 
L 0 -9.28125 
z
" id="DejaVuSans-47"/>
       <path d="M 10.984375 1.515625 
L 10.984375 10.5 
Q 14.703125 8.734375 18.5 7.8125 
Q 22.3125 6.890625 25.984375 6.890625 
Q 35.75 6.890625 40.890625 13.453125 
Q 46.046875 20.015625 46.78125 33.40625 
Q 43.953125 29.203125 39.59375 26.953125 
Q 35.25 24.703125 29.984375 24.703125 
Q 19.046875 24.703125 12.671875 31.3125 
Q 6.296875 37.9375 6.296875 49.421875 
Q 6.296875 60.640625 12.9375 67.421875 
Q 19.578125 74.21875 30.609375 74.21875 
Q 43.265625 74.21875 49.921875 64.515625 
Q 56.59375 54.828125 56.59375 36.375 
Q 56.59375 19.140625 48.40625 8.859375 
Q 40.234375 -1.421875 26.421875 -1.421875 
Q 22.703125 -1.421875 18.890625 -0.6875 
Q 15.09375 0.046875 10.984375 1.515625 
z
M 30.609375 32.421875 
Q 37.25 32.421875 41.125 36.953125 
Q 45.015625 41.5 45.015625 49.421875 
Q 45.015625 57.28125 41.125 61.84375 
Q 37.25 66.40625 30.609375 66.40625 
Q 23.96875 66.40625 20.09375 61.84375 
Q 16.21875 57.28125 16.21875 49.421875 
Q 16.21875 41.5 20.09375 36.953125 
Q 23.96875 32.421875 30.609375 32.421875 
z
" id="DejaVuSans-57"/>
      </defs>
      <g style="fill:#262626;" transform="translate(15.41875 71.882419)scale(0.1 -0.1)">
       <use xlink:href="#DejaVuSans-47"/>
       <use x="33.691406" xlink:href="#DejaVuSans-52"/>
       <use x="97.314453" xlink:href="#DejaVuSans-56"/>
       <use x="160.9375" xlink:href="#DejaVuSans-52"/>
       <use x="224.560547" xlink:href="#DejaVuSans-57"/>
       <use x="288.183594" xlink:href="#DejaVuSans-50"/>
      </g>
     </g>
    </g>
    <g id="ytick_2">
     <g id="text_11">
      <!-- /24706 -->
      <defs>
       <path d="M 8.203125 72.90625 
L 55.078125 72.90625 
L 55.078125 68.703125 
L 28.609375 0 
L 18.3125 0 
L 43.21875 64.59375 
L 8.203125 64.59375 
z
" id="DejaVuSans-55"/>
      </defs>
      <g style="fill:#262626;" transform="translate(15.41875 125.104819)scale(0.1 -0.1)">
       <use xlink:href="#DejaVuSans-47"/>
       <use x="33.691406" xlink:href="#DejaVuSans-50"/>
       <use x="97.314453" xlink:href="#DejaVuSans-52"/>
       <use x="160.9375" xlink:href="#DejaVuSans-55"/>
       <use x="224.560547" xlink:href="#DejaVuSans-48"/>
       <use x="288.183594" xlink:href="#DejaVuSans-54"/>
      </g>
     </g>
    </g>
    <g id="ytick_3">
     <g id="text_12">
      <!-- /1617 -->
      <g style="fill:#262626;" transform="translate(21.78125 178.327219)scale(0.1 -0.1)">
       <use xlink:href="#DejaVuSans-47"/>
       <use x="33.691406" xlink:href="#DejaVuSans-49"/>
       <use x="97.314453" xlink:href="#DejaVuSans-54"/>
       <use x="160.9375" xlink:href="#DejaVuSans-49"/>
       <use x="224.560547" xlink:href="#DejaVuSans-55"/>
      </g>
     </g>
    </g>
    <g id="ytick_4">
     <g id="text_13">
      <!-- /19882 -->
      <g style="fill:#262626;" transform="translate(15.41875 231.549619)scale(0.1 -0.1)">
       <use xlink:href="#DejaVuSans-47"/>
       <use x="33.691406" xlink:href="#DejaVuSans-49"/>
       <use x="97.314453" xlink:href="#DejaVuSans-57"/>
       <use x="160.9375" xlink:href="#DejaVuSans-56"/>
       <use x="224.560547" xlink:href="#DejaVuSans-56"/>
       <use x="288.183594" xlink:href="#DejaVuSans-50"/>
      </g>
     </g>
    </g>
    <g id="ytick_5">
     <g id="text_14">
      <!-- /18922 -->
      <g style="fill:#262626;" transform="translate(15.41875 284.772019)scale(0.1 -0.1)">
       <use xlink:href="#DejaVuSans-47"/>
       <use x="33.691406" xlink:href="#DejaVuSans-49"/>
       <use x="97.314453" xlink:href="#DejaVuSans-56"/>
       <use x="160.9375" xlink:href="#DejaVuSans-57"/>
       <use x="224.560547" xlink:href="#DejaVuSans-50"/>
       <use x="288.183594" xlink:href="#DejaVuSans-50"/>
      </g>
     </g>
    </g>
    <g id="text_15">
     <!-- URL -->
     <defs>
      <path d="M 8.6875 72.90625 
L 18.609375 72.90625 
L 18.609375 28.609375 
Q 18.609375 16.890625 22.84375 11.734375 
Q 27.09375 6.59375 36.625 6.59375 
Q 46.09375 6.59375 50.34375 11.734375 
Q 54.59375 16.890625 54.59375 28.609375 
L 54.59375 72.90625 
L 64.5 72.90625 
L 64.5 27.390625 
Q 64.5 13.140625 57.4375 5.859375 
Q 50.390625 -1.421875 36.625 -1.421875 
Q 22.796875 -1.421875 15.734375 5.859375 
Q 8.6875 13.140625 8.6875 27.390625 
z
" id="DejaVuSans-85"/>
      <path d="M 44.390625 34.1875 
Q 47.5625 33.109375 50.5625 29.59375 
Q 53.5625 26.078125 56.59375 19.921875 
L 66.609375 0 
L 56 0 
L 46.6875 18.703125 
Q 43.0625 26.03125 39.671875 28.421875 
Q 36.28125 30.8125 30.421875 30.8125 
L 19.671875 30.8125 
L 19.671875 0 
L 9.8125 0 
L 9.8125 72.90625 
L 32.078125 72.90625 
Q 44.578125 72.90625 50.734375 67.671875 
Q 56.890625 62.453125 56.890625 51.90625 
Q 56.890625 45.015625 53.6875 40.46875 
Q 50.484375 35.9375 44.390625 34.1875 
z
M 19.671875 64.796875 
L 19.671875 38.921875 
L 32.078125 38.921875 
Q 39.203125 38.921875 42.84375 42.21875 
Q 46.484375 45.515625 46.484375 51.90625 
Q 46.484375 58.296875 42.84375 61.546875 
Q 39.203125 64.796875 32.078125 64.796875 
z
" id="DejaVuSans-82"/>
     </defs>
     <g style="fill:#262626;" transform="translate(9.339063 184.447531)rotate(-90)scale(0.1 -0.1)">
      <use xlink:href="#DejaVuSans-85"/>
      <use x="73.193359" xlink:href="#DejaVuSans-82"/>
      <use x="142.675781" xlink:href="#DejaVuSans-76"/>
     </g>
    </g>
   </g>
   <g id="PolyCollection_1">
    <defs>
     <path d="M 76.649423 -277.5168 
L 76.649423 -295.691021 
L 79.102644 -296.101622 
L 81.555865 -296.423554 
L 84.009086 -296.653524 
L 86.462307 -296.789871 
L 88.915528 -296.832619 
L 91.368748 -296.783475 
L 93.821969 -296.645781 
L 96.27519 -296.424431 
L 98.728411 -296.125742 
L 101.181632 -295.757295 
L 103.634853 -295.327745 
L 106.088074 -294.84662 
L 108.541294 -294.324095 
L 110.994515 -293.770768 
L 113.447736 -293.197437 
L 115.900957 -292.614884 
L 118.354178 -292.033664 
L 120.807399 -291.463923 
L 123.26062 -290.915227 
L 125.71384 -290.39641 
L 128.167061 -289.915452 
L 130.620282 -289.479376 
L 133.073503 -289.094159 
L 135.526724 -288.764672 
L 137.979945 -288.494634 
L 140.433166 -288.286582 
L 142.886386 -288.14186 
L 145.339607 -288.060615 
L 147.792828 -288.041818 
L 150.246049 -288.083288 
L 152.69927 -288.181737 
L 155.152491 -288.332828 
L 157.605712 -288.531243 
L 160.058933 -288.770777 
L 162.512153 -289.044444 
L 164.965374 -289.344594 
L 167.418595 -289.663055 
L 169.871816 -289.99129 
L 172.325037 -290.320555 
L 174.778258 -290.642083 
L 177.231479 -290.947261 
L 179.684699 -291.227817 
L 182.13792 -291.475995 
L 184.591141 -291.68473 
L 187.044362 -291.847799 
L 189.497583 -291.959958 
L 191.950804 -292.017053 
L 194.404025 -292.016099 
L 196.857245 -291.955327 
L 199.310466 -291.834206 
L 201.763687 -291.653418 
L 204.216908 -291.414809 
L 206.670129 -291.121308 
L 209.12335 -290.776816 
L 211.576571 -290.386075 
L 214.029791 -289.95452 
L 216.483012 -289.488117 
L 218.936233 -288.993199 
L 221.389454 -288.4763 
L 223.842675 -287.943997 
L 226.295896 -287.40276 
L 228.749117 -286.858821 
L 231.202338 -286.318056 
L 233.655558 -285.78589 
L 236.108779 -285.267226 
L 238.562 -284.766387 
L 241.015221 -284.287084 
L 243.468442 -283.832402 
L 245.921663 -283.404802 
L 248.374884 -283.006135 
L 250.828104 -282.63767 
L 253.281325 -282.300127 
L 255.734546 -281.993721 
L 258.187767 -281.718207 
L 260.640988 -281.472923 
L 263.094209 -281.256842 
L 265.54743 -281.068615 
L 268.00065 -280.906617 
L 270.453871 -280.768989 
L 272.907092 -280.653681 
L 275.360313 -280.558489 
L 277.813534 -280.481096 
L 280.266755 -280.419109 
L 282.719976 -280.37009 
L 285.173197 -280.331601 
L 287.626417 -280.301232 
L 290.079638 -280.276639 
L 292.532859 -280.255576 
L 294.98608 -280.235931 
L 297.439301 -280.215752 
L 299.892522 -280.193278 
L 302.345743 -280.166961 
L 304.798963 -280.135487 
L 307.252184 -280.09779 
L 309.705405 -280.053063 
L 312.158626 -280.00076 
L 314.611847 -279.940594 
L 317.065068 -279.872528 
L 319.518289 -279.796761 
L 319.518289 -277.5168 
L 319.518289 -277.5168 
L 317.065068 -277.5168 
L 314.611847 -277.5168 
L 312.158626 -277.5168 
L 309.705405 -277.5168 
L 307.252184 -277.5168 
L 304.798963 -277.5168 
L 302.345743 -277.5168 
L 299.892522 -277.5168 
L 297.439301 -277.5168 
L 294.98608 -277.5168 
L 292.532859 -277.5168 
L 290.079638 -277.5168 
L 287.626417 -277.5168 
L 285.173197 -277.5168 
L 282.719976 -277.5168 
L 280.266755 -277.5168 
L 277.813534 -277.5168 
L 275.360313 -277.5168 
L 272.907092 -277.5168 
L 270.453871 -277.5168 
L 268.00065 -277.5168 
L 265.54743 -277.5168 
L 263.094209 -277.5168 
L 260.640988 -277.5168 
L 258.187767 -277.5168 
L 255.734546 -277.5168 
L 253.281325 -277.5168 
L 250.828104 -277.5168 
L 248.374884 -277.5168 
L 245.921663 -277.5168 
L 243.468442 -277.5168 
L 241.015221 -277.5168 
L 238.562 -277.5168 
L 236.108779 -277.5168 
L 233.655558 -277.5168 
L 231.202338 -277.5168 
L 228.749117 -277.5168 
L 226.295896 -277.5168 
L 223.842675 -277.5168 
L 221.389454 -277.5168 
L 218.936233 -277.5168 
L 216.483012 -277.5168 
L 214.029791 -277.5168 
L 211.576571 -277.5168 
L 209.12335 -277.5168 
L 206.670129 -277.5168 
L 204.216908 -277.5168 
L 201.763687 -277.5168 
L 199.310466 -277.5168 
L 196.857245 -277.5168 
L 194.404025 -277.5168 
L 191.950804 -277.5168 
L 189.497583 -277.5168 
L 187.044362 -277.5168 
L 184.591141 -277.5168 
L 182.13792 -277.5168 
L 179.684699 -277.5168 
L 177.231479 -277.5168 
L 174.778258 -277.5168 
L 172.325037 -277.5168 
L 169.871816 -277.5168 
L 167.418595 -277.5168 
L 164.965374 -277.5168 
L 162.512153 -277.5168 
L 160.058933 -277.5168 
L 157.605712 -277.5168 
L 155.152491 -277.5168 
L 152.69927 -277.5168 
L 150.246049 -277.5168 
L 147.792828 -277.5168 
L 145.339607 -277.5168 
L 142.886386 -277.5168 
L 140.433166 -277.5168 
L 137.979945 -277.5168 
L 135.526724 -277.5168 
L 133.073503 -277.5168 
L 130.620282 -277.5168 
L 128.167061 -277.5168 
L 125.71384 -277.5168 
L 123.26062 -277.5168 
L 120.807399 -277.5168 
L 118.354178 -277.5168 
L 115.900957 -277.5168 
L 113.447736 -277.5168 
L 110.994515 -277.5168 
L 108.541294 -277.5168 
L 106.088074 -277.5168 
L 103.634853 -277.5168 
L 101.181632 -277.5168 
L 98.728411 -277.5168 
L 96.27519 -277.5168 
L 93.821969 -277.5168 
L 91.368748 -277.5168 
L 88.915528 -277.5168 
L 86.462307 -277.5168 
L 84.009086 -277.5168 
L 81.555865 -277.5168 
L 79.102644 -277.5168 
L 76.649423 -277.5168 
z
" id="mf63d23f577"/>
    </defs>
    <g clip-path="url(#pd61436d046)">
     <use style="fill:#3274a1;" x="0" xlink:href="#mf63d23f577" y="345.6"/>
    </g>
   </g>
   <g id="PolyCollection_2">
    <defs>
     <path d="M 83.401752 -268.497056 
L 83.401752 -277.5168 
L 85.78016 -277.5168 
L 88.158568 -277.5168 
L 90.536977 -277.5168 
L 92.915385 -277.5168 
L 95.293794 -277.5168 
L 97.672202 -277.5168 
L 100.05061 -277.5168 
L 102.429019 -277.5168 
L 104.807427 -277.5168 
L 107.185836 -277.5168 
L 109.564244 -277.5168 
L 111.942652 -277.5168 
L 114.321061 -277.5168 
L 116.699469 -277.5168 
L 119.077878 -277.5168 
L 121.456286 -277.5168 
L 123.834694 -277.5168 
L 126.213103 -277.5168 
L 128.591511 -277.5168 
L 130.96992 -277.5168 
L 133.348328 -277.5168 
L 135.726736 -277.5168 
L 138.105145 -277.5168 
L 140.483553 -277.5168 
L 142.861962 -277.5168 
L 145.24037 -277.5168 
L 147.618778 -277.5168 
L 149.997187 -277.5168 
L 152.375595 -277.5168 
L 154.754004 -277.5168 
L 157.132412 -277.5168 
L 159.51082 -277.5168 
L 161.889229 -277.5168 
L 164.267637 -277.5168 
L 166.646046 -277.5168 
L 169.024454 -277.5168 
L 171.402862 -277.5168 
L 173.781271 -277.5168 
L 176.159679 -277.5168 
L 178.538087 -277.5168 
L 180.916496 -277.5168 
L 183.294904 -277.5168 
L 185.673313 -277.5168 
L 188.051721 -277.5168 
L 190.430129 -277.5168 
L 192.808538 -277.5168 
L 195.186946 -277.5168 
L 197.565355 -277.5168 
L 199.943763 -277.5168 
L 202.322171 -277.5168 
L 204.70058 -277.5168 
L 207.078988 -277.5168 
L 209.457397 -277.5168 
L 211.835805 -277.5168 
L 214.214213 -277.5168 
L 216.592622 -277.5168 
L 218.97103 -277.5168 
L 221.349439 -277.5168 
L 223.727847 -277.5168 
L 226.106255 -277.5168 
L 228.484664 -277.5168 
L 230.863072 -277.5168 
L 233.241481 -277.5168 
L 235.619889 -277.5168 
L 237.998297 -277.5168 
L 240.376706 -277.5168 
L 242.755114 -277.5168 
L 245.133523 -277.5168 
L 247.511931 -277.5168 
L 249.890339 -277.5168 
L 252.268748 -277.5168 
L 254.647156 -277.5168 
L 257.025565 -277.5168 
L 259.403973 -277.5168 
L 261.782381 -277.5168 
L 264.16079 -277.5168 
L 266.539198 -277.5168 
L 268.917607 -277.5168 
L 271.296015 -277.5168 
L 273.674423 -277.5168 
L 276.052832 -277.5168 
L 278.43124 -277.5168 
L 280.809649 -277.5168 
L 283.188057 -277.5168 
L 285.566465 -277.5168 
L 287.944874 -277.5168 
L 290.323282 -277.5168 
L 292.701691 -277.5168 
L 295.080099 -277.5168 
L 297.458507 -277.5168 
L 299.836916 -277.5168 
L 302.215324 -277.5168 
L 304.593733 -277.5168 
L 306.972141 -277.5168 
L 309.350549 -277.5168 
L 311.728958 -277.5168 
L 314.107366 -277.5168 
L 316.485775 -277.5168 
L 318.864183 -277.5168 
L 318.864183 -274.125857 
L 318.864183 -274.125857 
L 316.485775 -273.941023 
L 314.107366 -273.758046 
L 311.728958 -273.576988 
L 309.350549 -273.397664 
L 306.972141 -273.219657 
L 304.593733 -273.042327 
L 302.215324 -272.864846 
L 299.836916 -272.686239 
L 297.458507 -272.505439 
L 295.080099 -272.321345 
L 292.701691 -272.132891 
L 290.323282 -271.939124 
L 287.944874 -271.739265 
L 285.566465 -271.532787 
L 283.188057 -271.319466 
L 280.809649 -271.099438 
L 278.43124 -270.873228 
L 276.052832 -270.641768 
L 273.674423 -270.406402 
L 271.296015 -270.168859 
L 268.917607 -269.931214 
L 266.539198 -269.695832 
L 264.16079 -269.465284 
L 261.782381 -269.242263 
L 259.403973 -269.029474 
L 257.025565 -268.82953 
L 254.647156 -268.644836 
L 252.268748 -268.477478 
L 249.890339 -268.329121 
L 247.511931 -268.200915 
L 245.133523 -268.093417 
L 242.755114 -268.00653 
L 240.376706 -267.939467 
L 237.998297 -267.890733 
L 235.619889 -267.858127 
L 233.241481 -267.838779 
L 230.863072 -267.829191 
L 228.484664 -267.825316 
L 226.106255 -267.822639 
L 223.727847 -267.816282 
L 221.349439 -267.80112 
L 218.97103 -267.771899 
L 216.592622 -267.723364 
L 214.214213 -267.650393 
L 211.835805 -267.548121 
L 209.457397 -267.412072 
L 207.078988 -267.238277 
L 204.70058 -267.023394 
L 202.322171 -266.764808 
L 199.943763 -266.460737 
L 197.565355 -266.110311 
L 195.186946 -265.713644 
L 192.808538 -265.271889 
L 190.430129 -264.787278 
L 188.051721 -264.263133 
L 185.673313 -263.703864 
L 183.294904 -263.114931 
L 180.916496 -262.502788 
L 178.538087 -261.874792 
L 176.159679 -261.239084 
L 173.781271 -260.604441 
L 171.402862 -259.980101 
L 169.024454 -259.37556 
L 166.646046 -258.800357 
L 164.267637 -258.263833 
L 161.889229 -257.774899 
L 159.51082 -257.341786 
L 157.132412 -256.971829 
L 154.754004 -256.671249 
L 152.375595 -256.444978 
L 149.997187 -256.296518 
L 147.618778 -256.22784 
L 145.24037 -256.239342 
L 142.861962 -256.329851 
L 140.483553 -256.496687 
L 138.105145 -256.735772 
L 135.726736 -257.041793 
L 133.348328 -257.408408 
L 130.96992 -257.828475 
L 128.591511 -258.29432 
L 126.213103 -258.797995 
L 123.834694 -259.331558 
L 121.456286 -259.88732 
L 119.077878 -260.458082 
L 116.699469 -261.037326 
L 114.321061 -261.619381 
L 111.942652 -262.19952 
L 109.564244 -262.774028 
L 107.185836 -263.340206 
L 104.807427 -263.896334 
L 102.429019 -264.441587 
L 100.05061 -264.975917 
L 97.672202 -265.499908 
L 95.293794 -266.014612 
L 92.915385 -266.521376 
L 90.536977 -267.02167 
L 88.158568 -267.516927 
L 85.78016 -268.008403 
L 83.401752 -268.497056 
z
" id="mdaaedab845"/>
    </defs>
    <g clip-path="url(#pd61436d046)">
     <use style="fill:#e1812c;" x="0" xlink:href="#mdaaedab845" y="345.6"/>
    </g>
   </g>
   <g id="PolyCollection_3">
    <defs>
     <path d="M 74.880118 -224.2944 
L 74.880118 -244.408434 
L 77.666403 -244.892212 
L 80.452688 -245.252007 
L 83.238972 -245.483049 
L 86.025257 -245.58336 
L 88.811541 -245.553816 
L 91.597826 -245.398111 
L 94.384111 -245.122624 
L 97.170395 -244.736194 
L 99.95668 -244.249819 
L 102.742964 -243.676295 
L 105.529249 -243.029801 
L 108.315534 -242.325461 
L 111.101818 -241.578894 
L 113.888103 -240.805773 
L 116.674387 -240.021405 
L 119.460672 -239.240354 
L 122.246956 -238.476103 
L 125.033241 -237.740781 
L 127.819526 -237.04494 
L 130.60581 -236.397399 
L 133.392095 -235.805146 
L 136.178379 -235.273295 
L 138.964664 -234.805094 
L 141.750949 -234.401976 
L 144.537233 -234.063654 
L 147.323518 -233.788247 
L 150.109802 -233.572425 
L 152.896087 -233.411589 
L 155.682372 -233.300053 
L 158.468656 -233.23125 
L 161.254941 -233.19794 
L 164.041225 -233.192427 
L 166.82751 -233.206772 
L 169.613794 -233.233009 
L 172.400079 -233.263355 
L 175.186364 -233.290407 
L 177.972648 -233.307326 
L 180.758933 -233.308003 
L 183.545217 -233.287197 
L 186.331502 -233.240652 
L 189.117787 -233.165176 
L 191.904071 -233.05869 
L 194.690356 -232.920239 
L 197.47664 -232.749965 
L 200.262925 -232.549055 
L 203.04921 -232.319641 
L 205.835494 -232.064689 
L 208.621779 -231.787852 
L 211.408063 -231.493315 
L 214.194348 -231.185627 
L 216.980632 -230.86953 
L 219.766917 -230.549792 
L 222.553202 -230.231054 
L 225.339486 -229.917687 
L 228.125771 -229.613676 
L 230.912055 -229.322517 
L 233.69834 -229.04715 
L 236.484625 -228.789911 
L 239.270909 -228.552511 
L 242.057194 -228.336036 
L 244.843478 -228.14097 
L 247.629763 -227.967236 
L 250.416047 -227.814248 
L 253.202332 -227.680976 
L 255.988617 -227.566018 
L 258.774901 -227.467678 
L 261.561186 -227.384037 
L 264.34747 -227.313036 
L 267.133755 -227.25254 
L 269.92004 -227.200411 
L 272.706324 -227.154563 
L 275.492609 -227.113019 
L 278.278893 -227.073953 
L 281.065178 -227.035728 
L 283.851463 -226.996922 
L 286.637747 -226.956349 
L 289.424032 -226.913068 
L 292.210316 -226.866389 
L 294.996601 -226.815862 
L 297.782885 -226.761267 
L 300.56917 -226.702595 
L 303.355455 -226.640024 
L 306.141739 -226.573885 
L 308.928024 -226.504634 
L 311.714308 -226.432814 
L 314.500593 -226.359022 
L 317.286878 -226.283877 
L 320.073162 -226.207982 
L 322.859447 -226.131906 
L 325.645731 -226.056153 
L 328.432016 -225.981154 
L 331.218301 -225.907247 
L 334.004585 -225.834681 
L 336.79087 -225.763614 
L 339.577154 -225.69412 
L 342.363439 -225.626202 
L 345.149723 -225.559807 
L 347.936008 -225.49484 
L 350.722293 -225.431187 
L 350.722293 -224.2944 
L 350.722293 -224.2944 
L 347.936008 -224.2944 
L 345.149723 -224.2944 
L 342.363439 -224.2944 
L 339.577154 -224.2944 
L 336.79087 -224.2944 
L 334.004585 -224.2944 
L 331.218301 -224.2944 
L 328.432016 -224.2944 
L 325.645731 -224.2944 
L 322.859447 -224.2944 
L 320.073162 -224.2944 
L 317.286878 -224.2944 
L 314.500593 -224.2944 
L 311.714308 -224.2944 
L 308.928024 -224.2944 
L 306.141739 -224.2944 
L 303.355455 -224.2944 
L 300.56917 -224.2944 
L 297.782885 -224.2944 
L 294.996601 -224.2944 
L 292.210316 -224.2944 
L 289.424032 -224.2944 
L 286.637747 -224.2944 
L 283.851463 -224.2944 
L 281.065178 -224.2944 
L 278.278893 -224.2944 
L 275.492609 -224.2944 
L 272.706324 -224.2944 
L 269.92004 -224.2944 
L 267.133755 -224.2944 
L 264.34747 -224.2944 
L 261.561186 -224.2944 
L 258.774901 -224.2944 
L 255.988617 -224.2944 
L 253.202332 -224.2944 
L 250.416047 -224.2944 
L 247.629763 -224.2944 
L 244.843478 -224.2944 
L 242.057194 -224.2944 
L 239.270909 -224.2944 
L 236.484625 -224.2944 
L 233.69834 -224.2944 
L 230.912055 -224.2944 
L 228.125771 -224.2944 
L 225.339486 -224.2944 
L 222.553202 -224.2944 
L 219.766917 -224.2944 
L 216.980632 -224.2944 
L 214.194348 -224.2944 
L 211.408063 -224.2944 
L 208.621779 -224.2944 
L 205.835494 -224.2944 
L 203.04921 -224.2944 
L 200.262925 -224.2944 
L 197.47664 -224.2944 
L 194.690356 -224.2944 
L 191.904071 -224.2944 
L 189.117787 -224.2944 
L 186.331502 -224.2944 
L 183.545217 -224.2944 
L 180.758933 -224.2944 
L 177.972648 -224.2944 
L 175.186364 -224.2944 
L 172.400079 -224.2944 
L 169.613794 -224.2944 
L 166.82751 -224.2944 
L 164.041225 -224.2944 
L 161.254941 -224.2944 
L 158.468656 -224.2944 
L 155.682372 -224.2944 
L 152.896087 -224.2944 
L 150.109802 -224.2944 
L 147.323518 -224.2944 
L 144.537233 -224.2944 
L 141.750949 -224.2944 
L 138.964664 -224.2944 
L 136.178379 -224.2944 
L 133.392095 -224.2944 
L 130.60581 -224.2944 
L 127.819526 -224.2944 
L 125.033241 -224.2944 
L 122.246956 -224.2944 
L 119.460672 -224.2944 
L 116.674387 -224.2944 
L 113.888103 -224.2944 
L 111.101818 -224.2944 
L 108.315534 -224.2944 
L 105.529249 -224.2944 
L 102.742964 -224.2944 
L 99.95668 -224.2944 
L 97.170395 -224.2944 
L 94.384111 -224.2944 
L 91.597826 -224.2944 
L 88.811541 -224.2944 
L 86.025257 -224.2944 
L 83.238972 -224.2944 
L 80.452688 -224.2944 
L 77.666403 -224.2944 
L 74.880118 -224.2944 
z
" id="me3edfa6bff"/>
    </defs>
    <g clip-path="url(#pd61436d046)">
     <use style="fill:#3274a1;" x="0" xlink:href="#me3edfa6bff" y="345.6"/>
    </g>
   </g>
   <g id="PolyCollection_4">
    <defs>
     <path d="M 77.800288 -214.333822 
L 77.800288 -224.2944 
L 80.784973 -224.2944 
L 83.769657 -224.2944 
L 86.754342 -224.2944 
L 89.739026 -224.2944 
L 92.723711 -224.2944 
L 95.708395 -224.2944 
L 98.693079 -224.2944 
L 101.677764 -224.2944 
L 104.662448 -224.2944 
L 107.647133 -224.2944 
L 110.631817 -224.2944 
L 113.616502 -224.2944 
L 116.601186 -224.2944 
L 119.585871 -224.2944 
L 122.570555 -224.2944 
L 125.55524 -224.2944 
L 128.539924 -224.2944 
L 131.524609 -224.2944 
L 134.509293 -224.2944 
L 137.493978 -224.2944 
L 140.478662 -224.2944 
L 143.463347 -224.2944 
L 146.448031 -224.2944 
L 149.432716 -224.2944 
L 152.4174 -224.2944 
L 155.402084 -224.2944 
L 158.386769 -224.2944 
L 161.371453 -224.2944 
L 164.356138 -224.2944 
L 167.340822 -224.2944 
L 170.325507 -224.2944 
L 173.310191 -224.2944 
L 176.294876 -224.2944 
L 179.27956 -224.2944 
L 182.264245 -224.2944 
L 185.248929 -224.2944 
L 188.233614 -224.2944 
L 191.218298 -224.2944 
L 194.202983 -224.2944 
L 197.187667 -224.2944 
L 200.172352 -224.2944 
L 203.157036 -224.2944 
L 206.141721 -224.2944 
L 209.126405 -224.2944 
L 212.111089 -224.2944 
L 215.095774 -224.2944 
L 218.080458 -224.2944 
L 221.065143 -224.2944 
L 224.049827 -224.2944 
L 227.034512 -224.2944 
L 230.019196 -224.2944 
L 233.003881 -224.2944 
L 235.988565 -224.2944 
L 238.97325 -224.2944 
L 241.957934 -224.2944 
L 244.942619 -224.2944 
L 247.927303 -224.2944 
L 250.911988 -224.2944 
L 253.896672 -224.2944 
L 256.881357 -224.2944 
L 259.866041 -224.2944 
L 262.850726 -224.2944 
L 265.83541 -224.2944 
L 268.820094 -224.2944 
L 271.804779 -224.2944 
L 274.789463 -224.2944 
L 277.774148 -224.2944 
L 280.758832 -224.2944 
L 283.743517 -224.2944 
L 286.728201 -224.2944 
L 289.712886 -224.2944 
L 292.69757 -224.2944 
L 295.682255 -224.2944 
L 298.666939 -224.2944 
L 301.651624 -224.2944 
L 304.636308 -224.2944 
L 307.620993 -224.2944 
L 310.605677 -224.2944 
L 313.590362 -224.2944 
L 316.575046 -224.2944 
L 319.55973 -224.2944 
L 322.544415 -224.2944 
L 325.529099 -224.2944 
L 328.513784 -224.2944 
L 331.498468 -224.2944 
L 334.483153 -224.2944 
L 337.467837 -224.2944 
L 340.452522 -224.2944 
L 343.437206 -224.2944 
L 346.421891 -224.2944 
L 349.406575 -224.2944 
L 352.39126 -224.2944 
L 355.375944 -224.2944 
L 358.360629 -224.2944 
L 361.345313 -224.2944 
L 364.329998 -224.2944 
L 367.314682 -224.2944 
L 370.299367 -224.2944 
L 373.284051 -224.2944 
L 373.284051 -223.538602 
L 373.284051 -223.538602 
L 370.299367 -223.539506 
L 367.314682 -223.546393 
L 364.329998 -223.558661 
L 361.345313 -223.575449 
L 358.360629 -223.595638 
L 355.375944 -223.617864 
L 352.39126 -223.640534 
L 349.406575 -223.66184 
L 346.421891 -223.679781 
L 343.437206 -223.692183 
L 340.452522 -223.696717 
L 337.467837 -223.690917 
L 334.483153 -223.672205 
L 331.498468 -223.637909 
L 328.513784 -223.585293 
L 325.529099 -223.511583 
L 322.544415 -223.414007 
L 319.55973 -223.289844 
L 316.575046 -223.136478 
L 313.590362 -222.95147 
L 310.605677 -222.73263 
L 307.620993 -222.478113 
L 304.636308 -222.186509 
L 301.651624 -221.856946 
L 298.666939 -221.489186 
L 295.682255 -221.083722 
L 292.69757 -220.641856 
L 289.712886 -220.165768 
L 286.728201 -219.658558 
L 283.743517 -219.124256 
L 280.758832 -218.56781 
L 277.774148 -217.995027 
L 274.789463 -217.412487 
L 271.804779 -216.827414 
L 268.820094 -216.247517 
L 265.83541 -215.680805 
L 262.850726 -215.135368 
L 259.866041 -214.619153 
L 256.881357 -214.139727 
L 253.896672 -213.704043 
L 250.911988 -213.318215 
L 247.927303 -212.987317 
L 244.942619 -212.715202 
L 241.957934 -212.504363 
L 238.97325 -212.355828 
L 235.988565 -212.2691 
L 233.003881 -212.242143 
L 230.019196 -212.27141 
L 227.034512 -212.351923 
L 224.049827 -212.477385 
L 221.065143 -212.640336 
L 218.080458 -212.832349 
L 215.095774 -213.044242 
L 212.111089 -213.266326 
L 209.126405 -213.488666 
L 206.141721 -213.701351 
L 203.157036 -213.894772 
L 200.172352 -214.059894 
L 197.187667 -214.18852 
L 194.202983 -214.273529 
L 191.218298 -214.30909 
L 188.233614 -214.290843 
L 185.248929 -214.21603 
L 182.264245 -214.083581 
L 179.27956 -213.894143 
L 176.294876 -213.650055 
L 173.310191 -213.355262 
L 170.325507 -213.015177 
L 167.340822 -212.636496 
L 164.356138 -212.226968 
L 161.371453 -211.795134 
L 158.386769 -211.350054 
L 155.402084 -210.901022 
L 152.4174 -210.457292 
L 149.432716 -210.02783 
L 146.448031 -209.621091 
L 143.463347 -209.244839 
L 140.478662 -208.906025 
L 137.493978 -208.610693 
L 134.509293 -208.363955 
L 131.524609 -208.169995 
L 128.539924 -208.032111 
L 125.55524 -207.952786 
L 122.570555 -207.933763 
L 119.585871 -207.976129 
L 116.601186 -208.08039 
L 113.616502 -208.246525 
L 110.631817 -208.474019 
L 107.647133 -208.761871 
L 104.662448 -209.108583 
L 101.677764 -209.512117 
L 98.693079 -209.969858 
L 95.708395 -210.478557 
L 92.723711 -211.034296 
L 89.739026 -211.632459 
L 86.754342 -212.267738 
L 83.769657 -212.93417 
L 80.784973 -213.625206 
L 77.800288 -214.333822 
z
" id="m13e437311f"/>
    </defs>
    <g clip-path="url(#pd61436d046)">
     <use style="fill:#e1812c;" x="0" xlink:href="#m13e437311f" y="345.6"/>
    </g>
   </g>
   <g id="PolyCollection_5">
    <defs>
     <path d="M 77.562694 -171.072 
L 77.562694 -191.349245 
L 80.804356 -191.898759 
L 84.046019 -192.23876 
L 87.287681 -192.36096 
L 90.529343 -192.264264 
L 93.771006 -191.954829 
L 97.012668 -191.445755 
L 100.254331 -190.756432 
L 103.495993 -189.911609 
L 106.737655 -188.940248 
L 109.979318 -187.874245 
L 113.22098 -186.74711 
L 116.462643 -185.59266 
L 119.704305 -184.443827 
L 122.945967 -183.33159 
L 126.18763 -182.284096 
L 129.429292 -181.325962 
L 132.670955 -180.477762 
L 135.912617 -179.755695 
L 139.15428 -179.171385 
L 142.395942 -178.731826 
L 145.637604 -178.439407 
L 148.879267 -178.292044 
L 152.120929 -178.283364 
L 155.362592 -178.402976 
L 158.604254 -178.636807 
L 161.845916 -178.967521 
L 165.087579 -179.375027 
L 168.329241 -179.837083 
L 171.570904 -180.329987 
L 174.812566 -180.829355 
L 178.054229 -181.310962 
L 181.295891 -181.75161 
L 184.537553 -182.129988 
L 187.779216 -182.427484 
L 191.020878 -182.628885 
L 194.262541 -182.722942 
L 197.504203 -182.702743 
L 200.745865 -182.565882 
L 203.987528 -182.314399 
L 207.22919 -181.95451 
L 210.470853 -181.49613 
L 213.712515 -180.952239 
L 216.954178 -180.338119 
L 220.19584 -179.670533 
L 223.437502 -178.966878 
L 226.679165 -178.244384 
L 229.920827 -177.519392 
L 233.16249 -176.80675 
L 236.404152 -176.119353 
L 239.645814 -175.467837 
L 242.887477 -174.860426 
L 246.129139 -174.302918 
L 249.370802 -173.798805 
L 252.612464 -173.349476 
L 255.854126 -172.954501 
L 259.095789 -172.611957 
L 262.337451 -172.318761 
L 265.579114 -172.071008 
L 268.820776 -171.864275 
L 272.062439 -171.693896 
L 275.304101 -171.555186 
L 278.545763 -171.443622 
L 281.787426 -171.354972 
L 285.029088 -171.28539 
L 288.270751 -171.231459 
L 291.512413 -171.19022 
L 294.754075 -171.159161 
L 297.995738 -171.136198 
L 301.2374 -171.119645 
L 304.479063 -171.10817 
L 307.720725 -171.100758 
L 310.962388 -171.096666 
L 314.20405 -171.095385 
L 317.445712 -171.096607 
L 320.687375 -171.100186 
L 323.929037 -171.106113 
L 327.1707 -171.114487 
L 330.412362 -171.125484 
L 333.654024 -171.139334 
L 336.895687 -171.156293 
L 340.137349 -171.17661 
L 343.379012 -171.200501 
L 346.620674 -171.228117 
L 349.862337 -171.259511 
L 353.103999 -171.294612 
L 356.345661 -171.333198 
L 359.587324 -171.374879 
L 362.828986 -171.419083 
L 366.070649 -171.46506 
L 369.312311 -171.511887 
L 372.553973 -171.558496 
L 375.795636 -171.603707 
L 379.037298 -171.646275 
L 382.278961 -171.684945 
L 385.520623 -171.718514 
L 388.762285 -171.745889 
L 392.003948 -171.766149 
L 395.24561 -171.778596 
L 398.487273 -171.782795 
L 398.487273 -171.072 
L 398.487273 -171.072 
L 395.24561 -171.072 
L 392.003948 -171.072 
L 388.762285 -171.072 
L 385.520623 -171.072 
L 382.278961 -171.072 
L 379.037298 -171.072 
L 375.795636 -171.072 
L 372.553973 -171.072 
L 369.312311 -171.072 
L 366.070649 -171.072 
L 362.828986 -171.072 
L 359.587324 -171.072 
L 356.345661 -171.072 
L 353.103999 -171.072 
L 349.862337 -171.072 
L 346.620674 -171.072 
L 343.379012 -171.072 
L 340.137349 -171.072 
L 336.895687 -171.072 
L 333.654024 -171.072 
L 330.412362 -171.072 
L 327.1707 -171.072 
L 323.929037 -171.072 
L 320.687375 -171.072 
L 317.445712 -171.072 
L 314.20405 -171.072 
L 310.962388 -171.072 
L 307.720725 -171.072 
L 304.479063 -171.072 
L 301.2374 -171.072 
L 297.995738 -171.072 
L 294.754075 -171.072 
L 291.512413 -171.072 
L 288.270751 -171.072 
L 285.029088 -171.072 
L 281.787426 -171.072 
L 278.545763 -171.072 
L 275.304101 -171.072 
L 272.062439 -171.072 
L 268.820776 -171.072 
L 265.579114 -171.072 
L 262.337451 -171.072 
L 259.095789 -171.072 
L 255.854126 -171.072 
L 252.612464 -171.072 
L 249.370802 -171.072 
L 246.129139 -171.072 
L 242.887477 -171.072 
L 239.645814 -171.072 
L 236.404152 -171.072 
L 233.16249 -171.072 
L 229.920827 -171.072 
L 226.679165 -171.072 
L 223.437502 -171.072 
L 220.19584 -171.072 
L 216.954178 -171.072 
L 213.712515 -171.072 
L 210.470853 -171.072 
L 207.22919 -171.072 
L 203.987528 -171.072 
L 200.745865 -171.072 
L 197.504203 -171.072 
L 194.262541 -171.072 
L 191.020878 -171.072 
L 187.779216 -171.072 
L 184.537553 -171.072 
L 181.295891 -171.072 
L 178.054229 -171.072 
L 174.812566 -171.072 
L 171.570904 -171.072 
L 168.329241 -171.072 
L 165.087579 -171.072 
L 161.845916 -171.072 
L 158.604254 -171.072 
L 155.362592 -171.072 
L 152.120929 -171.072 
L 148.879267 -171.072 
L 145.637604 -171.072 
L 142.395942 -171.072 
L 139.15428 -171.072 
L 135.912617 -171.072 
L 132.670955 -171.072 
L 129.429292 -171.072 
L 126.18763 -171.072 
L 122.945967 -171.072 
L 119.704305 -171.072 
L 116.462643 -171.072 
L 113.22098 -171.072 
L 109.979318 -171.072 
L 106.737655 -171.072 
L 103.495993 -171.072 
L 100.254331 -171.072 
L 97.012668 -171.072 
L 93.771006 -171.072 
L 90.529343 -171.072 
L 87.287681 -171.072 
L 84.046019 -171.072 
L 80.804356 -171.072 
L 77.562694 -171.072 
z
" id="m0f7140756e"/>
    </defs>
    <g clip-path="url(#pd61436d046)">
     <use style="fill:#3274a1;" x="0" xlink:href="#m0f7140756e" y="345.6"/>
    </g>
   </g>
   <g id="PolyCollection_6">
    <defs>
     <path d="M 80.626648 -165.085398 
L 80.626648 -171.072 
L 83.494183 -171.072 
L 86.361718 -171.072 
L 89.229253 -171.072 
L 92.096787 -171.072 
L 94.964322 -171.072 
L 97.831857 -171.072 
L 100.699392 -171.072 
L 103.566927 -171.072 
L 106.434462 -171.072 
L 109.301996 -171.072 
L 112.169531 -171.072 
L 115.037066 -171.072 
L 117.904601 -171.072 
L 120.772136 -171.072 
L 123.639671 -171.072 
L 126.507205 -171.072 
L 129.37474 -171.072 
L 132.242275 -171.072 
L 135.10981 -171.072 
L 137.977345 -171.072 
L 140.84488 -171.072 
L 143.712414 -171.072 
L 146.579949 -171.072 
L 149.447484 -171.072 
L 152.315019 -171.072 
L 155.182554 -171.072 
L 158.050089 -171.072 
L 160.917623 -171.072 
L 163.785158 -171.072 
L 166.652693 -171.072 
L 169.520228 -171.072 
L 172.387763 -171.072 
L 175.255298 -171.072 
L 178.122832 -171.072 
L 180.990367 -171.072 
L 183.857902 -171.072 
L 186.725437 -171.072 
L 189.592972 -171.072 
L 192.460507 -171.072 
L 195.328041 -171.072 
L 198.195576 -171.072 
L 201.063111 -171.072 
L 203.930646 -171.072 
L 206.798181 -171.072 
L 209.665716 -171.072 
L 212.53325 -171.072 
L 215.400785 -171.072 
L 218.26832 -171.072 
L 221.135855 -171.072 
L 224.00339 -171.072 
L 226.870925 -171.072 
L 229.738459 -171.072 
L 232.605994 -171.072 
L 235.473529 -171.072 
L 238.341064 -171.072 
L 241.208599 -171.072 
L 244.076134 -171.072 
L 246.943668 -171.072 
L 249.811203 -171.072 
L 252.678738 -171.072 
L 255.546273 -171.072 
L 258.413808 -171.072 
L 261.281343 -171.072 
L 264.148877 -171.072 
L 267.016412 -171.072 
L 269.883947 -171.072 
L 272.751482 -171.072 
L 275.619017 -171.072 
L 278.486552 -171.072 
L 281.354086 -171.072 
L 284.221621 -171.072 
L 287.089156 -171.072 
L 289.956691 -171.072 
L 292.824226 -171.072 
L 295.691761 -171.072 
L 298.559295 -171.072 
L 301.42683 -171.072 
L 304.294365 -171.072 
L 307.1619 -171.072 
L 310.029435 -171.072 
L 312.89697 -171.072 
L 315.764504 -171.072 
L 318.632039 -171.072 
L 321.499574 -171.072 
L 324.367109 -171.072 
L 327.234644 -171.072 
L 330.102179 -171.072 
L 332.969713 -171.072 
L 335.837248 -171.072 
L 338.704783 -171.072 
L 341.572318 -171.072 
L 344.439853 -171.072 
L 347.307388 -171.072 
L 350.174923 -171.072 
L 353.042457 -171.072 
L 355.909992 -171.072 
L 358.777527 -171.072 
L 361.645062 -171.072 
L 364.512597 -171.072 
L 364.512597 -170.179465 
L 364.512597 -170.179465 
L 361.645062 -170.139896 
L 358.777527 -170.099013 
L 355.909992 -170.055676 
L 353.042457 -170.008582 
L 350.174923 -169.956296 
L 347.307388 -169.897291 
L 344.439853 -169.829997 
L 341.572318 -169.75284 
L 338.704783 -169.664291 
L 335.837248 -169.562903 
L 332.969713 -169.447344 
L 330.102179 -169.316426 
L 327.234644 -169.169124 
L 324.367109 -169.004589 
L 321.499574 -168.82215 
L 318.632039 -168.621321 
L 315.764504 -168.401797 
L 312.89697 -168.163455 
L 310.029435 -167.906353 
L 307.1619 -167.630739 
L 304.294365 -167.337054 
L 301.42683 -167.025955 
L 298.559295 -166.698326 
L 295.691761 -166.355304 
L 292.824226 -165.998297 
L 289.956691 -165.629002 
L 287.089156 -165.249412 
L 284.221621 -164.861817 
L 281.354086 -164.468786 
L 278.486552 -164.073137 
L 275.619017 -163.677889 
L 272.751482 -163.286195 
L 269.883947 -162.901266 
L 267.016412 -162.526284 
L 264.148877 -162.164312 
L 261.281343 -161.818197 
L 258.413808 -161.490493 
L 255.546273 -161.183391 
L 252.678738 -160.898662 
L 249.811203 -160.637634 
L 246.943668 -160.401175 
L 244.076134 -160.189718 
L 241.208599 -160.003283 
L 238.341064 -159.841526 
L 235.473529 -159.703797 
L 232.605994 -159.589184 
L 229.738459 -159.496568 
L 226.870925 -159.424651 
L 224.00339 -159.371973 
L 221.135855 -159.336913 
L 218.26832 -159.317665 
L 215.400785 -159.312206 
L 212.53325 -159.318254 
L 209.665716 -159.333227 
L 206.798181 -159.354217 
L 203.930646 -159.377975 
L 201.063111 -159.400939 
L 198.195576 -159.419289 
L 195.328041 -159.429048 
L 192.460507 -159.426221 
L 189.592972 -159.406969 
L 186.725437 -159.367816 
L 183.857902 -159.305865 
L 180.990367 -159.21902 
L 178.122832 -159.106185 
L 175.255298 -158.967436 
L 172.387763 -158.804143 
L 169.520228 -158.619022 
L 166.652693 -158.416133 
L 163.785158 -158.200784 
L 160.917623 -157.979377 
L 158.050089 -157.759179 
L 155.182554 -157.548044 
L 152.315019 -157.354096 
L 149.447484 -157.18539 
L 146.579949 -157.049577 
L 143.712414 -156.953593 
L 140.84488 -156.903383 
L 137.977345 -156.903681 
L 135.10981 -156.957863 
L 132.242275 -157.067861 
L 129.37474 -157.234159 
L 126.507205 -157.455853 
L 123.639671 -157.730772 
L 120.772136 -158.055649 
L 117.904601 -158.426319 
L 115.037066 -158.837945 
L 112.169531 -159.285234 
L 109.301996 -159.762655 
L 106.434462 -160.264623 
L 103.566927 -160.785662 
L 100.699392 -161.320527 
L 97.831857 -161.864291 
L 94.964322 -162.412397 
L 92.096787 -162.960678 
L 89.229253 -163.50536 
L 86.361718 -164.043034 
L 83.494183 -164.570633 
L 80.626648 -165.085398 
z
" id="mec31af7ee8"/>
    </defs>
    <g clip-path="url(#pd61436d046)">
     <use style="fill:#e1812c;" x="0" xlink:href="#mec31af7ee8" y="345.6"/>
    </g>
   </g>
   <g id="PolyCollection_7">
    <defs>
     <path d="M 73.832727 -117.8496 
L 73.832727 -138.157524 
L 76.379866 -138.64014 
L 78.927005 -138.96853 
L 81.474144 -139.135729 
L 84.021283 -139.13856 
L 86.568422 -138.977753 
L 89.115562 -138.65791 
L 91.662701 -138.187325 
L 94.20984 -137.577667 
L 96.756979 -136.843549 
L 99.304118 -136.002002 
L 101.851257 -135.07188 
L 104.398396 -134.07324 
L 106.945535 -133.026714 
L 109.492674 -131.952903 
L 112.039813 -130.871826 
L 114.586952 -129.802435 
L 117.134091 -128.762215 
L 119.68123 -127.766869 
L 122.228369 -126.830107 
L 124.775508 -125.963508 
L 127.322647 -125.176478 
L 129.869786 -124.47626 
L 132.416925 -123.868012 
L 134.964064 -123.354913 
L 137.511203 -122.9383 
L 140.058342 -122.617817 
L 142.605481 -122.391561 
L 145.15262 -122.256227 
L 147.699759 -122.207244 
L 150.246898 -122.238894 
L 152.794038 -122.344429 
L 155.341177 -122.51618 
L 157.888316 -122.745664 
L 160.435455 -123.0237 
L 162.982594 -123.340535 
L 165.529733 -123.685986 
L 168.076872 -124.049603 
L 170.624011 -124.420848 
L 173.17115 -124.78929 
L 175.718289 -125.144824 
L 178.265428 -125.477883 
L 180.812567 -125.779658 
L 183.359706 -126.042301 
L 185.906845 -126.259113 
L 188.453984 -126.424693 
L 191.001123 -126.53506 
L 193.548262 -126.587714 
L 196.095401 -126.581659 
L 198.64254 -126.51737 
L 201.189679 -126.396709 
L 203.736818 -126.222799 
L 206.283957 -125.999854 
L 208.831096 -125.732986 
L 211.378235 -125.427984 
L 213.925375 -125.091091 
L 216.472514 -124.728779 
L 219.019653 -124.34754 
L 221.566792 -123.953692 
L 224.113931 -123.553217 
L 226.66107 -123.151627 
L 229.208209 -122.753869 
L 231.755348 -122.364261 
L 234.302487 -121.98646 
L 236.849626 -121.623463 
L 239.396765 -121.277631 
L 241.943904 -120.950732 
L 244.491043 -120.643999 
L 247.038182 -120.358194 
L 249.585321 -120.093685 
L 252.13246 -119.850507 
L 254.679599 -119.628433 
L 257.226738 -119.427029 
L 259.773877 -119.245709 
L 262.321016 -119.083773 
L 264.868155 -118.940439 
L 267.415294 -118.81487 
L 269.962433 -118.706188 
L 272.509572 -118.613486 
L 275.056711 -118.53583 
L 277.603851 -118.472262 
L 280.15099 -118.421796 
L 282.698129 -118.38342 
L 285.245268 -118.35609 
L 287.792407 -118.338726 
L 290.339546 -118.330218 
L 292.886685 -118.329422 
L 295.433824 -118.335167 
L 297.980963 -118.346261 
L 300.528102 -118.361506 
L 303.075241 -118.379705 
L 305.62238 -118.399683 
L 308.169519 -118.420305 
L 310.716658 -118.440491 
L 313.263797 -118.45924 
L 315.810936 -118.475651 
L 318.358075 -118.488937 
L 320.905214 -118.498443 
L 323.452353 -118.503662 
L 325.999492 -118.504236 
L 325.999492 -117.8496 
L 325.999492 -117.8496 
L 323.452353 -117.8496 
L 320.905214 -117.8496 
L 318.358075 -117.8496 
L 315.810936 -117.8496 
L 313.263797 -117.8496 
L 310.716658 -117.8496 
L 308.169519 -117.8496 
L 305.62238 -117.8496 
L 303.075241 -117.8496 
L 300.528102 -117.8496 
L 297.980963 -117.8496 
L 295.433824 -117.8496 
L 292.886685 -117.8496 
L 290.339546 -117.8496 
L 287.792407 -117.8496 
L 285.245268 -117.8496 
L 282.698129 -117.8496 
L 280.15099 -117.8496 
L 277.603851 -117.8496 
L 275.056711 -117.8496 
L 272.509572 -117.8496 
L 269.962433 -117.8496 
L 267.415294 -117.8496 
L 264.868155 -117.8496 
L 262.321016 -117.8496 
L 259.773877 -117.8496 
L 257.226738 -117.8496 
L 254.679599 -117.8496 
L 252.13246 -117.8496 
L 249.585321 -117.8496 
L 247.038182 -117.8496 
L 244.491043 -117.8496 
L 241.943904 -117.8496 
L 239.396765 -117.8496 
L 236.849626 -117.8496 
L 234.302487 -117.8496 
L 231.755348 -117.8496 
L 229.208209 -117.8496 
L 226.66107 -117.8496 
L 224.113931 -117.8496 
L 221.566792 -117.8496 
L 219.019653 -117.8496 
L 216.472514 -117.8496 
L 213.925375 -117.8496 
L 211.378235 -117.8496 
L 208.831096 -117.8496 
L 206.283957 -117.8496 
L 203.736818 -117.8496 
L 201.189679 -117.8496 
L 198.64254 -117.8496 
L 196.095401 -117.8496 
L 193.548262 -117.8496 
L 191.001123 -117.8496 
L 188.453984 -117.8496 
L 185.906845 -117.8496 
L 183.359706 -117.8496 
L 180.812567 -117.8496 
L 178.265428 -117.8496 
L 175.718289 -117.8496 
L 173.17115 -117.8496 
L 170.624011 -117.8496 
L 168.076872 -117.8496 
L 165.529733 -117.8496 
L 162.982594 -117.8496 
L 160.435455 -117.8496 
L 157.888316 -117.8496 
L 155.341177 -117.8496 
L 152.794038 -117.8496 
L 150.246898 -117.8496 
L 147.699759 -117.8496 
L 145.15262 -117.8496 
L 142.605481 -117.8496 
L 140.058342 -117.8496 
L 137.511203 -117.8496 
L 134.964064 -117.8496 
L 132.416925 -117.8496 
L 129.869786 -117.8496 
L 127.322647 -117.8496 
L 124.775508 -117.8496 
L 122.228369 -117.8496 
L 119.68123 -117.8496 
L 117.134091 -117.8496 
L 114.586952 -117.8496 
L 112.039813 -117.8496 
L 109.492674 -117.8496 
L 106.945535 -117.8496 
L 104.398396 -117.8496 
L 101.851257 -117.8496 
L 99.304118 -117.8496 
L 96.756979 -117.8496 
L 94.20984 -117.8496 
L 91.662701 -117.8496 
L 89.115562 -117.8496 
L 86.568422 -117.8496 
L 84.021283 -117.8496 
L 81.474144 -117.8496 
L 78.927005 -117.8496 
L 76.379866 -117.8496 
L 73.832727 -117.8496 
z
" id="m455ac6beac"/>
    </defs>
    <g clip-path="url(#pd61436d046)">
     <use style="fill:#3274a1;" x="0" xlink:href="#m455ac6beac" y="345.6"/>
    </g>
   </g>
   <g id="PolyCollection_8">
    <defs>
     <path d="M 81.97218 -108.725065 
L 81.97218 -117.8496 
L 84.7843 -117.8496 
L 87.596419 -117.8496 
L 90.408538 -117.8496 
L 93.220658 -117.8496 
L 96.032777 -117.8496 
L 98.844896 -117.8496 
L 101.657015 -117.8496 
L 104.469135 -117.8496 
L 107.281254 -117.8496 
L 110.093373 -117.8496 
L 112.905493 -117.8496 
L 115.717612 -117.8496 
L 118.529731 -117.8496 
L 121.341851 -117.8496 
L 124.15397 -117.8496 
L 126.966089 -117.8496 
L 129.778209 -117.8496 
L 132.590328 -117.8496 
L 135.402447 -117.8496 
L 138.214567 -117.8496 
L 141.026686 -117.8496 
L 143.838805 -117.8496 
L 146.650924 -117.8496 
L 149.463044 -117.8496 
L 152.275163 -117.8496 
L 155.087282 -117.8496 
L 157.899402 -117.8496 
L 160.711521 -117.8496 
L 163.52364 -117.8496 
L 166.33576 -117.8496 
L 169.147879 -117.8496 
L 171.959998 -117.8496 
L 174.772118 -117.8496 
L 177.584237 -117.8496 
L 180.396356 -117.8496 
L 183.208476 -117.8496 
L 186.020595 -117.8496 
L 188.832714 -117.8496 
L 191.644833 -117.8496 
L 194.456953 -117.8496 
L 197.269072 -117.8496 
L 200.081191 -117.8496 
L 202.893311 -117.8496 
L 205.70543 -117.8496 
L 208.517549 -117.8496 
L 211.329669 -117.8496 
L 214.141788 -117.8496 
L 216.953907 -117.8496 
L 219.766027 -117.8496 
L 222.578146 -117.8496 
L 225.390265 -117.8496 
L 228.202385 -117.8496 
L 231.014504 -117.8496 
L 233.826623 -117.8496 
L 236.638742 -117.8496 
L 239.450862 -117.8496 
L 242.262981 -117.8496 
L 245.0751 -117.8496 
L 247.88722 -117.8496 
L 250.699339 -117.8496 
L 253.511458 -117.8496 
L 256.323578 -117.8496 
L 259.135697 -117.8496 
L 261.947816 -117.8496 
L 264.759936 -117.8496 
L 267.572055 -117.8496 
L 270.384174 -117.8496 
L 273.196294 -117.8496 
L 276.008413 -117.8496 
L 278.820532 -117.8496 
L 281.632652 -117.8496 
L 284.444771 -117.8496 
L 287.25689 -117.8496 
L 290.069009 -117.8496 
L 292.881129 -117.8496 
L 295.693248 -117.8496 
L 298.505367 -117.8496 
L 301.317487 -117.8496 
L 304.129606 -117.8496 
L 306.941725 -117.8496 
L 309.753845 -117.8496 
L 312.565964 -117.8496 
L 315.378083 -117.8496 
L 318.190203 -117.8496 
L 321.002322 -117.8496 
L 323.814441 -117.8496 
L 326.626561 -117.8496 
L 329.43868 -117.8496 
L 332.250799 -117.8496 
L 335.062918 -117.8496 
L 337.875038 -117.8496 
L 340.687157 -117.8496 
L 343.499276 -117.8496 
L 346.311396 -117.8496 
L 349.123515 -117.8496 
L 351.935634 -117.8496 
L 354.747754 -117.8496 
L 357.559873 -117.8496 
L 360.371992 -117.8496 
L 360.371992 -117.013419 
L 360.371992 -117.013419 
L 357.559873 -116.972079 
L 354.747754 -116.92995 
L 351.935634 -116.8865 
L 349.123515 -116.841119 
L 346.311396 -116.793134 
L 343.499276 -116.741829 
L 340.687157 -116.686468 
L 337.875038 -116.626318 
L 335.062918 -116.560668 
L 332.250799 -116.488854 
L 329.43868 -116.410274 
L 326.626561 -116.32441 
L 323.814441 -116.230842 
L 321.002322 -116.129258 
L 318.190203 -116.019473 
L 315.378083 -115.901434 
L 312.565964 -115.775231 
L 309.753845 -115.641104 
L 306.941725 -115.499456 
L 304.129606 -115.350851 
L 301.317487 -115.196021 
L 298.505367 -115.035869 
L 295.693248 -114.871459 
L 292.881129 -114.704016 
L 290.069009 -114.534905 
L 287.25689 -114.365609 
L 284.444771 -114.197708 
L 281.632652 -114.032834 
L 278.820532 -113.872632 
L 276.008413 -113.718713 
L 273.196294 -113.572599 
L 270.384174 -113.435668 
L 267.572055 -113.309103 
L 264.759936 -113.193842 
L 261.947816 -113.09053 
L 259.135697 -112.99949 
L 256.323578 -112.920698 
L 253.511458 -112.853766 
L 250.699339 -112.797954 
L 247.88722 -112.752176 
L 245.0751 -112.715028 
L 242.262981 -112.684826 
L 239.450862 -112.659649 
L 236.638742 -112.63738 
L 233.826623 -112.615762 
L 231.014504 -112.592432 
L 228.202385 -112.564972 
L 225.390265 -112.530931 
L 222.578146 -112.487855 
L 219.766027 -112.433301 
L 216.953907 -112.364847 
L 214.141788 -112.280098 
L 211.329669 -112.17669 
L 208.517549 -112.052294 
L 205.70543 -111.904636 
L 202.893311 -111.731519 
L 200.081191 -111.530861 
L 197.269072 -111.300754 
L 194.456953 -111.039538 
L 191.644833 -110.745884 
L 188.832714 -110.418902 
L 186.020595 -110.058252 
L 183.208476 -109.66425 
L 180.396356 -109.23798 
L 177.584237 -108.781383 
L 174.772118 -108.297331 
L 171.959998 -107.78966 
L 169.147879 -107.263175 
L 166.33576 -106.723609 
L 163.52364 -106.177535 
L 160.711521 -105.632242 
L 157.899402 -105.095561 
L 155.087282 -104.575662 
L 152.275163 -104.080827 
L 149.463044 -103.619202 
L 146.650924 -103.198555 
L 143.838805 -102.826038 
L 141.026686 -102.507975 
L 138.214567 -102.249684 
L 135.402447 -102.055335 
L 132.590328 -101.927869 
L 129.778209 -101.868957 
L 126.966089 -101.879016 
L 124.15397 -101.95727 
L 121.341851 -102.101857 
L 118.529731 -102.309962 
L 115.717612 -102.577976 
L 112.905493 -102.901665 
L 110.093373 -103.276341 
L 107.281254 -103.697021 
L 104.469135 -104.158567 
L 101.657015 -104.655807 
L 98.844896 -105.183629 
L 96.032777 -105.737041 
L 93.220658 -106.311213 
L 90.408538 -106.901493 
L 87.596419 -107.503407 
L 84.7843 -108.112649 
L 81.97218 -108.725065 
z
" id="m87fdf0cd8e"/>
    </defs>
    <g clip-path="url(#pd61436d046)">
     <use style="fill:#e1812c;" x="0" xlink:href="#m87fdf0cd8e" y="345.6"/>
    </g>
   </g>
   <g id="PolyCollection_9">
    <defs>
     <path d="M 77.840599 -64.6272 
L 77.840599 -85.142162 
L 80.161909 -85.52862 
L 82.483218 -85.787826 
L 84.804528 -85.91616 
L 87.125838 -85.912661 
L 89.447148 -85.779051 
L 91.768457 -85.519672 
L 94.089767 -85.141332 
L 96.411077 -84.653073 
L 98.732386 -84.065875 
L 101.053696 -83.392302 
L 103.375006 -82.646115 
L 105.696315 -81.84186 
L 108.017625 -80.994461 
L 110.338935 -80.118822 
L 112.660244 -79.229459 
L 114.981554 -78.340179 
L 117.302864 -77.463804 
L 119.624173 -76.611958 
L 121.945483 -75.794914 
L 124.266793 -75.021498 
L 126.588102 -74.299055 
L 128.909412 -73.63346 
L 131.230722 -73.029175 
L 133.552031 -72.489332 
L 135.873341 -72.01585 
L 138.194651 -71.609548 
L 140.51596 -71.270278 
L 142.83727 -70.99704 
L 145.15858 -70.788092 
L 147.47989 -70.641045 
L 149.801199 -70.552935 
L 152.122509 -70.520285 
L 154.443819 -70.539147 
L 156.765128 -70.60513 
L 159.086438 -70.713421 
L 161.407748 -70.858809 
L 163.729057 -71.035702 
L 166.050367 -71.23816 
L 168.371677 -71.459932 
L 170.692986 -71.69452 
L 173.014296 -71.935245 
L 175.335606 -72.175345 
L 177.656915 -72.408084 
L 179.978225 -72.626871 
L 182.299535 -72.825393 
L 184.620844 -72.997755 
L 186.942154 -73.138613 
L 189.263464 -73.243304 
L 191.584773 -73.30796 
L 193.906083 -73.329605 
L 196.227393 -73.306222 
L 198.548702 -73.236806 
L 200.870012 -73.121369 
L 203.191322 -72.960927 
L 205.512631 -72.757453 
L 207.833941 -72.513798 
L 210.155251 -72.233596 
L 212.476561 -71.92114 
L 214.79787 -71.581247 
L 217.11918 -71.219111 
L 219.44049 -70.84016 
L 221.761799 -70.449902 
L 224.083109 -70.053792 
L 226.404419 -69.657099 
L 228.725728 -69.264799 
L 231.047038 -68.881476 
L 233.368348 -68.51125 
L 235.689657 -68.157722 
L 238.010967 -67.823937 
L 240.332277 -67.512371 
L 242.653586 -67.224927 
L 244.974896 -66.962953 
L 247.296206 -66.72727 
L 249.617515 -66.518204 
L 251.938825 -66.335628 
L 254.260135 -66.179016 
L 256.581444 -66.047481 
L 258.902754 -65.939833 
L 261.224064 -65.854621 
L 263.545373 -65.79018 
L 265.866683 -65.744674 
L 268.187993 -65.716137 
L 270.509302 -65.702508 
L 272.830612 -65.701668 
L 275.151922 -65.711471 
L 277.473232 -65.729774 
L 279.794541 -65.754467 
L 282.115851 -65.783503 
L 284.437161 -65.81492 
L 286.75847 -65.846872 
L 289.07978 -65.877647 
L 291.40109 -65.905697 
L 293.722399 -65.92965 
L 296.043709 -65.948334 
L 298.365019 -65.960786 
L 300.686328 -65.966261 
L 303.007638 -65.964241 
L 305.328948 -65.954429 
L 307.650257 -65.93675 
L 307.650257 -64.6272 
L 307.650257 -64.6272 
L 305.328948 -64.6272 
L 303.007638 -64.6272 
L 300.686328 -64.6272 
L 298.365019 -64.6272 
L 296.043709 -64.6272 
L 293.722399 -64.6272 
L 291.40109 -64.6272 
L 289.07978 -64.6272 
L 286.75847 -64.6272 
L 284.437161 -64.6272 
L 282.115851 -64.6272 
L 279.794541 -64.6272 
L 277.473232 -64.6272 
L 275.151922 -64.6272 
L 272.830612 -64.6272 
L 270.509302 -64.6272 
L 268.187993 -64.6272 
L 265.866683 -64.6272 
L 263.545373 -64.6272 
L 261.224064 -64.6272 
L 258.902754 -64.6272 
L 256.581444 -64.6272 
L 254.260135 -64.6272 
L 251.938825 -64.6272 
L 249.617515 -64.6272 
L 247.296206 -64.6272 
L 244.974896 -64.6272 
L 242.653586 -64.6272 
L 240.332277 -64.6272 
L 238.010967 -64.6272 
L 235.689657 -64.6272 
L 233.368348 -64.6272 
L 231.047038 -64.6272 
L 228.725728 -64.6272 
L 226.404419 -64.6272 
L 224.083109 -64.6272 
L 221.761799 -64.6272 
L 219.44049 -64.6272 
L 217.11918 -64.6272 
L 214.79787 -64.6272 
L 212.476561 -64.6272 
L 210.155251 -64.6272 
L 207.833941 -64.6272 
L 205.512631 -64.6272 
L 203.191322 -64.6272 
L 200.870012 -64.6272 
L 198.548702 -64.6272 
L 196.227393 -64.6272 
L 193.906083 -64.6272 
L 191.584773 -64.6272 
L 189.263464 -64.6272 
L 186.942154 -64.6272 
L 184.620844 -64.6272 
L 182.299535 -64.6272 
L 179.978225 -64.6272 
L 177.656915 -64.6272 
L 175.335606 -64.6272 
L 173.014296 -64.6272 
L 170.692986 -64.6272 
L 168.371677 -64.6272 
L 166.050367 -64.6272 
L 163.729057 -64.6272 
L 161.407748 -64.6272 
L 159.086438 -64.6272 
L 156.765128 -64.6272 
L 154.443819 -64.6272 
L 152.122509 -64.6272 
L 149.801199 -64.6272 
L 147.47989 -64.6272 
L 145.15858 -64.6272 
L 142.83727 -64.6272 
L 140.51596 -64.6272 
L 138.194651 -64.6272 
L 135.873341 -64.6272 
L 133.552031 -64.6272 
L 131.230722 -64.6272 
L 128.909412 -64.6272 
L 126.588102 -64.6272 
L 124.266793 -64.6272 
L 121.945483 -64.6272 
L 119.624173 -64.6272 
L 117.302864 -64.6272 
L 114.981554 -64.6272 
L 112.660244 -64.6272 
L 110.338935 -64.6272 
L 108.017625 -64.6272 
L 105.696315 -64.6272 
L 103.375006 -64.6272 
L 101.053696 -64.6272 
L 98.732386 -64.6272 
L 96.411077 -64.6272 
L 94.089767 -64.6272 
L 91.768457 -64.6272 
L 89.447148 -64.6272 
L 87.125838 -64.6272 
L 84.804528 -64.6272 
L 82.483218 -64.6272 
L 80.161909 -64.6272 
L 77.840599 -64.6272 
z
" id="m530784ce33"/>
    </defs>
    <g clip-path="url(#pd61436d046)">
     <use style="fill:#3274a1;" x="0" xlink:href="#m530784ce33" y="345.6"/>
    </g>
   </g>
   <g id="PolyCollection_10">
    <defs>
     <path d="M 84.790478 -54.568349 
L 84.790478 -64.6272 
L 87.090139 -64.6272 
L 89.3898 -64.6272 
L 91.689461 -64.6272 
L 93.989122 -64.6272 
L 96.288783 -64.6272 
L 98.588445 -64.6272 
L 100.888106 -64.6272 
L 103.187767 -64.6272 
L 105.487428 -64.6272 
L 107.787089 -64.6272 
L 110.08675 -64.6272 
L 112.386411 -64.6272 
L 114.686072 -64.6272 
L 116.985733 -64.6272 
L 119.285395 -64.6272 
L 121.585056 -64.6272 
L 123.884717 -64.6272 
L 126.184378 -64.6272 
L 128.484039 -64.6272 
L 130.7837 -64.6272 
L 133.083361 -64.6272 
L 135.383022 -64.6272 
L 137.682683 -64.6272 
L 139.982344 -64.6272 
L 142.282006 -64.6272 
L 144.581667 -64.6272 
L 146.881328 -64.6272 
L 149.180989 -64.6272 
L 151.48065 -64.6272 
L 153.780311 -64.6272 
L 156.079972 -64.6272 
L 158.379633 -64.6272 
L 160.679294 -64.6272 
L 162.978955 -64.6272 
L 165.278617 -64.6272 
L 167.578278 -64.6272 
L 169.877939 -64.6272 
L 172.1776 -64.6272 
L 174.477261 -64.6272 
L 176.776922 -64.6272 
L 179.076583 -64.6272 
L 181.376244 -64.6272 
L 183.675905 -64.6272 
L 185.975567 -64.6272 
L 188.275228 -64.6272 
L 190.574889 -64.6272 
L 192.87455 -64.6272 
L 195.174211 -64.6272 
L 197.473872 -64.6272 
L 199.773533 -64.6272 
L 202.073194 -64.6272 
L 204.372855 -64.6272 
L 206.672516 -64.6272 
L 208.972178 -64.6272 
L 211.271839 -64.6272 
L 213.5715 -64.6272 
L 215.871161 -64.6272 
L 218.170822 -64.6272 
L 220.470483 -64.6272 
L 222.770144 -64.6272 
L 225.069805 -64.6272 
L 227.369466 -64.6272 
L 229.669127 -64.6272 
L 231.968789 -64.6272 
L 234.26845 -64.6272 
L 236.568111 -64.6272 
L 238.867772 -64.6272 
L 241.167433 -64.6272 
L 243.467094 -64.6272 
L 245.766755 -64.6272 
L 248.066416 -64.6272 
L 250.366077 -64.6272 
L 252.665739 -64.6272 
L 254.9654 -64.6272 
L 257.265061 -64.6272 
L 259.564722 -64.6272 
L 261.864383 -64.6272 
L 264.164044 -64.6272 
L 266.463705 -64.6272 
L 268.763366 -64.6272 
L 271.063027 -64.6272 
L 273.362688 -64.6272 
L 275.66235 -64.6272 
L 277.962011 -64.6272 
L 280.261672 -64.6272 
L 282.561333 -64.6272 
L 284.860994 -64.6272 
L 287.160655 -64.6272 
L 289.460316 -64.6272 
L 291.759977 -64.6272 
L 294.059638 -64.6272 
L 296.359299 -64.6272 
L 298.658961 -64.6272 
L 300.958622 -64.6272 
L 303.258283 -64.6272 
L 305.557944 -64.6272 
L 307.857605 -64.6272 
L 310.157266 -64.6272 
L 312.456927 -64.6272 
L 312.456927 -61.661132 
L 312.456927 -61.661132 
L 310.157266 -61.464777 
L 307.857605 -61.264986 
L 305.557944 -61.06255 
L 303.258283 -60.858307 
L 300.958622 -60.65314 
L 298.658961 -60.447968 
L 296.359299 -60.243739 
L 294.059638 -60.041417 
L 291.759977 -59.841972 
L 289.460316 -59.646369 
L 287.160655 -59.455555 
L 284.860994 -59.270446 
L 282.561333 -59.091912 
L 280.261672 -58.920766 
L 277.962011 -58.75775 
L 275.66235 -58.603525 
L 273.362688 -58.458657 
L 271.063027 -58.323611 
L 268.763366 -58.198745 
L 266.463705 -58.084299 
L 264.164044 -57.9804 
L 261.864383 -57.887058 
L 259.564722 -57.804167 
L 257.265061 -57.731512 
L 254.9654 -57.668775 
L 252.665739 -57.615541 
L 250.366077 -57.571309 
L 248.066416 -57.535505 
L 245.766755 -57.507485 
L 243.467094 -57.486555 
L 241.167433 -57.471971 
L 238.867772 -57.462958 
L 236.568111 -57.458705 
L 234.26845 -57.458381 
L 231.968789 -57.461131 
L 229.669127 -57.466081 
L 227.369466 -57.472334 
L 225.069805 -57.47897 
L 222.770144 -57.485041 
L 220.470483 -57.489567 
L 218.170822 -57.491533 
L 215.871161 -57.489883 
L 213.5715 -57.483523 
L 211.271839 -57.471317 
L 208.972178 -57.452091 
L 206.672516 -57.424644 
L 204.372855 -57.387756 
L 202.073194 -57.340204 
L 199.773533 -57.280785 
L 197.473872 -57.208334 
L 195.174211 -57.121756 
L 192.87455 -57.020054 
L 190.574889 -56.902364 
L 188.275228 -56.76798 
L 185.975567 -56.616396 
L 183.675905 -56.447325 
L 181.376244 -56.260735 
L 179.076583 -56.056865 
L 176.776922 -55.836242 
L 174.477261 -55.599692 
L 172.1776 -55.348341 
L 169.877939 -55.08361 
L 167.578278 -54.8072 
L 165.278617 -54.521075 
L 162.978955 -54.227429 
L 160.679294 -53.928657 
L 158.379633 -53.627315 
L 156.079972 -53.326079 
L 153.780311 -53.027701 
L 151.48065 -52.734966 
L 149.180989 -52.450651 
L 146.881328 -52.17748 
L 144.581667 -51.918094 
L 142.282006 -51.675016 
L 139.982344 -51.450626 
L 137.682683 -51.247139 
L 135.383022 -51.06659 
L 133.083361 -50.910824 
L 130.7837 -50.781493 
L 128.484039 -50.68005 
L 126.184378 -50.607755 
L 123.884717 -50.565672 
L 121.585056 -50.554678 
L 119.285395 -50.575463 
L 116.985733 -50.628532 
L 114.686072 -50.714204 
L 112.386411 -50.832613 
L 110.08675 -50.983698 
L 107.787089 -51.167202 
L 105.487428 -51.382656 
L 103.187767 -51.629374 
L 100.888106 -51.906445 
L 98.588445 -52.212716 
L 96.288783 -52.546793 
L 93.989122 -52.907035 
L 91.689461 -53.291553 
L 89.3898 -53.698217 
L 87.090139 -54.124672 
L 84.790478 -54.568349 
z
" id="m9ebd619bce"/>
    </defs>
    <g clip-path="url(#pd61436d046)">
     <use style="fill:#e1812c;" x="0" xlink:href="#m9ebd619bce" y="345.6"/>
    </g>
   </g>
   <g id="patch_3">
    <path clip-path="url(#pd61436d046)" d="M -75.658731 68.0832 
L -75.658731 68.0832 
L -75.658731 68.0832 
L -75.658731 68.0832 
z
" style="fill:#3274a1;"/>
   </g>
   <g id="patch_4">
    <path clip-path="url(#pd61436d046)" d="M -75.658731 68.0832 
L -75.658731 68.0832 
L -75.658731 68.0832 
L -75.658731 68.0832 
z
" style="fill:#e1812c;"/>
   </g>
   <g id="patch_5">
    <path d="M 57.6 307.584 
L 57.6 41.472 
" style="fill:none;stroke:#cccccc;stroke-linecap:square;stroke-linejoin:miter;stroke-width:0.8;"/>
   </g>
   <g id="patch_6">
    <path d="M 414.72 307.584 
L 414.72 41.472 
" style="fill:none;stroke:#cccccc;stroke-linecap:square;stroke-linejoin:miter;stroke-width:0.8;"/>
   </g>
   <g id="patch_7">
    <path d="M 57.6 307.584 
L 414.72 307.584 
" style="fill:none;stroke:#cccccc;stroke-linecap:square;stroke-linejoin:miter;stroke-width:0.8;"/>
   </g>
   <g id="patch_8">
    <path d="M 57.6 41.472 
L 414.72 41.472 
" style="fill:none;stroke:#cccccc;stroke-linecap:square;stroke-linejoin:miter;stroke-width:0.8;"/>
   </g>
   <g id="text_16">
    <!-- B: Loading_Time      0.743669 -->
    <defs>
     <path d="M 19.671875 34.8125 
L 19.671875 8.109375 
L 35.5 8.109375 
Q 43.453125 8.109375 47.28125 11.40625 
Q 51.125 14.703125 51.125 21.484375 
Q 51.125 28.328125 47.28125 31.5625 
Q 43.453125 34.8125 35.5 34.8125 
z
M 19.671875 64.796875 
L 19.671875 42.828125 
L 34.28125 42.828125 
Q 41.5 42.828125 45.03125 45.53125 
Q 48.578125 48.25 48.578125 53.8125 
Q 48.578125 59.328125 45.03125 62.0625 
Q 41.5 64.796875 34.28125 64.796875 
z
M 9.8125 72.90625 
L 35.015625 72.90625 
Q 46.296875 72.90625 52.390625 68.21875 
Q 58.5 63.53125 58.5 54.890625 
Q 58.5 48.1875 55.375 44.234375 
Q 52.25 40.28125 46.1875 39.3125 
Q 53.46875 37.75 57.5 32.78125 
Q 61.53125 27.828125 61.53125 20.40625 
Q 61.53125 10.640625 54.890625 5.3125 
Q 48.25 0 35.984375 0 
L 9.8125 0 
z
" id="DejaVuSans-66"/>
     <path d="M 11.71875 12.40625 
L 22.015625 12.40625 
L 22.015625 0 
L 11.71875 0 
z
M 11.71875 51.703125 
L 22.015625 51.703125 
L 22.015625 39.3125 
L 11.71875 39.3125 
z
" id="DejaVuSans-58"/>
     <path id="DejaVuSans-32"/>
     <path d="M 40.578125 39.3125 
Q 47.65625 37.796875 51.625 33 
Q 55.609375 28.21875 55.609375 21.1875 
Q 55.609375 10.40625 48.1875 4.484375 
Q 40.765625 -1.421875 27.09375 -1.421875 
Q 22.515625 -1.421875 17.65625 -0.515625 
Q 12.796875 0.390625 7.625 2.203125 
L 7.625 11.71875 
Q 11.71875 9.328125 16.59375 8.109375 
Q 21.484375 6.890625 26.8125 6.890625 
Q 36.078125 6.890625 40.9375 10.546875 
Q 45.796875 14.203125 45.796875 21.1875 
Q 45.796875 27.640625 41.28125 31.265625 
Q 36.765625 34.90625 28.71875 34.90625 
L 20.21875 34.90625 
L 20.21875 43.015625 
L 29.109375 43.015625 
Q 36.375 43.015625 40.234375 45.921875 
Q 44.09375 48.828125 44.09375 54.296875 
Q 44.09375 59.90625 40.109375 62.90625 
Q 36.140625 65.921875 28.71875 65.921875 
Q 24.65625 65.921875 20.015625 65.03125 
Q 15.375 64.15625 9.8125 62.3125 
L 9.8125 71.09375 
Q 15.4375 72.65625 20.34375 73.4375 
Q 25.25 74.21875 29.59375 74.21875 
Q 40.828125 74.21875 47.359375 69.109375 
Q 53.90625 64.015625 53.90625 55.328125 
Q 53.90625 49.265625 50.4375 45.09375 
Q 46.96875 40.921875 40.578125 39.3125 
z
" id="DejaVuSans-51"/>
    </defs>
    <g style="fill:#262626;" transform="translate(146.401875 -18.945)scale(0.12 -0.12)">
     <use xlink:href="#DejaVuSans-66"/>
     <use x="68.603516" xlink:href="#DejaVuSans-58"/>
     <use x="102.294922" xlink:href="#DejaVuSans-32"/>
     <use x="134.082031" xlink:href="#DejaVuSans-76"/>
     <use x="189.779297" xlink:href="#DejaVuSans-111"/>
     <use x="250.960938" xlink:href="#DejaVuSans-97"/>
     <use x="312.240234" xlink:href="#DejaVuSans-100"/>
     <use x="375.716797" xlink:href="#DejaVuSans-105"/>
     <use x="403.5" xlink:href="#DejaVuSans-110"/>
     <use x="466.878906" xlink:href="#DejaVuSans-103"/>
     <use x="530.355469" xlink:href="#DejaVuSans-95"/>
     <use x="580.355469" xlink:href="#DejaVuSans-84"/>
     <use x="641.392578" xlink:href="#DejaVuSans-105"/>
     <use x="669.175781" xlink:href="#DejaVuSans-109"/>
     <use x="766.587891" xlink:href="#DejaVuSans-101"/>
     <use x="828.111328" xlink:href="#DejaVuSans-32"/>
     <use x="859.898438" xlink:href="#DejaVuSans-32"/>
     <use x="891.685547" xlink:href="#DejaVuSans-32"/>
     <use x="923.472656" xlink:href="#DejaVuSans-32"/>
     <use x="955.259766" xlink:href="#DejaVuSans-32"/>
     <use x="987.046875" xlink:href="#DejaVuSans-32"/>
     <use x="1018.833984" xlink:href="#DejaVuSans-48"/>
     <use x="1082.457031" xlink:href="#DejaVuSans-46"/>
     <use x="1114.244141" xlink:href="#DejaVuSans-55"/>
     <use x="1177.867188" xlink:href="#DejaVuSans-52"/>
     <use x="1241.490234" xlink:href="#DejaVuSans-51"/>
     <use x="1305.113281" xlink:href="#DejaVuSans-54"/>
     <use x="1368.736328" xlink:href="#DejaVuSans-54"/>
     <use x="1432.359375" xlink:href="#DejaVuSans-57"/>
    </g>
    <!-- Status-Code     200.000000 -->
    <defs>
     <path d="M 53.515625 70.515625 
L 53.515625 60.890625 
Q 47.90625 63.578125 42.921875 64.890625 
Q 37.9375 66.21875 33.296875 66.21875 
Q 25.25 66.21875 20.875 63.09375 
Q 16.5 59.96875 16.5 54.203125 
Q 16.5 49.359375 19.40625 46.890625 
Q 22.3125 44.4375 30.421875 42.921875 
L 36.375 41.703125 
Q 47.40625 39.59375 52.65625 34.296875 
Q 57.90625 29 57.90625 20.125 
Q 57.90625 9.515625 50.796875 4.046875 
Q 43.703125 -1.421875 29.984375 -1.421875 
Q 24.8125 -1.421875 18.96875 -0.25 
Q 13.140625 0.921875 6.890625 3.21875 
L 6.890625 13.375 
Q 12.890625 10.015625 18.65625 8.296875 
Q 24.421875 6.59375 29.984375 6.59375 
Q 38.421875 6.59375 43.015625 9.90625 
Q 47.609375 13.234375 47.609375 19.390625 
Q 47.609375 24.75 44.3125 27.78125 
Q 41.015625 30.8125 33.5 32.328125 
L 27.484375 33.5 
Q 16.453125 35.6875 11.515625 40.375 
Q 6.59375 45.0625 6.59375 53.421875 
Q 6.59375 63.09375 13.40625 68.65625 
Q 20.21875 74.21875 32.171875 74.21875 
Q 37.3125 74.21875 42.625 73.28125 
Q 47.953125 72.359375 53.515625 70.515625 
z
" id="DejaVuSans-83"/>
     <path d="M 18.3125 70.21875 
L 18.3125 54.6875 
L 36.8125 54.6875 
L 36.8125 47.703125 
L 18.3125 47.703125 
L 18.3125 18.015625 
Q 18.3125 11.328125 20.140625 9.421875 
Q 21.96875 7.515625 27.59375 7.515625 
L 36.8125 7.515625 
L 36.8125 0 
L 27.59375 0 
Q 17.1875 0 13.234375 3.875 
Q 9.28125 7.765625 9.28125 18.015625 
L 9.28125 47.703125 
L 2.6875 47.703125 
L 2.6875 54.6875 
L 9.28125 54.6875 
L 9.28125 70.21875 
z
" id="DejaVuSans-116"/>
     <path d="M 8.5 21.578125 
L 8.5 54.6875 
L 17.484375 54.6875 
L 17.484375 21.921875 
Q 17.484375 14.15625 20.5 10.265625 
Q 23.53125 6.390625 29.59375 6.390625 
Q 36.859375 6.390625 41.078125 11.03125 
Q 45.3125 15.671875 45.3125 23.6875 
L 45.3125 54.6875 
L 54.296875 54.6875 
L 54.296875 0 
L 45.3125 0 
L 45.3125 8.40625 
Q 42.046875 3.421875 37.71875 1 
Q 33.40625 -1.421875 27.6875 -1.421875 
Q 18.265625 -1.421875 13.375 4.4375 
Q 8.5 10.296875 8.5 21.578125 
z
M 31.109375 56 
z
" id="DejaVuSans-117"/>
     <path d="M 44.28125 53.078125 
L 44.28125 44.578125 
Q 40.484375 46.53125 36.375 47.5 
Q 32.28125 48.484375 27.875 48.484375 
Q 21.1875 48.484375 17.84375 46.4375 
Q 14.5 44.390625 14.5 40.28125 
Q 14.5 37.15625 16.890625 35.375 
Q 19.28125 33.59375 26.515625 31.984375 
L 29.59375 31.296875 
Q 39.15625 29.25 43.1875 25.515625 
Q 47.21875 21.78125 47.21875 15.09375 
Q 47.21875 7.46875 41.1875 3.015625 
Q 35.15625 -1.421875 24.609375 -1.421875 
Q 20.21875 -1.421875 15.453125 -0.5625 
Q 10.6875 0.296875 5.421875 2 
L 5.421875 11.28125 
Q 10.40625 8.6875 15.234375 7.390625 
Q 20.0625 6.109375 24.8125 6.109375 
Q 31.15625 6.109375 34.5625 8.28125 
Q 37.984375 10.453125 37.984375 14.40625 
Q 37.984375 18.0625 35.515625 20.015625 
Q 33.0625 21.96875 24.703125 23.78125 
L 21.578125 24.515625 
Q 13.234375 26.265625 9.515625 29.90625 
Q 5.8125 33.546875 5.8125 39.890625 
Q 5.8125 47.609375 11.28125 51.796875 
Q 16.75 56 26.8125 56 
Q 31.78125 56 36.171875 55.265625 
Q 40.578125 54.546875 44.28125 53.078125 
z
" id="DejaVuSans-115"/>
     <path d="M 4.890625 31.390625 
L 31.203125 31.390625 
L 31.203125 23.390625 
L 4.890625 23.390625 
z
" id="DejaVuSans-45"/>
     <path d="M 64.40625 67.28125 
L 64.40625 56.890625 
Q 59.421875 61.53125 53.78125 63.8125 
Q 48.140625 66.109375 41.796875 66.109375 
Q 29.296875 66.109375 22.65625 58.46875 
Q 16.015625 50.828125 16.015625 36.375 
Q 16.015625 21.96875 22.65625 14.328125 
Q 29.296875 6.6875 41.796875 6.6875 
Q 48.140625 6.6875 53.78125 8.984375 
Q 59.421875 11.28125 64.40625 15.921875 
L 64.40625 5.609375 
Q 59.234375 2.09375 53.4375 0.328125 
Q 47.65625 -1.421875 41.21875 -1.421875 
Q 24.65625 -1.421875 15.125 8.703125 
Q 5.609375 18.84375 5.609375 36.375 
Q 5.609375 53.953125 15.125 64.078125 
Q 24.65625 74.21875 41.21875 74.21875 
Q 47.75 74.21875 53.53125 72.484375 
Q 59.328125 70.75 64.40625 67.28125 
z
" id="DejaVuSans-67"/>
    </defs>
    <g style="fill:#262626;" transform="translate(153.71625 -5.173875)scale(0.12 -0.12)">
     <use xlink:href="#DejaVuSans-83"/>
     <use x="63.476562" xlink:href="#DejaVuSans-116"/>
     <use x="102.685547" xlink:href="#DejaVuSans-97"/>
     <use x="163.964844" xlink:href="#DejaVuSans-116"/>
     <use x="203.173828" xlink:href="#DejaVuSans-117"/>
     <use x="266.552734" xlink:href="#DejaVuSans-115"/>
     <use x="318.652344" xlink:href="#DejaVuSans-45"/>
     <use x="354.736328" xlink:href="#DejaVuSans-67"/>
     <use x="424.560547" xlink:href="#DejaVuSans-111"/>
     <use x="485.742188" xlink:href="#DejaVuSans-100"/>
     <use x="549.21875" xlink:href="#DejaVuSans-101"/>
     <use x="610.742188" xlink:href="#DejaVuSans-32"/>
     <use x="642.529297" xlink:href="#DejaVuSans-32"/>
     <use x="674.316406" xlink:href="#DejaVuSans-32"/>
     <use x="706.103516" xlink:href="#DejaVuSans-32"/>
     <use x="737.890625" xlink:href="#DejaVuSans-32"/>
     <use x="769.677734" xlink:href="#DejaVuSans-50"/>
     <use x="833.300781" xlink:href="#DejaVuSans-48"/>
     <use x="896.923828" xlink:href="#DejaVuSans-48"/>
     <use x="960.546875" xlink:href="#DejaVuSans-46"/>
     <use x="992.333984" xlink:href="#DejaVuSans-48"/>
     <use x="1055.957031" xlink:href="#DejaVuSans-48"/>
     <use x="1119.580078" xlink:href="#DejaVuSans-48"/>
     <use x="1183.203125" xlink:href="#DejaVuSans-48"/>
     <use x="1246.826172" xlink:href="#DejaVuSans-48"/>
     <use x="1310.449219" xlink:href="#DejaVuSans-48"/>
    </g>
    <!-- dtype: float64; E: Loading_Time      1.008121 -->
    <defs>
     <path d="M 32.171875 -5.078125 
Q 28.375 -14.84375 24.75 -17.8125 
Q 21.140625 -20.796875 15.09375 -20.796875 
L 7.90625 -20.796875 
L 7.90625 -13.28125 
L 13.1875 -13.28125 
Q 16.890625 -13.28125 18.9375 -11.515625 
Q 21 -9.765625 23.484375 -3.21875 
L 25.09375 0.875 
L 2.984375 54.6875 
L 12.5 54.6875 
L 29.59375 11.921875 
L 46.6875 54.6875 
L 56.203125 54.6875 
z
" id="DejaVuSans-121"/>
     <path d="M 18.109375 8.203125 
L 18.109375 -20.796875 
L 9.078125 -20.796875 
L 9.078125 54.6875 
L 18.109375 54.6875 
L 18.109375 46.390625 
Q 20.953125 51.265625 25.265625 53.625 
Q 29.59375 56 35.59375 56 
Q 45.5625 56 51.78125 48.09375 
Q 58.015625 40.1875 58.015625 27.296875 
Q 58.015625 14.40625 51.78125 6.484375 
Q 45.5625 -1.421875 35.59375 -1.421875 
Q 29.59375 -1.421875 25.265625 0.953125 
Q 20.953125 3.328125 18.109375 8.203125 
z
M 48.6875 27.296875 
Q 48.6875 37.203125 44.609375 42.84375 
Q 40.53125 48.484375 33.40625 48.484375 
Q 26.265625 48.484375 22.1875 42.84375 
Q 18.109375 37.203125 18.109375 27.296875 
Q 18.109375 17.390625 22.1875 11.75 
Q 26.265625 6.109375 33.40625 6.109375 
Q 40.53125 6.109375 44.609375 11.75 
Q 48.6875 17.390625 48.6875 27.296875 
z
" id="DejaVuSans-112"/>
     <path d="M 37.109375 75.984375 
L 37.109375 68.5 
L 28.515625 68.5 
Q 23.6875 68.5 21.796875 66.546875 
Q 19.921875 64.59375 19.921875 59.515625 
L 19.921875 54.6875 
L 34.71875 54.6875 
L 34.71875 47.703125 
L 19.921875 47.703125 
L 19.921875 0 
L 10.890625 0 
L 10.890625 47.703125 
L 2.296875 47.703125 
L 2.296875 54.6875 
L 10.890625 54.6875 
L 10.890625 58.5 
Q 10.890625 67.625 15.140625 71.796875 
Q 19.390625 75.984375 28.609375 75.984375 
z
" id="DejaVuSans-102"/>
     <path d="M 9.421875 75.984375 
L 18.40625 75.984375 
L 18.40625 0 
L 9.421875 0 
z
" id="DejaVuSans-108"/>
     <path d="M 11.71875 51.703125 
L 22.015625 51.703125 
L 22.015625 39.3125 
L 11.71875 39.3125 
z
M 11.71875 12.40625 
L 22.015625 12.40625 
L 22.015625 4 
L 14.015625 -11.625 
L 7.71875 -11.625 
L 11.71875 4 
z
" id="DejaVuSans-59"/>
     <path d="M 9.8125 72.90625 
L 55.90625 72.90625 
L 55.90625 64.59375 
L 19.671875 64.59375 
L 19.671875 43.015625 
L 54.390625 43.015625 
L 54.390625 34.71875 
L 19.671875 34.71875 
L 19.671875 8.296875 
L 56.78125 8.296875 
L 56.78125 0 
L 9.8125 0 
z
" id="DejaVuSans-69"/>
    </defs>
    <g style="fill:#262626;" transform="translate(100.543125 8.2635)scale(0.12 -0.12)">
     <use xlink:href="#DejaVuSans-100"/>
     <use x="63.476562" xlink:href="#DejaVuSans-116"/>
     <use x="102.685547" xlink:href="#DejaVuSans-121"/>
     <use x="161.865234" xlink:href="#DejaVuSans-112"/>
     <use x="225.341797" xlink:href="#DejaVuSans-101"/>
     <use x="286.865234" xlink:href="#DejaVuSans-58"/>
     <use x="320.556641" xlink:href="#DejaVuSans-32"/>
     <use x="352.34375" xlink:href="#DejaVuSans-102"/>
     <use x="387.548828" xlink:href="#DejaVuSans-108"/>
     <use x="415.332031" xlink:href="#DejaVuSans-111"/>
     <use x="476.513672" xlink:href="#DejaVuSans-97"/>
     <use x="537.792969" xlink:href="#DejaVuSans-116"/>
     <use x="577.001953" xlink:href="#DejaVuSans-54"/>
     <use x="640.625" xlink:href="#DejaVuSans-52"/>
     <use x="704.248047" xlink:href="#DejaVuSans-59"/>
     <use x="737.939453" xlink:href="#DejaVuSans-32"/>
     <use x="769.726562" xlink:href="#DejaVuSans-69"/>
     <use x="832.910156" xlink:href="#DejaVuSans-58"/>
     <use x="866.601562" xlink:href="#DejaVuSans-32"/>
     <use x="898.388672" xlink:href="#DejaVuSans-76"/>
     <use x="954.085938" xlink:href="#DejaVuSans-111"/>
     <use x="1015.267578" xlink:href="#DejaVuSans-97"/>
     <use x="1076.546875" xlink:href="#DejaVuSans-100"/>
     <use x="1140.023438" xlink:href="#DejaVuSans-105"/>
     <use x="1167.806641" xlink:href="#DejaVuSans-110"/>
     <use x="1231.185547" xlink:href="#DejaVuSans-103"/>
     <use x="1294.662109" xlink:href="#DejaVuSans-95"/>
     <use x="1344.662109" xlink:href="#DejaVuSans-84"/>
     <use x="1405.699219" xlink:href="#DejaVuSans-105"/>
     <use x="1433.482422" xlink:href="#DejaVuSans-109"/>
     <use x="1530.894531" xlink:href="#DejaVuSans-101"/>
     <use x="1592.417969" xlink:href="#DejaVuSans-32"/>
     <use x="1624.205078" xlink:href="#DejaVuSans-32"/>
     <use x="1655.992188" xlink:href="#DejaVuSans-32"/>
     <use x="1687.779297" xlink:href="#DejaVuSans-32"/>
     <use x="1719.566406" xlink:href="#DejaVuSans-32"/>
     <use x="1751.353516" xlink:href="#DejaVuSans-32"/>
     <use x="1783.140625" xlink:href="#DejaVuSans-49"/>
     <use x="1846.763672" xlink:href="#DejaVuSans-46"/>
     <use x="1878.550781" xlink:href="#DejaVuSans-48"/>
     <use x="1942.173828" xlink:href="#DejaVuSans-48"/>
     <use x="2005.796875" xlink:href="#DejaVuSans-56"/>
     <use x="2069.419922" xlink:href="#DejaVuSans-49"/>
     <use x="2133.042969" xlink:href="#DejaVuSans-50"/>
     <use x="2196.666016" xlink:href="#DejaVuSans-49"/>
    </g>
    <!-- Status-Code     200.000000 -->
    <g style="fill:#262626;" transform="translate(153.71625 22.034625)scale(0.12 -0.12)">
     <use xlink:href="#DejaVuSans-83"/>
     <use x="63.476562" xlink:href="#DejaVuSans-116"/>
     <use x="102.685547" xlink:href="#DejaVuSans-97"/>
     <use x="163.964844" xlink:href="#DejaVuSans-116"/>
     <use x="203.173828" xlink:href="#DejaVuSans-117"/>
     <use x="266.552734" xlink:href="#DejaVuSans-115"/>
     <use x="318.652344" xlink:href="#DejaVuSans-45"/>
     <use x="354.736328" xlink:href="#DejaVuSans-67"/>
     <use x="424.560547" xlink:href="#DejaVuSans-111"/>
     <use x="485.742188" xlink:href="#DejaVuSans-100"/>
     <use x="549.21875" xlink:href="#DejaVuSans-101"/>
     <use x="610.742188" xlink:href="#DejaVuSans-32"/>
     <use x="642.529297" xlink:href="#DejaVuSans-32"/>
     <use x="674.316406" xlink:href="#DejaVuSans-32"/>
     <use x="706.103516" xlink:href="#DejaVuSans-32"/>
     <use x="737.890625" xlink:href="#DejaVuSans-32"/>
     <use x="769.677734" xlink:href="#DejaVuSans-50"/>
     <use x="833.300781" xlink:href="#DejaVuSans-48"/>
     <use x="896.923828" xlink:href="#DejaVuSans-48"/>
     <use x="960.546875" xlink:href="#DejaVuSans-46"/>
     <use x="992.333984" xlink:href="#DejaVuSans-48"/>
     <use x="1055.957031" xlink:href="#DejaVuSans-48"/>
     <use x="1119.580078" xlink:href="#DejaVuSans-48"/>
     <use x="1183.203125" xlink:href="#DejaVuSans-48"/>
     <use x="1246.826172" xlink:href="#DejaVuSans-48"/>
     <use x="1310.449219" xlink:href="#DejaVuSans-48"/>
    </g>
    <!-- dtype: float64 -->
    <g style="fill:#262626;" transform="translate(193.904063 35.472)scale(0.12 -0.12)">
     <use xlink:href="#DejaVuSans-100"/>
     <use x="63.476562" xlink:href="#DejaVuSans-116"/>
     <use x="102.685547" xlink:href="#DejaVuSans-121"/>
     <use x="161.865234" xlink:href="#DejaVuSans-112"/>
     <use x="225.341797" xlink:href="#DejaVuSans-101"/>
     <use x="286.865234" xlink:href="#DejaVuSans-58"/>
     <use x="320.556641" xlink:href="#DejaVuSans-32"/>
     <use x="352.34375" xlink:href="#DejaVuSans-102"/>
     <use x="387.548828" xlink:href="#DejaVuSans-108"/>
     <use x="415.332031" xlink:href="#DejaVuSans-111"/>
     <use x="476.513672" xlink:href="#DejaVuSans-97"/>
     <use x="537.792969" xlink:href="#DejaVuSans-116"/>
     <use x="577.001953" xlink:href="#DejaVuSans-54"/>
     <use x="640.625" xlink:href="#DejaVuSans-52"/>
    </g>
   </g>
   <g id="legend_1">
    <g id="patch_9">
     <path d="M 368.859063 93.506375 
L 407.72 93.506375 
Q 409.72 93.506375 409.72 91.506375 
L 409.72 48.472 
Q 409.72 46.472 407.72 46.472 
L 368.859063 46.472 
Q 366.859063 46.472 366.859063 48.472 
L 366.859063 91.506375 
Q 366.859063 93.506375 368.859063 93.506375 
z
" style="fill:#ffffff;opacity:0.8;stroke:#cccccc;stroke-linejoin:miter;"/>
    </g>
    <g id="text_17">
     <!-- Mode -->
     <defs>
      <path d="M 9.8125 72.90625 
L 24.515625 72.90625 
L 43.109375 23.296875 
L 61.8125 72.90625 
L 76.515625 72.90625 
L 76.515625 0 
L 66.890625 0 
L 66.890625 64.015625 
L 48.09375 14.015625 
L 38.1875 14.015625 
L 19.390625 64.015625 
L 19.390625 0 
L 9.8125 0 
z
" id="DejaVuSans-77"/>
     </defs>
     <g style="fill:#262626;" transform="translate(374.665313 58.070438)scale(0.1 -0.1)">
      <use xlink:href="#DejaVuSans-77"/>
      <use x="86.279297" xlink:href="#DejaVuSans-111"/>
      <use x="147.460938" xlink:href="#DejaVuSans-100"/>
      <use x="210.9375" xlink:href="#DejaVuSans-101"/>
     </g>
    </g>
    <g id="patch_10">
     <path d="M 370.859063 72.748563 
L 390.859063 72.748563 
L 390.859063 65.748563 
L 370.859063 65.748563 
z
" style="fill:#3274a1;"/>
    </g>
    <g id="text_18">
     <!-- B -->
     <g style="fill:#262626;" transform="translate(398.859063 72.748563)scale(0.1 -0.1)">
      <use xlink:href="#DejaVuSans-66"/>
     </g>
    </g>
    <g id="patch_11">
     <path d="M 370.859063 87.426688 
L 390.859063 87.426688 
L 390.859063 80.426688 
L 370.859063 80.426688 
z
" style="fill:#e1812c;"/>
    </g>
    <g id="text_19">
     <!-- E -->
     <g style="fill:#262626;" transform="translate(398.859063 87.426688)scale(0.1 -0.1)">
      <use xlink:href="#DejaVuSans-69"/>
     </g>
    </g>
   </g>
  </g>
 </g>
 <defs>
  <clipPath id="pd61436d046">
   <rect height="266.112" width="357.12" x="57.6" y="41.472"/>
  </clipPath>
 </defs>
</svg>
