<?xml version="1.0" encoding="utf-8" standalone="no"?>
<!DOCTYPE svg PUBLIC "-//W3C//DTD SVG 1.1//EN"
  "http://www.w3.org/Graphics/SVG/1.1/DTD/svg11.dtd">
<!-- Created with matplotlib (https://matplotlib.org/) -->
<svg height="345.6pt" version="1.1" viewBox="0 0 460.8 345.6" width="460.8pt" xmlns="http://www.w3.org/2000/svg" xmlns:xlink="http://www.w3.org/1999/xlink">
 <defs>
  <style type="text/css">
*{stroke-linecap:butt;stroke-linejoin:round;}
  </style>
 </defs>
 <g id="figure_1">
  <g id="patch_1">
   <path d="M 0 345.6 
L 460.8 345.6 
L 460.8 0 
L 0 0 
z
" style="fill:#ffffff;"/>
  </g>
  <g id="axes_1">
   <g id="patch_2">
    <path d="M 57.6 307.584 
L 414.72 307.584 
L 414.72 41.472 
L 57.6 41.472 
z
" style="fill:#ffffff;"/>
   </g>
   <g id="matplotlib.axis_1">
    <g id="xtick_1">
     <g id="line2d_1">
      <path clip-path="url(#p942b6125cd)" d="M 57.6 307.584 
L 57.6 41.472 
" style="fill:none;stroke:#cccccc;stroke-linecap:round;stroke-width:0.8;"/>
     </g>
     <g id="text_1">
      <!-- 0.0 -->
      <defs>
       <path d="M 31.78125 66.40625 
Q 24.171875 66.40625 20.328125 58.90625 
Q 16.5 51.421875 16.5 36.375 
Q 16.5 21.390625 20.328125 13.890625 
Q 24.171875 6.390625 31.78125 6.390625 
Q 39.453125 6.390625 43.28125 13.890625 
Q 47.125 21.390625 47.125 36.375 
Q 47.125 51.421875 43.28125 58.90625 
Q 39.453125 66.40625 31.78125 66.40625 
z
M 31.78125 74.21875 
Q 44.046875 74.21875 50.515625 64.515625 
Q 56.984375 54.828125 56.984375 36.375 
Q 56.984375 17.96875 50.515625 8.265625 
Q 44.046875 -1.421875 31.78125 -1.421875 
Q 19.53125 -1.421875 13.0625 8.265625 
Q 6.59375 17.96875 6.59375 36.375 
Q 6.59375 54.828125 13.0625 64.515625 
Q 19.53125 74.21875 31.78125 74.21875 
z
" id="DejaVuSans-48"/>
       <path d="M 10.6875 12.40625 
L 21 12.40625 
L 21 0 
L 10.6875 0 
z
" id="DejaVuSans-46"/>
      </defs>
      <g style="fill:#262626;" transform="translate(49.648438 322.182437)scale(0.1 -0.1)">
       <use xlink:href="#DejaVuSans-48"/>
       <use x="63.623047" xlink:href="#DejaVuSans-46"/>
       <use x="95.410156" xlink:href="#DejaVuSans-48"/>
      </g>
     </g>
    </g>
    <g id="xtick_2">
     <g id="line2d_2">
      <path clip-path="url(#p942b6125cd)" d="M 87.36 307.584 
L 87.36 41.472 
" style="fill:none;stroke:#cccccc;stroke-linecap:round;stroke-width:0.8;"/>
     </g>
     <g id="text_2">
      <!-- 0.2 -->
      <defs>
       <path d="M 19.1875 8.296875 
L 53.609375 8.296875 
L 53.609375 0 
L 7.328125 0 
L 7.328125 8.296875 
Q 12.9375 14.109375 22.625 23.890625 
Q 32.328125 33.6875 34.8125 36.53125 
Q 39.546875 41.84375 41.421875 45.53125 
Q 43.3125 49.21875 43.3125 52.78125 
Q 43.3125 58.59375 39.234375 62.25 
Q 35.15625 65.921875 28.609375 65.921875 
Q 23.96875 65.921875 18.8125 64.3125 
Q 13.671875 62.703125 7.8125 59.421875 
L 7.8125 69.390625 
Q 13.765625 71.78125 18.9375 73 
Q 24.125 74.21875 28.421875 74.21875 
Q 39.75 74.21875 46.484375 68.546875 
Q 53.21875 62.890625 53.21875 53.421875 
Q 53.21875 48.921875 51.53125 44.890625 
Q 49.859375 40.875 45.40625 35.40625 
Q 44.1875 33.984375 37.640625 27.21875 
Q 31.109375 20.453125 19.1875 8.296875 
z
" id="DejaVuSans-50"/>
      </defs>
      <g style="fill:#262626;" transform="translate(79.408438 322.182437)scale(0.1 -0.1)">
       <use xlink:href="#DejaVuSans-48"/>
       <use x="63.623047" xlink:href="#DejaVuSans-46"/>
       <use x="95.410156" xlink:href="#DejaVuSans-50"/>
      </g>
     </g>
    </g>
    <g id="xtick_3">
     <g id="line2d_3">
      <path clip-path="url(#p942b6125cd)" d="M 117.12 307.584 
L 117.12 41.472 
" style="fill:none;stroke:#cccccc;stroke-linecap:round;stroke-width:0.8;"/>
     </g>
     <g id="text_3">
      <!-- 0.4 -->
      <defs>
       <path d="M 37.796875 64.3125 
L 12.890625 25.390625 
L 37.796875 25.390625 
z
M 35.203125 72.90625 
L 47.609375 72.90625 
L 47.609375 25.390625 
L 58.015625 25.390625 
L 58.015625 17.1875 
L 47.609375 17.1875 
L 47.609375 0 
L 37.796875 0 
L 37.796875 17.1875 
L 4.890625 17.1875 
L 4.890625 26.703125 
z
" id="DejaVuSans-52"/>
      </defs>
      <g style="fill:#262626;" transform="translate(109.168438 322.182437)scale(0.1 -0.1)">
       <use xlink:href="#DejaVuSans-48"/>
       <use x="63.623047" xlink:href="#DejaVuSans-46"/>
       <use x="95.410156" xlink:href="#DejaVuSans-52"/>
      </g>
     </g>
    </g>
    <g id="xtick_4">
     <g id="line2d_4">
      <path clip-path="url(#p942b6125cd)" d="M 146.88 307.584 
L 146.88 41.472 
" style="fill:none;stroke:#cccccc;stroke-linecap:round;stroke-width:0.8;"/>
     </g>
     <g id="text_4">
      <!-- 0.6 -->
      <defs>
       <path d="M 33.015625 40.375 
Q 26.375 40.375 22.484375 35.828125 
Q 18.609375 31.296875 18.609375 23.390625 
Q 18.609375 15.53125 22.484375 10.953125 
Q 26.375 6.390625 33.015625 6.390625 
Q 39.65625 6.390625 43.53125 10.953125 
Q 47.40625 15.53125 47.40625 23.390625 
Q 47.40625 31.296875 43.53125 35.828125 
Q 39.65625 40.375 33.015625 40.375 
z
M 52.59375 71.296875 
L 52.59375 62.3125 
Q 48.875 64.0625 45.09375 64.984375 
Q 41.3125 65.921875 37.59375 65.921875 
Q 27.828125 65.921875 22.671875 59.328125 
Q 17.53125 52.734375 16.796875 39.40625 
Q 19.671875 43.65625 24.015625 45.921875 
Q 28.375 48.1875 33.59375 48.1875 
Q 44.578125 48.1875 50.953125 41.515625 
Q 57.328125 34.859375 57.328125 23.390625 
Q 57.328125 12.15625 50.6875 5.359375 
Q 44.046875 -1.421875 33.015625 -1.421875 
Q 20.359375 -1.421875 13.671875 8.265625 
Q 6.984375 17.96875 6.984375 36.375 
Q 6.984375 53.65625 15.1875 63.9375 
Q 23.390625 74.21875 37.203125 74.21875 
Q 40.921875 74.21875 44.703125 73.484375 
Q 48.484375 72.75 52.59375 71.296875 
z
" id="DejaVuSans-54"/>
      </defs>
      <g style="fill:#262626;" transform="translate(138.928438 322.182437)scale(0.1 -0.1)">
       <use xlink:href="#DejaVuSans-48"/>
       <use x="63.623047" xlink:href="#DejaVuSans-46"/>
       <use x="95.410156" xlink:href="#DejaVuSans-54"/>
      </g>
     </g>
    </g>
    <g id="xtick_5">
     <g id="line2d_5">
      <path clip-path="url(#p942b6125cd)" d="M 176.64 307.584 
L 176.64 41.472 
" style="fill:none;stroke:#cccccc;stroke-linecap:round;stroke-width:0.8;"/>
     </g>
     <g id="text_5">
      <!-- 0.8 -->
      <defs>
       <path d="M 31.78125 34.625 
Q 24.75 34.625 20.71875 30.859375 
Q 16.703125 27.09375 16.703125 20.515625 
Q 16.703125 13.921875 20.71875 10.15625 
Q 24.75 6.390625 31.78125 6.390625 
Q 38.8125 6.390625 42.859375 10.171875 
Q 46.921875 13.96875 46.921875 20.515625 
Q 46.921875 27.09375 42.890625 30.859375 
Q 38.875 34.625 31.78125 34.625 
z
M 21.921875 38.8125 
Q 15.578125 40.375 12.03125 44.71875 
Q 8.5 49.078125 8.5 55.328125 
Q 8.5 64.0625 14.71875 69.140625 
Q 20.953125 74.21875 31.78125 74.21875 
Q 42.671875 74.21875 48.875 69.140625 
Q 55.078125 64.0625 55.078125 55.328125 
Q 55.078125 49.078125 51.53125 44.71875 
Q 48 40.375 41.703125 38.8125 
Q 48.828125 37.15625 52.796875 32.3125 
Q 56.78125 27.484375 56.78125 20.515625 
Q 56.78125 9.90625 50.3125 4.234375 
Q 43.84375 -1.421875 31.78125 -1.421875 
Q 19.734375 -1.421875 13.25 4.234375 
Q 6.78125 9.90625 6.78125 20.515625 
Q 6.78125 27.484375 10.78125 32.3125 
Q 14.796875 37.15625 21.921875 38.8125 
z
M 18.3125 54.390625 
Q 18.3125 48.734375 21.84375 45.5625 
Q 25.390625 42.390625 31.78125 42.390625 
Q 38.140625 42.390625 41.71875 45.5625 
Q 45.3125 48.734375 45.3125 54.390625 
Q 45.3125 60.0625 41.71875 63.234375 
Q 38.140625 66.40625 31.78125 66.40625 
Q 25.390625 66.40625 21.84375 63.234375 
Q 18.3125 60.0625 18.3125 54.390625 
z
" id="DejaVuSans-56"/>
      </defs>
      <g style="fill:#262626;" transform="translate(168.688438 322.182437)scale(0.1 -0.1)">
       <use xlink:href="#DejaVuSans-48"/>
       <use x="63.623047" xlink:href="#DejaVuSans-46"/>
       <use x="95.410156" xlink:href="#DejaVuSans-56"/>
      </g>
     </g>
    </g>
    <g id="xtick_6">
     <g id="line2d_6">
      <path clip-path="url(#p942b6125cd)" d="M 206.4 307.584 
L 206.4 41.472 
" style="fill:none;stroke:#cccccc;stroke-linecap:round;stroke-width:0.8;"/>
     </g>
     <g id="text_6">
      <!-- 1.0 -->
      <defs>
       <path d="M 12.40625 8.296875 
L 28.515625 8.296875 
L 28.515625 63.921875 
L 10.984375 60.40625 
L 10.984375 69.390625 
L 28.421875 72.90625 
L 38.28125 72.90625 
L 38.28125 8.296875 
L 54.390625 8.296875 
L 54.390625 0 
L 12.40625 0 
z
" id="DejaVuSans-49"/>
      </defs>
      <g style="fill:#262626;" transform="translate(198.448438 322.182437)scale(0.1 -0.1)">
       <use xlink:href="#DejaVuSans-49"/>
       <use x="63.623047" xlink:href="#DejaVuSans-46"/>
       <use x="95.410156" xlink:href="#DejaVuSans-48"/>
      </g>
     </g>
    </g>
    <g id="xtick_7">
     <g id="line2d_7">
      <path clip-path="url(#p942b6125cd)" d="M 236.16 307.584 
L 236.16 41.472 
" style="fill:none;stroke:#cccccc;stroke-linecap:round;stroke-width:0.8;"/>
     </g>
     <g id="text_7">
      <!-- 1.2 -->
      <g style="fill:#262626;" transform="translate(228.208438 322.182437)scale(0.1 -0.1)">
       <use xlink:href="#DejaVuSans-49"/>
       <use x="63.623047" xlink:href="#DejaVuSans-46"/>
       <use x="95.410156" xlink:href="#DejaVuSans-50"/>
      </g>
     </g>
    </g>
    <g id="xtick_8">
     <g id="line2d_8">
      <path clip-path="url(#p942b6125cd)" d="M 265.92 307.584 
L 265.92 41.472 
" style="fill:none;stroke:#cccccc;stroke-linecap:round;stroke-width:0.8;"/>
     </g>
     <g id="text_8">
      <!-- 1.4 -->
      <g style="fill:#262626;" transform="translate(257.968437 322.182437)scale(0.1 -0.1)">
       <use xlink:href="#DejaVuSans-49"/>
       <use x="63.623047" xlink:href="#DejaVuSans-46"/>
       <use x="95.410156" xlink:href="#DejaVuSans-52"/>
      </g>
     </g>
    </g>
    <g id="xtick_9">
     <g id="line2d_9">
      <path clip-path="url(#p942b6125cd)" d="M 295.68 307.584 
L 295.68 41.472 
" style="fill:none;stroke:#cccccc;stroke-linecap:round;stroke-width:0.8;"/>
     </g>
     <g id="text_9">
      <!-- 1.6 -->
      <g style="fill:#262626;" transform="translate(287.728438 322.182437)scale(0.1 -0.1)">
       <use xlink:href="#DejaVuSans-49"/>
       <use x="63.623047" xlink:href="#DejaVuSans-46"/>
       <use x="95.410156" xlink:href="#DejaVuSans-54"/>
      </g>
     </g>
    </g>
    <g id="xtick_10">
     <g id="line2d_10">
      <path clip-path="url(#p942b6125cd)" d="M 325.44 307.584 
L 325.44 41.472 
" style="fill:none;stroke:#cccccc;stroke-linecap:round;stroke-width:0.8;"/>
     </g>
     <g id="text_10">
      <!-- 1.8 -->
      <g style="fill:#262626;" transform="translate(317.488438 322.182437)scale(0.1 -0.1)">
       <use xlink:href="#DejaVuSans-49"/>
       <use x="63.623047" xlink:href="#DejaVuSans-46"/>
       <use x="95.410156" xlink:href="#DejaVuSans-56"/>
      </g>
     </g>
    </g>
    <g id="xtick_11">
     <g id="line2d_11">
      <path clip-path="url(#p942b6125cd)" d="M 355.2 307.584 
L 355.2 41.472 
" style="fill:none;stroke:#cccccc;stroke-linecap:round;stroke-width:0.8;"/>
     </g>
     <g id="text_11">
      <!-- 2.0 -->
      <g style="fill:#262626;" transform="translate(347.248438 322.182437)scale(0.1 -0.1)">
       <use xlink:href="#DejaVuSans-50"/>
       <use x="63.623047" xlink:href="#DejaVuSans-46"/>
       <use x="95.410156" xlink:href="#DejaVuSans-48"/>
      </g>
     </g>
    </g>
    <g id="xtick_12">
     <g id="line2d_12">
      <path clip-path="url(#p942b6125cd)" d="M 384.96 307.584 
L 384.96 41.472 
" style="fill:none;stroke:#cccccc;stroke-linecap:round;stroke-width:0.8;"/>
     </g>
     <g id="text_12">
      <!-- 2.2 -->
      <g style="fill:#262626;" transform="translate(377.008438 322.182437)scale(0.1 -0.1)">
       <use xlink:href="#DejaVuSans-50"/>
       <use x="63.623047" xlink:href="#DejaVuSans-46"/>
       <use x="95.410156" xlink:href="#DejaVuSans-50"/>
      </g>
     </g>
    </g>
    <g id="xtick_13">
     <g id="line2d_13">
      <path clip-path="url(#p942b6125cd)" d="M 414.72 307.584 
L 414.72 41.472 
" style="fill:none;stroke:#cccccc;stroke-linecap:round;stroke-width:0.8;"/>
     </g>
     <g id="text_13">
      <!-- 2.4 -->
      <g style="fill:#262626;" transform="translate(406.768438 322.182437)scale(0.1 -0.1)">
       <use xlink:href="#DejaVuSans-50"/>
       <use x="63.623047" xlink:href="#DejaVuSans-46"/>
       <use x="95.410156" xlink:href="#DejaVuSans-52"/>
      </g>
     </g>
    </g>
    <g id="text_14">
     <!-- Loading_Time -->
     <defs>
      <path d="M 9.8125 72.90625 
L 19.671875 72.90625 
L 19.671875 8.296875 
L 55.171875 8.296875 
L 55.171875 0 
L 9.8125 0 
z
" id="DejaVuSans-76"/>
      <path d="M 30.609375 48.390625 
Q 23.390625 48.390625 19.1875 42.75 
Q 14.984375 37.109375 14.984375 27.296875 
Q 14.984375 17.484375 19.15625 11.84375 
Q 23.34375 6.203125 30.609375 6.203125 
Q 37.796875 6.203125 41.984375 11.859375 
Q 46.1875 17.53125 46.1875 27.296875 
Q 46.1875 37.015625 41.984375 42.703125 
Q 37.796875 48.390625 30.609375 48.390625 
z
M 30.609375 56 
Q 42.328125 56 49.015625 48.375 
Q 55.71875 40.765625 55.71875 27.296875 
Q 55.71875 13.875 49.015625 6.21875 
Q 42.328125 -1.421875 30.609375 -1.421875 
Q 18.84375 -1.421875 12.171875 6.21875 
Q 5.515625 13.875 5.515625 27.296875 
Q 5.515625 40.765625 12.171875 48.375 
Q 18.84375 56 30.609375 56 
z
" id="DejaVuSans-111"/>
      <path d="M 34.28125 27.484375 
Q 23.390625 27.484375 19.1875 25 
Q 14.984375 22.515625 14.984375 16.5 
Q 14.984375 11.71875 18.140625 8.90625 
Q 21.296875 6.109375 26.703125 6.109375 
Q 34.1875 6.109375 38.703125 11.40625 
Q 43.21875 16.703125 43.21875 25.484375 
L 43.21875 27.484375 
z
M 52.203125 31.203125 
L 52.203125 0 
L 43.21875 0 
L 43.21875 8.296875 
Q 40.140625 3.328125 35.546875 0.953125 
Q 30.953125 -1.421875 24.3125 -1.421875 
Q 15.921875 -1.421875 10.953125 3.296875 
Q 6 8.015625 6 15.921875 
Q 6 25.140625 12.171875 29.828125 
Q 18.359375 34.515625 30.609375 34.515625 
L 43.21875 34.515625 
L 43.21875 35.40625 
Q 43.21875 41.609375 39.140625 45 
Q 35.0625 48.390625 27.6875 48.390625 
Q 23 48.390625 18.546875 47.265625 
Q 14.109375 46.140625 10.015625 43.890625 
L 10.015625 52.203125 
Q 14.9375 54.109375 19.578125 55.046875 
Q 24.21875 56 28.609375 56 
Q 40.484375 56 46.34375 49.84375 
Q 52.203125 43.703125 52.203125 31.203125 
z
" id="DejaVuSans-97"/>
      <path d="M 45.40625 46.390625 
L 45.40625 75.984375 
L 54.390625 75.984375 
L 54.390625 0 
L 45.40625 0 
L 45.40625 8.203125 
Q 42.578125 3.328125 38.25 0.953125 
Q 33.9375 -1.421875 27.875 -1.421875 
Q 17.96875 -1.421875 11.734375 6.484375 
Q 5.515625 14.40625 5.515625 27.296875 
Q 5.515625 40.1875 11.734375 48.09375 
Q 17.96875 56 27.875 56 
Q 33.9375 56 38.25 53.625 
Q 42.578125 51.265625 45.40625 46.390625 
z
M 14.796875 27.296875 
Q 14.796875 17.390625 18.875 11.75 
Q 22.953125 6.109375 30.078125 6.109375 
Q 37.203125 6.109375 41.296875 11.75 
Q 45.40625 17.390625 45.40625 27.296875 
Q 45.40625 37.203125 41.296875 42.84375 
Q 37.203125 48.484375 30.078125 48.484375 
Q 22.953125 48.484375 18.875 42.84375 
Q 14.796875 37.203125 14.796875 27.296875 
z
" id="DejaVuSans-100"/>
      <path d="M 9.421875 54.6875 
L 18.40625 54.6875 
L 18.40625 0 
L 9.421875 0 
z
M 9.421875 75.984375 
L 18.40625 75.984375 
L 18.40625 64.59375 
L 9.421875 64.59375 
z
" id="DejaVuSans-105"/>
      <path d="M 54.890625 33.015625 
L 54.890625 0 
L 45.90625 0 
L 45.90625 32.71875 
Q 45.90625 40.484375 42.875 44.328125 
Q 39.84375 48.1875 33.796875 48.1875 
Q 26.515625 48.1875 22.3125 43.546875 
Q 18.109375 38.921875 18.109375 30.90625 
L 18.109375 0 
L 9.078125 0 
L 9.078125 54.6875 
L 18.109375 54.6875 
L 18.109375 46.1875 
Q 21.34375 51.125 25.703125 53.5625 
Q 30.078125 56 35.796875 56 
Q 45.21875 56 50.046875 50.171875 
Q 54.890625 44.34375 54.890625 33.015625 
z
" id="DejaVuSans-110"/>
      <path d="M 45.40625 27.984375 
Q 45.40625 37.75 41.375 43.109375 
Q 37.359375 48.484375 30.078125 48.484375 
Q 22.859375 48.484375 18.828125 43.109375 
Q 14.796875 37.75 14.796875 27.984375 
Q 14.796875 18.265625 18.828125 12.890625 
Q 22.859375 7.515625 30.078125 7.515625 
Q 37.359375 7.515625 41.375 12.890625 
Q 45.40625 18.265625 45.40625 27.984375 
z
M 54.390625 6.78125 
Q 54.390625 -7.171875 48.1875 -13.984375 
Q 42 -20.796875 29.203125 -20.796875 
Q 24.46875 -20.796875 20.265625 -20.09375 
Q 16.0625 -19.390625 12.109375 -17.921875 
L 12.109375 -9.1875 
Q 16.0625 -11.328125 19.921875 -12.34375 
Q 23.78125 -13.375 27.78125 -13.375 
Q 36.625 -13.375 41.015625 -8.765625 
Q 45.40625 -4.15625 45.40625 5.171875 
L 45.40625 9.625 
Q 42.625 4.78125 38.28125 2.390625 
Q 33.9375 0 27.875 0 
Q 17.828125 0 11.671875 7.65625 
Q 5.515625 15.328125 5.515625 27.984375 
Q 5.515625 40.671875 11.671875 48.328125 
Q 17.828125 56 27.875 56 
Q 33.9375 56 38.28125 53.609375 
Q 42.625 51.21875 45.40625 46.390625 
L 45.40625 54.6875 
L 54.390625 54.6875 
z
" id="DejaVuSans-103"/>
      <path d="M 50.984375 -16.609375 
L 50.984375 -23.578125 
L -0.984375 -23.578125 
L -0.984375 -16.609375 
z
" id="DejaVuSans-95"/>
      <path d="M -0.296875 72.90625 
L 61.375 72.90625 
L 61.375 64.59375 
L 35.5 64.59375 
L 35.5 0 
L 25.59375 0 
L 25.59375 64.59375 
L -0.296875 64.59375 
z
" id="DejaVuSans-84"/>
      <path d="M 52 44.1875 
Q 55.375 50.25 60.0625 53.125 
Q 64.75 56 71.09375 56 
Q 79.640625 56 84.28125 50.015625 
Q 88.921875 44.046875 88.921875 33.015625 
L 88.921875 0 
L 79.890625 0 
L 79.890625 32.71875 
Q 79.890625 40.578125 77.09375 44.375 
Q 74.3125 48.1875 68.609375 48.1875 
Q 61.625 48.1875 57.5625 43.546875 
Q 53.515625 38.921875 53.515625 30.90625 
L 53.515625 0 
L 44.484375 0 
L 44.484375 32.71875 
Q 44.484375 40.625 41.703125 44.40625 
Q 38.921875 48.1875 33.109375 48.1875 
Q 26.21875 48.1875 22.15625 43.53125 
Q 18.109375 38.875 18.109375 30.90625 
L 18.109375 0 
L 9.078125 0 
L 9.078125 54.6875 
L 18.109375 54.6875 
L 18.109375 46.1875 
Q 21.1875 51.21875 25.484375 53.609375 
Q 29.78125 56 35.6875 56 
Q 41.65625 56 45.828125 52.96875 
Q 50 49.953125 52 44.1875 
z
" id="DejaVuSans-109"/>
      <path d="M 56.203125 29.59375 
L 56.203125 25.203125 
L 14.890625 25.203125 
Q 15.484375 15.921875 20.484375 11.0625 
Q 25.484375 6.203125 34.421875 6.203125 
Q 39.59375 6.203125 44.453125 7.46875 
Q 49.3125 8.734375 54.109375 11.28125 
L 54.109375 2.78125 
Q 49.265625 0.734375 44.1875 -0.34375 
Q 39.109375 -1.421875 33.890625 -1.421875 
Q 20.796875 -1.421875 13.15625 6.1875 
Q 5.515625 13.8125 5.515625 26.8125 
Q 5.515625 40.234375 12.765625 48.109375 
Q 20.015625 56 32.328125 56 
Q 43.359375 56 49.78125 48.890625 
Q 56.203125 41.796875 56.203125 29.59375 
z
M 47.21875 32.234375 
Q 47.125 39.59375 43.09375 43.984375 
Q 39.0625 48.390625 32.421875 48.390625 
Q 24.90625 48.390625 20.390625 44.140625 
Q 15.875 39.890625 15.1875 32.171875 
z
" id="DejaVuSans-101"/>
     </defs>
     <g style="fill:#262626;" transform="translate(201.457656 335.860562)scale(0.1 -0.1)">
      <use xlink:href="#DejaVuSans-76"/>
      <use x="55.697266" xlink:href="#DejaVuSans-111"/>
      <use x="116.878906" xlink:href="#DejaVuSans-97"/>
      <use x="178.158203" xlink:href="#DejaVuSans-100"/>
      <use x="241.634766" xlink:href="#DejaVuSans-105"/>
      <use x="269.417969" xlink:href="#DejaVuSans-110"/>
      <use x="332.796875" xlink:href="#DejaVuSans-103"/>
      <use x="396.273438" xlink:href="#DejaVuSans-95"/>
      <use x="446.273438" xlink:href="#DejaVuSans-84"/>
      <use x="507.310547" xlink:href="#DejaVuSans-105"/>
      <use x="535.09375" xlink:href="#DejaVuSans-109"/>
      <use x="632.505859" xlink:href="#DejaVuSans-101"/>
     </g>
    </g>
   </g>
   <g id="matplotlib.axis_2">
    <g id="ytick_1">
     <g id="text_15">
      <!-- /48492 -->
      <defs>
       <path d="M 25.390625 72.90625 
L 33.6875 72.90625 
L 8.296875 -9.28125 
L 0 -9.28125 
z
" id="DejaVuSans-47"/>
       <path d="M 10.984375 1.515625 
L 10.984375 10.5 
Q 14.703125 8.734375 18.5 7.8125 
Q 22.3125 6.890625 25.984375 6.890625 
Q 35.75 6.890625 40.890625 13.453125 
Q 46.046875 20.015625 46.78125 33.40625 
Q 43.953125 29.203125 39.59375 26.953125 
Q 35.25 24.703125 29.984375 24.703125 
Q 19.046875 24.703125 12.671875 31.3125 
Q 6.296875 37.9375 6.296875 49.421875 
Q 6.296875 60.640625 12.9375 67.421875 
Q 19.578125 74.21875 30.609375 74.21875 
Q 43.265625 74.21875 49.921875 64.515625 
Q 56.59375 54.828125 56.59375 36.375 
Q 56.59375 19.140625 48.40625 8.859375 
Q 40.234375 -1.421875 26.421875 -1.421875 
Q 22.703125 -1.421875 18.890625 -0.6875 
Q 15.09375 0.046875 10.984375 1.515625 
z
M 30.609375 32.421875 
Q 37.25 32.421875 41.125 36.953125 
Q 45.015625 41.5 45.015625 49.421875 
Q 45.015625 57.28125 41.125 61.84375 
Q 37.25 66.40625 30.609375 66.40625 
Q 23.96875 66.40625 20.09375 61.84375 
Q 16.21875 57.28125 16.21875 49.421875 
Q 16.21875 41.5 20.09375 36.953125 
Q 23.96875 32.421875 30.609375 32.421875 
z
" id="DejaVuSans-57"/>
      </defs>
      <g style="fill:#262626;" transform="translate(15.41875 71.882419)scale(0.1 -0.1)">
       <use xlink:href="#DejaVuSans-47"/>
       <use x="33.691406" xlink:href="#DejaVuSans-52"/>
       <use x="97.314453" xlink:href="#DejaVuSans-56"/>
       <use x="160.9375" xlink:href="#DejaVuSans-52"/>
       <use x="224.560547" xlink:href="#DejaVuSans-57"/>
       <use x="288.183594" xlink:href="#DejaVuSans-50"/>
      </g>
     </g>
    </g>
    <g id="ytick_2">
     <g id="text_16">
      <!-- /24706 -->
      <defs>
       <path d="M 8.203125 72.90625 
L 55.078125 72.90625 
L 55.078125 68.703125 
L 28.609375 0 
L 18.3125 0 
L 43.21875 64.59375 
L 8.203125 64.59375 
z
" id="DejaVuSans-55"/>
      </defs>
      <g style="fill:#262626;" transform="translate(15.41875 125.104819)scale(0.1 -0.1)">
       <use xlink:href="#DejaVuSans-47"/>
       <use x="33.691406" xlink:href="#DejaVuSans-50"/>
       <use x="97.314453" xlink:href="#DejaVuSans-52"/>
       <use x="160.9375" xlink:href="#DejaVuSans-55"/>
       <use x="224.560547" xlink:href="#DejaVuSans-48"/>
       <use x="288.183594" xlink:href="#DejaVuSans-54"/>
      </g>
     </g>
    </g>
    <g id="ytick_3">
     <g id="text_17">
      <!-- /1617 -->
      <g style="fill:#262626;" transform="translate(21.78125 178.327219)scale(0.1 -0.1)">
       <use xlink:href="#DejaVuSans-47"/>
       <use x="33.691406" xlink:href="#DejaVuSans-49"/>
       <use x="97.314453" xlink:href="#DejaVuSans-54"/>
       <use x="160.9375" xlink:href="#DejaVuSans-49"/>
       <use x="224.560547" xlink:href="#DejaVuSans-55"/>
      </g>
     </g>
    </g>
    <g id="ytick_4">
     <g id="text_18">
      <!-- /19882 -->
      <g style="fill:#262626;" transform="translate(15.41875 231.549619)scale(0.1 -0.1)">
       <use xlink:href="#DejaVuSans-47"/>
       <use x="33.691406" xlink:href="#DejaVuSans-49"/>
       <use x="97.314453" xlink:href="#DejaVuSans-57"/>
       <use x="160.9375" xlink:href="#DejaVuSans-56"/>
       <use x="224.560547" xlink:href="#DejaVuSans-56"/>
       <use x="288.183594" xlink:href="#DejaVuSans-50"/>
      </g>
     </g>
    </g>
    <g id="ytick_5">
     <g id="text_19">
      <!-- /18922 -->
      <g style="fill:#262626;" transform="translate(15.41875 284.772019)scale(0.1 -0.1)">
       <use xlink:href="#DejaVuSans-47"/>
       <use x="33.691406" xlink:href="#DejaVuSans-49"/>
       <use x="97.314453" xlink:href="#DejaVuSans-56"/>
       <use x="160.9375" xlink:href="#DejaVuSans-57"/>
       <use x="224.560547" xlink:href="#DejaVuSans-50"/>
       <use x="288.183594" xlink:href="#DejaVuSans-50"/>
      </g>
     </g>
    </g>
    <g id="text_20">
     <!-- URL -->
     <defs>
      <path d="M 8.6875 72.90625 
L 18.609375 72.90625 
L 18.609375 28.609375 
Q 18.609375 16.890625 22.84375 11.734375 
Q 27.09375 6.59375 36.625 6.59375 
Q 46.09375 6.59375 50.34375 11.734375 
Q 54.59375 16.890625 54.59375 28.609375 
L 54.59375 72.90625 
L 64.5 72.90625 
L 64.5 27.390625 
Q 64.5 13.140625 57.4375 5.859375 
Q 50.390625 -1.421875 36.625 -1.421875 
Q 22.796875 -1.421875 15.734375 5.859375 
Q 8.6875 13.140625 8.6875 27.390625 
z
" id="DejaVuSans-85"/>
      <path d="M 44.390625 34.1875 
Q 47.5625 33.109375 50.5625 29.59375 
Q 53.5625 26.078125 56.59375 19.921875 
L 66.609375 0 
L 56 0 
L 46.6875 18.703125 
Q 43.0625 26.03125 39.671875 28.421875 
Q 36.28125 30.8125 30.421875 30.8125 
L 19.671875 30.8125 
L 19.671875 0 
L 9.8125 0 
L 9.8125 72.90625 
L 32.078125 72.90625 
Q 44.578125 72.90625 50.734375 67.671875 
Q 56.890625 62.453125 56.890625 51.90625 
Q 56.890625 45.015625 53.6875 40.46875 
Q 50.484375 35.9375 44.390625 34.1875 
z
M 19.671875 64.796875 
L 19.671875 38.921875 
L 32.078125 38.921875 
Q 39.203125 38.921875 42.84375 42.21875 
Q 46.484375 45.515625 46.484375 51.90625 
Q 46.484375 58.296875 42.84375 61.546875 
Q 39.203125 64.796875 32.078125 64.796875 
z
" id="DejaVuSans-82"/>
     </defs>
     <g style="fill:#262626;" transform="translate(9.339063 184.447531)rotate(-90)scale(0.1 -0.1)">
      <use xlink:href="#DejaVuSans-85"/>
      <use x="73.193359" xlink:href="#DejaVuSans-82"/>
      <use x="142.675781" xlink:href="#DejaVuSans-76"/>
     </g>
    </g>
   </g>
   <g id="PolyCollection_1">
    <defs>
     <path d="M 158.802174 -277.5168 
L 158.802174 -295.691021 
L 160.432233 -296.101622 
L 162.062292 -296.423554 
L 163.692351 -296.653524 
L 165.32241 -296.789871 
L 166.952469 -296.832619 
L 168.582528 -296.783475 
L 170.212587 -296.645781 
L 171.842646 -296.424431 
L 173.472705 -296.125742 
L 175.102765 -295.757295 
L 176.732824 -295.327745 
L 178.362883 -294.84662 
L 179.992942 -294.324095 
L 181.623001 -293.770768 
L 183.25306 -293.197437 
L 184.883119 -292.614884 
L 186.513178 -292.033664 
L 188.143237 -291.463923 
L 189.773296 -290.915227 
L 191.403355 -290.39641 
L 193.033414 -289.915452 
L 194.663473 -289.479376 
L 196.293532 -289.094159 
L 197.923591 -288.764672 
L 199.55365 -288.494634 
L 201.183709 -288.286582 
L 202.813768 -288.14186 
L 204.443827 -288.060615 
L 206.073886 -288.041818 
L 207.703946 -288.083288 
L 209.334005 -288.181737 
L 210.964064 -288.332828 
L 212.594123 -288.531243 
L 214.224182 -288.770777 
L 215.854241 -289.044444 
L 217.4843 -289.344594 
L 219.114359 -289.663055 
L 220.744418 -289.99129 
L 222.374477 -290.320555 
L 224.004536 -290.642083 
L 225.634595 -290.947261 
L 227.264654 -291.227817 
L 228.894713 -291.475995 
L 230.524772 -291.68473 
L 232.154831 -291.847799 
L 233.78489 -291.959958 
L 235.414949 -292.017053 
L 237.045008 -292.016099 
L 238.675068 -291.955327 
L 240.305127 -291.834206 
L 241.935186 -291.653418 
L 243.565245 -291.414809 
L 245.195304 -291.121308 
L 246.825363 -290.776816 
L 248.455422 -290.386075 
L 250.085481 -289.95452 
L 251.71554 -289.488117 
L 253.345599 -288.993199 
L 254.975658 -288.4763 
L 256.605717 -287.943997 
L 258.235776 -287.40276 
L 259.865835 -286.858821 
L 261.495894 -286.318056 
L 263.125953 -285.78589 
L 264.756012 -285.267226 
L 266.386071 -284.766387 
L 268.01613 -284.287084 
L 269.646189 -283.832402 
L 271.276249 -283.404802 
L 272.906308 -283.006135 
L 274.536367 -282.63767 
L 276.166426 -282.300127 
L 277.796485 -281.993721 
L 279.426544 -281.718207 
L 281.056603 -281.472923 
L 282.686662 -281.256842 
L 284.316721 -281.068615 
L 285.94678 -280.906617 
L 287.576839 -280.768989 
L 289.206898 -280.653681 
L 290.836957 -280.558489 
L 292.467016 -280.481096 
L 294.097075 -280.419109 
L 295.727134 -280.37009 
L 297.357193 -280.331601 
L 298.987252 -280.301232 
L 300.617311 -280.276639 
L 302.247371 -280.255576 
L 303.87743 -280.235931 
L 305.507489 -280.215752 
L 307.137548 -280.193278 
L 308.767607 -280.166961 
L 310.397666 -280.135487 
L 312.027725 -280.09779 
L 313.657784 -280.053063 
L 315.287843 -280.00076 
L 316.917902 -279.940594 
L 318.547961 -279.872528 
L 320.17802 -279.796761 
L 320.17802 -277.5168 
L 320.17802 -277.5168 
L 318.547961 -277.5168 
L 316.917902 -277.5168 
L 315.287843 -277.5168 
L 313.657784 -277.5168 
L 312.027725 -277.5168 
L 310.397666 -277.5168 
L 308.767607 -277.5168 
L 307.137548 -277.5168 
L 305.507489 -277.5168 
L 303.87743 -277.5168 
L 302.247371 -277.5168 
L 300.617311 -277.5168 
L 298.987252 -277.5168 
L 297.357193 -277.5168 
L 295.727134 -277.5168 
L 294.097075 -277.5168 
L 292.467016 -277.5168 
L 290.836957 -277.5168 
L 289.206898 -277.5168 
L 287.576839 -277.5168 
L 285.94678 -277.5168 
L 284.316721 -277.5168 
L 282.686662 -277.5168 
L 281.056603 -277.5168 
L 279.426544 -277.5168 
L 277.796485 -277.5168 
L 276.166426 -277.5168 
L 274.536367 -277.5168 
L 272.906308 -277.5168 
L 271.276249 -277.5168 
L 269.646189 -277.5168 
L 268.01613 -277.5168 
L 266.386071 -277.5168 
L 264.756012 -277.5168 
L 263.125953 -277.5168 
L 261.495894 -277.5168 
L 259.865835 -277.5168 
L 258.235776 -277.5168 
L 256.605717 -277.5168 
L 254.975658 -277.5168 
L 253.345599 -277.5168 
L 251.71554 -277.5168 
L 250.085481 -277.5168 
L 248.455422 -277.5168 
L 246.825363 -277.5168 
L 245.195304 -277.5168 
L 243.565245 -277.5168 
L 241.935186 -277.5168 
L 240.305127 -277.5168 
L 238.675068 -277.5168 
L 237.045008 -277.5168 
L 235.414949 -277.5168 
L 233.78489 -277.5168 
L 232.154831 -277.5168 
L 230.524772 -277.5168 
L 228.894713 -277.5168 
L 227.264654 -277.5168 
L 225.634595 -277.5168 
L 224.004536 -277.5168 
L 222.374477 -277.5168 
L 220.744418 -277.5168 
L 219.114359 -277.5168 
L 217.4843 -277.5168 
L 215.854241 -277.5168 
L 214.224182 -277.5168 
L 212.594123 -277.5168 
L 210.964064 -277.5168 
L 209.334005 -277.5168 
L 207.703946 -277.5168 
L 206.073886 -277.5168 
L 204.443827 -277.5168 
L 202.813768 -277.5168 
L 201.183709 -277.5168 
L 199.55365 -277.5168 
L 197.923591 -277.5168 
L 196.293532 -277.5168 
L 194.663473 -277.5168 
L 193.033414 -277.5168 
L 191.403355 -277.5168 
L 189.773296 -277.5168 
L 188.143237 -277.5168 
L 186.513178 -277.5168 
L 184.883119 -277.5168 
L 183.25306 -277.5168 
L 181.623001 -277.5168 
L 179.992942 -277.5168 
L 178.362883 -277.5168 
L 176.732824 -277.5168 
L 175.102765 -277.5168 
L 173.472705 -277.5168 
L 171.842646 -277.5168 
L 170.212587 -277.5168 
L 168.582528 -277.5168 
L 166.952469 -277.5168 
L 165.32241 -277.5168 
L 163.692351 -277.5168 
L 162.062292 -277.5168 
L 160.432233 -277.5168 
L 158.802174 -277.5168 
z
" id="m20be50b720"/>
    </defs>
    <g clip-path="url(#p942b6125cd)">
     <use style="fill:#3274a1;" x="0" xlink:href="#m20be50b720" y="345.6"/>
    </g>
   </g>
   <g id="PolyCollection_2">
    <defs>
     <path d="M 163.288804 -268.497056 
L 163.288804 -277.5168 
L 164.869153 -277.5168 
L 166.449503 -277.5168 
L 168.029852 -277.5168 
L 169.610201 -277.5168 
L 171.190551 -277.5168 
L 172.7709 -277.5168 
L 174.35125 -277.5168 
L 175.931599 -277.5168 
L 177.511949 -277.5168 
L 179.092298 -277.5168 
L 180.672647 -277.5168 
L 182.252997 -277.5168 
L 183.833346 -277.5168 
L 185.413696 -277.5168 
L 186.994045 -277.5168 
L 188.574394 -277.5168 
L 190.154744 -277.5168 
L 191.735093 -277.5168 
L 193.315443 -277.5168 
L 194.895792 -277.5168 
L 196.476141 -277.5168 
L 198.056491 -277.5168 
L 199.63684 -277.5168 
L 201.21719 -277.5168 
L 202.797539 -277.5168 
L 204.377888 -277.5168 
L 205.958238 -277.5168 
L 207.538587 -277.5168 
L 209.118937 -277.5168 
L 210.699286 -277.5168 
L 212.279636 -277.5168 
L 213.859985 -277.5168 
L 215.440334 -277.5168 
L 217.020684 -277.5168 
L 218.601033 -277.5168 
L 220.181383 -277.5168 
L 221.761732 -277.5168 
L 223.342081 -277.5168 
L 224.922431 -277.5168 
L 226.50278 -277.5168 
L 228.08313 -277.5168 
L 229.663479 -277.5168 
L 231.243828 -277.5168 
L 232.824178 -277.5168 
L 234.404527 -277.5168 
L 235.984877 -277.5168 
L 237.565226 -277.5168 
L 239.145575 -277.5168 
L 240.725925 -277.5168 
L 242.306274 -277.5168 
L 243.886624 -277.5168 
L 245.466973 -277.5168 
L 247.047322 -277.5168 
L 248.627672 -277.5168 
L 250.208021 -277.5168 
L 251.788371 -277.5168 
L 253.36872 -277.5168 
L 254.94907 -277.5168 
L 256.529419 -277.5168 
L 258.109768 -277.5168 
L 259.690118 -277.5168 
L 261.270467 -277.5168 
L 262.850817 -277.5168 
L 264.431166 -277.5168 
L 266.011515 -277.5168 
L 267.591865 -277.5168 
L 269.172214 -277.5168 
L 270.752564 -277.5168 
L 272.332913 -277.5168 
L 273.913262 -277.5168 
L 275.493612 -277.5168 
L 277.073961 -277.5168 
L 278.654311 -277.5168 
L 280.23466 -277.5168 
L 281.815009 -277.5168 
L 283.395359 -277.5168 
L 284.975708 -277.5168 
L 286.556058 -277.5168 
L 288.136407 -277.5168 
L 289.716756 -277.5168 
L 291.297106 -277.5168 
L 292.877455 -277.5168 
L 294.457805 -277.5168 
L 296.038154 -277.5168 
L 297.618504 -277.5168 
L 299.198853 -277.5168 
L 300.779202 -277.5168 
L 302.359552 -277.5168 
L 303.939901 -277.5168 
L 305.520251 -277.5168 
L 307.1006 -277.5168 
L 308.680949 -277.5168 
L 310.261299 -277.5168 
L 311.841648 -277.5168 
L 313.421998 -277.5168 
L 315.002347 -277.5168 
L 316.582696 -277.5168 
L 318.163046 -277.5168 
L 319.743395 -277.5168 
L 319.743395 -274.125857 
L 319.743395 -274.125857 
L 318.163046 -273.941023 
L 316.582696 -273.758046 
L 315.002347 -273.576988 
L 313.421998 -273.397664 
L 311.841648 -273.219657 
L 310.261299 -273.042327 
L 308.680949 -272.864846 
L 307.1006 -272.686239 
L 305.520251 -272.505439 
L 303.939901 -272.321345 
L 302.359552 -272.132891 
L 300.779202 -271.939124 
L 299.198853 -271.739265 
L 297.618504 -271.532787 
L 296.038154 -271.319466 
L 294.457805 -271.099438 
L 292.877455 -270.873228 
L 291.297106 -270.641768 
L 289.716756 -270.406402 
L 288.136407 -270.168859 
L 286.556058 -269.931214 
L 284.975708 -269.695832 
L 283.395359 -269.465284 
L 281.815009 -269.242263 
L 280.23466 -269.029474 
L 278.654311 -268.82953 
L 277.073961 -268.644836 
L 275.493612 -268.477478 
L 273.913262 -268.329121 
L 272.332913 -268.200915 
L 270.752564 -268.093417 
L 269.172214 -268.00653 
L 267.591865 -267.939467 
L 266.011515 -267.890733 
L 264.431166 -267.858127 
L 262.850817 -267.838779 
L 261.270467 -267.829191 
L 259.690118 -267.825316 
L 258.109768 -267.822639 
L 256.529419 -267.816282 
L 254.94907 -267.80112 
L 253.36872 -267.771899 
L 251.788371 -267.723364 
L 250.208021 -267.650393 
L 248.627672 -267.548121 
L 247.047322 -267.412072 
L 245.466973 -267.238277 
L 243.886624 -267.023394 
L 242.306274 -266.764808 
L 240.725925 -266.460737 
L 239.145575 -266.110311 
L 237.565226 -265.713644 
L 235.984877 -265.271889 
L 234.404527 -264.787278 
L 232.824178 -264.263133 
L 231.243828 -263.703864 
L 229.663479 -263.114931 
L 228.08313 -262.502788 
L 226.50278 -261.874792 
L 224.922431 -261.239084 
L 223.342081 -260.604441 
L 221.761732 -259.980101 
L 220.181383 -259.37556 
L 218.601033 -258.800357 
L 217.020684 -258.263833 
L 215.440334 -257.774899 
L 213.859985 -257.341786 
L 212.279636 -256.971829 
L 210.699286 -256.671249 
L 209.118937 -256.444978 
L 207.538587 -256.296518 
L 205.958238 -256.22784 
L 204.377888 -256.239342 
L 202.797539 -256.329851 
L 201.21719 -256.496687 
L 199.63684 -256.735772 
L 198.056491 -257.041793 
L 196.476141 -257.408408 
L 194.895792 -257.828475 
L 193.315443 -258.29432 
L 191.735093 -258.797995 
L 190.154744 -259.331558 
L 188.574394 -259.88732 
L 186.994045 -260.458082 
L 185.413696 -261.037326 
L 183.833346 -261.619381 
L 182.252997 -262.19952 
L 180.672647 -262.774028 
L 179.092298 -263.340206 
L 177.511949 -263.896334 
L 175.931599 -264.441587 
L 174.35125 -264.975917 
L 172.7709 -265.499908 
L 171.190551 -266.014612 
L 169.610201 -266.521376 
L 168.029852 -267.02167 
L 166.449503 -267.516927 
L 164.869153 -268.008403 
L 163.288804 -268.497056 
z
" id="m2c33ebb8b2"/>
    </defs>
    <g clip-path="url(#p942b6125cd)">
     <use style="fill:#e1812c;" x="0" xlink:href="#m2c33ebb8b2" y="345.6"/>
    </g>
   </g>
   <g id="PolyCollection_3">
    <defs>
     <path d="M 157.626548 -224.2944 
L 157.626548 -244.408434 
L 159.477913 -244.892212 
L 161.329279 -245.252007 
L 163.180644 -245.483049 
L 165.03201 -245.58336 
L 166.883375 -245.553816 
L 168.73474 -245.398111 
L 170.586106 -245.122624 
L 172.437471 -244.736194 
L 174.288837 -244.249819 
L 176.140202 -243.676295 
L 177.991568 -243.029801 
L 179.842933 -242.325461 
L 181.694299 -241.578894 
L 183.545664 -240.805773 
L 185.39703 -240.021405 
L 187.248395 -239.240354 
L 189.099761 -238.476103 
L 190.951126 -237.740781 
L 192.802492 -237.04494 
L 194.653857 -236.397399 
L 196.505223 -235.805146 
L 198.356588 -235.273295 
L 200.207954 -234.805094 
L 202.059319 -234.401976 
L 203.910685 -234.063654 
L 205.76205 -233.788247 
L 207.613415 -233.572425 
L 209.464781 -233.411589 
L 211.316146 -233.300053 
L 213.167512 -233.23125 
L 215.018877 -233.19794 
L 216.870243 -233.192427 
L 218.721608 -233.206772 
L 220.572974 -233.233009 
L 222.424339 -233.263355 
L 224.275705 -233.290407 
L 226.12707 -233.307326 
L 227.978436 -233.308003 
L 229.829801 -233.287197 
L 231.681167 -233.240652 
L 233.532532 -233.165176 
L 235.383898 -233.05869 
L 237.235263 -232.920239 
L 239.086629 -232.749965 
L 240.937994 -232.549055 
L 242.78936 -232.319641 
L 244.640725 -232.064689 
L 246.492091 -231.787852 
L 248.343456 -231.493315 
L 250.194821 -231.185627 
L 252.046187 -230.86953 
L 253.897552 -230.549792 
L 255.748918 -230.231054 
L 257.600283 -229.917687 
L 259.451649 -229.613676 
L 261.303014 -229.322517 
L 263.15438 -229.04715 
L 265.005745 -228.789911 
L 266.857111 -228.552511 
L 268.708476 -228.336036 
L 270.559842 -228.14097 
L 272.411207 -227.967236 
L 274.262573 -227.814248 
L 276.113938 -227.680976 
L 277.965304 -227.566018 
L 279.816669 -227.467678 
L 281.668035 -227.384037 
L 283.5194 -227.313036 
L 285.370766 -227.25254 
L 287.222131 -227.200411 
L 289.073496 -227.154563 
L 290.924862 -227.113019 
L 292.776227 -227.073953 
L 294.627593 -227.035728 
L 296.478958 -226.996922 
L 298.330324 -226.956349 
L 300.181689 -226.913068 
L 302.033055 -226.866389 
L 303.88442 -226.815862 
L 305.735786 -226.761267 
L 307.587151 -226.702595 
L 309.438517 -226.640024 
L 311.289882 -226.573885 
L 313.141248 -226.504634 
L 314.992613 -226.432814 
L 316.843979 -226.359022 
L 318.695344 -226.283877 
L 320.54671 -226.207982 
L 322.398075 -226.131906 
L 324.249441 -226.056153 
L 326.100806 -225.981154 
L 327.952171 -225.907247 
L 329.803537 -225.834681 
L 331.654902 -225.763614 
L 333.506268 -225.69412 
L 335.357633 -225.626202 
L 337.208999 -225.559807 
L 339.060364 -225.49484 
L 340.91173 -225.431187 
L 340.91173 -224.2944 
L 340.91173 -224.2944 
L 339.060364 -224.2944 
L 337.208999 -224.2944 
L 335.357633 -224.2944 
L 333.506268 -224.2944 
L 331.654902 -224.2944 
L 329.803537 -224.2944 
L 327.952171 -224.2944 
L 326.100806 -224.2944 
L 324.249441 -224.2944 
L 322.398075 -224.2944 
L 320.54671 -224.2944 
L 318.695344 -224.2944 
L 316.843979 -224.2944 
L 314.992613 -224.2944 
L 313.141248 -224.2944 
L 311.289882 -224.2944 
L 309.438517 -224.2944 
L 307.587151 -224.2944 
L 305.735786 -224.2944 
L 303.88442 -224.2944 
L 302.033055 -224.2944 
L 300.181689 -224.2944 
L 298.330324 -224.2944 
L 296.478958 -224.2944 
L 294.627593 -224.2944 
L 292.776227 -224.2944 
L 290.924862 -224.2944 
L 289.073496 -224.2944 
L 287.222131 -224.2944 
L 285.370766 -224.2944 
L 283.5194 -224.2944 
L 281.668035 -224.2944 
L 279.816669 -224.2944 
L 277.965304 -224.2944 
L 276.113938 -224.2944 
L 274.262573 -224.2944 
L 272.411207 -224.2944 
L 270.559842 -224.2944 
L 268.708476 -224.2944 
L 266.857111 -224.2944 
L 265.005745 -224.2944 
L 263.15438 -224.2944 
L 261.303014 -224.2944 
L 259.451649 -224.2944 
L 257.600283 -224.2944 
L 255.748918 -224.2944 
L 253.897552 -224.2944 
L 252.046187 -224.2944 
L 250.194821 -224.2944 
L 248.343456 -224.2944 
L 246.492091 -224.2944 
L 244.640725 -224.2944 
L 242.78936 -224.2944 
L 240.937994 -224.2944 
L 239.086629 -224.2944 
L 237.235263 -224.2944 
L 235.383898 -224.2944 
L 233.532532 -224.2944 
L 231.681167 -224.2944 
L 229.829801 -224.2944 
L 227.978436 -224.2944 
L 226.12707 -224.2944 
L 224.275705 -224.2944 
L 222.424339 -224.2944 
L 220.572974 -224.2944 
L 218.721608 -224.2944 
L 216.870243 -224.2944 
L 215.018877 -224.2944 
L 213.167512 -224.2944 
L 211.316146 -224.2944 
L 209.464781 -224.2944 
L 207.613415 -224.2944 
L 205.76205 -224.2944 
L 203.910685 -224.2944 
L 202.059319 -224.2944 
L 200.207954 -224.2944 
L 198.356588 -224.2944 
L 196.505223 -224.2944 
L 194.653857 -224.2944 
L 192.802492 -224.2944 
L 190.951126 -224.2944 
L 189.099761 -224.2944 
L 187.248395 -224.2944 
L 185.39703 -224.2944 
L 183.545664 -224.2944 
L 181.694299 -224.2944 
L 179.842933 -224.2944 
L 177.991568 -224.2944 
L 176.140202 -224.2944 
L 174.288837 -224.2944 
L 172.437471 -224.2944 
L 170.586106 -224.2944 
L 168.73474 -224.2944 
L 166.883375 -224.2944 
L 165.03201 -224.2944 
L 163.180644 -224.2944 
L 161.329279 -224.2944 
L 159.477913 -224.2944 
L 157.626548 -224.2944 
z
" id="m212db57f78"/>
    </defs>
    <g clip-path="url(#p942b6125cd)">
     <use style="fill:#3274a1;" x="0" xlink:href="#m212db57f78" y="345.6"/>
    </g>
   </g>
   <g id="PolyCollection_4">
    <defs>
     <path d="M 159.566874 -214.333822 
L 159.566874 -224.2944 
L 161.550068 -224.2944 
L 163.533261 -224.2944 
L 165.516455 -224.2944 
L 167.499648 -224.2944 
L 169.482842 -224.2944 
L 171.466036 -224.2944 
L 173.449229 -224.2944 
L 175.432423 -224.2944 
L 177.415616 -224.2944 
L 179.39881 -224.2944 
L 181.382004 -224.2944 
L 183.365197 -224.2944 
L 185.348391 -224.2944 
L 187.331584 -224.2944 
L 189.314778 -224.2944 
L 191.297972 -224.2944 
L 193.281165 -224.2944 
L 195.264359 -224.2944 
L 197.247553 -224.2944 
L 199.230746 -224.2944 
L 201.21394 -224.2944 
L 203.197133 -224.2944 
L 205.180327 -224.2944 
L 207.163521 -224.2944 
L 209.146714 -224.2944 
L 211.129908 -224.2944 
L 213.113101 -224.2944 
L 215.096295 -224.2944 
L 217.079489 -224.2944 
L 219.062682 -224.2944 
L 221.045876 -224.2944 
L 223.029069 -224.2944 
L 225.012263 -224.2944 
L 226.995457 -224.2944 
L 228.97865 -224.2944 
L 230.961844 -224.2944 
L 232.945038 -224.2944 
L 234.928231 -224.2944 
L 236.911425 -224.2944 
L 238.894618 -224.2944 
L 240.877812 -224.2944 
L 242.861006 -224.2944 
L 244.844199 -224.2944 
L 246.827393 -224.2944 
L 248.810586 -224.2944 
L 250.79378 -224.2944 
L 252.776974 -224.2944 
L 254.760167 -224.2944 
L 256.743361 -224.2944 
L 258.726555 -224.2944 
L 260.709748 -224.2944 
L 262.692942 -224.2944 
L 264.676135 -224.2944 
L 266.659329 -224.2944 
L 268.642523 -224.2944 
L 270.625716 -224.2944 
L 272.60891 -224.2944 
L 274.592103 -224.2944 
L 276.575297 -224.2944 
L 278.558491 -224.2944 
L 280.541684 -224.2944 
L 282.524878 -224.2944 
L 284.508071 -224.2944 
L 286.491265 -224.2944 
L 288.474459 -224.2944 
L 290.457652 -224.2944 
L 292.440846 -224.2944 
L 294.42404 -224.2944 
L 296.407233 -224.2944 
L 298.390427 -224.2944 
L 300.37362 -224.2944 
L 302.356814 -224.2944 
L 304.340008 -224.2944 
L 306.323201 -224.2944 
L 308.306395 -224.2944 
L 310.289588 -224.2944 
L 312.272782 -224.2944 
L 314.255976 -224.2944 
L 316.239169 -224.2944 
L 318.222363 -224.2944 
L 320.205556 -224.2944 
L 322.18875 -224.2944 
L 324.171944 -224.2944 
L 326.155137 -224.2944 
L 328.138331 -224.2944 
L 330.121525 -224.2944 
L 332.104718 -224.2944 
L 334.087912 -224.2944 
L 336.071105 -224.2944 
L 338.054299 -224.2944 
L 340.037493 -224.2944 
L 342.020686 -224.2944 
L 344.00388 -224.2944 
L 345.987073 -224.2944 
L 347.970267 -224.2944 
L 349.953461 -224.2944 
L 351.936654 -224.2944 
L 353.919848 -224.2944 
L 355.903041 -224.2944 
L 355.903041 -223.538602 
L 355.903041 -223.538602 
L 353.919848 -223.539506 
L 351.936654 -223.546393 
L 349.953461 -223.558661 
L 347.970267 -223.575449 
L 345.987073 -223.595638 
L 344.00388 -223.617864 
L 342.020686 -223.640534 
L 340.037493 -223.66184 
L 338.054299 -223.679781 
L 336.071105 -223.692183 
L 334.087912 -223.696717 
L 332.104718 -223.690917 
L 330.121525 -223.672205 
L 328.138331 -223.637909 
L 326.155137 -223.585293 
L 324.171944 -223.511583 
L 322.18875 -223.414007 
L 320.205556 -223.289844 
L 318.222363 -223.136478 
L 316.239169 -222.95147 
L 314.255976 -222.73263 
L 312.272782 -222.478113 
L 310.289588 -222.186509 
L 308.306395 -221.856946 
L 306.323201 -221.489186 
L 304.340008 -221.083722 
L 302.356814 -220.641856 
L 300.37362 -220.165768 
L 298.390427 -219.658558 
L 296.407233 -219.124256 
L 294.42404 -218.56781 
L 292.440846 -217.995027 
L 290.457652 -217.412487 
L 288.474459 -216.827414 
L 286.491265 -216.247517 
L 284.508071 -215.680805 
L 282.524878 -215.135368 
L 280.541684 -214.619153 
L 278.558491 -214.139727 
L 276.575297 -213.704043 
L 274.592103 -213.318215 
L 272.60891 -212.987317 
L 270.625716 -212.715202 
L 268.642523 -212.504363 
L 266.659329 -212.355828 
L 264.676135 -212.2691 
L 262.692942 -212.242143 
L 260.709748 -212.27141 
L 258.726555 -212.351923 
L 256.743361 -212.477385 
L 254.760167 -212.640336 
L 252.776974 -212.832349 
L 250.79378 -213.044242 
L 248.810586 -213.266326 
L 246.827393 -213.488666 
L 244.844199 -213.701351 
L 242.861006 -213.894772 
L 240.877812 -214.059894 
L 238.894618 -214.18852 
L 236.911425 -214.273529 
L 234.928231 -214.30909 
L 232.945038 -214.290843 
L 230.961844 -214.21603 
L 228.97865 -214.083581 
L 226.995457 -213.894143 
L 225.012263 -213.650055 
L 223.029069 -213.355262 
L 221.045876 -213.015177 
L 219.062682 -212.636496 
L 217.079489 -212.226968 
L 215.096295 -211.795134 
L 213.113101 -211.350054 
L 211.129908 -210.901022 
L 209.146714 -210.457292 
L 207.163521 -210.02783 
L 205.180327 -209.621091 
L 203.197133 -209.244839 
L 201.21394 -208.906025 
L 199.230746 -208.610693 
L 197.247553 -208.363955 
L 195.264359 -208.169995 
L 193.281165 -208.032111 
L 191.297972 -207.952786 
L 189.314778 -207.933763 
L 187.331584 -207.976129 
L 185.348391 -208.08039 
L 183.365197 -208.246525 
L 181.382004 -208.474019 
L 179.39881 -208.761871 
L 177.415616 -209.108583 
L 175.432423 -209.512117 
L 173.449229 -209.969858 
L 171.466036 -210.478557 
L 169.482842 -211.034296 
L 167.499648 -211.632459 
L 165.516455 -212.267738 
L 163.533261 -212.93417 
L 161.550068 -213.625206 
L 159.566874 -214.333822 
z
" id="mbfac75b850"/>
    </defs>
    <g clip-path="url(#p942b6125cd)">
     <use style="fill:#e1812c;" x="0" xlink:href="#mbfac75b850" y="345.6"/>
    </g>
   </g>
   <g id="PolyCollection_5">
    <defs>
     <path d="M 159.409003 -171.072 
L 159.409003 -191.349245 
L 161.562947 -191.898759 
L 163.716891 -192.23876 
L 165.870836 -192.36096 
L 168.02478 -192.264264 
L 170.178724 -191.954829 
L 172.332669 -191.445755 
L 174.486613 -190.756432 
L 176.640557 -189.911609 
L 178.794502 -188.940248 
L 180.948446 -187.874245 
L 183.10239 -186.74711 
L 185.256335 -185.59266 
L 187.410279 -184.443827 
L 189.564223 -183.33159 
L 191.718168 -182.284096 
L 193.872112 -181.325962 
L 196.026056 -180.477762 
L 198.180001 -179.755695 
L 200.333945 -179.171385 
L 202.487889 -178.731826 
L 204.641834 -178.439407 
L 206.795778 -178.292044 
L 208.949722 -178.283364 
L 211.103667 -178.402976 
L 213.257611 -178.636807 
L 215.411555 -178.967521 
L 217.5655 -179.375027 
L 219.719444 -179.837083 
L 221.873388 -180.329987 
L 224.027333 -180.829355 
L 226.181277 -181.310962 
L 228.335221 -181.75161 
L 230.489165 -182.129988 
L 232.64311 -182.427484 
L 234.797054 -182.628885 
L 236.950998 -182.722942 
L 239.104943 -182.702743 
L 241.258887 -182.565882 
L 243.412831 -182.314399 
L 245.566776 -181.95451 
L 247.72072 -181.49613 
L 249.874664 -180.952239 
L 252.028609 -180.338119 
L 254.182553 -179.670533 
L 256.336497 -178.966878 
L 258.490442 -178.244384 
L 260.644386 -177.519392 
L 262.79833 -176.80675 
L 264.952275 -176.119353 
L 267.106219 -175.467837 
L 269.260163 -174.860426 
L 271.414108 -174.302918 
L 273.568052 -173.798805 
L 275.721996 -173.349476 
L 277.875941 -172.954501 
L 280.029885 -172.611957 
L 282.183829 -172.318761 
L 284.337774 -172.071008 
L 286.491718 -171.864275 
L 288.645662 -171.693896 
L 290.799607 -171.555186 
L 292.953551 -171.443622 
L 295.107495 -171.354972 
L 297.26144 -171.28539 
L 299.415384 -171.231459 
L 301.569328 -171.19022 
L 303.723273 -171.159161 
L 305.877217 -171.136198 
L 308.031161 -171.119645 
L 310.185106 -171.10817 
L 312.33905 -171.100758 
L 314.492994 -171.096666 
L 316.646939 -171.095385 
L 318.800883 -171.096607 
L 320.954827 -171.100186 
L 323.108772 -171.106113 
L 325.262716 -171.114487 
L 327.41666 -171.125484 
L 329.570605 -171.139334 
L 331.724549 -171.156293 
L 333.878493 -171.17661 
L 336.032438 -171.200501 
L 338.186382 -171.228117 
L 340.340326 -171.259511 
L 342.494271 -171.294612 
L 344.648215 -171.333198 
L 346.802159 -171.374879 
L 348.956104 -171.419083 
L 351.110048 -171.46506 
L 353.263992 -171.511887 
L 355.417936 -171.558496 
L 357.571881 -171.603707 
L 359.725825 -171.646275 
L 361.879769 -171.684945 
L 364.033714 -171.718514 
L 366.187658 -171.745889 
L 368.341602 -171.766149 
L 370.495547 -171.778596 
L 372.649491 -171.782795 
L 372.649491 -171.072 
L 372.649491 -171.072 
L 370.495547 -171.072 
L 368.341602 -171.072 
L 366.187658 -171.072 
L 364.033714 -171.072 
L 361.879769 -171.072 
L 359.725825 -171.072 
L 357.571881 -171.072 
L 355.417936 -171.072 
L 353.263992 -171.072 
L 351.110048 -171.072 
L 348.956104 -171.072 
L 346.802159 -171.072 
L 344.648215 -171.072 
L 342.494271 -171.072 
L 340.340326 -171.072 
L 338.186382 -171.072 
L 336.032438 -171.072 
L 333.878493 -171.072 
L 331.724549 -171.072 
L 329.570605 -171.072 
L 327.41666 -171.072 
L 325.262716 -171.072 
L 323.108772 -171.072 
L 320.954827 -171.072 
L 318.800883 -171.072 
L 316.646939 -171.072 
L 314.492994 -171.072 
L 312.33905 -171.072 
L 310.185106 -171.072 
L 308.031161 -171.072 
L 305.877217 -171.072 
L 303.723273 -171.072 
L 301.569328 -171.072 
L 299.415384 -171.072 
L 297.26144 -171.072 
L 295.107495 -171.072 
L 292.953551 -171.072 
L 290.799607 -171.072 
L 288.645662 -171.072 
L 286.491718 -171.072 
L 284.337774 -171.072 
L 282.183829 -171.072 
L 280.029885 -171.072 
L 277.875941 -171.072 
L 275.721996 -171.072 
L 273.568052 -171.072 
L 271.414108 -171.072 
L 269.260163 -171.072 
L 267.106219 -171.072 
L 264.952275 -171.072 
L 262.79833 -171.072 
L 260.644386 -171.072 
L 258.490442 -171.072 
L 256.336497 -171.072 
L 254.182553 -171.072 
L 252.028609 -171.072 
L 249.874664 -171.072 
L 247.72072 -171.072 
L 245.566776 -171.072 
L 243.412831 -171.072 
L 241.258887 -171.072 
L 239.104943 -171.072 
L 236.950998 -171.072 
L 234.797054 -171.072 
L 232.64311 -171.072 
L 230.489165 -171.072 
L 228.335221 -171.072 
L 226.181277 -171.072 
L 224.027333 -171.072 
L 221.873388 -171.072 
L 219.719444 -171.072 
L 217.5655 -171.072 
L 215.411555 -171.072 
L 213.257611 -171.072 
L 211.103667 -171.072 
L 208.949722 -171.072 
L 206.795778 -171.072 
L 204.641834 -171.072 
L 202.487889 -171.072 
L 200.333945 -171.072 
L 198.180001 -171.072 
L 196.026056 -171.072 
L 193.872112 -171.072 
L 191.718168 -171.072 
L 189.564223 -171.072 
L 187.410279 -171.072 
L 185.256335 -171.072 
L 183.10239 -171.072 
L 180.948446 -171.072 
L 178.794502 -171.072 
L 176.640557 -171.072 
L 174.486613 -171.072 
L 172.332669 -171.072 
L 170.178724 -171.072 
L 168.02478 -171.072 
L 165.870836 -171.072 
L 163.716891 -171.072 
L 161.562947 -171.072 
L 159.409003 -171.072 
z
" id="m22c3831e08"/>
    </defs>
    <g clip-path="url(#p942b6125cd)">
     <use style="fill:#3274a1;" x="0" xlink:href="#m22c3831e08" y="345.6"/>
    </g>
   </g>
   <g id="PolyCollection_6">
    <defs>
     <path d="M 161.444868 -165.085398 
L 161.444868 -171.072 
L 163.35022 -171.072 
L 165.255573 -171.072 
L 167.160926 -171.072 
L 169.066279 -171.072 
L 170.971631 -171.072 
L 172.876984 -171.072 
L 174.782337 -171.072 
L 176.68769 -171.072 
L 178.593042 -171.072 
L 180.498395 -171.072 
L 182.403748 -171.072 
L 184.309101 -171.072 
L 186.214453 -171.072 
L 188.119806 -171.072 
L 190.025159 -171.072 
L 191.930512 -171.072 
L 193.835864 -171.072 
L 195.741217 -171.072 
L 197.64657 -171.072 
L 199.551923 -171.072 
L 201.457275 -171.072 
L 203.362628 -171.072 
L 205.267981 -171.072 
L 207.173334 -171.072 
L 209.078686 -171.072 
L 210.984039 -171.072 
L 212.889392 -171.072 
L 214.794745 -171.072 
L 216.700097 -171.072 
L 218.60545 -171.072 
L 220.510803 -171.072 
L 222.416156 -171.072 
L 224.321508 -171.072 
L 226.226861 -171.072 
L 228.132214 -171.072 
L 230.037567 -171.072 
L 231.942919 -171.072 
L 233.848272 -171.072 
L 235.753625 -171.072 
L 237.658978 -171.072 
L 239.56433 -171.072 
L 241.469683 -171.072 
L 243.375036 -171.072 
L 245.280389 -171.072 
L 247.185741 -171.072 
L 249.091094 -171.072 
L 250.996447 -171.072 
L 252.9018 -171.072 
L 254.807152 -171.072 
L 256.712505 -171.072 
L 258.617858 -171.072 
L 260.523211 -171.072 
L 262.428563 -171.072 
L 264.333916 -171.072 
L 266.239269 -171.072 
L 268.144622 -171.072 
L 270.049974 -171.072 
L 271.955327 -171.072 
L 273.86068 -171.072 
L 275.766033 -171.072 
L 277.671385 -171.072 
L 279.576738 -171.072 
L 281.482091 -171.072 
L 283.387444 -171.072 
L 285.292796 -171.072 
L 287.198149 -171.072 
L 289.103502 -171.072 
L 291.008855 -171.072 
L 292.914207 -171.072 
L 294.81956 -171.072 
L 296.724913 -171.072 
L 298.630266 -171.072 
L 300.535618 -171.072 
L 302.440971 -171.072 
L 304.346324 -171.072 
L 306.251677 -171.072 
L 308.157029 -171.072 
L 310.062382 -171.072 
L 311.967735 -171.072 
L 313.873088 -171.072 
L 315.77844 -171.072 
L 317.683793 -171.072 
L 319.589146 -171.072 
L 321.494499 -171.072 
L 323.399851 -171.072 
L 325.305204 -171.072 
L 327.210557 -171.072 
L 329.11591 -171.072 
L 331.021262 -171.072 
L 332.926615 -171.072 
L 334.831968 -171.072 
L 336.737321 -171.072 
L 338.642673 -171.072 
L 340.548026 -171.072 
L 342.453379 -171.072 
L 344.358732 -171.072 
L 346.264084 -171.072 
L 348.169437 -171.072 
L 350.07479 -171.072 
L 350.07479 -170.179465 
L 350.07479 -170.179465 
L 348.169437 -170.139896 
L 346.264084 -170.099013 
L 344.358732 -170.055676 
L 342.453379 -170.008582 
L 340.548026 -169.956296 
L 338.642673 -169.897291 
L 336.737321 -169.829997 
L 334.831968 -169.75284 
L 332.926615 -169.664291 
L 331.021262 -169.562903 
L 329.11591 -169.447344 
L 327.210557 -169.316426 
L 325.305204 -169.169124 
L 323.399851 -169.004589 
L 321.494499 -168.82215 
L 319.589146 -168.621321 
L 317.683793 -168.401797 
L 315.77844 -168.163455 
L 313.873088 -167.906353 
L 311.967735 -167.630739 
L 310.062382 -167.337054 
L 308.157029 -167.025955 
L 306.251677 -166.698326 
L 304.346324 -166.355304 
L 302.440971 -165.998297 
L 300.535618 -165.629002 
L 298.630266 -165.249412 
L 296.724913 -164.861817 
L 294.81956 -164.468786 
L 292.914207 -164.073137 
L 291.008855 -163.677889 
L 289.103502 -163.286195 
L 287.198149 -162.901266 
L 285.292796 -162.526284 
L 283.387444 -162.164312 
L 281.482091 -161.818197 
L 279.576738 -161.490493 
L 277.671385 -161.183391 
L 275.766033 -160.898662 
L 273.86068 -160.637634 
L 271.955327 -160.401175 
L 270.049974 -160.189718 
L 268.144622 -160.003283 
L 266.239269 -159.841526 
L 264.333916 -159.703797 
L 262.428563 -159.589184 
L 260.523211 -159.496568 
L 258.617858 -159.424651 
L 256.712505 -159.371973 
L 254.807152 -159.336913 
L 252.9018 -159.317665 
L 250.996447 -159.312206 
L 249.091094 -159.318254 
L 247.185741 -159.333227 
L 245.280389 -159.354217 
L 243.375036 -159.377975 
L 241.469683 -159.400939 
L 239.56433 -159.419289 
L 237.658978 -159.429048 
L 235.753625 -159.426221 
L 233.848272 -159.406969 
L 231.942919 -159.367816 
L 230.037567 -159.305865 
L 228.132214 -159.21902 
L 226.226861 -159.106185 
L 224.321508 -158.967436 
L 222.416156 -158.804143 
L 220.510803 -158.619022 
L 218.60545 -158.416133 
L 216.700097 -158.200784 
L 214.794745 -157.979377 
L 212.889392 -157.759179 
L 210.984039 -157.548044 
L 209.078686 -157.354096 
L 207.173334 -157.18539 
L 205.267981 -157.049577 
L 203.362628 -156.953593 
L 201.457275 -156.903383 
L 199.551923 -156.903681 
L 197.64657 -156.957863 
L 195.741217 -157.067861 
L 193.835864 -157.234159 
L 191.930512 -157.455853 
L 190.025159 -157.730772 
L 188.119806 -158.055649 
L 186.214453 -158.426319 
L 184.309101 -158.837945 
L 182.403748 -159.285234 
L 180.498395 -159.762655 
L 178.593042 -160.264623 
L 176.68769 -160.785662 
L 174.782337 -161.320527 
L 172.876984 -161.864291 
L 170.971631 -162.412397 
L 169.066279 -162.960678 
L 167.160926 -163.50536 
L 165.255573 -164.043034 
L 163.35022 -164.570633 
L 161.444868 -165.085398 
z
" id="mbd41c2aea3"/>
    </defs>
    <g clip-path="url(#p942b6125cd)">
     <use style="fill:#e1812c;" x="0" xlink:href="#mbd41c2aea3" y="345.6"/>
    </g>
   </g>
   <g id="PolyCollection_7">
    <defs>
     <path d="M 156.930602 -117.8496 
L 156.930602 -138.157524 
L 158.623065 -138.64014 
L 160.315529 -138.96853 
L 162.007992 -139.135729 
L 163.700456 -139.13856 
L 165.39292 -138.977753 
L 167.085383 -138.65791 
L 168.777847 -138.187325 
L 170.47031 -137.577667 
L 172.162774 -136.843549 
L 173.855238 -136.002002 
L 175.547701 -135.07188 
L 177.240165 -134.07324 
L 178.932628 -133.026714 
L 180.625092 -131.952903 
L 182.317556 -130.871826 
L 184.010019 -129.802435 
L 185.702483 -128.762215 
L 187.394947 -127.766869 
L 189.08741 -126.830107 
L 190.779874 -125.963508 
L 192.472337 -125.176478 
L 194.164801 -124.47626 
L 195.857265 -123.868012 
L 197.549728 -123.354913 
L 199.242192 -122.9383 
L 200.934655 -122.617817 
L 202.627119 -122.391561 
L 204.319583 -122.256227 
L 206.012046 -122.207244 
L 207.70451 -122.238894 
L 209.396974 -122.344429 
L 211.089437 -122.51618 
L 212.781901 -122.745664 
L 214.474364 -123.0237 
L 216.166828 -123.340535 
L 217.859292 -123.685986 
L 219.551755 -124.049603 
L 221.244219 -124.420848 
L 222.936682 -124.78929 
L 224.629146 -125.144824 
L 226.32161 -125.477883 
L 228.014073 -125.779658 
L 229.706537 -126.042301 
L 231.399001 -126.259113 
L 233.091464 -126.424693 
L 234.783928 -126.53506 
L 236.476391 -126.587714 
L 238.168855 -126.581659 
L 239.861319 -126.51737 
L 241.553782 -126.396709 
L 243.246246 -126.222799 
L 244.938709 -125.999854 
L 246.631173 -125.732986 
L 248.323637 -125.427984 
L 250.0161 -125.091091 
L 251.708564 -124.728779 
L 253.401028 -124.34754 
L 255.093491 -123.953692 
L 256.785955 -123.553217 
L 258.478418 -123.151627 
L 260.170882 -122.753869 
L 261.863346 -122.364261 
L 263.555809 -121.98646 
L 265.248273 -121.623463 
L 266.940736 -121.277631 
L 268.6332 -120.950732 
L 270.325664 -120.643999 
L 272.018127 -120.358194 
L 273.710591 -120.093685 
L 275.403055 -119.850507 
L 277.095518 -119.628433 
L 278.787982 -119.427029 
L 280.480445 -119.245709 
L 282.172909 -119.083773 
L 283.865373 -118.940439 
L 285.557836 -118.81487 
L 287.2503 -118.706188 
L 288.942763 -118.613486 
L 290.635227 -118.53583 
L 292.327691 -118.472262 
L 294.020154 -118.421796 
L 295.712618 -118.38342 
L 297.405082 -118.35609 
L 299.097545 -118.338726 
L 300.790009 -118.330218 
L 302.482472 -118.329422 
L 304.174936 -118.335167 
L 305.8674 -118.346261 
L 307.559863 -118.361506 
L 309.252327 -118.379705 
L 310.94479 -118.399683 
L 312.637254 -118.420305 
L 314.329718 -118.440491 
L 316.022181 -118.45924 
L 317.714645 -118.475651 
L 319.407109 -118.488937 
L 321.099572 -118.498443 
L 322.792036 -118.503662 
L 324.484499 -118.504236 
L 324.484499 -117.8496 
L 324.484499 -117.8496 
L 322.792036 -117.8496 
L 321.099572 -117.8496 
L 319.407109 -117.8496 
L 317.714645 -117.8496 
L 316.022181 -117.8496 
L 314.329718 -117.8496 
L 312.637254 -117.8496 
L 310.94479 -117.8496 
L 309.252327 -117.8496 
L 307.559863 -117.8496 
L 305.8674 -117.8496 
L 304.174936 -117.8496 
L 302.482472 -117.8496 
L 300.790009 -117.8496 
L 299.097545 -117.8496 
L 297.405082 -117.8496 
L 295.712618 -117.8496 
L 294.020154 -117.8496 
L 292.327691 -117.8496 
L 290.635227 -117.8496 
L 288.942763 -117.8496 
L 287.2503 -117.8496 
L 285.557836 -117.8496 
L 283.865373 -117.8496 
L 282.172909 -117.8496 
L 280.480445 -117.8496 
L 278.787982 -117.8496 
L 277.095518 -117.8496 
L 275.403055 -117.8496 
L 273.710591 -117.8496 
L 272.018127 -117.8496 
L 270.325664 -117.8496 
L 268.6332 -117.8496 
L 266.940736 -117.8496 
L 265.248273 -117.8496 
L 263.555809 -117.8496 
L 261.863346 -117.8496 
L 260.170882 -117.8496 
L 258.478418 -117.8496 
L 256.785955 -117.8496 
L 255.093491 -117.8496 
L 253.401028 -117.8496 
L 251.708564 -117.8496 
L 250.0161 -117.8496 
L 248.323637 -117.8496 
L 246.631173 -117.8496 
L 244.938709 -117.8496 
L 243.246246 -117.8496 
L 241.553782 -117.8496 
L 239.861319 -117.8496 
L 238.168855 -117.8496 
L 236.476391 -117.8496 
L 234.783928 -117.8496 
L 233.091464 -117.8496 
L 231.399001 -117.8496 
L 229.706537 -117.8496 
L 228.014073 -117.8496 
L 226.32161 -117.8496 
L 224.629146 -117.8496 
L 222.936682 -117.8496 
L 221.244219 -117.8496 
L 219.551755 -117.8496 
L 217.859292 -117.8496 
L 216.166828 -117.8496 
L 214.474364 -117.8496 
L 212.781901 -117.8496 
L 211.089437 -117.8496 
L 209.396974 -117.8496 
L 207.70451 -117.8496 
L 206.012046 -117.8496 
L 204.319583 -117.8496 
L 202.627119 -117.8496 
L 200.934655 -117.8496 
L 199.242192 -117.8496 
L 197.549728 -117.8496 
L 195.857265 -117.8496 
L 194.164801 -117.8496 
L 192.472337 -117.8496 
L 190.779874 -117.8496 
L 189.08741 -117.8496 
L 187.394947 -117.8496 
L 185.702483 -117.8496 
L 184.010019 -117.8496 
L 182.317556 -117.8496 
L 180.625092 -117.8496 
L 178.932628 -117.8496 
L 177.240165 -117.8496 
L 175.547701 -117.8496 
L 173.855238 -117.8496 
L 172.162774 -117.8496 
L 170.47031 -117.8496 
L 168.777847 -117.8496 
L 167.085383 -117.8496 
L 165.39292 -117.8496 
L 163.700456 -117.8496 
L 162.007992 -117.8496 
L 160.315529 -117.8496 
L 158.623065 -117.8496 
L 156.930602 -117.8496 
z
" id="m80d6524b2e"/>
    </defs>
    <g clip-path="url(#p942b6125cd)">
     <use style="fill:#3274a1;" x="0" xlink:href="#m80d6524b2e" y="345.6"/>
    </g>
   </g>
   <g id="PolyCollection_8">
    <defs>
     <path d="M 162.338916 -108.725065 
L 162.338916 -117.8496 
L 164.207447 -117.8496 
L 166.075979 -117.8496 
L 167.94451 -117.8496 
L 169.813042 -117.8496 
L 171.681573 -117.8496 
L 173.550105 -117.8496 
L 175.418636 -117.8496 
L 177.287168 -117.8496 
L 179.155699 -117.8496 
L 181.024231 -117.8496 
L 182.892763 -117.8496 
L 184.761294 -117.8496 
L 186.629826 -117.8496 
L 188.498357 -117.8496 
L 190.366889 -117.8496 
L 192.23542 -117.8496 
L 194.103952 -117.8496 
L 195.972483 -117.8496 
L 197.841015 -117.8496 
L 199.709546 -117.8496 
L 201.578078 -117.8496 
L 203.446609 -117.8496 
L 205.315141 -117.8496 
L 207.183672 -117.8496 
L 209.052204 -117.8496 
L 210.920736 -117.8496 
L 212.789267 -117.8496 
L 214.657799 -117.8496 
L 216.52633 -117.8496 
L 218.394862 -117.8496 
L 220.263393 -117.8496 
L 222.131925 -117.8496 
L 224.000456 -117.8496 
L 225.868988 -117.8496 
L 227.737519 -117.8496 
L 229.606051 -117.8496 
L 231.474582 -117.8496 
L 233.343114 -117.8496 
L 235.211645 -117.8496 
L 237.080177 -117.8496 
L 238.948709 -117.8496 
L 240.81724 -117.8496 
L 242.685772 -117.8496 
L 244.554303 -117.8496 
L 246.422835 -117.8496 
L 248.291366 -117.8496 
L 250.159898 -117.8496 
L 252.028429 -117.8496 
L 253.896961 -117.8496 
L 255.765492 -117.8496 
L 257.634024 -117.8496 
L 259.502555 -117.8496 
L 261.371087 -117.8496 
L 263.239618 -117.8496 
L 265.10815 -117.8496 
L 266.976682 -117.8496 
L 268.845213 -117.8496 
L 270.713745 -117.8496 
L 272.582276 -117.8496 
L 274.450808 -117.8496 
L 276.319339 -117.8496 
L 278.187871 -117.8496 
L 280.056402 -117.8496 
L 281.924934 -117.8496 
L 283.793465 -117.8496 
L 285.661997 -117.8496 
L 287.530528 -117.8496 
L 289.39906 -117.8496 
L 291.267591 -117.8496 
L 293.136123 -117.8496 
L 295.004655 -117.8496 
L 296.873186 -117.8496 
L 298.741718 -117.8496 
L 300.610249 -117.8496 
L 302.478781 -117.8496 
L 304.347312 -117.8496 
L 306.215844 -117.8496 
L 308.084375 -117.8496 
L 309.952907 -117.8496 
L 311.821438 -117.8496 
L 313.68997 -117.8496 
L 315.558501 -117.8496 
L 317.427033 -117.8496 
L 319.295564 -117.8496 
L 321.164096 -117.8496 
L 323.032628 -117.8496 
L 324.901159 -117.8496 
L 326.769691 -117.8496 
L 328.638222 -117.8496 
L 330.506754 -117.8496 
L 332.375285 -117.8496 
L 334.243817 -117.8496 
L 336.112348 -117.8496 
L 337.98088 -117.8496 
L 339.849411 -117.8496 
L 341.717943 -117.8496 
L 343.586474 -117.8496 
L 345.455006 -117.8496 
L 347.323537 -117.8496 
L 347.323537 -117.013419 
L 347.323537 -117.013419 
L 345.455006 -116.972079 
L 343.586474 -116.92995 
L 341.717943 -116.8865 
L 339.849411 -116.841119 
L 337.98088 -116.793134 
L 336.112348 -116.741829 
L 334.243817 -116.686468 
L 332.375285 -116.626318 
L 330.506754 -116.560668 
L 328.638222 -116.488854 
L 326.769691 -116.410274 
L 324.901159 -116.32441 
L 323.032628 -116.230842 
L 321.164096 -116.129258 
L 319.295564 -116.019473 
L 317.427033 -115.901434 
L 315.558501 -115.775231 
L 313.68997 -115.641104 
L 311.821438 -115.499456 
L 309.952907 -115.350851 
L 308.084375 -115.196021 
L 306.215844 -115.035869 
L 304.347312 -114.871459 
L 302.478781 -114.704016 
L 300.610249 -114.534905 
L 298.741718 -114.365609 
L 296.873186 -114.197708 
L 295.004655 -114.032834 
L 293.136123 -113.872632 
L 291.267591 -113.718713 
L 289.39906 -113.572599 
L 287.530528 -113.435668 
L 285.661997 -113.309103 
L 283.793465 -113.193842 
L 281.924934 -113.09053 
L 280.056402 -112.99949 
L 278.187871 -112.920698 
L 276.319339 -112.853766 
L 274.450808 -112.797954 
L 272.582276 -112.752176 
L 270.713745 -112.715028 
L 268.845213 -112.684826 
L 266.976682 -112.659649 
L 265.10815 -112.63738 
L 263.239618 -112.615762 
L 261.371087 -112.592432 
L 259.502555 -112.564972 
L 257.634024 -112.530931 
L 255.765492 -112.487855 
L 253.896961 -112.433301 
L 252.028429 -112.364847 
L 250.159898 -112.280098 
L 248.291366 -112.17669 
L 246.422835 -112.052294 
L 244.554303 -111.904636 
L 242.685772 -111.731519 
L 240.81724 -111.530861 
L 238.948709 -111.300754 
L 237.080177 -111.039538 
L 235.211645 -110.745884 
L 233.343114 -110.418902 
L 231.474582 -110.058252 
L 229.606051 -109.66425 
L 227.737519 -109.23798 
L 225.868988 -108.781383 
L 224.000456 -108.297331 
L 222.131925 -107.78966 
L 220.263393 -107.263175 
L 218.394862 -106.723609 
L 216.52633 -106.177535 
L 214.657799 -105.632242 
L 212.789267 -105.095561 
L 210.920736 -104.575662 
L 209.052204 -104.080827 
L 207.183672 -103.619202 
L 205.315141 -103.198555 
L 203.446609 -102.826038 
L 201.578078 -102.507975 
L 199.709546 -102.249684 
L 197.841015 -102.055335 
L 195.972483 -101.927869 
L 194.103952 -101.868957 
L 192.23542 -101.879016 
L 190.366889 -101.95727 
L 188.498357 -102.101857 
L 186.629826 -102.309962 
L 184.761294 -102.577976 
L 182.892763 -102.901665 
L 181.024231 -103.276341 
L 179.155699 -103.697021 
L 177.287168 -104.158567 
L 175.418636 -104.655807 
L 173.550105 -105.183629 
L 171.681573 -105.737041 
L 169.813042 -106.311213 
L 167.94451 -106.901493 
L 166.075979 -107.503407 
L 164.207447 -108.112649 
L 162.338916 -108.725065 
z
" id="m15afb2d51a"/>
    </defs>
    <g clip-path="url(#p942b6125cd)">
     <use style="fill:#e1812c;" x="0" xlink:href="#m15afb2d51a" y="345.6"/>
    </g>
   </g>
   <g id="PolyCollection_9">
    <defs>
     <path d="M 159.593659 -64.6272 
L 159.593659 -85.142162 
L 161.136069 -85.52862 
L 162.678478 -85.787826 
L 164.220888 -85.91616 
L 165.763298 -85.912661 
L 167.305708 -85.779051 
L 168.848118 -85.519672 
L 170.390527 -85.141332 
L 171.932937 -84.653073 
L 173.475347 -84.065875 
L 175.017757 -83.392302 
L 176.560166 -82.646115 
L 178.102576 -81.84186 
L 179.644986 -80.994461 
L 181.187396 -80.118822 
L 182.729806 -79.229459 
L 184.272215 -78.340179 
L 185.814625 -77.463804 
L 187.357035 -76.611958 
L 188.899445 -75.794914 
L 190.441854 -75.021498 
L 191.984264 -74.299055 
L 193.526674 -73.63346 
L 195.069084 -73.029175 
L 196.611494 -72.489332 
L 198.153903 -72.01585 
L 199.696313 -71.609548 
L 201.238723 -71.270278 
L 202.781133 -70.99704 
L 204.323542 -70.788092 
L 205.865952 -70.641045 
L 207.408362 -70.552935 
L 208.950772 -70.520285 
L 210.493182 -70.539147 
L 212.035591 -70.60513 
L 213.578001 -70.713421 
L 215.120411 -70.858809 
L 216.662821 -71.035702 
L 218.205231 -71.23816 
L 219.74764 -71.459932 
L 221.29005 -71.69452 
L 222.83246 -71.935245 
L 224.37487 -72.175345 
L 225.917279 -72.408084 
L 227.459689 -72.626871 
L 229.002099 -72.825393 
L 230.544509 -72.997755 
L 232.086919 -73.138613 
L 233.629328 -73.243304 
L 235.171738 -73.30796 
L 236.714148 -73.329605 
L 238.256558 -73.306222 
L 239.798967 -73.236806 
L 241.341377 -73.121369 
L 242.883787 -72.960927 
L 244.426197 -72.757453 
L 245.968607 -72.513798 
L 247.511016 -72.233596 
L 249.053426 -71.92114 
L 250.595836 -71.581247 
L 252.138246 -71.219111 
L 253.680655 -70.84016 
L 255.223065 -70.449902 
L 256.765475 -70.053792 
L 258.307885 -69.657099 
L 259.850295 -69.264799 
L 261.392704 -68.881476 
L 262.935114 -68.51125 
L 264.477524 -68.157722 
L 266.019934 -67.823937 
L 267.562344 -67.512371 
L 269.104753 -67.224927 
L 270.647163 -66.962953 
L 272.189573 -66.72727 
L 273.731983 -66.518204 
L 275.274392 -66.335628 
L 276.816802 -66.179016 
L 278.359212 -66.047481 
L 279.901622 -65.939833 
L 281.444032 -65.854621 
L 282.986441 -65.79018 
L 284.528851 -65.744674 
L 286.071261 -65.716137 
L 287.613671 -65.702508 
L 289.15608 -65.701668 
L 290.69849 -65.711471 
L 292.2409 -65.729774 
L 293.78331 -65.754467 
L 295.32572 -65.783503 
L 296.868129 -65.81492 
L 298.410539 -65.846872 
L 299.952949 -65.877647 
L 301.495359 -65.905697 
L 303.037768 -65.92965 
L 304.580178 -65.948334 
L 306.122588 -65.960786 
L 307.664998 -65.966261 
L 309.207408 -65.964241 
L 310.749817 -65.954429 
L 312.292227 -65.93675 
L 312.292227 -64.6272 
L 312.292227 -64.6272 
L 310.749817 -64.6272 
L 309.207408 -64.6272 
L 307.664998 -64.6272 
L 306.122588 -64.6272 
L 304.580178 -64.6272 
L 303.037768 -64.6272 
L 301.495359 -64.6272 
L 299.952949 -64.6272 
L 298.410539 -64.6272 
L 296.868129 -64.6272 
L 295.32572 -64.6272 
L 293.78331 -64.6272 
L 292.2409 -64.6272 
L 290.69849 -64.6272 
L 289.15608 -64.6272 
L 287.613671 -64.6272 
L 286.071261 -64.6272 
L 284.528851 -64.6272 
L 282.986441 -64.6272 
L 281.444032 -64.6272 
L 279.901622 -64.6272 
L 278.359212 -64.6272 
L 276.816802 -64.6272 
L 275.274392 -64.6272 
L 273.731983 -64.6272 
L 272.189573 -64.6272 
L 270.647163 -64.6272 
L 269.104753 -64.6272 
L 267.562344 -64.6272 
L 266.019934 -64.6272 
L 264.477524 -64.6272 
L 262.935114 -64.6272 
L 261.392704 -64.6272 
L 259.850295 -64.6272 
L 258.307885 -64.6272 
L 256.765475 -64.6272 
L 255.223065 -64.6272 
L 253.680655 -64.6272 
L 252.138246 -64.6272 
L 250.595836 -64.6272 
L 249.053426 -64.6272 
L 247.511016 -64.6272 
L 245.968607 -64.6272 
L 244.426197 -64.6272 
L 242.883787 -64.6272 
L 241.341377 -64.6272 
L 239.798967 -64.6272 
L 238.256558 -64.6272 
L 236.714148 -64.6272 
L 235.171738 -64.6272 
L 233.629328 -64.6272 
L 232.086919 -64.6272 
L 230.544509 -64.6272 
L 229.002099 -64.6272 
L 227.459689 -64.6272 
L 225.917279 -64.6272 
L 224.37487 -64.6272 
L 222.83246 -64.6272 
L 221.29005 -64.6272 
L 219.74764 -64.6272 
L 218.205231 -64.6272 
L 216.662821 -64.6272 
L 215.120411 -64.6272 
L 213.578001 -64.6272 
L 212.035591 -64.6272 
L 210.493182 -64.6272 
L 208.950772 -64.6272 
L 207.408362 -64.6272 
L 205.865952 -64.6272 
L 204.323542 -64.6272 
L 202.781133 -64.6272 
L 201.238723 -64.6272 
L 199.696313 -64.6272 
L 198.153903 -64.6272 
L 196.611494 -64.6272 
L 195.069084 -64.6272 
L 193.526674 -64.6272 
L 191.984264 -64.6272 
L 190.441854 -64.6272 
L 188.899445 -64.6272 
L 187.357035 -64.6272 
L 185.814625 -64.6272 
L 184.272215 -64.6272 
L 182.729806 -64.6272 
L 181.187396 -64.6272 
L 179.644986 -64.6272 
L 178.102576 -64.6272 
L 176.560166 -64.6272 
L 175.017757 -64.6272 
L 173.475347 -64.6272 
L 171.932937 -64.6272 
L 170.390527 -64.6272 
L 168.848118 -64.6272 
L 167.305708 -64.6272 
L 165.763298 -64.6272 
L 164.220888 -64.6272 
L 162.678478 -64.6272 
L 161.136069 -64.6272 
L 159.593659 -64.6272 
z
" id="mf1d9cd5e46"/>
    </defs>
    <g clip-path="url(#p942b6125cd)">
     <use style="fill:#3274a1;" x="0" xlink:href="#mf1d9cd5e46" y="345.6"/>
    </g>
   </g>
   <g id="PolyCollection_10">
    <defs>
     <path d="M 164.211552 -54.568349 
L 164.211552 -64.6272 
L 165.739578 -64.6272 
L 167.267603 -64.6272 
L 168.795628 -64.6272 
L 170.323653 -64.6272 
L 171.851679 -64.6272 
L 173.379704 -64.6272 
L 174.907729 -64.6272 
L 176.435754 -64.6272 
L 177.96378 -64.6272 
L 179.491805 -64.6272 
L 181.01983 -64.6272 
L 182.547855 -64.6272 
L 184.075881 -64.6272 
L 185.603906 -64.6272 
L 187.131931 -64.6272 
L 188.659956 -64.6272 
L 190.187982 -64.6272 
L 191.716007 -64.6272 
L 193.244032 -64.6272 
L 194.772057 -64.6272 
L 196.300082 -64.6272 
L 197.828108 -64.6272 
L 199.356133 -64.6272 
L 200.884158 -64.6272 
L 202.412183 -64.6272 
L 203.940209 -64.6272 
L 205.468234 -64.6272 
L 206.996259 -64.6272 
L 208.524284 -64.6272 
L 210.05231 -64.6272 
L 211.580335 -64.6272 
L 213.10836 -64.6272 
L 214.636385 -64.6272 
L 216.164411 -64.6272 
L 217.692436 -64.6272 
L 219.220461 -64.6272 
L 220.748486 -64.6272 
L 222.276512 -64.6272 
L 223.804537 -64.6272 
L 225.332562 -64.6272 
L 226.860587 -64.6272 
L 228.388613 -64.6272 
L 229.916638 -64.6272 
L 231.444663 -64.6272 
L 232.972688 -64.6272 
L 234.500713 -64.6272 
L 236.028739 -64.6272 
L 237.556764 -64.6272 
L 239.084789 -64.6272 
L 240.612814 -64.6272 
L 242.14084 -64.6272 
L 243.668865 -64.6272 
L 245.19689 -64.6272 
L 246.724915 -64.6272 
L 248.252941 -64.6272 
L 249.780966 -64.6272 
L 251.308991 -64.6272 
L 252.837016 -64.6272 
L 254.365042 -64.6272 
L 255.893067 -64.6272 
L 257.421092 -64.6272 
L 258.949117 -64.6272 
L 260.477143 -64.6272 
L 262.005168 -64.6272 
L 263.533193 -64.6272 
L 265.061218 -64.6272 
L 266.589244 -64.6272 
L 268.117269 -64.6272 
L 269.645294 -64.6272 
L 271.173319 -64.6272 
L 272.701344 -64.6272 
L 274.22937 -64.6272 
L 275.757395 -64.6272 
L 277.28542 -64.6272 
L 278.813445 -64.6272 
L 280.341471 -64.6272 
L 281.869496 -64.6272 
L 283.397521 -64.6272 
L 284.925546 -64.6272 
L 286.453572 -64.6272 
L 287.981597 -64.6272 
L 289.509622 -64.6272 
L 291.037647 -64.6272 
L 292.565673 -64.6272 
L 294.093698 -64.6272 
L 295.621723 -64.6272 
L 297.149748 -64.6272 
L 298.677774 -64.6272 
L 300.205799 -64.6272 
L 301.733824 -64.6272 
L 303.261849 -64.6272 
L 304.789874 -64.6272 
L 306.3179 -64.6272 
L 307.845925 -64.6272 
L 309.37395 -64.6272 
L 310.901975 -64.6272 
L 312.430001 -64.6272 
L 313.958026 -64.6272 
L 315.486051 -64.6272 
L 315.486051 -61.661132 
L 315.486051 -61.661132 
L 313.958026 -61.464777 
L 312.430001 -61.264986 
L 310.901975 -61.06255 
L 309.37395 -60.858307 
L 307.845925 -60.65314 
L 306.3179 -60.447968 
L 304.789874 -60.243739 
L 303.261849 -60.041417 
L 301.733824 -59.841972 
L 300.205799 -59.646369 
L 298.677774 -59.455555 
L 297.149748 -59.270446 
L 295.621723 -59.091912 
L 294.093698 -58.920766 
L 292.565673 -58.75775 
L 291.037647 -58.603525 
L 289.509622 -58.458657 
L 287.981597 -58.323611 
L 286.453572 -58.198745 
L 284.925546 -58.084299 
L 283.397521 -57.9804 
L 281.869496 -57.887058 
L 280.341471 -57.804167 
L 278.813445 -57.731512 
L 277.28542 -57.668775 
L 275.757395 -57.615541 
L 274.22937 -57.571309 
L 272.701344 -57.535505 
L 271.173319 -57.507485 
L 269.645294 -57.486555 
L 268.117269 -57.471971 
L 266.589244 -57.462958 
L 265.061218 -57.458705 
L 263.533193 -57.458381 
L 262.005168 -57.461131 
L 260.477143 -57.466081 
L 258.949117 -57.472334 
L 257.421092 -57.47897 
L 255.893067 -57.485041 
L 254.365042 -57.489567 
L 252.837016 -57.491533 
L 251.308991 -57.489883 
L 249.780966 -57.483523 
L 248.252941 -57.471317 
L 246.724915 -57.452091 
L 245.19689 -57.424644 
L 243.668865 -57.387756 
L 242.14084 -57.340204 
L 240.612814 -57.280785 
L 239.084789 -57.208334 
L 237.556764 -57.121756 
L 236.028739 -57.020054 
L 234.500713 -56.902364 
L 232.972688 -56.76798 
L 231.444663 -56.616396 
L 229.916638 -56.447325 
L 228.388613 -56.260735 
L 226.860587 -56.056865 
L 225.332562 -55.836242 
L 223.804537 -55.599692 
L 222.276512 -55.348341 
L 220.748486 -55.08361 
L 219.220461 -54.8072 
L 217.692436 -54.521075 
L 216.164411 -54.227429 
L 214.636385 -53.928657 
L 213.10836 -53.627315 
L 211.580335 -53.326079 
L 210.05231 -53.027701 
L 208.524284 -52.734966 
L 206.996259 -52.450651 
L 205.468234 -52.17748 
L 203.940209 -51.918094 
L 202.412183 -51.675016 
L 200.884158 -51.450626 
L 199.356133 -51.247139 
L 197.828108 -51.06659 
L 196.300082 -50.910824 
L 194.772057 -50.781493 
L 193.244032 -50.68005 
L 191.716007 -50.607755 
L 190.187982 -50.565672 
L 188.659956 -50.554678 
L 187.131931 -50.575463 
L 185.603906 -50.628532 
L 184.075881 -50.714204 
L 182.547855 -50.832613 
L 181.01983 -50.983698 
L 179.491805 -51.167202 
L 177.96378 -51.382656 
L 176.435754 -51.629374 
L 174.907729 -51.906445 
L 173.379704 -52.212716 
L 171.851679 -52.546793 
L 170.323653 -52.907035 
L 168.795628 -53.291553 
L 167.267603 -53.698217 
L 165.739578 -54.124672 
L 164.211552 -54.568349 
z
" id="m1b94dff6c0"/>
    </defs>
    <g clip-path="url(#p942b6125cd)">
     <use style="fill:#e1812c;" x="0" xlink:href="#m1b94dff6c0" y="345.6"/>
    </g>
   </g>
   <g id="patch_3">
    <path clip-path="url(#p942b6125cd)" d="M 57.6 68.0832 
L 57.6 68.0832 
L 57.6 68.0832 
L 57.6 68.0832 
z
" style="fill:#3274a1;"/>
   </g>
   <g id="patch_4">
    <path clip-path="url(#p942b6125cd)" d="M 57.6 68.0832 
L 57.6 68.0832 
L 57.6 68.0832 
L 57.6 68.0832 
z
" style="fill:#e1812c;"/>
   </g>
   <g id="patch_5">
    <path d="M 57.6 307.584 
L 57.6 41.472 
" style="fill:none;stroke:#cccccc;stroke-linecap:square;stroke-linejoin:miter;stroke-width:0.8;"/>
   </g>
   <g id="patch_6">
    <path d="M 414.72 307.584 
L 414.72 41.472 
" style="fill:none;stroke:#cccccc;stroke-linecap:square;stroke-linejoin:miter;stroke-width:0.8;"/>
   </g>
   <g id="patch_7">
    <path d="M 57.6 307.584 
L 414.72 307.584 
" style="fill:none;stroke:#cccccc;stroke-linecap:square;stroke-linejoin:miter;stroke-width:0.8;"/>
   </g>
   <g id="patch_8">
    <path d="M 57.6 41.472 
L 414.72 41.472 
" style="fill:none;stroke:#cccccc;stroke-linecap:square;stroke-linejoin:miter;stroke-width:0.8;"/>
   </g>
   <g id="text_21">
    <!-- B: 0.7436693906784058; E: 1.0081210136413574 -->
    <defs>
     <path d="M 19.671875 34.8125 
L 19.671875 8.109375 
L 35.5 8.109375 
Q 43.453125 8.109375 47.28125 11.40625 
Q 51.125 14.703125 51.125 21.484375 
Q 51.125 28.328125 47.28125 31.5625 
Q 43.453125 34.8125 35.5 34.8125 
z
M 19.671875 64.796875 
L 19.671875 42.828125 
L 34.28125 42.828125 
Q 41.5 42.828125 45.03125 45.53125 
Q 48.578125 48.25 48.578125 53.8125 
Q 48.578125 59.328125 45.03125 62.0625 
Q 41.5 64.796875 34.28125 64.796875 
z
M 9.8125 72.90625 
L 35.015625 72.90625 
Q 46.296875 72.90625 52.390625 68.21875 
Q 58.5 63.53125 58.5 54.890625 
Q 58.5 48.1875 55.375 44.234375 
Q 52.25 40.28125 46.1875 39.3125 
Q 53.46875 37.75 57.5 32.78125 
Q 61.53125 27.828125 61.53125 20.40625 
Q 61.53125 10.640625 54.890625 5.3125 
Q 48.25 0 35.984375 0 
L 9.8125 0 
z
" id="DejaVuSans-66"/>
     <path d="M 11.71875 12.40625 
L 22.015625 12.40625 
L 22.015625 0 
L 11.71875 0 
z
M 11.71875 51.703125 
L 22.015625 51.703125 
L 22.015625 39.3125 
L 11.71875 39.3125 
z
" id="DejaVuSans-58"/>
     <path id="DejaVuSans-32"/>
     <path d="M 40.578125 39.3125 
Q 47.65625 37.796875 51.625 33 
Q 55.609375 28.21875 55.609375 21.1875 
Q 55.609375 10.40625 48.1875 4.484375 
Q 40.765625 -1.421875 27.09375 -1.421875 
Q 22.515625 -1.421875 17.65625 -0.515625 
Q 12.796875 0.390625 7.625 2.203125 
L 7.625 11.71875 
Q 11.71875 9.328125 16.59375 8.109375 
Q 21.484375 6.890625 26.8125 6.890625 
Q 36.078125 6.890625 40.9375 10.546875 
Q 45.796875 14.203125 45.796875 21.1875 
Q 45.796875 27.640625 41.28125 31.265625 
Q 36.765625 34.90625 28.71875 34.90625 
L 20.21875 34.90625 
L 20.21875 43.015625 
L 29.109375 43.015625 
Q 36.375 43.015625 40.234375 45.921875 
Q 44.09375 48.828125 44.09375 54.296875 
Q 44.09375 59.90625 40.109375 62.90625 
Q 36.140625 65.921875 28.71875 65.921875 
Q 24.65625 65.921875 20.015625 65.03125 
Q 15.375 64.15625 9.8125 62.3125 
L 9.8125 71.09375 
Q 15.4375 72.65625 20.34375 73.4375 
Q 25.25 74.21875 29.59375 74.21875 
Q 40.828125 74.21875 47.359375 69.109375 
Q 53.90625 64.015625 53.90625 55.328125 
Q 53.90625 49.265625 50.4375 45.09375 
Q 46.96875 40.921875 40.578125 39.3125 
z
" id="DejaVuSans-51"/>
     <path d="M 10.796875 72.90625 
L 49.515625 72.90625 
L 49.515625 64.59375 
L 19.828125 64.59375 
L 19.828125 46.734375 
Q 21.96875 47.46875 24.109375 47.828125 
Q 26.265625 48.1875 28.421875 48.1875 
Q 40.625 48.1875 47.75 41.5 
Q 54.890625 34.8125 54.890625 23.390625 
Q 54.890625 11.625 47.5625 5.09375 
Q 40.234375 -1.421875 26.90625 -1.421875 
Q 22.3125 -1.421875 17.546875 -0.640625 
Q 12.796875 0.140625 7.71875 1.703125 
L 7.71875 11.625 
Q 12.109375 9.234375 16.796875 8.0625 
Q 21.484375 6.890625 26.703125 6.890625 
Q 35.15625 6.890625 40.078125 11.328125 
Q 45.015625 15.765625 45.015625 23.390625 
Q 45.015625 31 40.078125 35.4375 
Q 35.15625 39.890625 26.703125 39.890625 
Q 22.75 39.890625 18.8125 39.015625 
Q 14.890625 38.140625 10.796875 36.28125 
z
" id="DejaVuSans-53"/>
     <path d="M 11.71875 51.703125 
L 22.015625 51.703125 
L 22.015625 39.3125 
L 11.71875 39.3125 
z
M 11.71875 12.40625 
L 22.015625 12.40625 
L 22.015625 4 
L 14.015625 -11.625 
L 7.71875 -11.625 
L 11.71875 4 
z
" id="DejaVuSans-59"/>
     <path d="M 9.8125 72.90625 
L 55.90625 72.90625 
L 55.90625 64.59375 
L 19.671875 64.59375 
L 19.671875 43.015625 
L 54.390625 43.015625 
L 54.390625 34.71875 
L 19.671875 34.71875 
L 19.671875 8.296875 
L 56.78125 8.296875 
L 56.78125 0 
L 9.8125 0 
z
" id="DejaVuSans-69"/>
    </defs>
    <g style="fill:#262626;" transform="translate(82.859062 35.472)scale(0.12 -0.12)">
     <use xlink:href="#DejaVuSans-66"/>
     <use x="68.603516" xlink:href="#DejaVuSans-58"/>
     <use x="102.294922" xlink:href="#DejaVuSans-32"/>
     <use x="134.082031" xlink:href="#DejaVuSans-48"/>
     <use x="197.705078" xlink:href="#DejaVuSans-46"/>
     <use x="229.492188" xlink:href="#DejaVuSans-55"/>
     <use x="293.115234" xlink:href="#DejaVuSans-52"/>
     <use x="356.738281" xlink:href="#DejaVuSans-51"/>
     <use x="420.361328" xlink:href="#DejaVuSans-54"/>
     <use x="483.984375" xlink:href="#DejaVuSans-54"/>
     <use x="547.607422" xlink:href="#DejaVuSans-57"/>
     <use x="611.230469" xlink:href="#DejaVuSans-51"/>
     <use x="674.853516" xlink:href="#DejaVuSans-57"/>
     <use x="738.476562" xlink:href="#DejaVuSans-48"/>
     <use x="802.099609" xlink:href="#DejaVuSans-54"/>
     <use x="865.722656" xlink:href="#DejaVuSans-55"/>
     <use x="929.345703" xlink:href="#DejaVuSans-56"/>
     <use x="992.96875" xlink:href="#DejaVuSans-52"/>
     <use x="1056.591797" xlink:href="#DejaVuSans-48"/>
     <use x="1120.214844" xlink:href="#DejaVuSans-53"/>
     <use x="1183.837891" xlink:href="#DejaVuSans-56"/>
     <use x="1247.460938" xlink:href="#DejaVuSans-59"/>
     <use x="1281.152344" xlink:href="#DejaVuSans-32"/>
     <use x="1312.939453" xlink:href="#DejaVuSans-69"/>
     <use x="1376.123047" xlink:href="#DejaVuSans-58"/>
     <use x="1409.814453" xlink:href="#DejaVuSans-32"/>
     <use x="1441.601562" xlink:href="#DejaVuSans-49"/>
     <use x="1505.224609" xlink:href="#DejaVuSans-46"/>
     <use x="1537.011719" xlink:href="#DejaVuSans-48"/>
     <use x="1600.634766" xlink:href="#DejaVuSans-48"/>
     <use x="1664.257812" xlink:href="#DejaVuSans-56"/>
     <use x="1727.880859" xlink:href="#DejaVuSans-49"/>
     <use x="1791.503906" xlink:href="#DejaVuSans-50"/>
     <use x="1855.126953" xlink:href="#DejaVuSans-49"/>
     <use x="1918.75" xlink:href="#DejaVuSans-48"/>
     <use x="1982.373047" xlink:href="#DejaVuSans-49"/>
     <use x="2045.996094" xlink:href="#DejaVuSans-51"/>
     <use x="2109.619141" xlink:href="#DejaVuSans-54"/>
     <use x="2173.242188" xlink:href="#DejaVuSans-52"/>
     <use x="2236.865234" xlink:href="#DejaVuSans-49"/>
     <use x="2300.488281" xlink:href="#DejaVuSans-51"/>
     <use x="2364.111328" xlink:href="#DejaVuSans-53"/>
     <use x="2427.734375" xlink:href="#DejaVuSans-55"/>
     <use x="2491.357422" xlink:href="#DejaVuSans-52"/>
    </g>
   </g>
   <g id="legend_1">
    <g id="patch_9">
     <path d="M 368.859063 93.506375 
L 407.72 93.506375 
Q 409.72 93.506375 409.72 91.506375 
L 409.72 48.472 
Q 409.72 46.472 407.72 46.472 
L 368.859063 46.472 
Q 366.859063 46.472 366.859063 48.472 
L 366.859063 91.506375 
Q 366.859063 93.506375 368.859063 93.506375 
z
" style="fill:#ffffff;opacity:0.8;stroke:#cccccc;stroke-linejoin:miter;"/>
    </g>
    <g id="text_22">
     <!-- Mode -->
     <defs>
      <path d="M 9.8125 72.90625 
L 24.515625 72.90625 
L 43.109375 23.296875 
L 61.8125 72.90625 
L 76.515625 72.90625 
L 76.515625 0 
L 66.890625 0 
L 66.890625 64.015625 
L 48.09375 14.015625 
L 38.1875 14.015625 
L 19.390625 64.015625 
L 19.390625 0 
L 9.8125 0 
z
" id="DejaVuSans-77"/>
     </defs>
     <g style="fill:#262626;" transform="translate(374.665313 58.070438)scale(0.1 -0.1)">
      <use xlink:href="#DejaVuSans-77"/>
      <use x="86.279297" xlink:href="#DejaVuSans-111"/>
      <use x="147.460938" xlink:href="#DejaVuSans-100"/>
      <use x="210.9375" xlink:href="#DejaVuSans-101"/>
     </g>
    </g>
    <g id="patch_10">
     <path d="M 370.859063 72.748563 
L 390.859063 72.748563 
L 390.859063 65.748563 
L 370.859063 65.748563 
z
" style="fill:#3274a1;"/>
    </g>
    <g id="text_23">
     <!-- B -->
     <g style="fill:#262626;" transform="translate(398.859063 72.748563)scale(0.1 -0.1)">
      <use xlink:href="#DejaVuSans-66"/>
     </g>
    </g>
    <g id="patch_11">
     <path d="M 370.859063 87.426688 
L 390.859063 87.426688 
L 390.859063 80.426688 
L 370.859063 80.426688 
z
" style="fill:#e1812c;"/>
    </g>
    <g id="text_24">
     <!-- E -->
     <g style="fill:#262626;" transform="translate(398.859063 87.426688)scale(0.1 -0.1)">
      <use xlink:href="#DejaVuSans-69"/>
     </g>
    </g>
   </g>
  </g>
 </g>
 <defs>
  <clipPath id="p942b6125cd">
   <rect height="266.112" width="357.12" x="57.6" y="41.472"/>
  </clipPath>
 </defs>
</svg>
