<?xml version="1.0" encoding="utf-8" standalone="no"?>
<!DOCTYPE svg PUBLIC "-//W3C//DTD SVG 1.1//EN"
  "http://www.w3.org/Graphics/SVG/1.1/DTD/svg11.dtd">
<!-- Created with matplotlib (https://matplotlib.org/) -->
<svg height="345.6pt" version="1.1" viewBox="0 0 460.8 345.6" width="460.8pt" xmlns="http://www.w3.org/2000/svg" xmlns:xlink="http://www.w3.org/1999/xlink">
 <defs>
  <style type="text/css">
*{stroke-linecap:butt;stroke-linejoin:round;}
  </style>
 </defs>
 <g id="figure_1">
  <g id="patch_1">
   <path d="M 0 345.6 
L 460.8 345.6 
L 460.8 0 
L 0 0 
z
" style="fill:#ffffff;"/>
  </g>
  <g id="axes_1">
   <g id="patch_2">
    <path d="M 57.6 307.584 
L 414.72 307.584 
L 414.72 41.472 
L 57.6 41.472 
z
" style="fill:#ffffff;"/>
   </g>
   <g id="matplotlib.axis_1">
    <g id="xtick_1">
     <g id="line2d_1">
      <path clip-path="url(#p4754f9333b)" d="M 57.6 307.584 
L 57.6 41.472 
" style="fill:none;stroke:#cccccc;stroke-linecap:round;stroke-width:0.8;"/>
     </g>
     <g id="text_1">
      <!-- 0.0 -->
      <defs>
       <path d="M 31.78125 66.40625 
Q 24.171875 66.40625 20.328125 58.90625 
Q 16.5 51.421875 16.5 36.375 
Q 16.5 21.390625 20.328125 13.890625 
Q 24.171875 6.390625 31.78125 6.390625 
Q 39.453125 6.390625 43.28125 13.890625 
Q 47.125 21.390625 47.125 36.375 
Q 47.125 51.421875 43.28125 58.90625 
Q 39.453125 66.40625 31.78125 66.40625 
z
M 31.78125 74.21875 
Q 44.046875 74.21875 50.515625 64.515625 
Q 56.984375 54.828125 56.984375 36.375 
Q 56.984375 17.96875 50.515625 8.265625 
Q 44.046875 -1.421875 31.78125 -1.421875 
Q 19.53125 -1.421875 13.0625 8.265625 
Q 6.59375 17.96875 6.59375 36.375 
Q 6.59375 54.828125 13.0625 64.515625 
Q 19.53125 74.21875 31.78125 74.21875 
z
" id="DejaVuSans-48"/>
       <path d="M 10.6875 12.40625 
L 21 12.40625 
L 21 0 
L 10.6875 0 
z
" id="DejaVuSans-46"/>
      </defs>
      <g style="fill:#262626;" transform="translate(49.648438 322.182437)scale(0.1 -0.1)">
       <use xlink:href="#DejaVuSans-48"/>
       <use x="63.623047" xlink:href="#DejaVuSans-46"/>
       <use x="95.410156" xlink:href="#DejaVuSans-48"/>
      </g>
     </g>
    </g>
    <g id="xtick_2">
     <g id="line2d_2">
      <path clip-path="url(#p4754f9333b)" d="M 87.36 307.584 
L 87.36 41.472 
" style="fill:none;stroke:#cccccc;stroke-linecap:round;stroke-width:0.8;"/>
     </g>
     <g id="text_2">
      <!-- 0.2 -->
      <defs>
       <path d="M 19.1875 8.296875 
L 53.609375 8.296875 
L 53.609375 0 
L 7.328125 0 
L 7.328125 8.296875 
Q 12.9375 14.109375 22.625 23.890625 
Q 32.328125 33.6875 34.8125 36.53125 
Q 39.546875 41.84375 41.421875 45.53125 
Q 43.3125 49.21875 43.3125 52.78125 
Q 43.3125 58.59375 39.234375 62.25 
Q 35.15625 65.921875 28.609375 65.921875 
Q 23.96875 65.921875 18.8125 64.3125 
Q 13.671875 62.703125 7.8125 59.421875 
L 7.8125 69.390625 
Q 13.765625 71.78125 18.9375 73 
Q 24.125 74.21875 28.421875 74.21875 
Q 39.75 74.21875 46.484375 68.546875 
Q 53.21875 62.890625 53.21875 53.421875 
Q 53.21875 48.921875 51.53125 44.890625 
Q 49.859375 40.875 45.40625 35.40625 
Q 44.1875 33.984375 37.640625 27.21875 
Q 31.109375 20.453125 19.1875 8.296875 
z
" id="DejaVuSans-50"/>
      </defs>
      <g style="fill:#262626;" transform="translate(79.408438 322.182437)scale(0.1 -0.1)">
       <use xlink:href="#DejaVuSans-48"/>
       <use x="63.623047" xlink:href="#DejaVuSans-46"/>
       <use x="95.410156" xlink:href="#DejaVuSans-50"/>
      </g>
     </g>
    </g>
    <g id="xtick_3">
     <g id="line2d_3">
      <path clip-path="url(#p4754f9333b)" d="M 117.12 307.584 
L 117.12 41.472 
" style="fill:none;stroke:#cccccc;stroke-linecap:round;stroke-width:0.8;"/>
     </g>
     <g id="text_3">
      <!-- 0.4 -->
      <defs>
       <path d="M 37.796875 64.3125 
L 12.890625 25.390625 
L 37.796875 25.390625 
z
M 35.203125 72.90625 
L 47.609375 72.90625 
L 47.609375 25.390625 
L 58.015625 25.390625 
L 58.015625 17.1875 
L 47.609375 17.1875 
L 47.609375 0 
L 37.796875 0 
L 37.796875 17.1875 
L 4.890625 17.1875 
L 4.890625 26.703125 
z
" id="DejaVuSans-52"/>
      </defs>
      <g style="fill:#262626;" transform="translate(109.168438 322.182437)scale(0.1 -0.1)">
       <use xlink:href="#DejaVuSans-48"/>
       <use x="63.623047" xlink:href="#DejaVuSans-46"/>
       <use x="95.410156" xlink:href="#DejaVuSans-52"/>
      </g>
     </g>
    </g>
    <g id="xtick_4">
     <g id="line2d_4">
      <path clip-path="url(#p4754f9333b)" d="M 146.88 307.584 
L 146.88 41.472 
" style="fill:none;stroke:#cccccc;stroke-linecap:round;stroke-width:0.8;"/>
     </g>
     <g id="text_4">
      <!-- 0.6 -->
      <defs>
       <path d="M 33.015625 40.375 
Q 26.375 40.375 22.484375 35.828125 
Q 18.609375 31.296875 18.609375 23.390625 
Q 18.609375 15.53125 22.484375 10.953125 
Q 26.375 6.390625 33.015625 6.390625 
Q 39.65625 6.390625 43.53125 10.953125 
Q 47.40625 15.53125 47.40625 23.390625 
Q 47.40625 31.296875 43.53125 35.828125 
Q 39.65625 40.375 33.015625 40.375 
z
M 52.59375 71.296875 
L 52.59375 62.3125 
Q 48.875 64.0625 45.09375 64.984375 
Q 41.3125 65.921875 37.59375 65.921875 
Q 27.828125 65.921875 22.671875 59.328125 
Q 17.53125 52.734375 16.796875 39.40625 
Q 19.671875 43.65625 24.015625 45.921875 
Q 28.375 48.1875 33.59375 48.1875 
Q 44.578125 48.1875 50.953125 41.515625 
Q 57.328125 34.859375 57.328125 23.390625 
Q 57.328125 12.15625 50.6875 5.359375 
Q 44.046875 -1.421875 33.015625 -1.421875 
Q 20.359375 -1.421875 13.671875 8.265625 
Q 6.984375 17.96875 6.984375 36.375 
Q 6.984375 53.65625 15.1875 63.9375 
Q 23.390625 74.21875 37.203125 74.21875 
Q 40.921875 74.21875 44.703125 73.484375 
Q 48.484375 72.75 52.59375 71.296875 
z
" id="DejaVuSans-54"/>
      </defs>
      <g style="fill:#262626;" transform="translate(138.928438 322.182437)scale(0.1 -0.1)">
       <use xlink:href="#DejaVuSans-48"/>
       <use x="63.623047" xlink:href="#DejaVuSans-46"/>
       <use x="95.410156" xlink:href="#DejaVuSans-54"/>
      </g>
     </g>
    </g>
    <g id="xtick_5">
     <g id="line2d_5">
      <path clip-path="url(#p4754f9333b)" d="M 176.64 307.584 
L 176.64 41.472 
" style="fill:none;stroke:#cccccc;stroke-linecap:round;stroke-width:0.8;"/>
     </g>
     <g id="text_5">
      <!-- 0.8 -->
      <defs>
       <path d="M 31.78125 34.625 
Q 24.75 34.625 20.71875 30.859375 
Q 16.703125 27.09375 16.703125 20.515625 
Q 16.703125 13.921875 20.71875 10.15625 
Q 24.75 6.390625 31.78125 6.390625 
Q 38.8125 6.390625 42.859375 10.171875 
Q 46.921875 13.96875 46.921875 20.515625 
Q 46.921875 27.09375 42.890625 30.859375 
Q 38.875 34.625 31.78125 34.625 
z
M 21.921875 38.8125 
Q 15.578125 40.375 12.03125 44.71875 
Q 8.5 49.078125 8.5 55.328125 
Q 8.5 64.0625 14.71875 69.140625 
Q 20.953125 74.21875 31.78125 74.21875 
Q 42.671875 74.21875 48.875 69.140625 
Q 55.078125 64.0625 55.078125 55.328125 
Q 55.078125 49.078125 51.53125 44.71875 
Q 48 40.375 41.703125 38.8125 
Q 48.828125 37.15625 52.796875 32.3125 
Q 56.78125 27.484375 56.78125 20.515625 
Q 56.78125 9.90625 50.3125 4.234375 
Q 43.84375 -1.421875 31.78125 -1.421875 
Q 19.734375 -1.421875 13.25 4.234375 
Q 6.78125 9.90625 6.78125 20.515625 
Q 6.78125 27.484375 10.78125 32.3125 
Q 14.796875 37.15625 21.921875 38.8125 
z
M 18.3125 54.390625 
Q 18.3125 48.734375 21.84375 45.5625 
Q 25.390625 42.390625 31.78125 42.390625 
Q 38.140625 42.390625 41.71875 45.5625 
Q 45.3125 48.734375 45.3125 54.390625 
Q 45.3125 60.0625 41.71875 63.234375 
Q 38.140625 66.40625 31.78125 66.40625 
Q 25.390625 66.40625 21.84375 63.234375 
Q 18.3125 60.0625 18.3125 54.390625 
z
" id="DejaVuSans-56"/>
      </defs>
      <g style="fill:#262626;" transform="translate(168.688438 322.182437)scale(0.1 -0.1)">
       <use xlink:href="#DejaVuSans-48"/>
       <use x="63.623047" xlink:href="#DejaVuSans-46"/>
       <use x="95.410156" xlink:href="#DejaVuSans-56"/>
      </g>
     </g>
    </g>
    <g id="xtick_6">
     <g id="line2d_6">
      <path clip-path="url(#p4754f9333b)" d="M 206.4 307.584 
L 206.4 41.472 
" style="fill:none;stroke:#cccccc;stroke-linecap:round;stroke-width:0.8;"/>
     </g>
     <g id="text_6">
      <!-- 1.0 -->
      <defs>
       <path d="M 12.40625 8.296875 
L 28.515625 8.296875 
L 28.515625 63.921875 
L 10.984375 60.40625 
L 10.984375 69.390625 
L 28.421875 72.90625 
L 38.28125 72.90625 
L 38.28125 8.296875 
L 54.390625 8.296875 
L 54.390625 0 
L 12.40625 0 
z
" id="DejaVuSans-49"/>
      </defs>
      <g style="fill:#262626;" transform="translate(198.448438 322.182437)scale(0.1 -0.1)">
       <use xlink:href="#DejaVuSans-49"/>
       <use x="63.623047" xlink:href="#DejaVuSans-46"/>
       <use x="95.410156" xlink:href="#DejaVuSans-48"/>
      </g>
     </g>
    </g>
    <g id="xtick_7">
     <g id="line2d_7">
      <path clip-path="url(#p4754f9333b)" d="M 236.16 307.584 
L 236.16 41.472 
" style="fill:none;stroke:#cccccc;stroke-linecap:round;stroke-width:0.8;"/>
     </g>
     <g id="text_7">
      <!-- 1.2 -->
      <g style="fill:#262626;" transform="translate(228.208438 322.182437)scale(0.1 -0.1)">
       <use xlink:href="#DejaVuSans-49"/>
       <use x="63.623047" xlink:href="#DejaVuSans-46"/>
       <use x="95.410156" xlink:href="#DejaVuSans-50"/>
      </g>
     </g>
    </g>
    <g id="xtick_8">
     <g id="line2d_8">
      <path clip-path="url(#p4754f9333b)" d="M 265.92 307.584 
L 265.92 41.472 
" style="fill:none;stroke:#cccccc;stroke-linecap:round;stroke-width:0.8;"/>
     </g>
     <g id="text_8">
      <!-- 1.4 -->
      <g style="fill:#262626;" transform="translate(257.968437 322.182437)scale(0.1 -0.1)">
       <use xlink:href="#DejaVuSans-49"/>
       <use x="63.623047" xlink:href="#DejaVuSans-46"/>
       <use x="95.410156" xlink:href="#DejaVuSans-52"/>
      </g>
     </g>
    </g>
    <g id="xtick_9">
     <g id="line2d_9">
      <path clip-path="url(#p4754f9333b)" d="M 295.68 307.584 
L 295.68 41.472 
" style="fill:none;stroke:#cccccc;stroke-linecap:round;stroke-width:0.8;"/>
     </g>
     <g id="text_9">
      <!-- 1.6 -->
      <g style="fill:#262626;" transform="translate(287.728438 322.182437)scale(0.1 -0.1)">
       <use xlink:href="#DejaVuSans-49"/>
       <use x="63.623047" xlink:href="#DejaVuSans-46"/>
       <use x="95.410156" xlink:href="#DejaVuSans-54"/>
      </g>
     </g>
    </g>
    <g id="xtick_10">
     <g id="line2d_10">
      <path clip-path="url(#p4754f9333b)" d="M 325.44 307.584 
L 325.44 41.472 
" style="fill:none;stroke:#cccccc;stroke-linecap:round;stroke-width:0.8;"/>
     </g>
     <g id="text_10">
      <!-- 1.8 -->
      <g style="fill:#262626;" transform="translate(317.488438 322.182437)scale(0.1 -0.1)">
       <use xlink:href="#DejaVuSans-49"/>
       <use x="63.623047" xlink:href="#DejaVuSans-46"/>
       <use x="95.410156" xlink:href="#DejaVuSans-56"/>
      </g>
     </g>
    </g>
    <g id="xtick_11">
     <g id="line2d_11">
      <path clip-path="url(#p4754f9333b)" d="M 355.2 307.584 
L 355.2 41.472 
" style="fill:none;stroke:#cccccc;stroke-linecap:round;stroke-width:0.8;"/>
     </g>
     <g id="text_11">
      <!-- 2.0 -->
      <g style="fill:#262626;" transform="translate(347.248438 322.182437)scale(0.1 -0.1)">
       <use xlink:href="#DejaVuSans-50"/>
       <use x="63.623047" xlink:href="#DejaVuSans-46"/>
       <use x="95.410156" xlink:href="#DejaVuSans-48"/>
      </g>
     </g>
    </g>
    <g id="xtick_12">
     <g id="line2d_12">
      <path clip-path="url(#p4754f9333b)" d="M 384.96 307.584 
L 384.96 41.472 
" style="fill:none;stroke:#cccccc;stroke-linecap:round;stroke-width:0.8;"/>
     </g>
     <g id="text_12">
      <!-- 2.2 -->
      <g style="fill:#262626;" transform="translate(377.008438 322.182437)scale(0.1 -0.1)">
       <use xlink:href="#DejaVuSans-50"/>
       <use x="63.623047" xlink:href="#DejaVuSans-46"/>
       <use x="95.410156" xlink:href="#DejaVuSans-50"/>
      </g>
     </g>
    </g>
    <g id="xtick_13">
     <g id="line2d_13">
      <path clip-path="url(#p4754f9333b)" d="M 414.72 307.584 
L 414.72 41.472 
" style="fill:none;stroke:#cccccc;stroke-linecap:round;stroke-width:0.8;"/>
     </g>
     <g id="text_13">
      <!-- 2.4 -->
      <g style="fill:#262626;" transform="translate(406.768438 322.182437)scale(0.1 -0.1)">
       <use xlink:href="#DejaVuSans-50"/>
       <use x="63.623047" xlink:href="#DejaVuSans-46"/>
       <use x="95.410156" xlink:href="#DejaVuSans-52"/>
      </g>
     </g>
    </g>
    <g id="text_14">
     <!-- Loading_Time -->
     <defs>
      <path d="M 9.8125 72.90625 
L 19.671875 72.90625 
L 19.671875 8.296875 
L 55.171875 8.296875 
L 55.171875 0 
L 9.8125 0 
z
" id="DejaVuSans-76"/>
      <path d="M 30.609375 48.390625 
Q 23.390625 48.390625 19.1875 42.75 
Q 14.984375 37.109375 14.984375 27.296875 
Q 14.984375 17.484375 19.15625 11.84375 
Q 23.34375 6.203125 30.609375 6.203125 
Q 37.796875 6.203125 41.984375 11.859375 
Q 46.1875 17.53125 46.1875 27.296875 
Q 46.1875 37.015625 41.984375 42.703125 
Q 37.796875 48.390625 30.609375 48.390625 
z
M 30.609375 56 
Q 42.328125 56 49.015625 48.375 
Q 55.71875 40.765625 55.71875 27.296875 
Q 55.71875 13.875 49.015625 6.21875 
Q 42.328125 -1.421875 30.609375 -1.421875 
Q 18.84375 -1.421875 12.171875 6.21875 
Q 5.515625 13.875 5.515625 27.296875 
Q 5.515625 40.765625 12.171875 48.375 
Q 18.84375 56 30.609375 56 
z
" id="DejaVuSans-111"/>
      <path d="M 34.28125 27.484375 
Q 23.390625 27.484375 19.1875 25 
Q 14.984375 22.515625 14.984375 16.5 
Q 14.984375 11.71875 18.140625 8.90625 
Q 21.296875 6.109375 26.703125 6.109375 
Q 34.1875 6.109375 38.703125 11.40625 
Q 43.21875 16.703125 43.21875 25.484375 
L 43.21875 27.484375 
z
M 52.203125 31.203125 
L 52.203125 0 
L 43.21875 0 
L 43.21875 8.296875 
Q 40.140625 3.328125 35.546875 0.953125 
Q 30.953125 -1.421875 24.3125 -1.421875 
Q 15.921875 -1.421875 10.953125 3.296875 
Q 6 8.015625 6 15.921875 
Q 6 25.140625 12.171875 29.828125 
Q 18.359375 34.515625 30.609375 34.515625 
L 43.21875 34.515625 
L 43.21875 35.40625 
Q 43.21875 41.609375 39.140625 45 
Q 35.0625 48.390625 27.6875 48.390625 
Q 23 48.390625 18.546875 47.265625 
Q 14.109375 46.140625 10.015625 43.890625 
L 10.015625 52.203125 
Q 14.9375 54.109375 19.578125 55.046875 
Q 24.21875 56 28.609375 56 
Q 40.484375 56 46.34375 49.84375 
Q 52.203125 43.703125 52.203125 31.203125 
z
" id="DejaVuSans-97"/>
      <path d="M 45.40625 46.390625 
L 45.40625 75.984375 
L 54.390625 75.984375 
L 54.390625 0 
L 45.40625 0 
L 45.40625 8.203125 
Q 42.578125 3.328125 38.25 0.953125 
Q 33.9375 -1.421875 27.875 -1.421875 
Q 17.96875 -1.421875 11.734375 6.484375 
Q 5.515625 14.40625 5.515625 27.296875 
Q 5.515625 40.1875 11.734375 48.09375 
Q 17.96875 56 27.875 56 
Q 33.9375 56 38.25 53.625 
Q 42.578125 51.265625 45.40625 46.390625 
z
M 14.796875 27.296875 
Q 14.796875 17.390625 18.875 11.75 
Q 22.953125 6.109375 30.078125 6.109375 
Q 37.203125 6.109375 41.296875 11.75 
Q 45.40625 17.390625 45.40625 27.296875 
Q 45.40625 37.203125 41.296875 42.84375 
Q 37.203125 48.484375 30.078125 48.484375 
Q 22.953125 48.484375 18.875 42.84375 
Q 14.796875 37.203125 14.796875 27.296875 
z
" id="DejaVuSans-100"/>
      <path d="M 9.421875 54.6875 
L 18.40625 54.6875 
L 18.40625 0 
L 9.421875 0 
z
M 9.421875 75.984375 
L 18.40625 75.984375 
L 18.40625 64.59375 
L 9.421875 64.59375 
z
" id="DejaVuSans-105"/>
      <path d="M 54.890625 33.015625 
L 54.890625 0 
L 45.90625 0 
L 45.90625 32.71875 
Q 45.90625 40.484375 42.875 44.328125 
Q 39.84375 48.1875 33.796875 48.1875 
Q 26.515625 48.1875 22.3125 43.546875 
Q 18.109375 38.921875 18.109375 30.90625 
L 18.109375 0 
L 9.078125 0 
L 9.078125 54.6875 
L 18.109375 54.6875 
L 18.109375 46.1875 
Q 21.34375 51.125 25.703125 53.5625 
Q 30.078125 56 35.796875 56 
Q 45.21875 56 50.046875 50.171875 
Q 54.890625 44.34375 54.890625 33.015625 
z
" id="DejaVuSans-110"/>
      <path d="M 45.40625 27.984375 
Q 45.40625 37.75 41.375 43.109375 
Q 37.359375 48.484375 30.078125 48.484375 
Q 22.859375 48.484375 18.828125 43.109375 
Q 14.796875 37.75 14.796875 27.984375 
Q 14.796875 18.265625 18.828125 12.890625 
Q 22.859375 7.515625 30.078125 7.515625 
Q 37.359375 7.515625 41.375 12.890625 
Q 45.40625 18.265625 45.40625 27.984375 
z
M 54.390625 6.78125 
Q 54.390625 -7.171875 48.1875 -13.984375 
Q 42 -20.796875 29.203125 -20.796875 
Q 24.46875 -20.796875 20.265625 -20.09375 
Q 16.0625 -19.390625 12.109375 -17.921875 
L 12.109375 -9.1875 
Q 16.0625 -11.328125 19.921875 -12.34375 
Q 23.78125 -13.375 27.78125 -13.375 
Q 36.625 -13.375 41.015625 -8.765625 
Q 45.40625 -4.15625 45.40625 5.171875 
L 45.40625 9.625 
Q 42.625 4.78125 38.28125 2.390625 
Q 33.9375 0 27.875 0 
Q 17.828125 0 11.671875 7.65625 
Q 5.515625 15.328125 5.515625 27.984375 
Q 5.515625 40.671875 11.671875 48.328125 
Q 17.828125 56 27.875 56 
Q 33.9375 56 38.28125 53.609375 
Q 42.625 51.21875 45.40625 46.390625 
L 45.40625 54.6875 
L 54.390625 54.6875 
z
" id="DejaVuSans-103"/>
      <path d="M 50.984375 -16.609375 
L 50.984375 -23.578125 
L -0.984375 -23.578125 
L -0.984375 -16.609375 
z
" id="DejaVuSans-95"/>
      <path d="M -0.296875 72.90625 
L 61.375 72.90625 
L 61.375 64.59375 
L 35.5 64.59375 
L 35.5 0 
L 25.59375 0 
L 25.59375 64.59375 
L -0.296875 64.59375 
z
" id="DejaVuSans-84"/>
      <path d="M 52 44.1875 
Q 55.375 50.25 60.0625 53.125 
Q 64.75 56 71.09375 56 
Q 79.640625 56 84.28125 50.015625 
Q 88.921875 44.046875 88.921875 33.015625 
L 88.921875 0 
L 79.890625 0 
L 79.890625 32.71875 
Q 79.890625 40.578125 77.09375 44.375 
Q 74.3125 48.1875 68.609375 48.1875 
Q 61.625 48.1875 57.5625 43.546875 
Q 53.515625 38.921875 53.515625 30.90625 
L 53.515625 0 
L 44.484375 0 
L 44.484375 32.71875 
Q 44.484375 40.625 41.703125 44.40625 
Q 38.921875 48.1875 33.109375 48.1875 
Q 26.21875 48.1875 22.15625 43.53125 
Q 18.109375 38.875 18.109375 30.90625 
L 18.109375 0 
L 9.078125 0 
L 9.078125 54.6875 
L 18.109375 54.6875 
L 18.109375 46.1875 
Q 21.1875 51.21875 25.484375 53.609375 
Q 29.78125 56 35.6875 56 
Q 41.65625 56 45.828125 52.96875 
Q 50 49.953125 52 44.1875 
z
" id="DejaVuSans-109"/>
      <path d="M 56.203125 29.59375 
L 56.203125 25.203125 
L 14.890625 25.203125 
Q 15.484375 15.921875 20.484375 11.0625 
Q 25.484375 6.203125 34.421875 6.203125 
Q 39.59375 6.203125 44.453125 7.46875 
Q 49.3125 8.734375 54.109375 11.28125 
L 54.109375 2.78125 
Q 49.265625 0.734375 44.1875 -0.34375 
Q 39.109375 -1.421875 33.890625 -1.421875 
Q 20.796875 -1.421875 13.15625 6.1875 
Q 5.515625 13.8125 5.515625 26.8125 
Q 5.515625 40.234375 12.765625 48.109375 
Q 20.015625 56 32.328125 56 
Q 43.359375 56 49.78125 48.890625 
Q 56.203125 41.796875 56.203125 29.59375 
z
M 47.21875 32.234375 
Q 47.125 39.59375 43.09375 43.984375 
Q 39.0625 48.390625 32.421875 48.390625 
Q 24.90625 48.390625 20.390625 44.140625 
Q 15.875 39.890625 15.1875 32.171875 
z
" id="DejaVuSans-101"/>
     </defs>
     <g style="fill:#262626;" transform="translate(201.457656 335.860562)scale(0.1 -0.1)">
      <use xlink:href="#DejaVuSans-76"/>
      <use x="55.697266" xlink:href="#DejaVuSans-111"/>
      <use x="116.878906" xlink:href="#DejaVuSans-97"/>
      <use x="178.158203" xlink:href="#DejaVuSans-100"/>
      <use x="241.634766" xlink:href="#DejaVuSans-105"/>
      <use x="269.417969" xlink:href="#DejaVuSans-110"/>
      <use x="332.796875" xlink:href="#DejaVuSans-103"/>
      <use x="396.273438" xlink:href="#DejaVuSans-95"/>
      <use x="446.273438" xlink:href="#DejaVuSans-84"/>
      <use x="507.310547" xlink:href="#DejaVuSans-105"/>
      <use x="535.09375" xlink:href="#DejaVuSans-109"/>
      <use x="632.505859" xlink:href="#DejaVuSans-101"/>
     </g>
    </g>
   </g>
   <g id="matplotlib.axis_2">
    <g id="ytick_1">
     <g id="text_15">
      <!-- /48492 -->
      <defs>
       <path d="M 25.390625 72.90625 
L 33.6875 72.90625 
L 8.296875 -9.28125 
L 0 -9.28125 
z
" id="DejaVuSans-47"/>
       <path d="M 10.984375 1.515625 
L 10.984375 10.5 
Q 14.703125 8.734375 18.5 7.8125 
Q 22.3125 6.890625 25.984375 6.890625 
Q 35.75 6.890625 40.890625 13.453125 
Q 46.046875 20.015625 46.78125 33.40625 
Q 43.953125 29.203125 39.59375 26.953125 
Q 35.25 24.703125 29.984375 24.703125 
Q 19.046875 24.703125 12.671875 31.3125 
Q 6.296875 37.9375 6.296875 49.421875 
Q 6.296875 60.640625 12.9375 67.421875 
Q 19.578125 74.21875 30.609375 74.21875 
Q 43.265625 74.21875 49.921875 64.515625 
Q 56.59375 54.828125 56.59375 36.375 
Q 56.59375 19.140625 48.40625 8.859375 
Q 40.234375 -1.421875 26.421875 -1.421875 
Q 22.703125 -1.421875 18.890625 -0.6875 
Q 15.09375 0.046875 10.984375 1.515625 
z
M 30.609375 32.421875 
Q 37.25 32.421875 41.125 36.953125 
Q 45.015625 41.5 45.015625 49.421875 
Q 45.015625 57.28125 41.125 61.84375 
Q 37.25 66.40625 30.609375 66.40625 
Q 23.96875 66.40625 20.09375 61.84375 
Q 16.21875 57.28125 16.21875 49.421875 
Q 16.21875 41.5 20.09375 36.953125 
Q 23.96875 32.421875 30.609375 32.421875 
z
" id="DejaVuSans-57"/>
      </defs>
      <g style="fill:#262626;" transform="translate(15.41875 71.882419)scale(0.1 -0.1)">
       <use xlink:href="#DejaVuSans-47"/>
       <use x="33.691406" xlink:href="#DejaVuSans-52"/>
       <use x="97.314453" xlink:href="#DejaVuSans-56"/>
       <use x="160.9375" xlink:href="#DejaVuSans-52"/>
       <use x="224.560547" xlink:href="#DejaVuSans-57"/>
       <use x="288.183594" xlink:href="#DejaVuSans-50"/>
      </g>
     </g>
    </g>
    <g id="ytick_2">
     <g id="text_16">
      <!-- /24706 -->
      <defs>
       <path d="M 8.203125 72.90625 
L 55.078125 72.90625 
L 55.078125 68.703125 
L 28.609375 0 
L 18.3125 0 
L 43.21875 64.59375 
L 8.203125 64.59375 
z
" id="DejaVuSans-55"/>
      </defs>
      <g style="fill:#262626;" transform="translate(15.41875 125.104819)scale(0.1 -0.1)">
       <use xlink:href="#DejaVuSans-47"/>
       <use x="33.691406" xlink:href="#DejaVuSans-50"/>
       <use x="97.314453" xlink:href="#DejaVuSans-52"/>
       <use x="160.9375" xlink:href="#DejaVuSans-55"/>
       <use x="224.560547" xlink:href="#DejaVuSans-48"/>
       <use x="288.183594" xlink:href="#DejaVuSans-54"/>
      </g>
     </g>
    </g>
    <g id="ytick_3">
     <g id="text_17">
      <!-- /1617 -->
      <g style="fill:#262626;" transform="translate(21.78125 178.327219)scale(0.1 -0.1)">
       <use xlink:href="#DejaVuSans-47"/>
       <use x="33.691406" xlink:href="#DejaVuSans-49"/>
       <use x="97.314453" xlink:href="#DejaVuSans-54"/>
       <use x="160.9375" xlink:href="#DejaVuSans-49"/>
       <use x="224.560547" xlink:href="#DejaVuSans-55"/>
      </g>
     </g>
    </g>
    <g id="ytick_4">
     <g id="text_18">
      <!-- /19882 -->
      <g style="fill:#262626;" transform="translate(15.41875 231.549619)scale(0.1 -0.1)">
       <use xlink:href="#DejaVuSans-47"/>
       <use x="33.691406" xlink:href="#DejaVuSans-49"/>
       <use x="97.314453" xlink:href="#DejaVuSans-57"/>
       <use x="160.9375" xlink:href="#DejaVuSans-56"/>
       <use x="224.560547" xlink:href="#DejaVuSans-56"/>
       <use x="288.183594" xlink:href="#DejaVuSans-50"/>
      </g>
     </g>
    </g>
    <g id="ytick_5">
     <g id="text_19">
      <!-- /18922 -->
      <g style="fill:#262626;" transform="translate(15.41875 284.772019)scale(0.1 -0.1)">
       <use xlink:href="#DejaVuSans-47"/>
       <use x="33.691406" xlink:href="#DejaVuSans-49"/>
       <use x="97.314453" xlink:href="#DejaVuSans-56"/>
       <use x="160.9375" xlink:href="#DejaVuSans-57"/>
       <use x="224.560547" xlink:href="#DejaVuSans-50"/>
       <use x="288.183594" xlink:href="#DejaVuSans-50"/>
      </g>
     </g>
    </g>
    <g id="text_20">
     <!-- URL -->
     <defs>
      <path d="M 8.6875 72.90625 
L 18.609375 72.90625 
L 18.609375 28.609375 
Q 18.609375 16.890625 22.84375 11.734375 
Q 27.09375 6.59375 36.625 6.59375 
Q 46.09375 6.59375 50.34375 11.734375 
Q 54.59375 16.890625 54.59375 28.609375 
L 54.59375 72.90625 
L 64.5 72.90625 
L 64.5 27.390625 
Q 64.5 13.140625 57.4375 5.859375 
Q 50.390625 -1.421875 36.625 -1.421875 
Q 22.796875 -1.421875 15.734375 5.859375 
Q 8.6875 13.140625 8.6875 27.390625 
z
" id="DejaVuSans-85"/>
      <path d="M 44.390625 34.1875 
Q 47.5625 33.109375 50.5625 29.59375 
Q 53.5625 26.078125 56.59375 19.921875 
L 66.609375 0 
L 56 0 
L 46.6875 18.703125 
Q 43.0625 26.03125 39.671875 28.421875 
Q 36.28125 30.8125 30.421875 30.8125 
L 19.671875 30.8125 
L 19.671875 0 
L 9.8125 0 
L 9.8125 72.90625 
L 32.078125 72.90625 
Q 44.578125 72.90625 50.734375 67.671875 
Q 56.890625 62.453125 56.890625 51.90625 
Q 56.890625 45.015625 53.6875 40.46875 
Q 50.484375 35.9375 44.390625 34.1875 
z
M 19.671875 64.796875 
L 19.671875 38.921875 
L 32.078125 38.921875 
Q 39.203125 38.921875 42.84375 42.21875 
Q 46.484375 45.515625 46.484375 51.90625 
Q 46.484375 58.296875 42.84375 61.546875 
Q 39.203125 64.796875 32.078125 64.796875 
z
" id="DejaVuSans-82"/>
     </defs>
     <g style="fill:#262626;" transform="translate(9.339063 184.447531)rotate(-90)scale(0.1 -0.1)">
      <use xlink:href="#DejaVuSans-85"/>
      <use x="73.193359" xlink:href="#DejaVuSans-82"/>
      <use x="142.675781" xlink:href="#DejaVuSans-76"/>
     </g>
    </g>
   </g>
   <g id="PolyCollection_1">
    <defs>
     <path d="M 74.353403 -277.5168 
L 74.353403 -295.810555 
L 74.630093 -296.902501 
L 74.906783 -297.772283 
L 75.183473 -298.390268 
L 75.460162 -298.737308 
L 75.736852 -298.80576 
L 76.013542 -298.599641 
L 76.290232 -298.133955 
L 76.566922 -297.433278 
L 76.843612 -296.52979 
L 77.120301 -295.460968 
L 77.396991 -294.267163 
L 77.673681 -292.989297 
L 77.950371 -291.666819 
L 78.227061 -290.336072 
L 78.503751 -289.029103 
L 78.78044 -287.772922 
L 79.05713 -286.589171 
L 79.33382 -285.494127 
L 79.61051 -284.498941 
L 79.8872 -283.610055 
L 80.16389 -282.829698 
L 80.440579 -282.156432 
L 80.717269 -281.585701 
L 80.993959 -281.110385 
L 81.270649 -280.721343 
L 81.547339 -280.407951 
L 81.824029 -280.158648 
L 82.100718 -279.961468 
L 82.377408 -279.804568 
L 82.654098 -279.676723 
L 82.930788 -279.567764 
L 83.207478 -279.468947 
L 83.484167 -279.373213 
L 83.760857 -279.275344 
L 84.037547 -279.171988 
L 84.314237 -279.061568 
L 84.590927 -278.94409 
L 84.867617 -278.820865 
L 85.144306 -278.694181 
L 85.420996 -278.566957 
L 85.697686 -278.442401 
L 85.974376 -278.323708 
L 86.251066 -278.213812 
L 86.527756 -278.115203 
L 86.804445 -278.029804 
L 87.081135 -277.95892 
L 87.357825 -277.903224 
L 87.634515 -277.862787 
L 87.911205 -277.837134 
L 88.187895 -277.825306 
L 88.464584 -277.825927 
L 88.741274 -277.837275 
L 89.017964 -277.857346 
L 89.294654 -277.883928 
L 89.571344 -277.914675 
L 89.848034 -277.947185 
L 90.124723 -277.979093 
L 90.401413 -278.008171 
L 90.678103 -278.032427 
L 90.954793 -278.0502 
L 91.231483 -278.060241 
L 91.508173 -278.061775 
L 91.784862 -278.054532 
L 92.061552 -278.03874 
L 92.338242 -278.015088 
L 92.614932 -277.984654 
L 92.891622 -277.948814 
L 93.168312 -277.909125 
L 93.445001 -277.867212 
L 93.721691 -277.824663 
L 93.998381 -277.782934 
L 94.275071 -277.743281 
L 94.551761 -277.706721 
L 94.828451 -277.674017 
L 95.10514 -277.645693 
L 95.38183 -277.622061 
L 95.65852 -277.603271 
L 95.93521 -277.589363 
L 96.2119 -277.580313 
L 96.488589 -277.576083 
L 96.765279 -277.576646 
L 97.041969 -277.582006 
L 97.318659 -277.592194 
L 97.595349 -277.60725 
L 97.872039 -277.627184 
L 98.148728 -277.651938 
L 98.425418 -277.681326 
L 98.702108 -277.71499 
L 98.978798 -277.752352 
L 99.255488 -277.792588 
L 99.532178 -277.834621 
L 99.808867 -277.87714 
L 100.085557 -277.918644 
L 100.362247 -277.957519 
L 100.638937 -277.992131 
L 100.915627 -278.020931 
L 101.192317 -278.04257 
L 101.469006 -278.055997 
L 101.745696 -278.060547 
L 101.745696 -277.5168 
L 101.745696 -277.5168 
L 101.469006 -277.5168 
L 101.192317 -277.5168 
L 100.915627 -277.5168 
L 100.638937 -277.5168 
L 100.362247 -277.5168 
L 100.085557 -277.5168 
L 99.808867 -277.5168 
L 99.532178 -277.5168 
L 99.255488 -277.5168 
L 98.978798 -277.5168 
L 98.702108 -277.5168 
L 98.425418 -277.5168 
L 98.148728 -277.5168 
L 97.872039 -277.5168 
L 97.595349 -277.5168 
L 97.318659 -277.5168 
L 97.041969 -277.5168 
L 96.765279 -277.5168 
L 96.488589 -277.5168 
L 96.2119 -277.5168 
L 95.93521 -277.5168 
L 95.65852 -277.5168 
L 95.38183 -277.5168 
L 95.10514 -277.5168 
L 94.828451 -277.5168 
L 94.551761 -277.5168 
L 94.275071 -277.5168 
L 93.998381 -277.5168 
L 93.721691 -277.5168 
L 93.445001 -277.5168 
L 93.168312 -277.5168 
L 92.891622 -277.5168 
L 92.614932 -277.5168 
L 92.338242 -277.5168 
L 92.061552 -277.5168 
L 91.784862 -277.5168 
L 91.508173 -277.5168 
L 91.231483 -277.5168 
L 90.954793 -277.5168 
L 90.678103 -277.5168 
L 90.401413 -277.5168 
L 90.124723 -277.5168 
L 89.848034 -277.5168 
L 89.571344 -277.5168 
L 89.294654 -277.5168 
L 89.017964 -277.5168 
L 88.741274 -277.5168 
L 88.464584 -277.5168 
L 88.187895 -277.5168 
L 87.911205 -277.5168 
L 87.634515 -277.5168 
L 87.357825 -277.5168 
L 87.081135 -277.5168 
L 86.804445 -277.5168 
L 86.527756 -277.5168 
L 86.251066 -277.5168 
L 85.974376 -277.5168 
L 85.697686 -277.5168 
L 85.420996 -277.5168 
L 85.144306 -277.5168 
L 84.867617 -277.5168 
L 84.590927 -277.5168 
L 84.314237 -277.5168 
L 84.037547 -277.5168 
L 83.760857 -277.5168 
L 83.484167 -277.5168 
L 83.207478 -277.5168 
L 82.930788 -277.5168 
L 82.654098 -277.5168 
L 82.377408 -277.5168 
L 82.100718 -277.5168 
L 81.824029 -277.5168 
L 81.547339 -277.5168 
L 81.270649 -277.5168 
L 80.993959 -277.5168 
L 80.717269 -277.5168 
L 80.440579 -277.5168 
L 80.16389 -277.5168 
L 79.8872 -277.5168 
L 79.61051 -277.5168 
L 79.33382 -277.5168 
L 79.05713 -277.5168 
L 78.78044 -277.5168 
L 78.503751 -277.5168 
L 78.227061 -277.5168 
L 77.950371 -277.5168 
L 77.673681 -277.5168 
L 77.396991 -277.5168 
L 77.120301 -277.5168 
L 76.843612 -277.5168 
L 76.566922 -277.5168 
L 76.290232 -277.5168 
L 76.013542 -277.5168 
L 75.736852 -277.5168 
L 75.460162 -277.5168 
L 75.183473 -277.5168 
L 74.906783 -277.5168 
L 74.630093 -277.5168 
L 74.353403 -277.5168 
z
" id="m10add6e39e"/>
    </defs>
    <g clip-path="url(#p4754f9333b)">
     <use style="fill:#3274a1;" x="0" xlink:href="#m10add6e39e" y="345.6"/>
    </g>
   </g>
   <g id="PolyCollection_2">
    <defs>
     <path d="M 76.311468 -275.878317 
L 76.311468 -277.5168 
L 77.086314 -277.5168 
L 77.86116 -277.5168 
L 78.636005 -277.5168 
L 79.410851 -277.5168 
L 80.185697 -277.5168 
L 80.960543 -277.5168 
L 81.735389 -277.5168 
L 82.510235 -277.5168 
L 83.285081 -277.5168 
L 84.059927 -277.5168 
L 84.834773 -277.5168 
L 85.609619 -277.5168 
L 86.384465 -277.5168 
L 87.15931 -277.5168 
L 87.934156 -277.5168 
L 88.709002 -277.5168 
L 89.483848 -277.5168 
L 90.258694 -277.5168 
L 91.03354 -277.5168 
L 91.808386 -277.5168 
L 92.583232 -277.5168 
L 93.358078 -277.5168 
L 94.132924 -277.5168 
L 94.90777 -277.5168 
L 95.682615 -277.5168 
L 96.457461 -277.5168 
L 97.232307 -277.5168 
L 98.007153 -277.5168 
L 98.781999 -277.5168 
L 99.556845 -277.5168 
L 100.331691 -277.5168 
L 101.106537 -277.5168 
L 101.881383 -277.5168 
L 102.656229 -277.5168 
L 103.431075 -277.5168 
L 104.20592 -277.5168 
L 104.980766 -277.5168 
L 105.755612 -277.5168 
L 106.530458 -277.5168 
L 107.305304 -277.5168 
L 108.08015 -277.5168 
L 108.854996 -277.5168 
L 109.629842 -277.5168 
L 110.404688 -277.5168 
L 111.179534 -277.5168 
L 111.95438 -277.5168 
L 112.729225 -277.5168 
L 113.504071 -277.5168 
L 114.278917 -277.5168 
L 115.053763 -277.5168 
L 115.828609 -277.5168 
L 116.603455 -277.5168 
L 117.378301 -277.5168 
L 118.153147 -277.5168 
L 118.927993 -277.5168 
L 119.702839 -277.5168 
L 120.477685 -277.5168 
L 121.25253 -277.5168 
L 122.027376 -277.5168 
L 122.802222 -277.5168 
L 123.577068 -277.5168 
L 124.351914 -277.5168 
L 125.12676 -277.5168 
L 125.901606 -277.5168 
L 126.676452 -277.5168 
L 127.451298 -277.5168 
L 128.226144 -277.5168 
L 129.00099 -277.5168 
L 129.775835 -277.5168 
L 130.550681 -277.5168 
L 131.325527 -277.5168 
L 132.100373 -277.5168 
L 132.875219 -277.5168 
L 133.650065 -277.5168 
L 134.424911 -277.5168 
L 135.199757 -277.5168 
L 135.974603 -277.5168 
L 136.749449 -277.5168 
L 137.524295 -277.5168 
L 138.29914 -277.5168 
L 139.073986 -277.5168 
L 139.848832 -277.5168 
L 140.623678 -277.5168 
L 141.398524 -277.5168 
L 142.17337 -277.5168 
L 142.948216 -277.5168 
L 143.723062 -277.5168 
L 144.497908 -277.5168 
L 145.272754 -277.5168 
L 146.0476 -277.5168 
L 146.822445 -277.5168 
L 147.597291 -277.5168 
L 148.372137 -277.5168 
L 149.146983 -277.5168 
L 149.921829 -277.5168 
L 150.696675 -277.5168 
L 151.471521 -277.5168 
L 152.246367 -277.5168 
L 153.021213 -277.5168 
L 153.021213 -277.200939 
L 153.021213 -277.200939 
L 152.246367 -277.184131 
L 151.471521 -277.166433 
L 150.696675 -277.147589 
L 149.921829 -277.127314 
L 149.146983 -277.105291 
L 148.372137 -277.081182 
L 147.597291 -277.054634 
L 146.822445 -277.025286 
L 146.0476 -276.992782 
L 145.272754 -276.956774 
L 144.497908 -276.916939 
L 143.723062 -276.872982 
L 142.948216 -276.824651 
L 142.17337 -276.77174 
L 141.398524 -276.714103 
L 140.623678 -276.651654 
L 139.848832 -276.584376 
L 139.073986 -276.512325 
L 138.29914 -276.43563 
L 137.524295 -276.354496 
L 136.749449 -276.269204 
L 135.974603 -276.180108 
L 135.199757 -276.087634 
L 134.424911 -275.992275 
L 133.650065 -275.894588 
L 132.875219 -275.795187 
L 132.100373 -275.694739 
L 131.325527 -275.593955 
L 130.550681 -275.493586 
L 129.775835 -275.394415 
L 129.00099 -275.297248 
L 128.226144 -275.202903 
L 127.451298 -275.112209 
L 126.676452 -275.025988 
L 125.901606 -274.94505 
L 125.12676 -274.870181 
L 124.351914 -274.802131 
L 123.577068 -274.741606 
L 122.802222 -274.689253 
L 122.027376 -274.64565 
L 121.25253 -274.611298 
L 120.477685 -274.586605 
L 119.702839 -274.571881 
L 118.927993 -274.567329 
L 118.153147 -274.573038 
L 117.378301 -274.588977 
L 116.603455 -274.614996 
L 115.828609 -274.650823 
L 115.053763 -274.696064 
L 114.278917 -274.750212 
L 113.504071 -274.812649 
L 112.729225 -274.882659 
L 111.95438 -274.959431 
L 111.179534 -275.042079 
L 110.404688 -275.129649 
L 109.629842 -275.221132 
L 108.854996 -275.315482 
L 108.08015 -275.411627 
L 107.305304 -275.508484 
L 106.530458 -275.60497 
L 105.755612 -275.700018 
L 104.980766 -275.792585 
L 104.20592 -275.881666 
L 103.431075 -275.966304 
L 102.656229 -276.0456 
L 101.881383 -276.118724 
L 101.106537 -276.18492 
L 100.331691 -276.243521 
L 99.556845 -276.293954 
L 98.781999 -276.335753 
L 98.007153 -276.368563 
L 97.232307 -276.392153 
L 96.457461 -276.406423 
L 95.682615 -276.411409 
L 94.90777 -276.407293 
L 94.132924 -276.394404 
L 93.358078 -276.373222 
L 92.583232 -276.344375 
L 91.808386 -276.308638 
L 91.03354 -276.266922 
L 90.258694 -276.220266 
L 89.483848 -276.169819 
L 88.709002 -276.116824 
L 87.934156 -276.062591 
L 87.15931 -276.008475 
L 86.384465 -275.955845 
L 85.609619 -275.906054 
L 84.834773 -275.86041 
L 84.059927 -275.820142 
L 83.285081 -275.78637 
L 82.510235 -275.760083 
L 81.735389 -275.742107 
L 80.960543 -275.733089 
L 80.185697 -275.733485 
L 79.410851 -275.743545 
L 78.636005 -275.763314 
L 77.86116 -275.792632 
L 77.086314 -275.831144 
L 76.311468 -275.878317 
z
" id="m551f8f1847"/>
    </defs>
    <g clip-path="url(#p4754f9333b)">
     <use style="fill:#e1812c;" x="0" xlink:href="#m551f8f1847" y="345.6"/>
    </g>
   </g>
   <g id="PolyCollection_3">
    <defs>
     <path d="M 74.226645 -224.2944 
L 74.226645 -244.527968 
L 74.745748 -245.290526 
L 75.26485 -245.58336 
L 75.783953 -245.389853 
L 76.303056 -244.727373 
L 76.822159 -243.645083 
L 77.341261 -242.218164 
L 77.860364 -240.539378 
L 78.379467 -238.709287 
L 78.898569 -236.826527 
L 79.417672 -234.979414 
L 79.936775 -233.239816 
L 80.455878 -231.659734 
L 80.97498 -230.270598 
L 81.494083 -229.084861 
L 82.013186 -228.099231 
L 82.532289 -227.298791 
L 83.051391 -226.661293 
L 83.570494 -226.161073 
L 84.089597 -225.772212 
L 84.6087 -225.470785 
L 85.127802 -225.23621 
L 85.646905 -225.051805 
L 86.166008 -224.904748 
L 86.68511 -224.785645 
L 87.204213 -224.687896 
L 87.723316 -224.607 
L 88.242419 -224.539915 
L 88.761521 -224.484525 
L 89.280624 -224.439248 
L 89.799727 -224.402776 
L 90.31883 -224.373924 
L 90.837932 -224.351567 
L 91.357035 -224.334625 
L 91.876138 -224.322088 
L 92.395241 -224.313034 
L 92.914343 -224.306656 
L 93.433446 -224.302277 
L 93.952549 -224.299345 
L 94.471651 -224.297431 
L 94.990754 -224.296215 
L 95.509857 -224.295461 
L 96.02896 -224.295005 
L 96.548062 -224.294737 
L 97.067165 -224.294583 
L 97.586268 -224.294497 
L 98.105371 -224.29445 
L 98.624473 -224.294425 
L 99.143576 -224.294413 
L 99.662679 -224.294406 
L 100.181782 -224.294403 
L 100.700884 -224.294401 
L 101.219987 -224.294401 
L 101.73909 -224.2944 
L 102.258192 -224.2944 
L 102.777295 -224.2944 
L 103.296398 -224.2944 
L 103.815501 -224.2944 
L 104.334603 -224.2944 
L 104.853706 -224.2944 
L 105.372809 -224.2944 
L 105.891912 -224.2944 
L 106.411014 -224.2944 
L 106.930117 -224.2944 
L 107.44922 -224.2944 
L 107.968322 -224.2944 
L 108.487425 -224.294401 
L 109.006528 -224.294402 
L 109.525631 -224.294404 
L 110.044733 -224.294407 
L 110.563836 -224.294415 
L 111.082939 -224.294431 
L 111.602042 -224.294461 
L 112.121144 -224.294516 
L 112.640247 -224.294617 
L 113.15935 -224.294796 
L 113.678453 -224.295104 
L 114.197555 -224.295623 
L 114.716658 -224.296471 
L 115.235761 -224.297822 
L 115.754863 -224.299919 
L 116.273966 -224.303084 
L 116.793069 -224.307735 
L 117.312172 -224.31438 
L 117.831274 -224.323612 
L 118.350377 -224.336077 
L 118.86948 -224.35242 
L 119.388583 -224.373216 
L 119.907685 -224.398874 
L 120.426788 -224.429533 
L 120.945891 -224.464957 
L 121.464994 -224.504457 
L 121.984096 -224.546841 
L 122.503199 -224.590433 
L 123.022302 -224.633148 
L 123.541404 -224.672643 
L 124.060507 -224.706518 
L 124.57961 -224.732557 
L 125.098713 -224.748963 
L 125.617815 -224.754567 
L 125.617815 -224.2944 
L 125.617815 -224.2944 
L 125.098713 -224.2944 
L 124.57961 -224.2944 
L 124.060507 -224.2944 
L 123.541404 -224.2944 
L 123.022302 -224.2944 
L 122.503199 -224.2944 
L 121.984096 -224.2944 
L 121.464994 -224.2944 
L 120.945891 -224.2944 
L 120.426788 -224.2944 
L 119.907685 -224.2944 
L 119.388583 -224.2944 
L 118.86948 -224.2944 
L 118.350377 -224.2944 
L 117.831274 -224.2944 
L 117.312172 -224.2944 
L 116.793069 -224.2944 
L 116.273966 -224.2944 
L 115.754863 -224.2944 
L 115.235761 -224.2944 
L 114.716658 -224.2944 
L 114.197555 -224.2944 
L 113.678453 -224.2944 
L 113.15935 -224.2944 
L 112.640247 -224.2944 
L 112.121144 -224.2944 
L 111.602042 -224.2944 
L 111.082939 -224.2944 
L 110.563836 -224.2944 
L 110.044733 -224.2944 
L 109.525631 -224.2944 
L 109.006528 -224.2944 
L 108.487425 -224.2944 
L 107.968322 -224.2944 
L 107.44922 -224.2944 
L 106.930117 -224.2944 
L 106.411014 -224.2944 
L 105.891912 -224.2944 
L 105.372809 -224.2944 
L 104.853706 -224.2944 
L 104.334603 -224.2944 
L 103.815501 -224.2944 
L 103.296398 -224.2944 
L 102.777295 -224.2944 
L 102.258192 -224.2944 
L 101.73909 -224.2944 
L 101.219987 -224.2944 
L 100.700884 -224.2944 
L 100.181782 -224.2944 
L 99.662679 -224.2944 
L 99.143576 -224.2944 
L 98.624473 -224.2944 
L 98.105371 -224.2944 
L 97.586268 -224.2944 
L 97.067165 -224.2944 
L 96.548062 -224.2944 
L 96.02896 -224.2944 
L 95.509857 -224.2944 
L 94.990754 -224.2944 
L 94.471651 -224.2944 
L 93.952549 -224.2944 
L 93.433446 -224.2944 
L 92.914343 -224.2944 
L 92.395241 -224.2944 
L 91.876138 -224.2944 
L 91.357035 -224.2944 
L 90.837932 -224.2944 
L 90.31883 -224.2944 
L 89.799727 -224.2944 
L 89.280624 -224.2944 
L 88.761521 -224.2944 
L 88.242419 -224.2944 
L 87.723316 -224.2944 
L 87.204213 -224.2944 
L 86.68511 -224.2944 
L 86.166008 -224.2944 
L 85.646905 -224.2944 
L 85.127802 -224.2944 
L 84.6087 -224.2944 
L 84.089597 -224.2944 
L 83.570494 -224.2944 
L 83.051391 -224.2944 
L 82.532289 -224.2944 
L 82.013186 -224.2944 
L 81.494083 -224.2944 
L 80.97498 -224.2944 
L 80.455878 -224.2944 
L 79.936775 -224.2944 
L 79.417672 -224.2944 
L 78.898569 -224.2944 
L 78.379467 -224.2944 
L 77.860364 -224.2944 
L 77.341261 -224.2944 
L 76.822159 -224.2944 
L 76.303056 -224.2944 
L 75.783953 -224.2944 
L 75.26485 -224.2944 
L 74.745748 -224.2944 
L 74.226645 -224.2944 
z
" id="meecb04ea22"/>
    </defs>
    <g clip-path="url(#p4754f9333b)">
     <use style="fill:#3274a1;" x="0" xlink:href="#meecb04ea22" y="345.6"/>
    </g>
   </g>
   <g id="PolyCollection_4">
    <defs>
     <path d="M 77.118562 -219.765641 
L 77.118562 -224.2944 
L 77.794708 -224.2944 
L 78.470854 -224.2944 
L 79.147 -224.2944 
L 79.823146 -224.2944 
L 80.499291 -224.2944 
L 81.175437 -224.2944 
L 81.851583 -224.2944 
L 82.527729 -224.2944 
L 83.203875 -224.2944 
L 83.880021 -224.2944 
L 84.556166 -224.2944 
L 85.232312 -224.2944 
L 85.908458 -224.2944 
L 86.584604 -224.2944 
L 87.26075 -224.2944 
L 87.936896 -224.2944 
L 88.613041 -224.2944 
L 89.289187 -224.2944 
L 89.965333 -224.2944 
L 90.641479 -224.2944 
L 91.317625 -224.2944 
L 91.993771 -224.2944 
L 92.669916 -224.2944 
L 93.346062 -224.2944 
L 94.022208 -224.2944 
L 94.698354 -224.2944 
L 95.3745 -224.2944 
L 96.050646 -224.2944 
L 96.726791 -224.2944 
L 97.402937 -224.2944 
L 98.079083 -224.2944 
L 98.755229 -224.2944 
L 99.431375 -224.2944 
L 100.107521 -224.2944 
L 100.783666 -224.2944 
L 101.459812 -224.2944 
L 102.135958 -224.2944 
L 102.812104 -224.2944 
L 103.48825 -224.2944 
L 104.164396 -224.2944 
L 104.840541 -224.2944 
L 105.516687 -224.2944 
L 106.192833 -224.2944 
L 106.868979 -224.2944 
L 107.545125 -224.2944 
L 108.221271 -224.2944 
L 108.897416 -224.2944 
L 109.573562 -224.2944 
L 110.249708 -224.2944 
L 110.925854 -224.2944 
L 111.602 -224.2944 
L 112.278146 -224.2944 
L 112.954291 -224.2944 
L 113.630437 -224.2944 
L 114.306583 -224.2944 
L 114.982729 -224.2944 
L 115.658875 -224.2944 
L 116.335021 -224.2944 
L 117.011166 -224.2944 
L 117.687312 -224.2944 
L 118.363458 -224.2944 
L 119.039604 -224.2944 
L 119.71575 -224.2944 
L 120.391896 -224.2944 
L 121.068041 -224.2944 
L 121.744187 -224.2944 
L 122.420333 -224.2944 
L 123.096479 -224.2944 
L 123.772625 -224.2944 
L 124.44877 -224.2944 
L 125.124916 -224.2944 
L 125.801062 -224.2944 
L 126.477208 -224.2944 
L 127.153354 -224.2944 
L 127.8295 -224.2944 
L 128.505645 -224.2944 
L 129.181791 -224.2944 
L 129.857937 -224.2944 
L 130.534083 -224.2944 
L 131.210229 -224.2944 
L 131.886375 -224.2944 
L 132.56252 -224.2944 
L 133.238666 -224.2944 
L 133.914812 -224.2944 
L 134.590958 -224.2944 
L 135.267104 -224.2944 
L 135.94325 -224.2944 
L 136.619395 -224.2944 
L 137.295541 -224.2944 
L 137.971687 -224.2944 
L 138.647833 -224.2944 
L 139.323979 -224.2944 
L 140.000125 -224.2944 
L 140.67627 -224.2944 
L 141.352416 -224.2944 
L 142.028562 -224.2944 
L 142.704708 -224.2944 
L 143.380854 -224.2944 
L 144.057 -224.2944 
L 144.057 -223.840327 
L 144.057 -223.840327 
L 143.380854 -223.804356 
L 142.704708 -223.766382 
L 142.028562 -223.726405 
L 141.352416 -223.684448 
L 140.67627 -223.640559 
L 140.000125 -223.594816 
L 139.323979 -223.547323 
L 138.647833 -223.498216 
L 137.971687 -223.447657 
L 137.295541 -223.39584 
L 136.619395 -223.342979 
L 135.94325 -223.289316 
L 135.267104 -223.235109 
L 134.590958 -223.18063 
L 133.914812 -223.126163 
L 133.238666 -223.071995 
L 132.56252 -223.018411 
L 131.886375 -222.965694 
L 131.210229 -222.914114 
L 130.534083 -222.863928 
L 129.857937 -222.815372 
L 129.181791 -222.768664 
L 128.505645 -222.724 
L 127.8295 -222.681548 
L 127.153354 -222.641456 
L 126.477208 -222.603848 
L 125.801062 -222.568823 
L 125.124916 -222.536463 
L 124.44877 -222.50683 
L 123.772625 -222.479972 
L 123.096479 -222.455923 
L 122.420333 -222.434704 
L 121.744187 -222.416329 
L 121.068041 -222.400804 
L 120.391896 -222.388126 
L 119.71575 -222.378288 
L 119.039604 -222.371274 
L 118.363458 -222.367059 
L 117.687312 -222.365608 
L 117.011166 -222.366874 
L 116.335021 -222.370794 
L 115.658875 -222.377288 
L 114.982729 -222.386252 
L 114.306583 -222.39756 
L 113.630437 -222.411057 
L 112.954291 -222.426557 
L 112.278146 -222.443842 
L 111.602 -222.462656 
L 110.925854 -222.482706 
L 110.249708 -222.50366 
L 109.573562 -222.525146 
L 108.897416 -222.54675 
L 108.221271 -222.568018 
L 107.545125 -222.588455 
L 106.868979 -222.607526 
L 106.192833 -222.62466 
L 105.516687 -222.63925 
L 104.840541 -222.65066 
L 104.164396 -222.658225 
L 103.48825 -222.661258 
L 102.812104 -222.65906 
L 102.135958 -222.650925 
L 101.459812 -222.63615 
L 100.783666 -222.614047 
L 100.107521 -222.583955 
L 99.431375 -222.545256 
L 98.755229 -222.497389 
L 98.079083 -222.439867 
L 97.402937 -222.372298 
L 96.726791 -222.294399 
L 96.050646 -222.206019 
L 95.3745 -222.107152 
L 94.698354 -221.997962 
L 94.022208 -221.878791 
L 93.346062 -221.750174 
L 92.669916 -221.612851 
L 91.993771 -221.467769 
L 91.317625 -221.316087 
L 90.641479 -221.159168 
L 89.965333 -220.99857 
L 89.289187 -220.836034 
L 88.613041 -220.673457 
L 87.936896 -220.512868 
L 87.26075 -220.356393 
L 86.584604 -220.206223 
L 85.908458 -220.064563 
L 85.232312 -219.933595 
L 84.556166 -219.81543 
L 83.880021 -219.712059 
L 83.203875 -219.62531 
L 82.527729 -219.556802 
L 81.851583 -219.507908 
L 81.175437 -219.479718 
L 80.499291 -219.473015 
L 79.823146 -219.488251 
L 79.147 -219.525537 
L 78.470854 -219.584635 
L 77.794708 -219.664971 
L 77.118562 -219.765641 
z
" id="mb057e5a99f"/>
    </defs>
    <g clip-path="url(#p4754f9333b)">
     <use style="fill:#e1812c;" x="0" xlink:href="#mb057e5a99f" y="345.6"/>
    </g>
   </g>
   <g id="PolyCollection_5">
    <defs>
     <path d="M 73.757643 -171.072 
L 73.757643 -185.626105 
L 74.042634 -187.398503 
L 74.327625 -189.005071 
L 74.612616 -190.364886 
L 74.897607 -191.408287 
L 75.182598 -192.083419 
L 75.467589 -192.36096 
L 75.75258 -192.236404 
L 76.037571 -191.72961 
L 76.322562 -190.881795 
L 76.607553 -189.750528 
L 76.892544 -188.403525 
L 77.177535 -186.912183 
L 77.462526 -185.345669 
L 77.747517 -183.766224 
L 78.032508 -182.226003 
L 78.317499 -180.765509 
L 78.60249 -179.413437 
L 78.887481 -178.187563 
L 79.172472 -177.096301 
L 79.457463 -176.140538 
L 79.742454 -175.315473 
L 80.027445 -174.612289 
L 80.312436 -174.019569 
L 80.597428 -173.52446 
L 80.882419 -173.113607 
L 81.16741 -172.773896 
L 81.452401 -172.493043 
L 81.737392 -172.260029 
L 82.022383 -172.065382 
L 82.307374 -171.901318 
L 82.592365 -171.761726 
L 82.877356 -171.642026 
L 83.162347 -171.53893 
L 83.447338 -171.450153 
L 83.732329 -171.374098 
L 84.01732 -171.309584 
L 84.302311 -171.255623 
L 84.587302 -171.211268 
L 84.872293 -171.175533 
L 85.157284 -171.147369 
L 85.442275 -171.125685 
L 85.727266 -171.109393 
L 86.012257 -171.097457 
L 86.297248 -171.088932 
L 86.582239 -171.083 
L 86.86723 -171.078978 
L 87.152221 -171.076321 
L 87.437212 -171.074612 
L 87.722203 -171.073541 
L 88.007194 -171.072887 
L 88.292185 -171.072499 
L 88.577176 -171.072273 
L 88.862167 -171.072146 
L 89.147158 -171.072076 
L 89.432149 -171.072039 
L 89.71714 -171.072019 
L 90.002131 -171.072009 
L 90.287122 -171.072004 
L 90.572113 -171.072002 
L 90.857104 -171.072001 
L 91.142095 -171.072 
L 91.427086 -171.072 
L 91.712077 -171.072 
L 91.997068 -171.072 
L 92.282059 -171.072 
L 92.56705 -171.072001 
L 92.852041 -171.072002 
L 93.137032 -171.072003 
L 93.422023 -171.072007 
L 93.707014 -171.072015 
L 93.992005 -171.072031 
L 94.276996 -171.072062 
L 94.561987 -171.072119 
L 94.846978 -171.072224 
L 95.131969 -171.072412 
L 95.41696 -171.072738 
L 95.701951 -171.07329 
L 95.986942 -171.074198 
L 96.271933 -171.075654 
L 96.556924 -171.077927 
L 96.841915 -171.081377 
L 97.126906 -171.086472 
L 97.411897 -171.093788 
L 97.696888 -171.104 
L 97.981879 -171.117848 
L 98.26687 -171.136079 
L 98.551862 -171.159365 
L 98.836853 -171.188196 
L 99.121844 -171.222757 
L 99.406835 -171.262806 
L 99.691826 -171.307579 
L 99.976817 -171.355733 
L 100.261808 -171.405361 
L 100.546799 -171.454076 
L 100.83179 -171.499183 
L 101.116781 -171.537918 
L 101.401772 -171.567717 
L 101.686763 -171.586504 
L 101.971754 -171.592924 
L 101.971754 -171.072 
L 101.971754 -171.072 
L 101.686763 -171.072 
L 101.401772 -171.072 
L 101.116781 -171.072 
L 100.83179 -171.072 
L 100.546799 -171.072 
L 100.261808 -171.072 
L 99.976817 -171.072 
L 99.691826 -171.072 
L 99.406835 -171.072 
L 99.121844 -171.072 
L 98.836853 -171.072 
L 98.551862 -171.072 
L 98.26687 -171.072 
L 97.981879 -171.072 
L 97.696888 -171.072 
L 97.411897 -171.072 
L 97.126906 -171.072 
L 96.841915 -171.072 
L 96.556924 -171.072 
L 96.271933 -171.072 
L 95.986942 -171.072 
L 95.701951 -171.072 
L 95.41696 -171.072 
L 95.131969 -171.072 
L 94.846978 -171.072 
L 94.561987 -171.072 
L 94.276996 -171.072 
L 93.992005 -171.072 
L 93.707014 -171.072 
L 93.422023 -171.072 
L 93.137032 -171.072 
L 92.852041 -171.072 
L 92.56705 -171.072 
L 92.282059 -171.072 
L 91.997068 -171.072 
L 91.712077 -171.072 
L 91.427086 -171.072 
L 91.142095 -171.072 
L 90.857104 -171.072 
L 90.572113 -171.072 
L 90.287122 -171.072 
L 90.002131 -171.072 
L 89.71714 -171.072 
L 89.432149 -171.072 
L 89.147158 -171.072 
L 88.862167 -171.072 
L 88.577176 -171.072 
L 88.292185 -171.072 
L 88.007194 -171.072 
L 87.722203 -171.072 
L 87.437212 -171.072 
L 87.152221 -171.072 
L 86.86723 -171.072 
L 86.582239 -171.072 
L 86.297248 -171.072 
L 86.012257 -171.072 
L 85.727266 -171.072 
L 85.442275 -171.072 
L 85.157284 -171.072 
L 84.872293 -171.072 
L 84.587302 -171.072 
L 84.302311 -171.072 
L 84.01732 -171.072 
L 83.732329 -171.072 
L 83.447338 -171.072 
L 83.162347 -171.072 
L 82.877356 -171.072 
L 82.592365 -171.072 
L 82.307374 -171.072 
L 82.022383 -171.072 
L 81.737392 -171.072 
L 81.452401 -171.072 
L 81.16741 -171.072 
L 80.882419 -171.072 
L 80.597428 -171.072 
L 80.312436 -171.072 
L 80.027445 -171.072 
L 79.742454 -171.072 
L 79.457463 -171.072 
L 79.172472 -171.072 
L 78.887481 -171.072 
L 78.60249 -171.072 
L 78.317499 -171.072 
L 78.032508 -171.072 
L 77.747517 -171.072 
L 77.462526 -171.072 
L 77.177535 -171.072 
L 76.892544 -171.072 
L 76.607553 -171.072 
L 76.322562 -171.072 
L 76.037571 -171.072 
L 75.75258 -171.072 
L 75.467589 -171.072 
L 75.182598 -171.072 
L 74.897607 -171.072 
L 74.612616 -171.072 
L 74.327625 -171.072 
L 74.042634 -171.072 
L 73.757643 -171.072 
z
" id="md5cb346e8f"/>
    </defs>
    <g clip-path="url(#p4754f9333b)">
     <use style="fill:#3274a1;" x="0" xlink:href="#md5cb346e8f" y="345.6"/>
    </g>
   </g>
   <g id="PolyCollection_6">
    <defs>
     <path d="M 77.287183 -168.406169 
L 77.287183 -171.072 
L 77.962552 -171.072 
L 78.637921 -171.072 
L 79.31329 -171.072 
L 79.988659 -171.072 
L 80.664028 -171.072 
L 81.339397 -171.072 
L 82.014765 -171.072 
L 82.690134 -171.072 
L 83.365503 -171.072 
L 84.040872 -171.072 
L 84.716241 -171.072 
L 85.39161 -171.072 
L 86.066979 -171.072 
L 86.742348 -171.072 
L 87.417717 -171.072 
L 88.093086 -171.072 
L 88.768455 -171.072 
L 89.443824 -171.072 
L 90.119193 -171.072 
L 90.794562 -171.072 
L 91.46993 -171.072 
L 92.145299 -171.072 
L 92.820668 -171.072 
L 93.496037 -171.072 
L 94.171406 -171.072 
L 94.846775 -171.072 
L 95.522144 -171.072 
L 96.197513 -171.072 
L 96.872882 -171.072 
L 97.548251 -171.072 
L 98.22362 -171.072 
L 98.898989 -171.072 
L 99.574358 -171.072 
L 100.249727 -171.072 
L 100.925095 -171.072 
L 101.600464 -171.072 
L 102.275833 -171.072 
L 102.951202 -171.072 
L 103.626571 -171.072 
L 104.30194 -171.072 
L 104.977309 -171.072 
L 105.652678 -171.072 
L 106.328047 -171.072 
L 107.003416 -171.072 
L 107.678785 -171.072 
L 108.354154 -171.072 
L 109.029523 -171.072 
L 109.704892 -171.072 
L 110.38026 -171.072 
L 111.055629 -171.072 
L 111.730998 -171.072 
L 112.406367 -171.072 
L 113.081736 -171.072 
L 113.757105 -171.072 
L 114.432474 -171.072 
L 115.107843 -171.072 
L 115.783212 -171.072 
L 116.458581 -171.072 
L 117.13395 -171.072 
L 117.809319 -171.072 
L 118.484688 -171.072 
L 119.160057 -171.072 
L 119.835425 -171.072 
L 120.510794 -171.072 
L 121.186163 -171.072 
L 121.861532 -171.072 
L 122.536901 -171.072 
L 123.21227 -171.072 
L 123.887639 -171.072 
L 124.563008 -171.072 
L 125.238377 -171.072 
L 125.913746 -171.072 
L 126.589115 -171.072 
L 127.264484 -171.072 
L 127.939853 -171.072 
L 128.615221 -171.072 
L 129.29059 -171.072 
L 129.965959 -171.072 
L 130.641328 -171.072 
L 131.316697 -171.072 
L 131.992066 -171.072 
L 132.667435 -171.072 
L 133.342804 -171.072 
L 134.018173 -171.072 
L 134.693542 -171.072 
L 135.368911 -171.072 
L 136.04428 -171.072 
L 136.719649 -171.072 
L 137.395018 -171.072 
L 138.070386 -171.072 
L 138.745755 -171.072 
L 139.421124 -171.072 
L 140.096493 -171.072 
L 140.771862 -171.072 
L 141.447231 -171.072 
L 142.1226 -171.072 
L 142.797969 -171.072 
L 143.473338 -171.072 
L 144.148707 -171.072 
L 144.148707 -170.891939 
L 144.148707 -170.891939 
L 143.473338 -170.880267 
L 142.797969 -170.867651 
L 142.1226 -170.853941 
L 141.447231 -170.838976 
L 140.771862 -170.822583 
L 140.096493 -170.804584 
L 139.421124 -170.784799 
L 138.745755 -170.763046 
L 138.070386 -170.739149 
L 137.395018 -170.71294 
L 136.719649 -170.684266 
L 136.04428 -170.652991 
L 135.368911 -170.619001 
L 134.693542 -170.58221 
L 134.018173 -170.542563 
L 133.342804 -170.500041 
L 132.667435 -170.454663 
L 131.992066 -170.406489 
L 131.316697 -170.355623 
L 130.641328 -170.302216 
L 129.965959 -170.246463 
L 129.29059 -170.188607 
L 128.615221 -170.128936 
L 127.939853 -170.067779 
L 127.264484 -170.00551 
L 126.589115 -169.942536 
L 125.913746 -169.879301 
L 125.238377 -169.816273 
L 124.563008 -169.753945 
L 123.887639 -169.692825 
L 123.21227 -169.633432 
L 122.536901 -169.576285 
L 121.861532 -169.521901 
L 121.186163 -169.470783 
L 120.510794 -169.423416 
L 119.835425 -169.380259 
L 119.160057 -169.341738 
L 118.484688 -169.308241 
L 117.809319 -169.28011 
L 117.13395 -169.257636 
L 116.458581 -169.241056 
L 115.783212 -169.230545 
L 115.107843 -169.226218 
L 114.432474 -169.228119 
L 113.757105 -169.236226 
L 113.081736 -169.250445 
L 112.406367 -169.270609 
L 111.730998 -169.296479 
L 111.055629 -169.327744 
L 110.38026 -169.36402 
L 109.704892 -169.404853 
L 109.029523 -169.449724 
L 108.354154 -169.498044 
L 107.678785 -169.549169 
L 107.003416 -169.602395 
L 106.328047 -169.656968 
L 105.652678 -169.712091 
L 104.977309 -169.766929 
L 104.30194 -169.820617 
L 103.626571 -169.872273 
L 102.951202 -169.921 
L 102.275833 -169.965904 
L 101.600464 -170.006103 
L 100.925095 -170.040737 
L 100.249727 -170.068982 
L 99.574358 -170.090066 
L 98.898989 -170.103279 
L 98.22362 -170.10799 
L 97.548251 -170.10366 
L 96.872882 -170.089857 
L 96.197513 -170.066269 
L 95.522144 -170.03272 
L 94.846775 -169.989176 
L 94.171406 -169.935764 
L 93.496037 -169.872771 
L 92.820668 -169.800658 
L 92.145299 -169.720059 
L 91.46993 -169.631781 
L 90.794562 -169.536802 
L 90.119193 -169.436259 
L 89.443824 -169.33144 
L 88.768455 -169.223766 
L 88.093086 -169.114769 
L 87.417717 -169.006065 
L 86.742348 -168.899333 
L 86.066979 -168.796274 
L 85.39161 -168.698584 
L 84.716241 -168.607916 
L 84.040872 -168.525843 
L 83.365503 -168.453825 
L 82.690134 -168.393176 
L 82.014765 -168.345029 
L 81.339397 -168.310316 
L 80.664028 -168.289739 
L 79.988659 -168.283761 
L 79.31329 -168.292588 
L 78.637921 -168.316173 
L 77.962552 -168.354214 
L 77.287183 -168.406169 
z
" id="mc58a8e7b90"/>
    </defs>
    <g clip-path="url(#p4754f9333b)">
     <use style="fill:#e1812c;" x="0" xlink:href="#mc58a8e7b90" y="345.6"/>
    </g>
   </g>
   <g id="PolyCollection_7">
    <defs>
     <path d="M 74.183221 -117.8496 
L 74.183221 -134.981482 
L 74.423025 -136.294502 
L 74.662829 -137.403745 
L 74.902633 -138.266737 
L 75.142436 -138.851474 
L 75.38224 -139.13856 
L 75.622044 -139.122319 
L 75.861848 -138.810806 
L 76.101651 -138.224735 
L 76.341455 -137.3955 
L 76.581259 -136.362518 
L 76.821063 -135.17022 
L 77.060866 -133.864986 
L 77.30067 -132.492338 
L 77.540474 -131.094585 
L 77.780278 -129.709083 
L 78.020081 -128.367151 
L 78.259885 -127.093611 
L 78.499689 -125.906859 
L 78.739493 -124.819346 
L 78.979297 -123.838302 
L 79.2191 -122.966591 
L 79.458904 -122.203566 
L 79.698708 -121.545857 
L 79.938512 -120.988038 
L 80.178315 -120.523173 
L 80.418119 -120.143236 
L 80.657923 -119.839447 
L 80.897727 -119.602548 
L 81.13753 -119.423043 
L 81.377334 -119.29143 
L 81.617138 -119.19844 
L 81.856942 -119.135276 
L 82.096745 -119.093843 
L 82.336549 -119.066961 
L 82.576353 -119.048541 
L 82.816157 -119.033698 
L 83.05596 -119.0188 
L 83.295764 -119.001436 
L 83.535568 -118.980307 
L 83.775372 -118.955053 
L 84.015175 -118.92602 
L 84.254979 -118.894012 
L 84.494783 -118.860031 
L 84.734587 -118.825047 
L 84.97439 -118.789813 
L 85.214194 -118.754751 
L 85.453998 -118.719904 
L 85.693802 -118.684962 
L 85.933605 -118.649351 
L 86.173409 -118.612351 
L 86.413213 -118.573253 
L 86.653017 -118.53149 
L 86.89282 -118.486754 
L 87.132624 -118.439068 
L 87.372428 -118.388804 
L 87.612232 -118.336664 
L 87.852035 -118.283601 
L 88.091839 -118.230729 
L 88.331643 -118.17921 
L 88.571447 -118.130145 
L 88.81125 -118.084486 
L 89.051054 -118.042969 
L 89.290858 -118.006076 
L 89.530662 -117.974031 
L 89.770465 -117.946818 
L 90.010269 -117.924221 
L 90.250073 -117.905868 
L 90.489877 -117.891294 
L 90.72968 -117.879983 
L 90.969484 -117.871417 
L 91.209288 -117.865112 
L 91.449092 -117.860644 
L 91.688895 -117.857667 
L 91.928699 -117.855922 
L 92.168503 -117.855246 
L 92.408307 -117.855573 
L 92.64811 -117.856934 
L 92.887914 -117.859457 
L 93.127718 -117.863364 
L 93.367522 -117.868967 
L 93.607325 -117.876656 
L 93.847129 -117.886883 
L 94.086933 -117.900133 
L 94.326737 -117.916891 
L 94.56654 -117.937592 
L 94.806344 -117.962568 
L 95.046148 -117.99198 
L 95.285952 -118.025763 
L 95.525755 -118.063565 
L 95.765559 -118.104712 
L 96.005363 -118.148193 
L 96.245167 -118.192674 
L 96.484971 -118.23655 
L 96.724774 -118.278031 
L 96.964578 -118.315256 
L 97.204382 -118.346431 
L 97.444186 -118.369969 
L 97.683989 -118.384624 
L 97.923793 -118.3896 
L 97.923793 -117.8496 
L 97.923793 -117.8496 
L 97.683989 -117.8496 
L 97.444186 -117.8496 
L 97.204382 -117.8496 
L 96.964578 -117.8496 
L 96.724774 -117.8496 
L 96.484971 -117.8496 
L 96.245167 -117.8496 
L 96.005363 -117.8496 
L 95.765559 -117.8496 
L 95.525755 -117.8496 
L 95.285952 -117.8496 
L 95.046148 -117.8496 
L 94.806344 -117.8496 
L 94.56654 -117.8496 
L 94.326737 -117.8496 
L 94.086933 -117.8496 
L 93.847129 -117.8496 
L 93.607325 -117.8496 
L 93.367522 -117.8496 
L 93.127718 -117.8496 
L 92.887914 -117.8496 
L 92.64811 -117.8496 
L 92.408307 -117.8496 
L 92.168503 -117.8496 
L 91.928699 -117.8496 
L 91.688895 -117.8496 
L 91.449092 -117.8496 
L 91.209288 -117.8496 
L 90.969484 -117.8496 
L 90.72968 -117.8496 
L 90.489877 -117.8496 
L 90.250073 -117.8496 
L 90.010269 -117.8496 
L 89.770465 -117.8496 
L 89.530662 -117.8496 
L 89.290858 -117.8496 
L 89.051054 -117.8496 
L 88.81125 -117.8496 
L 88.571447 -117.8496 
L 88.331643 -117.8496 
L 88.091839 -117.8496 
L 87.852035 -117.8496 
L 87.612232 -117.8496 
L 87.372428 -117.8496 
L 87.132624 -117.8496 
L 86.89282 -117.8496 
L 86.653017 -117.8496 
L 86.413213 -117.8496 
L 86.173409 -117.8496 
L 85.933605 -117.8496 
L 85.693802 -117.8496 
L 85.453998 -117.8496 
L 85.214194 -117.8496 
L 84.97439 -117.8496 
L 84.734587 -117.8496 
L 84.494783 -117.8496 
L 84.254979 -117.8496 
L 84.015175 -117.8496 
L 83.775372 -117.8496 
L 83.535568 -117.8496 
L 83.295764 -117.8496 
L 83.05596 -117.8496 
L 82.816157 -117.8496 
L 82.576353 -117.8496 
L 82.336549 -117.8496 
L 82.096745 -117.8496 
L 81.856942 -117.8496 
L 81.617138 -117.8496 
L 81.377334 -117.8496 
L 81.13753 -117.8496 
L 80.897727 -117.8496 
L 80.657923 -117.8496 
L 80.418119 -117.8496 
L 80.178315 -117.8496 
L 79.938512 -117.8496 
L 79.698708 -117.8496 
L 79.458904 -117.8496 
L 79.2191 -117.8496 
L 78.979297 -117.8496 
L 78.739493 -117.8496 
L 78.499689 -117.8496 
L 78.259885 -117.8496 
L 78.020081 -117.8496 
L 77.780278 -117.8496 
L 77.540474 -117.8496 
L 77.30067 -117.8496 
L 77.060866 -117.8496 
L 76.821063 -117.8496 
L 76.581259 -117.8496 
L 76.341455 -117.8496 
L 76.101651 -117.8496 
L 75.861848 -117.8496 
L 75.622044 -117.8496 
L 75.38224 -117.8496 
L 75.142436 -117.8496 
L 74.902633 -117.8496 
L 74.662829 -117.8496 
L 74.423025 -117.8496 
L 74.183221 -117.8496 
z
" id="m0d0041665e"/>
    </defs>
    <g clip-path="url(#p4754f9333b)">
     <use style="fill:#3274a1;" x="0" xlink:href="#m0d0041665e" y="345.6"/>
    </g>
   </g>
   <g id="PolyCollection_8">
    <defs>
     <path d="M 76.517942 -115.612398 
L 76.517942 -117.8496 
L 77.084428 -117.8496 
L 77.650913 -117.8496 
L 78.217399 -117.8496 
L 78.783884 -117.8496 
L 79.35037 -117.8496 
L 79.916856 -117.8496 
L 80.483341 -117.8496 
L 81.049827 -117.8496 
L 81.616313 -117.8496 
L 82.182798 -117.8496 
L 82.749284 -117.8496 
L 83.315769 -117.8496 
L 83.882255 -117.8496 
L 84.448741 -117.8496 
L 85.015226 -117.8496 
L 85.581712 -117.8496 
L 86.148197 -117.8496 
L 86.714683 -117.8496 
L 87.281169 -117.8496 
L 87.847654 -117.8496 
L 88.41414 -117.8496 
L 88.980625 -117.8496 
L 89.547111 -117.8496 
L 90.113597 -117.8496 
L 90.680082 -117.8496 
L 91.246568 -117.8496 
L 91.813053 -117.8496 
L 92.379539 -117.8496 
L 92.946025 -117.8496 
L 93.51251 -117.8496 
L 94.078996 -117.8496 
L 94.645481 -117.8496 
L 95.211967 -117.8496 
L 95.778453 -117.8496 
L 96.344938 -117.8496 
L 96.911424 -117.8496 
L 97.47791 -117.8496 
L 98.044395 -117.8496 
L 98.610881 -117.8496 
L 99.177366 -117.8496 
L 99.743852 -117.8496 
L 100.310338 -117.8496 
L 100.876823 -117.8496 
L 101.443309 -117.8496 
L 102.009794 -117.8496 
L 102.57628 -117.8496 
L 103.142766 -117.8496 
L 103.709251 -117.8496 
L 104.275737 -117.8496 
L 104.842222 -117.8496 
L 105.408708 -117.8496 
L 105.975194 -117.8496 
L 106.541679 -117.8496 
L 107.108165 -117.8496 
L 107.67465 -117.8496 
L 108.241136 -117.8496 
L 108.807622 -117.8496 
L 109.374107 -117.8496 
L 109.940593 -117.8496 
L 110.507078 -117.8496 
L 111.073564 -117.8496 
L 111.64005 -117.8496 
L 112.206535 -117.8496 
L 112.773021 -117.8496 
L 113.339507 -117.8496 
L 113.905992 -117.8496 
L 114.472478 -117.8496 
L 115.038963 -117.8496 
L 115.605449 -117.8496 
L 116.171935 -117.8496 
L 116.73842 -117.8496 
L 117.304906 -117.8496 
L 117.871391 -117.8496 
L 118.437877 -117.8496 
L 119.004363 -117.8496 
L 119.570848 -117.8496 
L 120.137334 -117.8496 
L 120.703819 -117.8496 
L 121.270305 -117.8496 
L 121.836791 -117.8496 
L 122.403276 -117.8496 
L 122.969762 -117.8496 
L 123.536247 -117.8496 
L 124.102733 -117.8496 
L 124.669219 -117.8496 
L 125.235704 -117.8496 
L 125.80219 -117.8496 
L 126.368675 -117.8496 
L 126.935161 -117.8496 
L 127.501647 -117.8496 
L 128.068132 -117.8496 
L 128.634618 -117.8496 
L 129.201104 -117.8496 
L 129.767589 -117.8496 
L 130.334075 -117.8496 
L 130.90056 -117.8496 
L 131.467046 -117.8496 
L 132.033532 -117.8496 
L 132.600017 -117.8496 
L 132.600017 -117.123999 
L 132.600017 -117.123999 
L 132.033532 -117.068881 
L 131.467046 -117.011614 
L 130.90056 -116.952318 
L 130.334075 -116.891136 
L 129.767589 -116.828237 
L 129.201104 -116.763806 
L 128.634618 -116.698054 
L 128.068132 -116.631212 
L 127.501647 -116.56353 
L 126.935161 -116.495277 
L 126.368675 -116.426741 
L 125.80219 -116.358225 
L 125.235704 -116.290044 
L 124.669219 -116.222529 
L 124.102733 -116.156018 
L 123.536247 -116.090858 
L 122.969762 -116.0274 
L 122.403276 -115.965999 
L 121.836791 -115.907009 
L 121.270305 -115.85078 
L 120.703819 -115.797656 
L 120.137334 -115.747973 
L 119.570848 -115.702053 
L 119.004363 -115.660203 
L 118.437877 -115.622712 
L 117.871391 -115.589845 
L 117.304906 -115.561844 
L 116.73842 -115.538921 
L 116.171935 -115.521259 
L 115.605449 -115.509004 
L 115.038963 -115.50227 
L 114.472478 -115.501129 
L 113.905992 -115.505613 
L 113.339507 -115.515714 
L 112.773021 -115.531379 
L 112.206535 -115.552511 
L 111.64005 -115.57897 
L 111.073564 -115.610568 
L 110.507078 -115.647078 
L 109.940593 -115.688227 
L 109.374107 -115.7337 
L 108.807622 -115.783144 
L 108.241136 -115.836169 
L 107.67465 -115.892348 
L 107.108165 -115.951224 
L 106.541679 -116.01231 
L 105.975194 -116.075095 
L 105.408708 -116.139046 
L 104.842222 -116.203614 
L 104.275737 -116.268234 
L 103.709251 -116.332336 
L 103.142766 -116.395343 
L 102.57628 -116.456678 
L 102.009794 -116.515768 
L 101.443309 -116.572051 
L 100.876823 -116.624978 
L 100.310338 -116.674017 
L 99.743852 -116.718662 
L 99.177366 -116.758434 
L 98.610881 -116.792886 
L 98.044395 -116.82161 
L 97.47791 -116.844242 
L 96.911424 -116.860465 
L 96.344938 -116.870015 
L 95.778453 -116.872687 
L 95.211967 -116.868336 
L 94.645481 -116.856887 
L 94.078996 -116.838335 
L 93.51251 -116.812749 
L 92.946025 -116.780276 
L 92.379539 -116.741144 
L 91.813053 -116.695662 
L 91.246568 -116.644221 
L 90.680082 -116.587293 
L 90.113597 -116.525432 
L 89.547111 -116.459266 
L 88.980625 -116.389495 
L 88.41414 -116.316886 
L 87.847654 -116.242262 
L 87.281169 -116.166496 
L 86.714683 -116.090501 
L 86.148197 -116.015216 
L 85.581712 -115.941594 
L 85.015226 -115.870588 
L 84.448741 -115.803139 
L 83.882255 -115.740161 
L 83.315769 -115.682522 
L 82.749284 -115.631036 
L 82.182798 -115.586446 
L 81.616313 -115.549411 
L 81.049827 -115.520497 
L 80.483341 -115.500164 
L 79.916856 -115.488763 
L 79.35037 -115.486524 
L 78.783884 -115.493558 
L 78.217399 -115.509854 
L 77.650913 -115.535278 
L 77.084428 -115.56958 
L 76.517942 -115.612398 
z
" id="m762eded3c7"/>
    </defs>
    <g clip-path="url(#p4754f9333b)">
     <use style="fill:#e1812c;" x="0" xlink:href="#m762eded3c7" y="345.6"/>
    </g>
   </g>
   <g id="PolyCollection_9">
    <defs>
     <path d="M 73.898095 -64.6272 
L 73.898095 -69.910559 
L 73.976182 -70.834328 
L 74.054268 -71.853171 
L 74.132354 -72.960422 
L 74.210441 -74.144954 
L 74.288527 -75.391001 
L 74.366613 -76.678271 
L 74.4447 -77.982402 
L 74.522786 -79.275745 
L 74.600872 -80.52847 
L 74.678959 -81.709912 
L 74.757045 -82.79009 
L 74.835131 -83.741262 
L 74.913218 -84.53942 
L 74.991304 -85.165584 
L 75.06939 -85.606808 
L 75.147477 -85.856805 
L 75.225563 -85.91616 
L 75.303649 -85.792105 
L 75.381736 -85.497892 
L 75.459822 -85.051821 
L 75.537908 -84.475988 
L 75.615995 -83.794875 
L 75.694081 -83.033868 
L 75.772167 -82.217819 
L 75.850254 -81.369755 
L 75.92834 -80.509806 
L 76.006426 -79.654434 
L 76.084513 -78.815991 
L 76.162599 -78.002626 
L 76.240685 -77.218518 
L 76.318772 -76.464401 
L 76.396858 -75.738314 
L 76.474944 -75.036483 
L 76.553031 -74.35425 
L 76.631117 -73.686964 
L 76.709203 -73.030743 
L 76.78729 -72.383046 
L 76.865376 -71.743024 
L 76.943462 -71.111635 
L 77.021549 -70.491541 
L 77.099635 -69.886821 
L 77.177721 -69.302558 
L 77.255808 -68.744357 
L 77.333894 -68.217859 
L 77.41198 -67.7283 
L 77.490067 -67.280153 
L 77.568153 -66.876882 
L 77.646239 -66.52081 
L 77.724326 -66.213087 
L 77.802412 -65.953754 
L 77.880498 -65.74186 
L 77.958585 -65.575616 
L 78.036671 -65.452542 
L 78.114757 -65.369613 
L 78.192844 -65.323359 
L 78.27093 -65.309943 
L 78.349016 -65.325198 
L 78.427103 -65.364652 
L 78.505189 -65.423545 
L 78.583275 -65.496859 
L 78.661362 -65.579379 
L 78.739448 -65.665787 
L 78.817534 -65.750808 
L 78.895621 -65.829385 
L 78.973707 -65.896889 
L 79.051793 -65.949331 
L 79.12988 -65.983569 
L 79.207966 -65.997469 
L 79.286052 -65.990016 
L 79.364139 -65.961352 
L 79.442225 -65.912732 
L 79.520311 -65.846404 
L 79.598398 -65.765432 
L 79.676484 -65.673461 
L 79.75457 -65.574464 
L 79.832657 -65.472488 
L 79.910743 -65.371424 
L 79.988829 -65.274812 
L 80.066916 -65.185701 
L 80.145002 -65.106564 
L 80.223088 -65.039261 
L 80.301175 -64.985043 
L 80.379261 -64.944596 
L 80.457347 -64.918092 
L 80.535434 -64.90525 
L 80.61352 -64.90539 
L 80.691606 -64.917483 
L 80.769693 -64.940185 
L 80.847779 -64.971868 
L 80.925865 -65.010647 
L 81.003952 -65.054417 
L 81.082038 -65.1009 
L 81.160124 -65.147715 
L 81.238211 -65.192456 
L 81.316297 -65.232805 
L 81.394383 -65.266637 
L 81.47247 -65.29214 
L 81.550556 -65.30792 
L 81.628642 -65.313078 
L 81.628642 -64.6272 
L 81.628642 -64.6272 
L 81.550556 -64.6272 
L 81.47247 -64.6272 
L 81.394383 -64.6272 
L 81.316297 -64.6272 
L 81.238211 -64.6272 
L 81.160124 -64.6272 
L 81.082038 -64.6272 
L 81.003952 -64.6272 
L 80.925865 -64.6272 
L 80.847779 -64.6272 
L 80.769693 -64.6272 
L 80.691606 -64.6272 
L 80.61352 -64.6272 
L 80.535434 -64.6272 
L 80.457347 -64.6272 
L 80.379261 -64.6272 
L 80.301175 -64.6272 
L 80.223088 -64.6272 
L 80.145002 -64.6272 
L 80.066916 -64.6272 
L 79.988829 -64.6272 
L 79.910743 -64.6272 
L 79.832657 -64.6272 
L 79.75457 -64.6272 
L 79.676484 -64.6272 
L 79.598398 -64.6272 
L 79.520311 -64.6272 
L 79.442225 -64.6272 
L 79.364139 -64.6272 
L 79.286052 -64.6272 
L 79.207966 -64.6272 
L 79.12988 -64.6272 
L 79.051793 -64.6272 
L 78.973707 -64.6272 
L 78.895621 -64.6272 
L 78.817534 -64.6272 
L 78.739448 -64.6272 
L 78.661362 -64.6272 
L 78.583275 -64.6272 
L 78.505189 -64.6272 
L 78.427103 -64.6272 
L 78.349016 -64.6272 
L 78.27093 -64.6272 
L 78.192844 -64.6272 
L 78.114757 -64.6272 
L 78.036671 -64.6272 
L 77.958585 -64.6272 
L 77.880498 -64.6272 
L 77.802412 -64.6272 
L 77.724326 -64.6272 
L 77.646239 -64.6272 
L 77.568153 -64.6272 
L 77.490067 -64.6272 
L 77.41198 -64.6272 
L 77.333894 -64.6272 
L 77.255808 -64.6272 
L 77.177721 -64.6272 
L 77.099635 -64.6272 
L 77.021549 -64.6272 
L 76.943462 -64.6272 
L 76.865376 -64.6272 
L 76.78729 -64.6272 
L 76.709203 -64.6272 
L 76.631117 -64.6272 
L 76.553031 -64.6272 
L 76.474944 -64.6272 
L 76.396858 -64.6272 
L 76.318772 -64.6272 
L 76.240685 -64.6272 
L 76.162599 -64.6272 
L 76.084513 -64.6272 
L 76.006426 -64.6272 
L 75.92834 -64.6272 
L 75.850254 -64.6272 
L 75.772167 -64.6272 
L 75.694081 -64.6272 
L 75.615995 -64.6272 
L 75.537908 -64.6272 
L 75.459822 -64.6272 
L 75.381736 -64.6272 
L 75.303649 -64.6272 
L 75.225563 -64.6272 
L 75.147477 -64.6272 
L 75.06939 -64.6272 
L 74.991304 -64.6272 
L 74.913218 -64.6272 
L 74.835131 -64.6272 
L 74.757045 -64.6272 
L 74.678959 -64.6272 
L 74.600872 -64.6272 
L 74.522786 -64.6272 
L 74.4447 -64.6272 
L 74.366613 -64.6272 
L 74.288527 -64.6272 
L 74.210441 -64.6272 
L 74.132354 -64.6272 
L 74.054268 -64.6272 
L 73.976182 -64.6272 
L 73.898095 -64.6272 
z
" id="mb154ecf4e9"/>
    </defs>
    <g clip-path="url(#p4754f9333b)">
     <use style="fill:#3274a1;" x="0" xlink:href="#mb154ecf4e9" y="345.6"/>
    </g>
   </g>
   <g id="PolyCollection_10">
    <defs>
     <path d="M 76.438403 -63.828237 
L 76.438403 -64.6272 
L 77.025305 -64.6272 
L 77.612206 -64.6272 
L 78.199108 -64.6272 
L 78.786009 -64.6272 
L 79.372911 -64.6272 
L 79.959813 -64.6272 
L 80.546714 -64.6272 
L 81.133616 -64.6272 
L 81.720517 -64.6272 
L 82.307419 -64.6272 
L 82.89432 -64.6272 
L 83.481222 -64.6272 
L 84.068123 -64.6272 
L 84.655025 -64.6272 
L 85.241926 -64.6272 
L 85.828828 -64.6272 
L 86.41573 -64.6272 
L 87.002631 -64.6272 
L 87.589533 -64.6272 
L 88.176434 -64.6272 
L 88.763336 -64.6272 
L 89.350237 -64.6272 
L 89.937139 -64.6272 
L 90.52404 -64.6272 
L 91.110942 -64.6272 
L 91.697843 -64.6272 
L 92.284745 -64.6272 
L 92.871647 -64.6272 
L 93.458548 -64.6272 
L 94.04545 -64.6272 
L 94.632351 -64.6272 
L 95.219253 -64.6272 
L 95.806154 -64.6272 
L 96.393056 -64.6272 
L 96.979957 -64.6272 
L 97.566859 -64.6272 
L 98.15376 -64.6272 
L 98.740662 -64.6272 
L 99.327564 -64.6272 
L 99.914465 -64.6272 
L 100.501367 -64.6272 
L 101.088268 -64.6272 
L 101.67517 -64.6272 
L 102.262071 -64.6272 
L 102.848973 -64.6272 
L 103.435874 -64.6272 
L 104.022776 -64.6272 
L 104.609677 -64.6272 
L 105.196579 -64.6272 
L 105.78348 -64.6272 
L 106.370382 -64.6272 
L 106.957284 -64.6272 
L 107.544185 -64.6272 
L 108.131087 -64.6272 
L 108.717988 -64.6272 
L 109.30489 -64.6272 
L 109.891791 -64.6272 
L 110.478693 -64.6272 
L 111.065594 -64.6272 
L 111.652496 -64.6272 
L 112.239397 -64.6272 
L 112.826299 -64.6272 
L 113.413201 -64.6272 
L 114.000102 -64.6272 
L 114.587004 -64.6272 
L 115.173905 -64.6272 
L 115.760807 -64.6272 
L 116.347708 -64.6272 
L 116.93461 -64.6272 
L 117.521511 -64.6272 
L 118.108413 -64.6272 
L 118.695314 -64.6272 
L 119.282216 -64.6272 
L 119.869118 -64.6272 
L 120.456019 -64.6272 
L 121.042921 -64.6272 
L 121.629822 -64.6272 
L 122.216724 -64.6272 
L 122.803625 -64.6272 
L 123.390527 -64.6272 
L 123.977428 -64.6272 
L 124.56433 -64.6272 
L 125.151231 -64.6272 
L 125.738133 -64.6272 
L 126.325035 -64.6272 
L 126.911936 -64.6272 
L 127.498838 -64.6272 
L 128.085739 -64.6272 
L 128.672641 -64.6272 
L 129.259542 -64.6272 
L 129.846444 -64.6272 
L 130.433345 -64.6272 
L 131.020247 -64.6272 
L 131.607148 -64.6272 
L 132.19405 -64.6272 
L 132.780951 -64.6272 
L 133.367853 -64.6272 
L 133.954755 -64.6272 
L 134.541656 -64.6272 
L 134.541656 -64.379951 
L 134.541656 -64.379951 
L 133.954755 -64.365515 
L 133.367853 -64.350687 
L 132.780951 -64.335431 
L 132.19405 -64.319704 
L 131.607148 -64.303457 
L 131.020247 -64.286634 
L 130.433345 -64.269181 
L 129.846444 -64.251038 
L 129.259542 -64.232151 
L 128.672641 -64.21247 
L 128.085739 -64.191952 
L 127.498838 -64.170562 
L 126.911936 -64.148282 
L 126.325035 -64.125105 
L 125.738133 -64.101043 
L 125.151231 -64.076126 
L 124.56433 -64.050405 
L 123.977428 -64.023948 
L 123.390527 -63.996846 
L 122.803625 -63.96921 
L 122.216724 -63.941169 
L 121.629822 -63.912868 
L 121.042921 -63.884469 
L 120.456019 -63.856146 
L 119.869118 -63.828082 
L 119.282216 -63.800468 
L 118.695314 -63.773498 
L 118.108413 -63.747365 
L 117.521511 -63.722262 
L 116.93461 -63.698372 
L 116.347708 -63.675875 
L 115.760807 -63.654934 
L 115.173905 -63.635703 
L 114.587004 -63.618318 
L 114.000102 -63.602901 
L 113.413201 -63.589555 
L 112.826299 -63.578365 
L 112.239397 -63.569397 
L 111.652496 -63.5627 
L 111.065594 -63.558303 
L 110.478693 -63.556217 
L 109.891791 -63.556437 
L 109.30489 -63.558937 
L 108.717988 -63.563678 
L 108.131087 -63.570602 
L 107.544185 -63.579634 
L 106.957284 -63.590685 
L 106.370382 -63.603646 
L 105.78348 -63.618394 
L 105.196579 -63.634788 
L 104.609677 -63.652671 
L 104.022776 -63.671867 
L 103.435874 -63.692185 
L 102.848973 -63.713414 
L 102.262071 -63.73533 
L 101.67517 -63.757691 
L 101.088268 -63.780241 
L 100.501367 -63.802712 
L 99.914465 -63.824827 
L 99.327564 -63.846299 
L 98.740662 -63.866842 
L 98.15376 -63.886166 
L 97.566859 -63.903992 
L 96.979957 -63.920046 
L 96.393056 -63.934075 
L 95.806154 -63.945847 
L 95.219253 -63.955156 
L 94.632351 -63.961833 
L 94.04545 -63.965747 
L 93.458548 -63.96681 
L 92.871647 -63.964987 
L 92.284745 -63.960292 
L 91.697843 -63.952795 
L 91.110942 -63.942625 
L 90.52404 -63.929966 
L 89.937139 -63.915057 
L 89.350237 -63.898194 
L 88.763336 -63.879718 
L 88.176434 -63.860017 
L 87.589533 -63.839515 
L 87.002631 -63.818664 
L 86.41573 -63.797939 
L 85.828828 -63.777823 
L 85.241926 -63.758801 
L 84.655025 -63.741348 
L 84.068123 -63.725916 
L 83.481222 -63.71293 
L 82.89432 -63.702772 
L 82.307419 -63.695776 
L 81.720517 -63.69222 
L 81.133616 -63.692319 
L 80.546714 -63.696224 
L 79.959813 -63.704014 
L 79.372911 -63.715698 
L 78.786009 -63.731219 
L 78.199108 -63.750449 
L 77.612206 -63.773201 
L 77.025305 -63.799228 
L 76.438403 -63.828237 
z
" id="mc0530ef1a8"/>
    </defs>
    <g clip-path="url(#p4754f9333b)">
     <use style="fill:#e1812c;" x="0" xlink:href="#mc0530ef1a8" y="345.6"/>
    </g>
   </g>
   <g id="patch_3">
    <path clip-path="url(#p4754f9333b)" d="M 57.6 68.0832 
L 57.6 68.0832 
L 57.6 68.0832 
L 57.6 68.0832 
z
" style="fill:#3274a1;"/>
   </g>
   <g id="patch_4">
    <path clip-path="url(#p4754f9333b)" d="M 57.6 68.0832 
L 57.6 68.0832 
L 57.6 68.0832 
L 57.6 68.0832 
z
" style="fill:#e1812c;"/>
   </g>
   <g id="patch_5">
    <path d="M 57.6 307.584 
L 57.6 41.472 
" style="fill:none;stroke:#cccccc;stroke-linecap:square;stroke-linejoin:miter;stroke-width:0.8;"/>
   </g>
   <g id="patch_6">
    <path d="M 414.72 307.584 
L 414.72 41.472 
" style="fill:none;stroke:#cccccc;stroke-linecap:square;stroke-linejoin:miter;stroke-width:0.8;"/>
   </g>
   <g id="patch_7">
    <path d="M 57.6 307.584 
L 414.72 307.584 
" style="fill:none;stroke:#cccccc;stroke-linecap:square;stroke-linejoin:miter;stroke-width:0.8;"/>
   </g>
   <g id="patch_8">
    <path d="M 57.6 41.472 
L 414.72 41.472 
" style="fill:none;stroke:#cccccc;stroke-linecap:square;stroke-linejoin:miter;stroke-width:0.8;"/>
   </g>
   <g id="text_21">
    <!-- C: 0.11963438987731934; F: 0.310863733291626 -->
    <defs>
     <path d="M 64.40625 67.28125 
L 64.40625 56.890625 
Q 59.421875 61.53125 53.78125 63.8125 
Q 48.140625 66.109375 41.796875 66.109375 
Q 29.296875 66.109375 22.65625 58.46875 
Q 16.015625 50.828125 16.015625 36.375 
Q 16.015625 21.96875 22.65625 14.328125 
Q 29.296875 6.6875 41.796875 6.6875 
Q 48.140625 6.6875 53.78125 8.984375 
Q 59.421875 11.28125 64.40625 15.921875 
L 64.40625 5.609375 
Q 59.234375 2.09375 53.4375 0.328125 
Q 47.65625 -1.421875 41.21875 -1.421875 
Q 24.65625 -1.421875 15.125 8.703125 
Q 5.609375 18.84375 5.609375 36.375 
Q 5.609375 53.953125 15.125 64.078125 
Q 24.65625 74.21875 41.21875 74.21875 
Q 47.75 74.21875 53.53125 72.484375 
Q 59.328125 70.75 64.40625 67.28125 
z
" id="DejaVuSans-67"/>
     <path d="M 11.71875 12.40625 
L 22.015625 12.40625 
L 22.015625 0 
L 11.71875 0 
z
M 11.71875 51.703125 
L 22.015625 51.703125 
L 22.015625 39.3125 
L 11.71875 39.3125 
z
" id="DejaVuSans-58"/>
     <path id="DejaVuSans-32"/>
     <path d="M 40.578125 39.3125 
Q 47.65625 37.796875 51.625 33 
Q 55.609375 28.21875 55.609375 21.1875 
Q 55.609375 10.40625 48.1875 4.484375 
Q 40.765625 -1.421875 27.09375 -1.421875 
Q 22.515625 -1.421875 17.65625 -0.515625 
Q 12.796875 0.390625 7.625 2.203125 
L 7.625 11.71875 
Q 11.71875 9.328125 16.59375 8.109375 
Q 21.484375 6.890625 26.8125 6.890625 
Q 36.078125 6.890625 40.9375 10.546875 
Q 45.796875 14.203125 45.796875 21.1875 
Q 45.796875 27.640625 41.28125 31.265625 
Q 36.765625 34.90625 28.71875 34.90625 
L 20.21875 34.90625 
L 20.21875 43.015625 
L 29.109375 43.015625 
Q 36.375 43.015625 40.234375 45.921875 
Q 44.09375 48.828125 44.09375 54.296875 
Q 44.09375 59.90625 40.109375 62.90625 
Q 36.140625 65.921875 28.71875 65.921875 
Q 24.65625 65.921875 20.015625 65.03125 
Q 15.375 64.15625 9.8125 62.3125 
L 9.8125 71.09375 
Q 15.4375 72.65625 20.34375 73.4375 
Q 25.25 74.21875 29.59375 74.21875 
Q 40.828125 74.21875 47.359375 69.109375 
Q 53.90625 64.015625 53.90625 55.328125 
Q 53.90625 49.265625 50.4375 45.09375 
Q 46.96875 40.921875 40.578125 39.3125 
z
" id="DejaVuSans-51"/>
     <path d="M 11.71875 51.703125 
L 22.015625 51.703125 
L 22.015625 39.3125 
L 11.71875 39.3125 
z
M 11.71875 12.40625 
L 22.015625 12.40625 
L 22.015625 4 
L 14.015625 -11.625 
L 7.71875 -11.625 
L 11.71875 4 
z
" id="DejaVuSans-59"/>
     <path d="M 9.8125 72.90625 
L 51.703125 72.90625 
L 51.703125 64.59375 
L 19.671875 64.59375 
L 19.671875 43.109375 
L 48.578125 43.109375 
L 48.578125 34.8125 
L 19.671875 34.8125 
L 19.671875 0 
L 9.8125 0 
z
" id="DejaVuSans-70"/>
    </defs>
    <g style="fill:#262626;" transform="translate(83.132812 35.472)scale(0.12 -0.12)">
     <use xlink:href="#DejaVuSans-67"/>
     <use x="69.824219" xlink:href="#DejaVuSans-58"/>
     <use x="103.515625" xlink:href="#DejaVuSans-32"/>
     <use x="135.302734" xlink:href="#DejaVuSans-48"/>
     <use x="198.925781" xlink:href="#DejaVuSans-46"/>
     <use x="230.712891" xlink:href="#DejaVuSans-49"/>
     <use x="294.335938" xlink:href="#DejaVuSans-49"/>
     <use x="357.958984" xlink:href="#DejaVuSans-57"/>
     <use x="421.582031" xlink:href="#DejaVuSans-54"/>
     <use x="485.205078" xlink:href="#DejaVuSans-51"/>
     <use x="548.828125" xlink:href="#DejaVuSans-52"/>
     <use x="612.451172" xlink:href="#DejaVuSans-51"/>
     <use x="676.074219" xlink:href="#DejaVuSans-56"/>
     <use x="739.697266" xlink:href="#DejaVuSans-57"/>
     <use x="803.320312" xlink:href="#DejaVuSans-56"/>
     <use x="866.943359" xlink:href="#DejaVuSans-55"/>
     <use x="930.566406" xlink:href="#DejaVuSans-55"/>
     <use x="994.189453" xlink:href="#DejaVuSans-51"/>
     <use x="1057.8125" xlink:href="#DejaVuSans-49"/>
     <use x="1121.435547" xlink:href="#DejaVuSans-57"/>
     <use x="1185.058594" xlink:href="#DejaVuSans-51"/>
     <use x="1248.681641" xlink:href="#DejaVuSans-52"/>
     <use x="1312.304688" xlink:href="#DejaVuSans-59"/>
     <use x="1345.996094" xlink:href="#DejaVuSans-32"/>
     <use x="1377.783203" xlink:href="#DejaVuSans-70"/>
     <use x="1435.193359" xlink:href="#DejaVuSans-58"/>
     <use x="1468.884766" xlink:href="#DejaVuSans-32"/>
     <use x="1500.671875" xlink:href="#DejaVuSans-48"/>
     <use x="1564.294922" xlink:href="#DejaVuSans-46"/>
     <use x="1596.082031" xlink:href="#DejaVuSans-51"/>
     <use x="1659.705078" xlink:href="#DejaVuSans-49"/>
     <use x="1723.328125" xlink:href="#DejaVuSans-48"/>
     <use x="1786.951172" xlink:href="#DejaVuSans-56"/>
     <use x="1850.574219" xlink:href="#DejaVuSans-54"/>
     <use x="1914.197266" xlink:href="#DejaVuSans-51"/>
     <use x="1977.820312" xlink:href="#DejaVuSans-55"/>
     <use x="2041.443359" xlink:href="#DejaVuSans-51"/>
     <use x="2105.066406" xlink:href="#DejaVuSans-51"/>
     <use x="2168.689453" xlink:href="#DejaVuSans-50"/>
     <use x="2232.3125" xlink:href="#DejaVuSans-57"/>
     <use x="2295.935547" xlink:href="#DejaVuSans-49"/>
     <use x="2359.558594" xlink:href="#DejaVuSans-54"/>
     <use x="2423.181641" xlink:href="#DejaVuSans-50"/>
     <use x="2486.804688" xlink:href="#DejaVuSans-54"/>
    </g>
   </g>
   <g id="legend_1">
    <g id="patch_9">
     <path d="M 368.737188 93.506375 
L 407.72 93.506375 
Q 409.72 93.506375 409.72 91.506375 
L 409.72 48.472 
Q 409.72 46.472 407.72 46.472 
L 368.737188 46.472 
Q 366.737188 46.472 366.737188 48.472 
L 366.737188 91.506375 
Q 366.737188 93.506375 368.737188 93.506375 
z
" style="fill:#ffffff;opacity:0.8;stroke:#cccccc;stroke-linejoin:miter;"/>
    </g>
    <g id="text_22">
     <!-- Mode -->
     <defs>
      <path d="M 9.8125 72.90625 
L 24.515625 72.90625 
L 43.109375 23.296875 
L 61.8125 72.90625 
L 76.515625 72.90625 
L 76.515625 0 
L 66.890625 0 
L 66.890625 64.015625 
L 48.09375 14.015625 
L 38.1875 14.015625 
L 19.390625 64.015625 
L 19.390625 0 
L 9.8125 0 
z
" id="DejaVuSans-77"/>
     </defs>
     <g style="fill:#262626;" transform="translate(374.604375 58.070438)scale(0.1 -0.1)">
      <use xlink:href="#DejaVuSans-77"/>
      <use x="86.279297" xlink:href="#DejaVuSans-111"/>
      <use x="147.460938" xlink:href="#DejaVuSans-100"/>
      <use x="210.9375" xlink:href="#DejaVuSans-101"/>
     </g>
    </g>
    <g id="patch_10">
     <path d="M 370.737188 72.748563 
L 390.737188 72.748563 
L 390.737188 65.748563 
L 370.737188 65.748563 
z
" style="fill:#3274a1;"/>
    </g>
    <g id="text_23">
     <!-- C -->
     <g style="fill:#262626;" transform="translate(398.737188 72.748563)scale(0.1 -0.1)">
      <use xlink:href="#DejaVuSans-67"/>
     </g>
    </g>
    <g id="patch_11">
     <path d="M 370.737188 87.426688 
L 390.737188 87.426688 
L 390.737188 80.426688 
L 370.737188 80.426688 
z
" style="fill:#e1812c;"/>
    </g>
    <g id="text_24">
     <!-- F -->
     <g style="fill:#262626;" transform="translate(398.737188 87.426688)scale(0.1 -0.1)">
      <use xlink:href="#DejaVuSans-70"/>
     </g>
    </g>
   </g>
  </g>
 </g>
 <defs>
  <clipPath id="p4754f9333b">
   <rect height="266.112" width="357.12" x="57.6" y="41.472"/>
  </clipPath>
 </defs>
</svg>
