<?xml version="1.0" encoding="utf-8" standalone="no"?>
<!DOCTYPE svg PUBLIC "-//W3C//DTD SVG 1.1//EN"
  "http://www.w3.org/Graphics/SVG/1.1/DTD/svg11.dtd">
<!-- Created with matplotlib (https://matplotlib.org/) -->
<svg height="345.6pt" version="1.1" viewBox="0 0 460.8 345.6" width="460.8pt" xmlns="http://www.w3.org/2000/svg" xmlns:xlink="http://www.w3.org/1999/xlink">
 <defs>
  <style type="text/css">
*{stroke-linecap:butt;stroke-linejoin:round;}
  </style>
 </defs>
 <g id="figure_1">
  <g id="patch_1">
   <path d="M 0 345.6 
L 460.8 345.6 
L 460.8 0 
L 0 0 
z
" style="fill:#ffffff;"/>
  </g>
  <g id="axes_1">
   <g id="patch_2">
    <path d="M 57.6 307.584 
L 414.72 307.584 
L 414.72 41.472 
L 57.6 41.472 
z
" style="fill:#ffffff;"/>
   </g>
   <g id="matplotlib.axis_1">
    <g id="xtick_1">
     <g id="line2d_1">
      <path clip-path="url(#pc035dd5d9d)" d="M 68.599647 307.584 
L 68.599647 41.472 
" style="fill:none;stroke:#cccccc;stroke-linecap:round;stroke-width:0.8;"/>
     </g>
     <g id="text_1">
      <!-- 0.1 -->
      <defs>
       <path d="M 31.78125 66.40625 
Q 24.171875 66.40625 20.328125 58.90625 
Q 16.5 51.421875 16.5 36.375 
Q 16.5 21.390625 20.328125 13.890625 
Q 24.171875 6.390625 31.78125 6.390625 
Q 39.453125 6.390625 43.28125 13.890625 
Q 47.125 21.390625 47.125 36.375 
Q 47.125 51.421875 43.28125 58.90625 
Q 39.453125 66.40625 31.78125 66.40625 
z
M 31.78125 74.21875 
Q 44.046875 74.21875 50.515625 64.515625 
Q 56.984375 54.828125 56.984375 36.375 
Q 56.984375 17.96875 50.515625 8.265625 
Q 44.046875 -1.421875 31.78125 -1.421875 
Q 19.53125 -1.421875 13.0625 8.265625 
Q 6.59375 17.96875 6.59375 36.375 
Q 6.59375 54.828125 13.0625 64.515625 
Q 19.53125 74.21875 31.78125 74.21875 
z
" id="DejaVuSans-48"/>
       <path d="M 10.6875 12.40625 
L 21 12.40625 
L 21 0 
L 10.6875 0 
z
" id="DejaVuSans-46"/>
       <path d="M 12.40625 8.296875 
L 28.515625 8.296875 
L 28.515625 63.921875 
L 10.984375 60.40625 
L 10.984375 69.390625 
L 28.421875 72.90625 
L 38.28125 72.90625 
L 38.28125 8.296875 
L 54.390625 8.296875 
L 54.390625 0 
L 12.40625 0 
z
" id="DejaVuSans-49"/>
      </defs>
      <g style="fill:#262626;" transform="translate(60.648084 322.182437)scale(0.1 -0.1)">
       <use xlink:href="#DejaVuSans-48"/>
       <use x="63.623047" xlink:href="#DejaVuSans-46"/>
       <use x="95.410156" xlink:href="#DejaVuSans-49"/>
      </g>
     </g>
    </g>
    <g id="xtick_2">
     <g id="line2d_2">
      <path clip-path="url(#pc035dd5d9d)" d="M 129.54643 307.584 
L 129.54643 41.472 
" style="fill:none;stroke:#cccccc;stroke-linecap:round;stroke-width:0.8;"/>
     </g>
     <g id="text_2">
      <!-- 0.2 -->
      <defs>
       <path d="M 19.1875 8.296875 
L 53.609375 8.296875 
L 53.609375 0 
L 7.328125 0 
L 7.328125 8.296875 
Q 12.9375 14.109375 22.625 23.890625 
Q 32.328125 33.6875 34.8125 36.53125 
Q 39.546875 41.84375 41.421875 45.53125 
Q 43.3125 49.21875 43.3125 52.78125 
Q 43.3125 58.59375 39.234375 62.25 
Q 35.15625 65.921875 28.609375 65.921875 
Q 23.96875 65.921875 18.8125 64.3125 
Q 13.671875 62.703125 7.8125 59.421875 
L 7.8125 69.390625 
Q 13.765625 71.78125 18.9375 73 
Q 24.125 74.21875 28.421875 74.21875 
Q 39.75 74.21875 46.484375 68.546875 
Q 53.21875 62.890625 53.21875 53.421875 
Q 53.21875 48.921875 51.53125 44.890625 
Q 49.859375 40.875 45.40625 35.40625 
Q 44.1875 33.984375 37.640625 27.21875 
Q 31.109375 20.453125 19.1875 8.296875 
z
" id="DejaVuSans-50"/>
      </defs>
      <g style="fill:#262626;" transform="translate(121.594868 322.182437)scale(0.1 -0.1)">
       <use xlink:href="#DejaVuSans-48"/>
       <use x="63.623047" xlink:href="#DejaVuSans-46"/>
       <use x="95.410156" xlink:href="#DejaVuSans-50"/>
      </g>
     </g>
    </g>
    <g id="xtick_3">
     <g id="line2d_3">
      <path clip-path="url(#pc035dd5d9d)" d="M 190.493214 307.584 
L 190.493214 41.472 
" style="fill:none;stroke:#cccccc;stroke-linecap:round;stroke-width:0.8;"/>
     </g>
     <g id="text_3">
      <!-- 0.3 -->
      <defs>
       <path d="M 40.578125 39.3125 
Q 47.65625 37.796875 51.625 33 
Q 55.609375 28.21875 55.609375 21.1875 
Q 55.609375 10.40625 48.1875 4.484375 
Q 40.765625 -1.421875 27.09375 -1.421875 
Q 22.515625 -1.421875 17.65625 -0.515625 
Q 12.796875 0.390625 7.625 2.203125 
L 7.625 11.71875 
Q 11.71875 9.328125 16.59375 8.109375 
Q 21.484375 6.890625 26.8125 6.890625 
Q 36.078125 6.890625 40.9375 10.546875 
Q 45.796875 14.203125 45.796875 21.1875 
Q 45.796875 27.640625 41.28125 31.265625 
Q 36.765625 34.90625 28.71875 34.90625 
L 20.21875 34.90625 
L 20.21875 43.015625 
L 29.109375 43.015625 
Q 36.375 43.015625 40.234375 45.921875 
Q 44.09375 48.828125 44.09375 54.296875 
Q 44.09375 59.90625 40.109375 62.90625 
Q 36.140625 65.921875 28.71875 65.921875 
Q 24.65625 65.921875 20.015625 65.03125 
Q 15.375 64.15625 9.8125 62.3125 
L 9.8125 71.09375 
Q 15.4375 72.65625 20.34375 73.4375 
Q 25.25 74.21875 29.59375 74.21875 
Q 40.828125 74.21875 47.359375 69.109375 
Q 53.90625 64.015625 53.90625 55.328125 
Q 53.90625 49.265625 50.4375 45.09375 
Q 46.96875 40.921875 40.578125 39.3125 
z
" id="DejaVuSans-51"/>
      </defs>
      <g style="fill:#262626;" transform="translate(182.541652 322.182437)scale(0.1 -0.1)">
       <use xlink:href="#DejaVuSans-48"/>
       <use x="63.623047" xlink:href="#DejaVuSans-46"/>
       <use x="95.410156" xlink:href="#DejaVuSans-51"/>
      </g>
     </g>
    </g>
    <g id="xtick_4">
     <g id="line2d_4">
      <path clip-path="url(#pc035dd5d9d)" d="M 251.439998 307.584 
L 251.439998 41.472 
" style="fill:none;stroke:#cccccc;stroke-linecap:round;stroke-width:0.8;"/>
     </g>
     <g id="text_4">
      <!-- 0.4 -->
      <defs>
       <path d="M 37.796875 64.3125 
L 12.890625 25.390625 
L 37.796875 25.390625 
z
M 35.203125 72.90625 
L 47.609375 72.90625 
L 47.609375 25.390625 
L 58.015625 25.390625 
L 58.015625 17.1875 
L 47.609375 17.1875 
L 47.609375 0 
L 37.796875 0 
L 37.796875 17.1875 
L 4.890625 17.1875 
L 4.890625 26.703125 
z
" id="DejaVuSans-52"/>
      </defs>
      <g style="fill:#262626;" transform="translate(243.488435 322.182437)scale(0.1 -0.1)">
       <use xlink:href="#DejaVuSans-48"/>
       <use x="63.623047" xlink:href="#DejaVuSans-46"/>
       <use x="95.410156" xlink:href="#DejaVuSans-52"/>
      </g>
     </g>
    </g>
    <g id="xtick_5">
     <g id="line2d_5">
      <path clip-path="url(#pc035dd5d9d)" d="M 312.386782 307.584 
L 312.386782 41.472 
" style="fill:none;stroke:#cccccc;stroke-linecap:round;stroke-width:0.8;"/>
     </g>
     <g id="text_5">
      <!-- 0.5 -->
      <defs>
       <path d="M 10.796875 72.90625 
L 49.515625 72.90625 
L 49.515625 64.59375 
L 19.828125 64.59375 
L 19.828125 46.734375 
Q 21.96875 47.46875 24.109375 47.828125 
Q 26.265625 48.1875 28.421875 48.1875 
Q 40.625 48.1875 47.75 41.5 
Q 54.890625 34.8125 54.890625 23.390625 
Q 54.890625 11.625 47.5625 5.09375 
Q 40.234375 -1.421875 26.90625 -1.421875 
Q 22.3125 -1.421875 17.546875 -0.640625 
Q 12.796875 0.140625 7.71875 1.703125 
L 7.71875 11.625 
Q 12.109375 9.234375 16.796875 8.0625 
Q 21.484375 6.890625 26.703125 6.890625 
Q 35.15625 6.890625 40.078125 11.328125 
Q 45.015625 15.765625 45.015625 23.390625 
Q 45.015625 31 40.078125 35.4375 
Q 35.15625 39.890625 26.703125 39.890625 
Q 22.75 39.890625 18.8125 39.015625 
Q 14.890625 38.140625 10.796875 36.28125 
z
" id="DejaVuSans-53"/>
      </defs>
      <g style="fill:#262626;" transform="translate(304.435219 322.182437)scale(0.1 -0.1)">
       <use xlink:href="#DejaVuSans-48"/>
       <use x="63.623047" xlink:href="#DejaVuSans-46"/>
       <use x="95.410156" xlink:href="#DejaVuSans-53"/>
      </g>
     </g>
    </g>
    <g id="xtick_6">
     <g id="line2d_6">
      <path clip-path="url(#pc035dd5d9d)" d="M 373.333565 307.584 
L 373.333565 41.472 
" style="fill:none;stroke:#cccccc;stroke-linecap:round;stroke-width:0.8;"/>
     </g>
     <g id="text_6">
      <!-- 0.6 -->
      <defs>
       <path d="M 33.015625 40.375 
Q 26.375 40.375 22.484375 35.828125 
Q 18.609375 31.296875 18.609375 23.390625 
Q 18.609375 15.53125 22.484375 10.953125 
Q 26.375 6.390625 33.015625 6.390625 
Q 39.65625 6.390625 43.53125 10.953125 
Q 47.40625 15.53125 47.40625 23.390625 
Q 47.40625 31.296875 43.53125 35.828125 
Q 39.65625 40.375 33.015625 40.375 
z
M 52.59375 71.296875 
L 52.59375 62.3125 
Q 48.875 64.0625 45.09375 64.984375 
Q 41.3125 65.921875 37.59375 65.921875 
Q 27.828125 65.921875 22.671875 59.328125 
Q 17.53125 52.734375 16.796875 39.40625 
Q 19.671875 43.65625 24.015625 45.921875 
Q 28.375 48.1875 33.59375 48.1875 
Q 44.578125 48.1875 50.953125 41.515625 
Q 57.328125 34.859375 57.328125 23.390625 
Q 57.328125 12.15625 50.6875 5.359375 
Q 44.046875 -1.421875 33.015625 -1.421875 
Q 20.359375 -1.421875 13.671875 8.265625 
Q 6.984375 17.96875 6.984375 36.375 
Q 6.984375 53.65625 15.1875 63.9375 
Q 23.390625 74.21875 37.203125 74.21875 
Q 40.921875 74.21875 44.703125 73.484375 
Q 48.484375 72.75 52.59375 71.296875 
z
" id="DejaVuSans-54"/>
      </defs>
      <g style="fill:#262626;" transform="translate(365.382003 322.182437)scale(0.1 -0.1)">
       <use xlink:href="#DejaVuSans-48"/>
       <use x="63.623047" xlink:href="#DejaVuSans-46"/>
       <use x="95.410156" xlink:href="#DejaVuSans-54"/>
      </g>
     </g>
    </g>
    <g id="text_7">
     <!-- Loading_Time -->
     <defs>
      <path d="M 9.8125 72.90625 
L 19.671875 72.90625 
L 19.671875 8.296875 
L 55.171875 8.296875 
L 55.171875 0 
L 9.8125 0 
z
" id="DejaVuSans-76"/>
      <path d="M 30.609375 48.390625 
Q 23.390625 48.390625 19.1875 42.75 
Q 14.984375 37.109375 14.984375 27.296875 
Q 14.984375 17.484375 19.15625 11.84375 
Q 23.34375 6.203125 30.609375 6.203125 
Q 37.796875 6.203125 41.984375 11.859375 
Q 46.1875 17.53125 46.1875 27.296875 
Q 46.1875 37.015625 41.984375 42.703125 
Q 37.796875 48.390625 30.609375 48.390625 
z
M 30.609375 56 
Q 42.328125 56 49.015625 48.375 
Q 55.71875 40.765625 55.71875 27.296875 
Q 55.71875 13.875 49.015625 6.21875 
Q 42.328125 -1.421875 30.609375 -1.421875 
Q 18.84375 -1.421875 12.171875 6.21875 
Q 5.515625 13.875 5.515625 27.296875 
Q 5.515625 40.765625 12.171875 48.375 
Q 18.84375 56 30.609375 56 
z
" id="DejaVuSans-111"/>
      <path d="M 34.28125 27.484375 
Q 23.390625 27.484375 19.1875 25 
Q 14.984375 22.515625 14.984375 16.5 
Q 14.984375 11.71875 18.140625 8.90625 
Q 21.296875 6.109375 26.703125 6.109375 
Q 34.1875 6.109375 38.703125 11.40625 
Q 43.21875 16.703125 43.21875 25.484375 
L 43.21875 27.484375 
z
M 52.203125 31.203125 
L 52.203125 0 
L 43.21875 0 
L 43.21875 8.296875 
Q 40.140625 3.328125 35.546875 0.953125 
Q 30.953125 -1.421875 24.3125 -1.421875 
Q 15.921875 -1.421875 10.953125 3.296875 
Q 6 8.015625 6 15.921875 
Q 6 25.140625 12.171875 29.828125 
Q 18.359375 34.515625 30.609375 34.515625 
L 43.21875 34.515625 
L 43.21875 35.40625 
Q 43.21875 41.609375 39.140625 45 
Q 35.0625 48.390625 27.6875 48.390625 
Q 23 48.390625 18.546875 47.265625 
Q 14.109375 46.140625 10.015625 43.890625 
L 10.015625 52.203125 
Q 14.9375 54.109375 19.578125 55.046875 
Q 24.21875 56 28.609375 56 
Q 40.484375 56 46.34375 49.84375 
Q 52.203125 43.703125 52.203125 31.203125 
z
" id="DejaVuSans-97"/>
      <path d="M 45.40625 46.390625 
L 45.40625 75.984375 
L 54.390625 75.984375 
L 54.390625 0 
L 45.40625 0 
L 45.40625 8.203125 
Q 42.578125 3.328125 38.25 0.953125 
Q 33.9375 -1.421875 27.875 -1.421875 
Q 17.96875 -1.421875 11.734375 6.484375 
Q 5.515625 14.40625 5.515625 27.296875 
Q 5.515625 40.1875 11.734375 48.09375 
Q 17.96875 56 27.875 56 
Q 33.9375 56 38.25 53.625 
Q 42.578125 51.265625 45.40625 46.390625 
z
M 14.796875 27.296875 
Q 14.796875 17.390625 18.875 11.75 
Q 22.953125 6.109375 30.078125 6.109375 
Q 37.203125 6.109375 41.296875 11.75 
Q 45.40625 17.390625 45.40625 27.296875 
Q 45.40625 37.203125 41.296875 42.84375 
Q 37.203125 48.484375 30.078125 48.484375 
Q 22.953125 48.484375 18.875 42.84375 
Q 14.796875 37.203125 14.796875 27.296875 
z
" id="DejaVuSans-100"/>
      <path d="M 9.421875 54.6875 
L 18.40625 54.6875 
L 18.40625 0 
L 9.421875 0 
z
M 9.421875 75.984375 
L 18.40625 75.984375 
L 18.40625 64.59375 
L 9.421875 64.59375 
z
" id="DejaVuSans-105"/>
      <path d="M 54.890625 33.015625 
L 54.890625 0 
L 45.90625 0 
L 45.90625 32.71875 
Q 45.90625 40.484375 42.875 44.328125 
Q 39.84375 48.1875 33.796875 48.1875 
Q 26.515625 48.1875 22.3125 43.546875 
Q 18.109375 38.921875 18.109375 30.90625 
L 18.109375 0 
L 9.078125 0 
L 9.078125 54.6875 
L 18.109375 54.6875 
L 18.109375 46.1875 
Q 21.34375 51.125 25.703125 53.5625 
Q 30.078125 56 35.796875 56 
Q 45.21875 56 50.046875 50.171875 
Q 54.890625 44.34375 54.890625 33.015625 
z
" id="DejaVuSans-110"/>
      <path d="M 45.40625 27.984375 
Q 45.40625 37.75 41.375 43.109375 
Q 37.359375 48.484375 30.078125 48.484375 
Q 22.859375 48.484375 18.828125 43.109375 
Q 14.796875 37.75 14.796875 27.984375 
Q 14.796875 18.265625 18.828125 12.890625 
Q 22.859375 7.515625 30.078125 7.515625 
Q 37.359375 7.515625 41.375 12.890625 
Q 45.40625 18.265625 45.40625 27.984375 
z
M 54.390625 6.78125 
Q 54.390625 -7.171875 48.1875 -13.984375 
Q 42 -20.796875 29.203125 -20.796875 
Q 24.46875 -20.796875 20.265625 -20.09375 
Q 16.0625 -19.390625 12.109375 -17.921875 
L 12.109375 -9.1875 
Q 16.0625 -11.328125 19.921875 -12.34375 
Q 23.78125 -13.375 27.78125 -13.375 
Q 36.625 -13.375 41.015625 -8.765625 
Q 45.40625 -4.15625 45.40625 5.171875 
L 45.40625 9.625 
Q 42.625 4.78125 38.28125 2.390625 
Q 33.9375 0 27.875 0 
Q 17.828125 0 11.671875 7.65625 
Q 5.515625 15.328125 5.515625 27.984375 
Q 5.515625 40.671875 11.671875 48.328125 
Q 17.828125 56 27.875 56 
Q 33.9375 56 38.28125 53.609375 
Q 42.625 51.21875 45.40625 46.390625 
L 45.40625 54.6875 
L 54.390625 54.6875 
z
" id="DejaVuSans-103"/>
      <path d="M 50.984375 -16.609375 
L 50.984375 -23.578125 
L -0.984375 -23.578125 
L -0.984375 -16.609375 
z
" id="DejaVuSans-95"/>
      <path d="M -0.296875 72.90625 
L 61.375 72.90625 
L 61.375 64.59375 
L 35.5 64.59375 
L 35.5 0 
L 25.59375 0 
L 25.59375 64.59375 
L -0.296875 64.59375 
z
" id="DejaVuSans-84"/>
      <path d="M 52 44.1875 
Q 55.375 50.25 60.0625 53.125 
Q 64.75 56 71.09375 56 
Q 79.640625 56 84.28125 50.015625 
Q 88.921875 44.046875 88.921875 33.015625 
L 88.921875 0 
L 79.890625 0 
L 79.890625 32.71875 
Q 79.890625 40.578125 77.09375 44.375 
Q 74.3125 48.1875 68.609375 48.1875 
Q 61.625 48.1875 57.5625 43.546875 
Q 53.515625 38.921875 53.515625 30.90625 
L 53.515625 0 
L 44.484375 0 
L 44.484375 32.71875 
Q 44.484375 40.625 41.703125 44.40625 
Q 38.921875 48.1875 33.109375 48.1875 
Q 26.21875 48.1875 22.15625 43.53125 
Q 18.109375 38.875 18.109375 30.90625 
L 18.109375 0 
L 9.078125 0 
L 9.078125 54.6875 
L 18.109375 54.6875 
L 18.109375 46.1875 
Q 21.1875 51.21875 25.484375 53.609375 
Q 29.78125 56 35.6875 56 
Q 41.65625 56 45.828125 52.96875 
Q 50 49.953125 52 44.1875 
z
" id="DejaVuSans-109"/>
      <path d="M 56.203125 29.59375 
L 56.203125 25.203125 
L 14.890625 25.203125 
Q 15.484375 15.921875 20.484375 11.0625 
Q 25.484375 6.203125 34.421875 6.203125 
Q 39.59375 6.203125 44.453125 7.46875 
Q 49.3125 8.734375 54.109375 11.28125 
L 54.109375 2.78125 
Q 49.265625 0.734375 44.1875 -0.34375 
Q 39.109375 -1.421875 33.890625 -1.421875 
Q 20.796875 -1.421875 13.15625 6.1875 
Q 5.515625 13.8125 5.515625 26.8125 
Q 5.515625 40.234375 12.765625 48.109375 
Q 20.015625 56 32.328125 56 
Q 43.359375 56 49.78125 48.890625 
Q 56.203125 41.796875 56.203125 29.59375 
z
M 47.21875 32.234375 
Q 47.125 39.59375 43.09375 43.984375 
Q 39.0625 48.390625 32.421875 48.390625 
Q 24.90625 48.390625 20.390625 44.140625 
Q 15.875 39.890625 15.1875 32.171875 
z
" id="DejaVuSans-101"/>
     </defs>
     <g style="fill:#262626;" transform="translate(201.457656 335.860562)scale(0.1 -0.1)">
      <use xlink:href="#DejaVuSans-76"/>
      <use x="55.697266" xlink:href="#DejaVuSans-111"/>
      <use x="116.878906" xlink:href="#DejaVuSans-97"/>
      <use x="178.158203" xlink:href="#DejaVuSans-100"/>
      <use x="241.634766" xlink:href="#DejaVuSans-105"/>
      <use x="269.417969" xlink:href="#DejaVuSans-110"/>
      <use x="332.796875" xlink:href="#DejaVuSans-103"/>
      <use x="396.273438" xlink:href="#DejaVuSans-95"/>
      <use x="446.273438" xlink:href="#DejaVuSans-84"/>
      <use x="507.310547" xlink:href="#DejaVuSans-105"/>
      <use x="535.09375" xlink:href="#DejaVuSans-109"/>
      <use x="632.505859" xlink:href="#DejaVuSans-101"/>
     </g>
    </g>
   </g>
   <g id="matplotlib.axis_2">
    <g id="ytick_1">
     <g id="text_8">
      <!-- /48492 -->
      <defs>
       <path d="M 25.390625 72.90625 
L 33.6875 72.90625 
L 8.296875 -9.28125 
L 0 -9.28125 
z
" id="DejaVuSans-47"/>
       <path d="M 31.78125 34.625 
Q 24.75 34.625 20.71875 30.859375 
Q 16.703125 27.09375 16.703125 20.515625 
Q 16.703125 13.921875 20.71875 10.15625 
Q 24.75 6.390625 31.78125 6.390625 
Q 38.8125 6.390625 42.859375 10.171875 
Q 46.921875 13.96875 46.921875 20.515625 
Q 46.921875 27.09375 42.890625 30.859375 
Q 38.875 34.625 31.78125 34.625 
z
M 21.921875 38.8125 
Q 15.578125 40.375 12.03125 44.71875 
Q 8.5 49.078125 8.5 55.328125 
Q 8.5 64.0625 14.71875 69.140625 
Q 20.953125 74.21875 31.78125 74.21875 
Q 42.671875 74.21875 48.875 69.140625 
Q 55.078125 64.0625 55.078125 55.328125 
Q 55.078125 49.078125 51.53125 44.71875 
Q 48 40.375 41.703125 38.8125 
Q 48.828125 37.15625 52.796875 32.3125 
Q 56.78125 27.484375 56.78125 20.515625 
Q 56.78125 9.90625 50.3125 4.234375 
Q 43.84375 -1.421875 31.78125 -1.421875 
Q 19.734375 -1.421875 13.25 4.234375 
Q 6.78125 9.90625 6.78125 20.515625 
Q 6.78125 27.484375 10.78125 32.3125 
Q 14.796875 37.15625 21.921875 38.8125 
z
M 18.3125 54.390625 
Q 18.3125 48.734375 21.84375 45.5625 
Q 25.390625 42.390625 31.78125 42.390625 
Q 38.140625 42.390625 41.71875 45.5625 
Q 45.3125 48.734375 45.3125 54.390625 
Q 45.3125 60.0625 41.71875 63.234375 
Q 38.140625 66.40625 31.78125 66.40625 
Q 25.390625 66.40625 21.84375 63.234375 
Q 18.3125 60.0625 18.3125 54.390625 
z
" id="DejaVuSans-56"/>
       <path d="M 10.984375 1.515625 
L 10.984375 10.5 
Q 14.703125 8.734375 18.5 7.8125 
Q 22.3125 6.890625 25.984375 6.890625 
Q 35.75 6.890625 40.890625 13.453125 
Q 46.046875 20.015625 46.78125 33.40625 
Q 43.953125 29.203125 39.59375 26.953125 
Q 35.25 24.703125 29.984375 24.703125 
Q 19.046875 24.703125 12.671875 31.3125 
Q 6.296875 37.9375 6.296875 49.421875 
Q 6.296875 60.640625 12.9375 67.421875 
Q 19.578125 74.21875 30.609375 74.21875 
Q 43.265625 74.21875 49.921875 64.515625 
Q 56.59375 54.828125 56.59375 36.375 
Q 56.59375 19.140625 48.40625 8.859375 
Q 40.234375 -1.421875 26.421875 -1.421875 
Q 22.703125 -1.421875 18.890625 -0.6875 
Q 15.09375 0.046875 10.984375 1.515625 
z
M 30.609375 32.421875 
Q 37.25 32.421875 41.125 36.953125 
Q 45.015625 41.5 45.015625 49.421875 
Q 45.015625 57.28125 41.125 61.84375 
Q 37.25 66.40625 30.609375 66.40625 
Q 23.96875 66.40625 20.09375 61.84375 
Q 16.21875 57.28125 16.21875 49.421875 
Q 16.21875 41.5 20.09375 36.953125 
Q 23.96875 32.421875 30.609375 32.421875 
z
" id="DejaVuSans-57"/>
      </defs>
      <g style="fill:#262626;" transform="translate(15.41875 71.882419)scale(0.1 -0.1)">
       <use xlink:href="#DejaVuSans-47"/>
       <use x="33.691406" xlink:href="#DejaVuSans-52"/>
       <use x="97.314453" xlink:href="#DejaVuSans-56"/>
       <use x="160.9375" xlink:href="#DejaVuSans-52"/>
       <use x="224.560547" xlink:href="#DejaVuSans-57"/>
       <use x="288.183594" xlink:href="#DejaVuSans-50"/>
      </g>
     </g>
    </g>
    <g id="ytick_2">
     <g id="text_9">
      <!-- /24706 -->
      <defs>
       <path d="M 8.203125 72.90625 
L 55.078125 72.90625 
L 55.078125 68.703125 
L 28.609375 0 
L 18.3125 0 
L 43.21875 64.59375 
L 8.203125 64.59375 
z
" id="DejaVuSans-55"/>
      </defs>
      <g style="fill:#262626;" transform="translate(15.41875 125.104819)scale(0.1 -0.1)">
       <use xlink:href="#DejaVuSans-47"/>
       <use x="33.691406" xlink:href="#DejaVuSans-50"/>
       <use x="97.314453" xlink:href="#DejaVuSans-52"/>
       <use x="160.9375" xlink:href="#DejaVuSans-55"/>
       <use x="224.560547" xlink:href="#DejaVuSans-48"/>
       <use x="288.183594" xlink:href="#DejaVuSans-54"/>
      </g>
     </g>
    </g>
    <g id="ytick_3">
     <g id="text_10">
      <!-- /1617 -->
      <g style="fill:#262626;" transform="translate(21.78125 178.327219)scale(0.1 -0.1)">
       <use xlink:href="#DejaVuSans-47"/>
       <use x="33.691406" xlink:href="#DejaVuSans-49"/>
       <use x="97.314453" xlink:href="#DejaVuSans-54"/>
       <use x="160.9375" xlink:href="#DejaVuSans-49"/>
       <use x="224.560547" xlink:href="#DejaVuSans-55"/>
      </g>
     </g>
    </g>
    <g id="ytick_4">
     <g id="text_11">
      <!-- /19882 -->
      <g style="fill:#262626;" transform="translate(15.41875 231.549619)scale(0.1 -0.1)">
       <use xlink:href="#DejaVuSans-47"/>
       <use x="33.691406" xlink:href="#DejaVuSans-49"/>
       <use x="97.314453" xlink:href="#DejaVuSans-57"/>
       <use x="160.9375" xlink:href="#DejaVuSans-56"/>
       <use x="224.560547" xlink:href="#DejaVuSans-56"/>
       <use x="288.183594" xlink:href="#DejaVuSans-50"/>
      </g>
     </g>
    </g>
    <g id="ytick_5">
     <g id="text_12">
      <!-- /18922 -->
      <g style="fill:#262626;" transform="translate(15.41875 284.772019)scale(0.1 -0.1)">
       <use xlink:href="#DejaVuSans-47"/>
       <use x="33.691406" xlink:href="#DejaVuSans-49"/>
       <use x="97.314453" xlink:href="#DejaVuSans-56"/>
       <use x="160.9375" xlink:href="#DejaVuSans-57"/>
       <use x="224.560547" xlink:href="#DejaVuSans-50"/>
       <use x="288.183594" xlink:href="#DejaVuSans-50"/>
      </g>
     </g>
    </g>
    <g id="text_13">
     <!-- URL -->
     <defs>
      <path d="M 8.6875 72.90625 
L 18.609375 72.90625 
L 18.609375 28.609375 
Q 18.609375 16.890625 22.84375 11.734375 
Q 27.09375 6.59375 36.625 6.59375 
Q 46.09375 6.59375 50.34375 11.734375 
Q 54.59375 16.890625 54.59375 28.609375 
L 54.59375 72.90625 
L 64.5 72.90625 
L 64.5 27.390625 
Q 64.5 13.140625 57.4375 5.859375 
Q 50.390625 -1.421875 36.625 -1.421875 
Q 22.796875 -1.421875 15.734375 5.859375 
Q 8.6875 13.140625 8.6875 27.390625 
z
" id="DejaVuSans-85"/>
      <path d="M 44.390625 34.1875 
Q 47.5625 33.109375 50.5625 29.59375 
Q 53.5625 26.078125 56.59375 19.921875 
L 66.609375 0 
L 56 0 
L 46.6875 18.703125 
Q 43.0625 26.03125 39.671875 28.421875 
Q 36.28125 30.8125 30.421875 30.8125 
L 19.671875 30.8125 
L 19.671875 0 
L 9.8125 0 
L 9.8125 72.90625 
L 32.078125 72.90625 
Q 44.578125 72.90625 50.734375 67.671875 
Q 56.890625 62.453125 56.890625 51.90625 
Q 56.890625 45.015625 53.6875 40.46875 
Q 50.484375 35.9375 44.390625 34.1875 
z
M 19.671875 64.796875 
L 19.671875 38.921875 
L 32.078125 38.921875 
Q 39.203125 38.921875 42.84375 42.21875 
Q 46.484375 45.515625 46.484375 51.90625 
Q 46.484375 58.296875 42.84375 61.546875 
Q 39.203125 64.796875 32.078125 64.796875 
z
" id="DejaVuSans-82"/>
     </defs>
     <g style="fill:#262626;" transform="translate(9.339063 184.447531)rotate(-90)scale(0.1 -0.1)">
      <use xlink:href="#DejaVuSans-85"/>
      <use x="73.193359" xlink:href="#DejaVuSans-82"/>
      <use x="142.675781" xlink:href="#DejaVuSans-76"/>
     </g>
    </g>
   </g>
   <g id="PolyCollection_1">
    <defs>
     <path d="M 76.272892 -277.5168 
L 76.272892 -295.810555 
L 77.406182 -296.902501 
L 78.539472 -297.772283 
L 79.672762 -298.390268 
L 80.806052 -298.737308 
L 81.939342 -298.80576 
L 83.072632 -298.599641 
L 84.205922 -298.133955 
L 85.339212 -297.433278 
L 86.472502 -296.52979 
L 87.605792 -295.460968 
L 88.739082 -294.267163 
L 89.872372 -292.989297 
L 91.005662 -291.666819 
L 92.138952 -290.336072 
L 93.272242 -289.029103 
L 94.405532 -287.772922 
L 95.538822 -286.589171 
L 96.672112 -285.494127 
L 97.805402 -284.498941 
L 98.938692 -283.610055 
L 100.071982 -282.829698 
L 101.205272 -282.156432 
L 102.338562 -281.585701 
L 103.471852 -281.110385 
L 104.605142 -280.721343 
L 105.738432 -280.407951 
L 106.871722 -280.158648 
L 108.005012 -279.961468 
L 109.138302 -279.804568 
L 110.271592 -279.676723 
L 111.404882 -279.567764 
L 112.538172 -279.468947 
L 113.671462 -279.373213 
L 114.804752 -279.275344 
L 115.938042 -279.171988 
L 117.071332 -279.061568 
L 118.204622 -278.94409 
L 119.337912 -278.820865 
L 120.471202 -278.694181 
L 121.604492 -278.566957 
L 122.737782 -278.442401 
L 123.871072 -278.323708 
L 125.004362 -278.213812 
L 126.137652 -278.115203 
L 127.270942 -278.029804 
L 128.404232 -277.95892 
L 129.537522 -277.903224 
L 130.670812 -277.862787 
L 131.804102 -277.837134 
L 132.937392 -277.825306 
L 134.070682 -277.825927 
L 135.203972 -277.837275 
L 136.337262 -277.857346 
L 137.470552 -277.883928 
L 138.603842 -277.914675 
L 139.737132 -277.947185 
L 140.870422 -277.979093 
L 142.003712 -278.008171 
L 143.137002 -278.032427 
L 144.270292 -278.0502 
L 145.403582 -278.060241 
L 146.536872 -278.061775 
L 147.670162 -278.054532 
L 148.803452 -278.03874 
L 149.936742 -278.015088 
L 151.070032 -277.984654 
L 152.203322 -277.948814 
L 153.336612 -277.909125 
L 154.469902 -277.867212 
L 155.603192 -277.824663 
L 156.736482 -277.782934 
L 157.869772 -277.743281 
L 159.003062 -277.706721 
L 160.136352 -277.674017 
L 161.269642 -277.645693 
L 162.402932 -277.622061 
L 163.536222 -277.603271 
L 164.669512 -277.589363 
L 165.802802 -277.580313 
L 166.936092 -277.576083 
L 168.069382 -277.576646 
L 169.202672 -277.582006 
L 170.335962 -277.592194 
L 171.469252 -277.60725 
L 172.602542 -277.627184 
L 173.735832 -277.651938 
L 174.869122 -277.681326 
L 176.002412 -277.71499 
L 177.135702 -277.752352 
L 178.268992 -277.792588 
L 179.402282 -277.834621 
L 180.535572 -277.87714 
L 181.668862 -277.918644 
L 182.802152 -277.957519 
L 183.935442 -277.992131 
L 185.068732 -278.020931 
L 186.202022 -278.04257 
L 187.335312 -278.055997 
L 188.468602 -278.060547 
L 188.468602 -277.5168 
L 188.468602 -277.5168 
L 187.335312 -277.5168 
L 186.202022 -277.5168 
L 185.068732 -277.5168 
L 183.935442 -277.5168 
L 182.802152 -277.5168 
L 181.668862 -277.5168 
L 180.535572 -277.5168 
L 179.402282 -277.5168 
L 178.268992 -277.5168 
L 177.135702 -277.5168 
L 176.002412 -277.5168 
L 174.869122 -277.5168 
L 173.735832 -277.5168 
L 172.602542 -277.5168 
L 171.469252 -277.5168 
L 170.335962 -277.5168 
L 169.202672 -277.5168 
L 168.069382 -277.5168 
L 166.936092 -277.5168 
L 165.802802 -277.5168 
L 164.669512 -277.5168 
L 163.536222 -277.5168 
L 162.402932 -277.5168 
L 161.269642 -277.5168 
L 160.136352 -277.5168 
L 159.003062 -277.5168 
L 157.869772 -277.5168 
L 156.736482 -277.5168 
L 155.603192 -277.5168 
L 154.469902 -277.5168 
L 153.336612 -277.5168 
L 152.203322 -277.5168 
L 151.070032 -277.5168 
L 149.936742 -277.5168 
L 148.803452 -277.5168 
L 147.670162 -277.5168 
L 146.536872 -277.5168 
L 145.403582 -277.5168 
L 144.270292 -277.5168 
L 143.137002 -277.5168 
L 142.003712 -277.5168 
L 140.870422 -277.5168 
L 139.737132 -277.5168 
L 138.603842 -277.5168 
L 137.470552 -277.5168 
L 136.337262 -277.5168 
L 135.203972 -277.5168 
L 134.070682 -277.5168 
L 132.937392 -277.5168 
L 131.804102 -277.5168 
L 130.670812 -277.5168 
L 129.537522 -277.5168 
L 128.404232 -277.5168 
L 127.270942 -277.5168 
L 126.137652 -277.5168 
L 125.004362 -277.5168 
L 123.871072 -277.5168 
L 122.737782 -277.5168 
L 121.604492 -277.5168 
L 120.471202 -277.5168 
L 119.337912 -277.5168 
L 118.204622 -277.5168 
L 117.071332 -277.5168 
L 115.938042 -277.5168 
L 114.804752 -277.5168 
L 113.671462 -277.5168 
L 112.538172 -277.5168 
L 111.404882 -277.5168 
L 110.271592 -277.5168 
L 109.138302 -277.5168 
L 108.005012 -277.5168 
L 106.871722 -277.5168 
L 105.738432 -277.5168 
L 104.605142 -277.5168 
L 103.471852 -277.5168 
L 102.338562 -277.5168 
L 101.205272 -277.5168 
L 100.071982 -277.5168 
L 98.938692 -277.5168 
L 97.805402 -277.5168 
L 96.672112 -277.5168 
L 95.538822 -277.5168 
L 94.405532 -277.5168 
L 93.272242 -277.5168 
L 92.138952 -277.5168 
L 91.005662 -277.5168 
L 89.872372 -277.5168 
L 88.739082 -277.5168 
L 87.605792 -277.5168 
L 86.472502 -277.5168 
L 85.339212 -277.5168 
L 84.205922 -277.5168 
L 83.072632 -277.5168 
L 81.939342 -277.5168 
L 80.806052 -277.5168 
L 79.672762 -277.5168 
L 78.539472 -277.5168 
L 77.406182 -277.5168 
L 76.272892 -277.5168 
z
" id="m6503e73ca8"/>
    </defs>
    <g clip-path="url(#pc035dd5d9d)">
     <use style="fill:#3274a1;" x="0" xlink:href="#m6503e73ca8" y="345.6"/>
    </g>
   </g>
   <g id="PolyCollection_2">
    <defs>
     <path d="M 84.292902 -275.878317 
L 84.292902 -277.5168 
L 87.466582 -277.5168 
L 90.640263 -277.5168 
L 93.813943 -277.5168 
L 96.987624 -277.5168 
L 100.161304 -277.5168 
L 103.334985 -277.5168 
L 106.508665 -277.5168 
L 109.682346 -277.5168 
L 112.856026 -277.5168 
L 116.029707 -277.5168 
L 119.203387 -277.5168 
L 122.377068 -277.5168 
L 125.550748 -277.5168 
L 128.724429 -277.5168 
L 131.898109 -277.5168 
L 135.07179 -277.5168 
L 138.245471 -277.5168 
L 141.419151 -277.5168 
L 144.592832 -277.5168 
L 147.766512 -277.5168 
L 150.940193 -277.5168 
L 154.113873 -277.5168 
L 157.287554 -277.5168 
L 160.461234 -277.5168 
L 163.634915 -277.5168 
L 166.808595 -277.5168 
L 169.982276 -277.5168 
L 173.155956 -277.5168 
L 176.329637 -277.5168 
L 179.503317 -277.5168 
L 182.676998 -277.5168 
L 185.850678 -277.5168 
L 189.024359 -277.5168 
L 192.198039 -277.5168 
L 195.37172 -277.5168 
L 198.5454 -277.5168 
L 201.719081 -277.5168 
L 204.892761 -277.5168 
L 208.066442 -277.5168 
L 211.240122 -277.5168 
L 214.413803 -277.5168 
L 217.587483 -277.5168 
L 220.761164 -277.5168 
L 223.934844 -277.5168 
L 227.108525 -277.5168 
L 230.282205 -277.5168 
L 233.455886 -277.5168 
L 236.629566 -277.5168 
L 239.803247 -277.5168 
L 242.976928 -277.5168 
L 246.150608 -277.5168 
L 249.324289 -277.5168 
L 252.497969 -277.5168 
L 255.67165 -277.5168 
L 258.84533 -277.5168 
L 262.019011 -277.5168 
L 265.192691 -277.5168 
L 268.366372 -277.5168 
L 271.540052 -277.5168 
L 274.713733 -277.5168 
L 277.887413 -277.5168 
L 281.061094 -277.5168 
L 284.234774 -277.5168 
L 287.408455 -277.5168 
L 290.582135 -277.5168 
L 293.755816 -277.5168 
L 296.929496 -277.5168 
L 300.103177 -277.5168 
L 303.276857 -277.5168 
L 306.450538 -277.5168 
L 309.624218 -277.5168 
L 312.797899 -277.5168 
L 315.971579 -277.5168 
L 319.14526 -277.5168 
L 322.31894 -277.5168 
L 325.492621 -277.5168 
L 328.666301 -277.5168 
L 331.839982 -277.5168 
L 335.013662 -277.5168 
L 338.187343 -277.5168 
L 341.361023 -277.5168 
L 344.534704 -277.5168 
L 347.708384 -277.5168 
L 350.882065 -277.5168 
L 354.055746 -277.5168 
L 357.229426 -277.5168 
L 360.403107 -277.5168 
L 363.576787 -277.5168 
L 366.750468 -277.5168 
L 369.924148 -277.5168 
L 373.097829 -277.5168 
L 376.271509 -277.5168 
L 379.44519 -277.5168 
L 382.61887 -277.5168 
L 385.792551 -277.5168 
L 388.966231 -277.5168 
L 392.139912 -277.5168 
L 395.313592 -277.5168 
L 398.487273 -277.5168 
L 398.487273 -277.200939 
L 398.487273 -277.200939 
L 395.313592 -277.184131 
L 392.139912 -277.166433 
L 388.966231 -277.147589 
L 385.792551 -277.127314 
L 382.61887 -277.105291 
L 379.44519 -277.081182 
L 376.271509 -277.054634 
L 373.097829 -277.025286 
L 369.924148 -276.992782 
L 366.750468 -276.956774 
L 363.576787 -276.916939 
L 360.403107 -276.872982 
L 357.229426 -276.824651 
L 354.055746 -276.77174 
L 350.882065 -276.714103 
L 347.708384 -276.651654 
L 344.534704 -276.584376 
L 341.361023 -276.512325 
L 338.187343 -276.43563 
L 335.013662 -276.354496 
L 331.839982 -276.269204 
L 328.666301 -276.180108 
L 325.492621 -276.087634 
L 322.31894 -275.992275 
L 319.14526 -275.894588 
L 315.971579 -275.795187 
L 312.797899 -275.694739 
L 309.624218 -275.593955 
L 306.450538 -275.493586 
L 303.276857 -275.394415 
L 300.103177 -275.297248 
L 296.929496 -275.202903 
L 293.755816 -275.112209 
L 290.582135 -275.025988 
L 287.408455 -274.94505 
L 284.234774 -274.870181 
L 281.061094 -274.802131 
L 277.887413 -274.741606 
L 274.713733 -274.689253 
L 271.540052 -274.64565 
L 268.366372 -274.611298 
L 265.192691 -274.586605 
L 262.019011 -274.571881 
L 258.84533 -274.567329 
L 255.67165 -274.573038 
L 252.497969 -274.588977 
L 249.324289 -274.614996 
L 246.150608 -274.650823 
L 242.976928 -274.696064 
L 239.803247 -274.750212 
L 236.629566 -274.812649 
L 233.455886 -274.882659 
L 230.282205 -274.959431 
L 227.108525 -275.042079 
L 223.934844 -275.129649 
L 220.761164 -275.221132 
L 217.587483 -275.315482 
L 214.413803 -275.411627 
L 211.240122 -275.508484 
L 208.066442 -275.60497 
L 204.892761 -275.700018 
L 201.719081 -275.792585 
L 198.5454 -275.881666 
L 195.37172 -275.966304 
L 192.198039 -276.0456 
L 189.024359 -276.118724 
L 185.850678 -276.18492 
L 182.676998 -276.243521 
L 179.503317 -276.293954 
L 176.329637 -276.335753 
L 173.155956 -276.368563 
L 169.982276 -276.392153 
L 166.808595 -276.406423 
L 163.634915 -276.411409 
L 160.461234 -276.407293 
L 157.287554 -276.394404 
L 154.113873 -276.373222 
L 150.940193 -276.344375 
L 147.766512 -276.308638 
L 144.592832 -276.266922 
L 141.419151 -276.220266 
L 138.245471 -276.169819 
L 135.07179 -276.116824 
L 131.898109 -276.062591 
L 128.724429 -276.008475 
L 125.550748 -275.955845 
L 122.377068 -275.906054 
L 119.203387 -275.86041 
L 116.029707 -275.820142 
L 112.856026 -275.78637 
L 109.682346 -275.760083 
L 106.508665 -275.742107 
L 103.334985 -275.733089 
L 100.161304 -275.733485 
L 96.987624 -275.743545 
L 93.813943 -275.763314 
L 90.640263 -275.792632 
L 87.466582 -275.831144 
L 84.292902 -275.878317 
z
" id="meb32e722ce"/>
    </defs>
    <g clip-path="url(#pc035dd5d9d)">
     <use style="fill:#e1812c;" x="0" xlink:href="#meb32e722ce" y="345.6"/>
    </g>
   </g>
   <g id="PolyCollection_3">
    <defs>
     <path d="M 75.753705 -224.2944 
L 75.753705 -244.527968 
L 77.879891 -245.290526 
L 80.006076 -245.58336 
L 82.132262 -245.389853 
L 84.258448 -244.727373 
L 86.384633 -243.645083 
L 88.510819 -242.218164 
L 90.637004 -240.539378 
L 92.76319 -238.709287 
L 94.889376 -236.826527 
L 97.015561 -234.979414 
L 99.141747 -233.239816 
L 101.267932 -231.659734 
L 103.394118 -230.270598 
L 105.520304 -229.084861 
L 107.646489 -228.099231 
L 109.772675 -227.298791 
L 111.898861 -226.661293 
L 114.025046 -226.161073 
L 116.151232 -225.772212 
L 118.277417 -225.470785 
L 120.403603 -225.23621 
L 122.529789 -225.051805 
L 124.655974 -224.904748 
L 126.78216 -224.785645 
L 128.908345 -224.687896 
L 131.034531 -224.607 
L 133.160717 -224.539915 
L 135.286902 -224.484525 
L 137.413088 -224.439248 
L 139.539274 -224.402776 
L 141.665459 -224.373924 
L 143.791645 -224.351567 
L 145.91783 -224.334625 
L 148.044016 -224.322088 
L 150.170202 -224.313034 
L 152.296387 -224.306656 
L 154.422573 -224.302277 
L 156.548758 -224.299345 
L 158.674944 -224.297431 
L 160.80113 -224.296215 
L 162.927315 -224.295461 
L 165.053501 -224.295005 
L 167.179687 -224.294737 
L 169.305872 -224.294583 
L 171.432058 -224.294497 
L 173.558243 -224.29445 
L 175.684429 -224.294425 
L 177.810615 -224.294413 
L 179.9368 -224.294406 
L 182.062986 -224.294403 
L 184.189171 -224.294401 
L 186.315357 -224.294401 
L 188.441543 -224.2944 
L 190.567728 -224.2944 
L 192.693914 -224.2944 
L 194.8201 -224.2944 
L 196.946285 -224.2944 
L 199.072471 -224.2944 
L 201.198656 -224.2944 
L 203.324842 -224.2944 
L 205.451028 -224.2944 
L 207.577213 -224.2944 
L 209.703399 -224.2944 
L 211.829584 -224.2944 
L 213.95577 -224.2944 
L 216.081956 -224.294401 
L 218.208141 -224.294402 
L 220.334327 -224.294404 
L 222.460513 -224.294407 
L 224.586698 -224.294415 
L 226.712884 -224.294431 
L 228.839069 -224.294461 
L 230.965255 -224.294516 
L 233.091441 -224.294617 
L 235.217626 -224.294796 
L 237.343812 -224.295104 
L 239.469997 -224.295623 
L 241.596183 -224.296471 
L 243.722369 -224.297822 
L 245.848554 -224.299919 
L 247.97474 -224.303084 
L 250.100926 -224.307735 
L 252.227111 -224.31438 
L 254.353297 -224.323612 
L 256.479482 -224.336077 
L 258.605668 -224.35242 
L 260.731854 -224.373216 
L 262.858039 -224.398874 
L 264.984225 -224.429533 
L 267.11041 -224.464957 
L 269.236596 -224.504457 
L 271.362782 -224.546841 
L 273.488967 -224.590433 
L 275.615153 -224.633148 
L 277.741339 -224.672643 
L 279.867524 -224.706518 
L 281.99371 -224.732557 
L 284.119895 -224.748963 
L 286.246081 -224.754567 
L 286.246081 -224.2944 
L 286.246081 -224.2944 
L 284.119895 -224.2944 
L 281.99371 -224.2944 
L 279.867524 -224.2944 
L 277.741339 -224.2944 
L 275.615153 -224.2944 
L 273.488967 -224.2944 
L 271.362782 -224.2944 
L 269.236596 -224.2944 
L 267.11041 -224.2944 
L 264.984225 -224.2944 
L 262.858039 -224.2944 
L 260.731854 -224.2944 
L 258.605668 -224.2944 
L 256.479482 -224.2944 
L 254.353297 -224.2944 
L 252.227111 -224.2944 
L 250.100926 -224.2944 
L 247.97474 -224.2944 
L 245.848554 -224.2944 
L 243.722369 -224.2944 
L 241.596183 -224.2944 
L 239.469997 -224.2944 
L 237.343812 -224.2944 
L 235.217626 -224.2944 
L 233.091441 -224.2944 
L 230.965255 -224.2944 
L 228.839069 -224.2944 
L 226.712884 -224.2944 
L 224.586698 -224.2944 
L 222.460513 -224.2944 
L 220.334327 -224.2944 
L 218.208141 -224.2944 
L 216.081956 -224.2944 
L 213.95577 -224.2944 
L 211.829584 -224.2944 
L 209.703399 -224.2944 
L 207.577213 -224.2944 
L 205.451028 -224.2944 
L 203.324842 -224.2944 
L 201.198656 -224.2944 
L 199.072471 -224.2944 
L 196.946285 -224.2944 
L 194.8201 -224.2944 
L 192.693914 -224.2944 
L 190.567728 -224.2944 
L 188.441543 -224.2944 
L 186.315357 -224.2944 
L 184.189171 -224.2944 
L 182.062986 -224.2944 
L 179.9368 -224.2944 
L 177.810615 -224.2944 
L 175.684429 -224.2944 
L 173.558243 -224.2944 
L 171.432058 -224.2944 
L 169.305872 -224.2944 
L 167.179687 -224.2944 
L 165.053501 -224.2944 
L 162.927315 -224.2944 
L 160.80113 -224.2944 
L 158.674944 -224.2944 
L 156.548758 -224.2944 
L 154.422573 -224.2944 
L 152.296387 -224.2944 
L 150.170202 -224.2944 
L 148.044016 -224.2944 
L 145.91783 -224.2944 
L 143.791645 -224.2944 
L 141.665459 -224.2944 
L 139.539274 -224.2944 
L 137.413088 -224.2944 
L 135.286902 -224.2944 
L 133.160717 -224.2944 
L 131.034531 -224.2944 
L 128.908345 -224.2944 
L 126.78216 -224.2944 
L 124.655974 -224.2944 
L 122.529789 -224.2944 
L 120.403603 -224.2944 
L 118.277417 -224.2944 
L 116.151232 -224.2944 
L 114.025046 -224.2944 
L 111.898861 -224.2944 
L 109.772675 -224.2944 
L 107.646489 -224.2944 
L 105.520304 -224.2944 
L 103.394118 -224.2944 
L 101.267932 -224.2944 
L 99.141747 -224.2944 
L 97.015561 -224.2944 
L 94.889376 -224.2944 
L 92.76319 -224.2944 
L 90.637004 -224.2944 
L 88.510819 -224.2944 
L 86.384633 -224.2944 
L 84.258448 -224.2944 
L 82.132262 -224.2944 
L 80.006076 -224.2944 
L 77.879891 -224.2944 
L 75.753705 -224.2944 
z
" id="m2dd51de178"/>
    </defs>
    <g clip-path="url(#pc035dd5d9d)">
     <use style="fill:#3274a1;" x="0" xlink:href="#m2dd51de178" y="345.6"/>
    </g>
   </g>
   <g id="PolyCollection_4">
    <defs>
     <path d="M 87.598669 -219.765641 
L 87.598669 -224.2944 
L 90.368085 -224.2944 
L 93.137502 -224.2944 
L 95.906918 -224.2944 
L 98.676334 -224.2944 
L 101.44575 -224.2944 
L 104.215167 -224.2944 
L 106.984583 -224.2944 
L 109.753999 -224.2944 
L 112.523415 -224.2944 
L 115.292832 -224.2944 
L 118.062248 -224.2944 
L 120.831664 -224.2944 
L 123.60108 -224.2944 
L 126.370497 -224.2944 
L 129.139913 -224.2944 
L 131.909329 -224.2944 
L 134.678745 -224.2944 
L 137.448162 -224.2944 
L 140.217578 -224.2944 
L 142.986994 -224.2944 
L 145.75641 -224.2944 
L 148.525827 -224.2944 
L 151.295243 -224.2944 
L 154.064659 -224.2944 
L 156.834075 -224.2944 
L 159.603492 -224.2944 
L 162.372908 -224.2944 
L 165.142324 -224.2944 
L 167.91174 -224.2944 
L 170.681157 -224.2944 
L 173.450573 -224.2944 
L 176.219989 -224.2944 
L 178.989405 -224.2944 
L 181.758821 -224.2944 
L 184.528238 -224.2944 
L 187.297654 -224.2944 
L 190.06707 -224.2944 
L 192.836486 -224.2944 
L 195.605903 -224.2944 
L 198.375319 -224.2944 
L 201.144735 -224.2944 
L 203.914151 -224.2944 
L 206.683568 -224.2944 
L 209.452984 -224.2944 
L 212.2224 -224.2944 
L 214.991816 -224.2944 
L 217.761233 -224.2944 
L 220.530649 -224.2944 
L 223.300065 -224.2944 
L 226.069481 -224.2944 
L 228.838898 -224.2944 
L 231.608314 -224.2944 
L 234.37773 -224.2944 
L 237.147146 -224.2944 
L 239.916563 -224.2944 
L 242.685979 -224.2944 
L 245.455395 -224.2944 
L 248.224811 -224.2944 
L 250.994228 -224.2944 
L 253.763644 -224.2944 
L 256.53306 -224.2944 
L 259.302476 -224.2944 
L 262.071893 -224.2944 
L 264.841309 -224.2944 
L 267.610725 -224.2944 
L 270.380141 -224.2944 
L 273.149558 -224.2944 
L 275.918974 -224.2944 
L 278.68839 -224.2944 
L 281.457806 -224.2944 
L 284.227223 -224.2944 
L 286.996639 -224.2944 
L 289.766055 -224.2944 
L 292.535471 -224.2944 
L 295.304888 -224.2944 
L 298.074304 -224.2944 
L 300.84372 -224.2944 
L 303.613136 -224.2944 
L 306.382553 -224.2944 
L 309.151969 -224.2944 
L 311.921385 -224.2944 
L 314.690801 -224.2944 
L 317.460218 -224.2944 
L 320.229634 -224.2944 
L 322.99905 -224.2944 
L 325.768466 -224.2944 
L 328.537882 -224.2944 
L 331.307299 -224.2944 
L 334.076715 -224.2944 
L 336.846131 -224.2944 
L 339.615547 -224.2944 
L 342.384964 -224.2944 
L 345.15438 -224.2944 
L 347.923796 -224.2944 
L 350.693212 -224.2944 
L 353.462629 -224.2944 
L 356.232045 -224.2944 
L 359.001461 -224.2944 
L 361.770877 -224.2944 
L 361.770877 -223.840327 
L 361.770877 -223.840327 
L 359.001461 -223.804356 
L 356.232045 -223.766382 
L 353.462629 -223.726405 
L 350.693212 -223.684448 
L 347.923796 -223.640559 
L 345.15438 -223.594816 
L 342.384964 -223.547323 
L 339.615547 -223.498216 
L 336.846131 -223.447657 
L 334.076715 -223.39584 
L 331.307299 -223.342979 
L 328.537882 -223.289316 
L 325.768466 -223.235109 
L 322.99905 -223.18063 
L 320.229634 -223.126163 
L 317.460218 -223.071995 
L 314.690801 -223.018411 
L 311.921385 -222.965694 
L 309.151969 -222.914114 
L 306.382553 -222.863928 
L 303.613136 -222.815372 
L 300.84372 -222.768664 
L 298.074304 -222.724 
L 295.304888 -222.681548 
L 292.535471 -222.641456 
L 289.766055 -222.603848 
L 286.996639 -222.568823 
L 284.227223 -222.536463 
L 281.457806 -222.50683 
L 278.68839 -222.479972 
L 275.918974 -222.455923 
L 273.149558 -222.434704 
L 270.380141 -222.416329 
L 267.610725 -222.400804 
L 264.841309 -222.388126 
L 262.071893 -222.378288 
L 259.302476 -222.371274 
L 256.53306 -222.367059 
L 253.763644 -222.365608 
L 250.994228 -222.366874 
L 248.224811 -222.370794 
L 245.455395 -222.377288 
L 242.685979 -222.386252 
L 239.916563 -222.39756 
L 237.147146 -222.411057 
L 234.37773 -222.426557 
L 231.608314 -222.443842 
L 228.838898 -222.462656 
L 226.069481 -222.482706 
L 223.300065 -222.50366 
L 220.530649 -222.525146 
L 217.761233 -222.54675 
L 214.991816 -222.568018 
L 212.2224 -222.588455 
L 209.452984 -222.607526 
L 206.683568 -222.62466 
L 203.914151 -222.63925 
L 201.144735 -222.65066 
L 198.375319 -222.658225 
L 195.605903 -222.661258 
L 192.836486 -222.65906 
L 190.06707 -222.650925 
L 187.297654 -222.63615 
L 184.528238 -222.614047 
L 181.758821 -222.583955 
L 178.989405 -222.545256 
L 176.219989 -222.497389 
L 173.450573 -222.439867 
L 170.681157 -222.372298 
L 167.91174 -222.294399 
L 165.142324 -222.206019 
L 162.372908 -222.107152 
L 159.603492 -221.997962 
L 156.834075 -221.878791 
L 154.064659 -221.750174 
L 151.295243 -221.612851 
L 148.525827 -221.467769 
L 145.75641 -221.316087 
L 142.986994 -221.159168 
L 140.217578 -220.99857 
L 137.448162 -220.836034 
L 134.678745 -220.673457 
L 131.909329 -220.512868 
L 129.139913 -220.356393 
L 126.370497 -220.206223 
L 123.60108 -220.064563 
L 120.831664 -219.933595 
L 118.062248 -219.81543 
L 115.292832 -219.712059 
L 112.523415 -219.62531 
L 109.753999 -219.556802 
L 106.984583 -219.507908 
L 104.215167 -219.479718 
L 101.44575 -219.473015 
L 98.676334 -219.488251 
L 95.906918 -219.525537 
L 93.137502 -219.584635 
L 90.368085 -219.664971 
L 87.598669 -219.765641 
z
" id="me9954b1a67"/>
    </defs>
    <g clip-path="url(#pc035dd5d9d)">
     <use style="fill:#e1812c;" x="0" xlink:href="#me9954b1a67" y="345.6"/>
    </g>
   </g>
   <g id="PolyCollection_5">
    <defs>
     <path d="M 73.832727 -171.072 
L 73.832727 -185.626105 
L 75.000018 -187.398503 
L 76.167309 -189.005071 
L 77.334599 -190.364886 
L 78.50189 -191.408287 
L 79.669181 -192.083419 
L 80.836472 -192.36096 
L 82.003762 -192.236404 
L 83.171053 -191.72961 
L 84.338344 -190.881795 
L 85.505634 -189.750528 
L 86.672925 -188.403525 
L 87.840216 -186.912183 
L 89.007507 -185.345669 
L 90.174797 -183.766224 
L 91.342088 -182.226003 
L 92.509379 -180.765509 
L 93.676669 -179.413437 
L 94.84396 -178.187563 
L 96.011251 -177.096301 
L 97.178542 -176.140538 
L 98.345832 -175.315473 
L 99.513123 -174.612289 
L 100.680414 -174.019569 
L 101.847704 -173.52446 
L 103.014995 -173.113607 
L 104.182286 -172.773896 
L 105.349577 -172.493043 
L 106.516867 -172.260029 
L 107.684158 -172.065382 
L 108.851449 -171.901318 
L 110.018739 -171.761726 
L 111.18603 -171.642026 
L 112.353321 -171.53893 
L 113.520612 -171.450153 
L 114.687902 -171.374098 
L 115.855193 -171.309584 
L 117.022484 -171.255623 
L 118.189774 -171.211268 
L 119.357065 -171.175533 
L 120.524356 -171.147369 
L 121.691646 -171.125685 
L 122.858937 -171.109393 
L 124.026228 -171.097457 
L 125.193519 -171.088932 
L 126.360809 -171.083 
L 127.5281 -171.078978 
L 128.695391 -171.076321 
L 129.862681 -171.074612 
L 131.029972 -171.073541 
L 132.197263 -171.072887 
L 133.364554 -171.072499 
L 134.531844 -171.072273 
L 135.699135 -171.072146 
L 136.866426 -171.072076 
L 138.033716 -171.072039 
L 139.201007 -171.072019 
L 140.368298 -171.072009 
L 141.535589 -171.072004 
L 142.702879 -171.072002 
L 143.87017 -171.072001 
L 145.037461 -171.072 
L 146.204751 -171.072 
L 147.372042 -171.072 
L 148.539333 -171.072 
L 149.706624 -171.072 
L 150.873914 -171.072001 
L 152.041205 -171.072002 
L 153.208496 -171.072003 
L 154.375786 -171.072007 
L 155.543077 -171.072015 
L 156.710368 -171.072031 
L 157.877659 -171.072062 
L 159.044949 -171.072119 
L 160.21224 -171.072224 
L 161.379531 -171.072412 
L 162.546821 -171.072738 
L 163.714112 -171.07329 
L 164.881403 -171.074198 
L 166.048694 -171.075654 
L 167.215984 -171.077927 
L 168.383275 -171.081377 
L 169.550566 -171.086472 
L 170.717856 -171.093788 
L 171.885147 -171.104 
L 173.052438 -171.117848 
L 174.219729 -171.136079 
L 175.387019 -171.159365 
L 176.55431 -171.188196 
L 177.721601 -171.222757 
L 178.888891 -171.262806 
L 180.056182 -171.307579 
L 181.223473 -171.355733 
L 182.390764 -171.405361 
L 183.558054 -171.454076 
L 184.725345 -171.499183 
L 185.892636 -171.537918 
L 187.059926 -171.567717 
L 188.227217 -171.586504 
L 189.394508 -171.592924 
L 189.394508 -171.072 
L 189.394508 -171.072 
L 188.227217 -171.072 
L 187.059926 -171.072 
L 185.892636 -171.072 
L 184.725345 -171.072 
L 183.558054 -171.072 
L 182.390764 -171.072 
L 181.223473 -171.072 
L 180.056182 -171.072 
L 178.888891 -171.072 
L 177.721601 -171.072 
L 176.55431 -171.072 
L 175.387019 -171.072 
L 174.219729 -171.072 
L 173.052438 -171.072 
L 171.885147 -171.072 
L 170.717856 -171.072 
L 169.550566 -171.072 
L 168.383275 -171.072 
L 167.215984 -171.072 
L 166.048694 -171.072 
L 164.881403 -171.072 
L 163.714112 -171.072 
L 162.546821 -171.072 
L 161.379531 -171.072 
L 160.21224 -171.072 
L 159.044949 -171.072 
L 157.877659 -171.072 
L 156.710368 -171.072 
L 155.543077 -171.072 
L 154.375786 -171.072 
L 153.208496 -171.072 
L 152.041205 -171.072 
L 150.873914 -171.072 
L 149.706624 -171.072 
L 148.539333 -171.072 
L 147.372042 -171.072 
L 146.204751 -171.072 
L 145.037461 -171.072 
L 143.87017 -171.072 
L 142.702879 -171.072 
L 141.535589 -171.072 
L 140.368298 -171.072 
L 139.201007 -171.072 
L 138.033716 -171.072 
L 136.866426 -171.072 
L 135.699135 -171.072 
L 134.531844 -171.072 
L 133.364554 -171.072 
L 132.197263 -171.072 
L 131.029972 -171.072 
L 129.862681 -171.072 
L 128.695391 -171.072 
L 127.5281 -171.072 
L 126.360809 -171.072 
L 125.193519 -171.072 
L 124.026228 -171.072 
L 122.858937 -171.072 
L 121.691646 -171.072 
L 120.524356 -171.072 
L 119.357065 -171.072 
L 118.189774 -171.072 
L 117.022484 -171.072 
L 115.855193 -171.072 
L 114.687902 -171.072 
L 113.520612 -171.072 
L 112.353321 -171.072 
L 111.18603 -171.072 
L 110.018739 -171.072 
L 108.851449 -171.072 
L 107.684158 -171.072 
L 106.516867 -171.072 
L 105.349577 -171.072 
L 104.182286 -171.072 
L 103.014995 -171.072 
L 101.847704 -171.072 
L 100.680414 -171.072 
L 99.513123 -171.072 
L 98.345832 -171.072 
L 97.178542 -171.072 
L 96.011251 -171.072 
L 94.84396 -171.072 
L 93.676669 -171.072 
L 92.509379 -171.072 
L 91.342088 -171.072 
L 90.174797 -171.072 
L 89.007507 -171.072 
L 87.840216 -171.072 
L 86.672925 -171.072 
L 85.505634 -171.072 
L 84.338344 -171.072 
L 83.171053 -171.072 
L 82.003762 -171.072 
L 80.836472 -171.072 
L 79.669181 -171.072 
L 78.50189 -171.072 
L 77.334599 -171.072 
L 76.167309 -171.072 
L 75.000018 -171.072 
L 73.832727 -171.072 
z
" id="mac42780571"/>
    </defs>
    <g clip-path="url(#pc035dd5d9d)">
     <use style="fill:#3274a1;" x="0" xlink:href="#mac42780571" y="345.6"/>
    </g>
   </g>
   <g id="PolyCollection_6">
    <defs>
     <path d="M 88.28932 -168.406169 
L 88.28932 -171.072 
L 91.055554 -171.072 
L 93.821789 -171.072 
L 96.588023 -171.072 
L 99.354257 -171.072 
L 102.120491 -171.072 
L 104.886725 -171.072 
L 107.652959 -171.072 
L 110.419193 -171.072 
L 113.185427 -171.072 
L 115.951662 -171.072 
L 118.717896 -171.072 
L 121.48413 -171.072 
L 124.250364 -171.072 
L 127.016598 -171.072 
L 129.782832 -171.072 
L 132.549066 -171.072 
L 135.315301 -171.072 
L 138.081535 -171.072 
L 140.847769 -171.072 
L 143.614003 -171.072 
L 146.380237 -171.072 
L 149.146471 -171.072 
L 151.912705 -171.072 
L 154.67894 -171.072 
L 157.445174 -171.072 
L 160.211408 -171.072 
L 162.977642 -171.072 
L 165.743876 -171.072 
L 168.51011 -171.072 
L 171.276344 -171.072 
L 174.042578 -171.072 
L 176.808813 -171.072 
L 179.575047 -171.072 
L 182.341281 -171.072 
L 185.107515 -171.072 
L 187.873749 -171.072 
L 190.639983 -171.072 
L 193.406217 -171.072 
L 196.172452 -171.072 
L 198.938686 -171.072 
L 201.70492 -171.072 
L 204.471154 -171.072 
L 207.237388 -171.072 
L 210.003622 -171.072 
L 212.769856 -171.072 
L 215.536091 -171.072 
L 218.302325 -171.072 
L 221.068559 -171.072 
L 223.834793 -171.072 
L 226.601027 -171.072 
L 229.367261 -171.072 
L 232.133495 -171.072 
L 234.899729 -171.072 
L 237.665964 -171.072 
L 240.432198 -171.072 
L 243.198432 -171.072 
L 245.964666 -171.072 
L 248.7309 -171.072 
L 251.497134 -171.072 
L 254.263368 -171.072 
L 257.029603 -171.072 
L 259.795837 -171.072 
L 262.562071 -171.072 
L 265.328305 -171.072 
L 268.094539 -171.072 
L 270.860773 -171.072 
L 273.627007 -171.072 
L 276.393242 -171.072 
L 279.159476 -171.072 
L 281.92571 -171.072 
L 284.691944 -171.072 
L 287.458178 -171.072 
L 290.224412 -171.072 
L 292.990646 -171.072 
L 295.756881 -171.072 
L 298.523115 -171.072 
L 301.289349 -171.072 
L 304.055583 -171.072 
L 306.821817 -171.072 
L 309.588051 -171.072 
L 312.354285 -171.072 
L 315.120519 -171.072 
L 317.886754 -171.072 
L 320.652988 -171.072 
L 323.419222 -171.072 
L 326.185456 -171.072 
L 328.95169 -171.072 
L 331.717924 -171.072 
L 334.484158 -171.072 
L 337.250393 -171.072 
L 340.016627 -171.072 
L 342.782861 -171.072 
L 345.549095 -171.072 
L 348.315329 -171.072 
L 351.081563 -171.072 
L 353.847797 -171.072 
L 356.614032 -171.072 
L 359.380266 -171.072 
L 362.1465 -171.072 
L 362.1465 -170.891939 
L 362.1465 -170.891939 
L 359.380266 -170.880267 
L 356.614032 -170.867651 
L 353.847797 -170.853941 
L 351.081563 -170.838976 
L 348.315329 -170.822583 
L 345.549095 -170.804584 
L 342.782861 -170.784799 
L 340.016627 -170.763046 
L 337.250393 -170.739149 
L 334.484158 -170.71294 
L 331.717924 -170.684266 
L 328.95169 -170.652991 
L 326.185456 -170.619001 
L 323.419222 -170.58221 
L 320.652988 -170.542563 
L 317.886754 -170.500041 
L 315.120519 -170.454663 
L 312.354285 -170.406489 
L 309.588051 -170.355623 
L 306.821817 -170.302216 
L 304.055583 -170.246463 
L 301.289349 -170.188607 
L 298.523115 -170.128936 
L 295.756881 -170.067779 
L 292.990646 -170.00551 
L 290.224412 -169.942536 
L 287.458178 -169.879301 
L 284.691944 -169.816273 
L 281.92571 -169.753945 
L 279.159476 -169.692825 
L 276.393242 -169.633432 
L 273.627007 -169.576285 
L 270.860773 -169.521901 
L 268.094539 -169.470783 
L 265.328305 -169.423416 
L 262.562071 -169.380259 
L 259.795837 -169.341738 
L 257.029603 -169.308241 
L 254.263368 -169.28011 
L 251.497134 -169.257636 
L 248.7309 -169.241056 
L 245.964666 -169.230545 
L 243.198432 -169.226218 
L 240.432198 -169.228119 
L 237.665964 -169.236226 
L 234.899729 -169.250445 
L 232.133495 -169.270609 
L 229.367261 -169.296479 
L 226.601027 -169.327744 
L 223.834793 -169.36402 
L 221.068559 -169.404853 
L 218.302325 -169.449724 
L 215.536091 -169.498044 
L 212.769856 -169.549169 
L 210.003622 -169.602395 
L 207.237388 -169.656968 
L 204.471154 -169.712091 
L 201.70492 -169.766929 
L 198.938686 -169.820617 
L 196.172452 -169.872273 
L 193.406217 -169.921 
L 190.639983 -169.965904 
L 187.873749 -170.006103 
L 185.107515 -170.040737 
L 182.341281 -170.068982 
L 179.575047 -170.090066 
L 176.808813 -170.103279 
L 174.042578 -170.10799 
L 171.276344 -170.10366 
L 168.51011 -170.089857 
L 165.743876 -170.066269 
L 162.977642 -170.03272 
L 160.211408 -169.989176 
L 157.445174 -169.935764 
L 154.67894 -169.872771 
L 151.912705 -169.800658 
L 149.146471 -169.720059 
L 146.380237 -169.631781 
L 143.614003 -169.536802 
L 140.847769 -169.436259 
L 138.081535 -169.33144 
L 135.315301 -169.223766 
L 132.549066 -169.114769 
L 129.782832 -169.006065 
L 127.016598 -168.899333 
L 124.250364 -168.796274 
L 121.48413 -168.698584 
L 118.717896 -168.607916 
L 115.951662 -168.525843 
L 113.185427 -168.453825 
L 110.419193 -168.393176 
L 107.652959 -168.345029 
L 104.886725 -168.310316 
L 102.120491 -168.289739 
L 99.354257 -168.283761 
L 96.588023 -168.292588 
L 93.821789 -168.316173 
L 91.055554 -168.354214 
L 88.28932 -168.406169 
z
" id="m1436de387b"/>
    </defs>
    <g clip-path="url(#pc035dd5d9d)">
     <use style="fill:#e1812c;" x="0" xlink:href="#m1436de387b" y="345.6"/>
    </g>
   </g>
   <g id="PolyCollection_7">
    <defs>
     <path d="M 75.575848 -117.8496 
L 75.575848 -134.981482 
L 76.558056 -136.294502 
L 77.540265 -137.403745 
L 78.522474 -138.266737 
L 79.504683 -138.851474 
L 80.486892 -139.13856 
L 81.469101 -139.122319 
L 82.451309 -138.810806 
L 83.433518 -138.224735 
L 84.415727 -137.3955 
L 85.397936 -136.362518 
L 86.380145 -135.17022 
L 87.362354 -133.864986 
L 88.344562 -132.492338 
L 89.326771 -131.094585 
L 90.30898 -129.709083 
L 91.291189 -128.367151 
L 92.273398 -127.093611 
L 93.255607 -125.906859 
L 94.237815 -124.819346 
L 95.220024 -123.838302 
L 96.202233 -122.966591 
L 97.184442 -122.203566 
L 98.166651 -121.545857 
L 99.14886 -120.988038 
L 100.131068 -120.523173 
L 101.113277 -120.143236 
L 102.095486 -119.839447 
L 103.077695 -119.602548 
L 104.059904 -119.423043 
L 105.042113 -119.29143 
L 106.024321 -119.19844 
L 107.00653 -119.135276 
L 107.988739 -119.093843 
L 108.970948 -119.066961 
L 109.953157 -119.048541 
L 110.935366 -119.033698 
L 111.917574 -119.0188 
L 112.899783 -119.001436 
L 113.881992 -118.980307 
L 114.864201 -118.955053 
L 115.84641 -118.92602 
L 116.828619 -118.894012 
L 117.810828 -118.860031 
L 118.793036 -118.825047 
L 119.775245 -118.789813 
L 120.757454 -118.754751 
L 121.739663 -118.719904 
L 122.721872 -118.684962 
L 123.704081 -118.649351 
L 124.686289 -118.612351 
L 125.668498 -118.573253 
L 126.650707 -118.53149 
L 127.632916 -118.486754 
L 128.615125 -118.439068 
L 129.597334 -118.388804 
L 130.579542 -118.336664 
L 131.561751 -118.283601 
L 132.54396 -118.230729 
L 133.526169 -118.17921 
L 134.508378 -118.130145 
L 135.490587 -118.084486 
L 136.472795 -118.042969 
L 137.455004 -118.006076 
L 138.437213 -117.974031 
L 139.419422 -117.946818 
L 140.401631 -117.924221 
L 141.38384 -117.905868 
L 142.366048 -117.891294 
L 143.348257 -117.879983 
L 144.330466 -117.871417 
L 145.312675 -117.865112 
L 146.294884 -117.860644 
L 147.277093 -117.857667 
L 148.259301 -117.855922 
L 149.24151 -117.855246 
L 150.223719 -117.855573 
L 151.205928 -117.856934 
L 152.188137 -117.859457 
L 153.170346 -117.863364 
L 154.152554 -117.868967 
L 155.134763 -117.876656 
L 156.116972 -117.886883 
L 157.099181 -117.900133 
L 158.08139 -117.916891 
L 159.063599 -117.937592 
L 160.045808 -117.962568 
L 161.028016 -117.99198 
L 162.010225 -118.025763 
L 162.992434 -118.063565 
L 163.974643 -118.104712 
L 164.956852 -118.148193 
L 165.939061 -118.192674 
L 166.921269 -118.23655 
L 167.903478 -118.278031 
L 168.885687 -118.315256 
L 169.867896 -118.346431 
L 170.850105 -118.369969 
L 171.832314 -118.384624 
L 172.814522 -118.3896 
L 172.814522 -117.8496 
L 172.814522 -117.8496 
L 171.832314 -117.8496 
L 170.850105 -117.8496 
L 169.867896 -117.8496 
L 168.885687 -117.8496 
L 167.903478 -117.8496 
L 166.921269 -117.8496 
L 165.939061 -117.8496 
L 164.956852 -117.8496 
L 163.974643 -117.8496 
L 162.992434 -117.8496 
L 162.010225 -117.8496 
L 161.028016 -117.8496 
L 160.045808 -117.8496 
L 159.063599 -117.8496 
L 158.08139 -117.8496 
L 157.099181 -117.8496 
L 156.116972 -117.8496 
L 155.134763 -117.8496 
L 154.152554 -117.8496 
L 153.170346 -117.8496 
L 152.188137 -117.8496 
L 151.205928 -117.8496 
L 150.223719 -117.8496 
L 149.24151 -117.8496 
L 148.259301 -117.8496 
L 147.277093 -117.8496 
L 146.294884 -117.8496 
L 145.312675 -117.8496 
L 144.330466 -117.8496 
L 143.348257 -117.8496 
L 142.366048 -117.8496 
L 141.38384 -117.8496 
L 140.401631 -117.8496 
L 139.419422 -117.8496 
L 138.437213 -117.8496 
L 137.455004 -117.8496 
L 136.472795 -117.8496 
L 135.490587 -117.8496 
L 134.508378 -117.8496 
L 133.526169 -117.8496 
L 132.54396 -117.8496 
L 131.561751 -117.8496 
L 130.579542 -117.8496 
L 129.597334 -117.8496 
L 128.615125 -117.8496 
L 127.632916 -117.8496 
L 126.650707 -117.8496 
L 125.668498 -117.8496 
L 124.686289 -117.8496 
L 123.704081 -117.8496 
L 122.721872 -117.8496 
L 121.739663 -117.8496 
L 120.757454 -117.8496 
L 119.775245 -117.8496 
L 118.793036 -117.8496 
L 117.810828 -117.8496 
L 116.828619 -117.8496 
L 115.84641 -117.8496 
L 114.864201 -117.8496 
L 113.881992 -117.8496 
L 112.899783 -117.8496 
L 111.917574 -117.8496 
L 110.935366 -117.8496 
L 109.953157 -117.8496 
L 108.970948 -117.8496 
L 107.988739 -117.8496 
L 107.00653 -117.8496 
L 106.024321 -117.8496 
L 105.042113 -117.8496 
L 104.059904 -117.8496 
L 103.077695 -117.8496 
L 102.095486 -117.8496 
L 101.113277 -117.8496 
L 100.131068 -117.8496 
L 99.14886 -117.8496 
L 98.166651 -117.8496 
L 97.184442 -117.8496 
L 96.202233 -117.8496 
L 95.220024 -117.8496 
L 94.237815 -117.8496 
L 93.255607 -117.8496 
L 92.273398 -117.8496 
L 91.291189 -117.8496 
L 90.30898 -117.8496 
L 89.326771 -117.8496 
L 88.344562 -117.8496 
L 87.362354 -117.8496 
L 86.380145 -117.8496 
L 85.397936 -117.8496 
L 84.415727 -117.8496 
L 83.433518 -117.8496 
L 82.451309 -117.8496 
L 81.469101 -117.8496 
L 80.486892 -117.8496 
L 79.504683 -117.8496 
L 78.522474 -117.8496 
L 77.540265 -117.8496 
L 76.558056 -117.8496 
L 75.575848 -117.8496 
z
" id="m9eac6f2be5"/>
    </defs>
    <g clip-path="url(#pc035dd5d9d)">
     <use style="fill:#3274a1;" x="0" xlink:href="#m9eac6f2be5" y="345.6"/>
    </g>
   </g>
   <g id="PolyCollection_8">
    <defs>
     <path d="M 85.138597 -115.612398 
L 85.138597 -117.8496 
L 87.458857 -117.8496 
L 89.779118 -117.8496 
L 92.099378 -117.8496 
L 94.419639 -117.8496 
L 96.739899 -117.8496 
L 99.06016 -117.8496 
L 101.38042 -117.8496 
L 103.700681 -117.8496 
L 106.020941 -117.8496 
L 108.341202 -117.8496 
L 110.661462 -117.8496 
L 112.981723 -117.8496 
L 115.301983 -117.8496 
L 117.622244 -117.8496 
L 119.942504 -117.8496 
L 122.262764 -117.8496 
L 124.583025 -117.8496 
L 126.903285 -117.8496 
L 129.223546 -117.8496 
L 131.543806 -117.8496 
L 133.864067 -117.8496 
L 136.184327 -117.8496 
L 138.504588 -117.8496 
L 140.824848 -117.8496 
L 143.145109 -117.8496 
L 145.465369 -117.8496 
L 147.78563 -117.8496 
L 150.10589 -117.8496 
L 152.426151 -117.8496 
L 154.746411 -117.8496 
L 157.066672 -117.8496 
L 159.386932 -117.8496 
L 161.707192 -117.8496 
L 164.027453 -117.8496 
L 166.347713 -117.8496 
L 168.667974 -117.8496 
L 170.988234 -117.8496 
L 173.308495 -117.8496 
L 175.628755 -117.8496 
L 177.949016 -117.8496 
L 180.269276 -117.8496 
L 182.589537 -117.8496 
L 184.909797 -117.8496 
L 187.230058 -117.8496 
L 189.550318 -117.8496 
L 191.870579 -117.8496 
L 194.190839 -117.8496 
L 196.5111 -117.8496 
L 198.83136 -117.8496 
L 201.15162 -117.8496 
L 203.471881 -117.8496 
L 205.792141 -117.8496 
L 208.112402 -117.8496 
L 210.432662 -117.8496 
L 212.752923 -117.8496 
L 215.073183 -117.8496 
L 217.393444 -117.8496 
L 219.713704 -117.8496 
L 222.033965 -117.8496 
L 224.354225 -117.8496 
L 226.674486 -117.8496 
L 228.994746 -117.8496 
L 231.315007 -117.8496 
L 233.635267 -117.8496 
L 235.955528 -117.8496 
L 238.275788 -117.8496 
L 240.596048 -117.8496 
L 242.916309 -117.8496 
L 245.236569 -117.8496 
L 247.55683 -117.8496 
L 249.87709 -117.8496 
L 252.197351 -117.8496 
L 254.517611 -117.8496 
L 256.837872 -117.8496 
L 259.158132 -117.8496 
L 261.478393 -117.8496 
L 263.798653 -117.8496 
L 266.118914 -117.8496 
L 268.439174 -117.8496 
L 270.759435 -117.8496 
L 273.079695 -117.8496 
L 275.399956 -117.8496 
L 277.720216 -117.8496 
L 280.040476 -117.8496 
L 282.360737 -117.8496 
L 284.680997 -117.8496 
L 287.001258 -117.8496 
L 289.321518 -117.8496 
L 291.641779 -117.8496 
L 293.962039 -117.8496 
L 296.2823 -117.8496 
L 298.60256 -117.8496 
L 300.922821 -117.8496 
L 303.243081 -117.8496 
L 305.563342 -117.8496 
L 307.883602 -117.8496 
L 310.203863 -117.8496 
L 312.524123 -117.8496 
L 314.844383 -117.8496 
L 314.844383 -117.123999 
L 314.844383 -117.123999 
L 312.524123 -117.068881 
L 310.203863 -117.011614 
L 307.883602 -116.952318 
L 305.563342 -116.891136 
L 303.243081 -116.828237 
L 300.922821 -116.763806 
L 298.60256 -116.698054 
L 296.2823 -116.631212 
L 293.962039 -116.56353 
L 291.641779 -116.495277 
L 289.321518 -116.426741 
L 287.001258 -116.358225 
L 284.680997 -116.290044 
L 282.360737 -116.222529 
L 280.040476 -116.156018 
L 277.720216 -116.090858 
L 275.399956 -116.0274 
L 273.079695 -115.965999 
L 270.759435 -115.907009 
L 268.439174 -115.85078 
L 266.118914 -115.797656 
L 263.798653 -115.747973 
L 261.478393 -115.702053 
L 259.158132 -115.660203 
L 256.837872 -115.622712 
L 254.517611 -115.589845 
L 252.197351 -115.561844 
L 249.87709 -115.538921 
L 247.55683 -115.521259 
L 245.236569 -115.509004 
L 242.916309 -115.50227 
L 240.596048 -115.501129 
L 238.275788 -115.505613 
L 235.955528 -115.515714 
L 233.635267 -115.531379 
L 231.315007 -115.552511 
L 228.994746 -115.57897 
L 226.674486 -115.610568 
L 224.354225 -115.647078 
L 222.033965 -115.688227 
L 219.713704 -115.7337 
L 217.393444 -115.783144 
L 215.073183 -115.836169 
L 212.752923 -115.892348 
L 210.432662 -115.951224 
L 208.112402 -116.01231 
L 205.792141 -116.075095 
L 203.471881 -116.139046 
L 201.15162 -116.203614 
L 198.83136 -116.268234 
L 196.5111 -116.332336 
L 194.190839 -116.395343 
L 191.870579 -116.456678 
L 189.550318 -116.515768 
L 187.230058 -116.572051 
L 184.909797 -116.624978 
L 182.589537 -116.674017 
L 180.269276 -116.718662 
L 177.949016 -116.758434 
L 175.628755 -116.792886 
L 173.308495 -116.82161 
L 170.988234 -116.844242 
L 168.667974 -116.860465 
L 166.347713 -116.870015 
L 164.027453 -116.872687 
L 161.707192 -116.868336 
L 159.386932 -116.856887 
L 157.066672 -116.838335 
L 154.746411 -116.812749 
L 152.426151 -116.780276 
L 150.10589 -116.741144 
L 147.78563 -116.695662 
L 145.465369 -116.644221 
L 143.145109 -116.587293 
L 140.824848 -116.525432 
L 138.504588 -116.459266 
L 136.184327 -116.389495 
L 133.864067 -116.316886 
L 131.543806 -116.242262 
L 129.223546 -116.166496 
L 126.903285 -116.090501 
L 124.583025 -116.015216 
L 122.262764 -115.941594 
L 119.942504 -115.870588 
L 117.622244 -115.803139 
L 115.301983 -115.740161 
L 112.981723 -115.682522 
L 110.661462 -115.631036 
L 108.341202 -115.586446 
L 106.020941 -115.549411 
L 103.700681 -115.520497 
L 101.38042 -115.500164 
L 99.06016 -115.488763 
L 96.739899 -115.486524 
L 94.419639 -115.493558 
L 92.099378 -115.509854 
L 89.779118 -115.535278 
L 87.458857 -115.56958 
L 85.138597 -115.612398 
z
" id="m45b68a78da"/>
    </defs>
    <g clip-path="url(#pc035dd5d9d)">
     <use style="fill:#e1812c;" x="0" xlink:href="#m45b68a78da" y="345.6"/>
    </g>
   </g>
   <g id="PolyCollection_9">
    <defs>
     <path d="M 74.408003 -64.6272 
L 74.408003 -69.910559 
L 74.727836 -70.834328 
L 75.047669 -71.853171 
L 75.367502 -72.960422 
L 75.687334 -74.144954 
L 76.007167 -75.391001 
L 76.327 -76.678271 
L 76.646832 -77.982402 
L 76.966665 -79.275745 
L 77.286498 -80.52847 
L 77.606331 -81.709912 
L 77.926163 -82.79009 
L 78.245996 -83.741262 
L 78.565829 -84.53942 
L 78.885661 -85.165584 
L 79.205494 -85.606808 
L 79.525327 -85.856805 
L 79.84516 -85.91616 
L 80.164992 -85.792105 
L 80.484825 -85.497892 
L 80.804658 -85.051821 
L 81.124491 -84.475988 
L 81.444323 -83.794875 
L 81.764156 -83.033868 
L 82.083989 -82.217819 
L 82.403821 -81.369755 
L 82.723654 -80.509806 
L 83.043487 -79.654434 
L 83.36332 -78.815991 
L 83.683152 -78.002626 
L 84.002985 -77.218518 
L 84.322818 -76.464401 
L 84.64265 -75.738314 
L 84.962483 -75.036483 
L 85.282316 -74.35425 
L 85.602149 -73.686964 
L 85.921981 -73.030743 
L 86.241814 -72.383046 
L 86.561647 -71.743024 
L 86.881479 -71.111635 
L 87.201312 -70.491541 
L 87.521145 -69.886821 
L 87.840978 -69.302558 
L 88.16081 -68.744357 
L 88.480643 -68.217859 
L 88.800476 -67.7283 
L 89.120308 -67.280153 
L 89.440141 -66.876882 
L 89.759974 -66.52081 
L 90.079807 -66.213087 
L 90.399639 -65.953754 
L 90.719472 -65.74186 
L 91.039305 -65.575616 
L 91.359137 -65.452542 
L 91.67897 -65.369613 
L 91.998803 -65.323359 
L 92.318636 -65.309943 
L 92.638468 -65.325198 
L 92.958301 -65.364652 
L 93.278134 -65.423545 
L 93.597967 -65.496859 
L 93.917799 -65.579379 
L 94.237632 -65.665787 
L 94.557465 -65.750808 
L 94.877297 -65.829385 
L 95.19713 -65.896889 
L 95.516963 -65.949331 
L 95.836796 -65.983569 
L 96.156628 -65.997469 
L 96.476461 -65.990016 
L 96.796294 -65.961352 
L 97.116126 -65.912732 
L 97.435959 -65.846404 
L 97.755792 -65.765432 
L 98.075625 -65.673461 
L 98.395457 -65.574464 
L 98.71529 -65.472488 
L 99.035123 -65.371424 
L 99.354955 -65.274812 
L 99.674788 -65.185701 
L 99.994621 -65.106564 
L 100.314454 -65.039261 
L 100.634286 -64.985043 
L 100.954119 -64.944596 
L 101.273952 -64.918092 
L 101.593784 -64.90525 
L 101.913617 -64.90539 
L 102.23345 -64.917483 
L 102.553283 -64.940185 
L 102.873115 -64.971868 
L 103.192948 -65.010647 
L 103.512781 -65.054417 
L 103.832613 -65.1009 
L 104.152446 -65.147715 
L 104.472279 -65.192456 
L 104.792112 -65.232805 
L 105.111944 -65.266637 
L 105.431777 -65.29214 
L 105.75161 -65.30792 
L 106.071443 -65.313078 
L 106.071443 -64.6272 
L 106.071443 -64.6272 
L 105.75161 -64.6272 
L 105.431777 -64.6272 
L 105.111944 -64.6272 
L 104.792112 -64.6272 
L 104.472279 -64.6272 
L 104.152446 -64.6272 
L 103.832613 -64.6272 
L 103.512781 -64.6272 
L 103.192948 -64.6272 
L 102.873115 -64.6272 
L 102.553283 -64.6272 
L 102.23345 -64.6272 
L 101.913617 -64.6272 
L 101.593784 -64.6272 
L 101.273952 -64.6272 
L 100.954119 -64.6272 
L 100.634286 -64.6272 
L 100.314454 -64.6272 
L 99.994621 -64.6272 
L 99.674788 -64.6272 
L 99.354955 -64.6272 
L 99.035123 -64.6272 
L 98.71529 -64.6272 
L 98.395457 -64.6272 
L 98.075625 -64.6272 
L 97.755792 -64.6272 
L 97.435959 -64.6272 
L 97.116126 -64.6272 
L 96.796294 -64.6272 
L 96.476461 -64.6272 
L 96.156628 -64.6272 
L 95.836796 -64.6272 
L 95.516963 -64.6272 
L 95.19713 -64.6272 
L 94.877297 -64.6272 
L 94.557465 -64.6272 
L 94.237632 -64.6272 
L 93.917799 -64.6272 
L 93.597967 -64.6272 
L 93.278134 -64.6272 
L 92.958301 -64.6272 
L 92.638468 -64.6272 
L 92.318636 -64.6272 
L 91.998803 -64.6272 
L 91.67897 -64.6272 
L 91.359137 -64.6272 
L 91.039305 -64.6272 
L 90.719472 -64.6272 
L 90.399639 -64.6272 
L 90.079807 -64.6272 
L 89.759974 -64.6272 
L 89.440141 -64.6272 
L 89.120308 -64.6272 
L 88.800476 -64.6272 
L 88.480643 -64.6272 
L 88.16081 -64.6272 
L 87.840978 -64.6272 
L 87.521145 -64.6272 
L 87.201312 -64.6272 
L 86.881479 -64.6272 
L 86.561647 -64.6272 
L 86.241814 -64.6272 
L 85.921981 -64.6272 
L 85.602149 -64.6272 
L 85.282316 -64.6272 
L 84.962483 -64.6272 
L 84.64265 -64.6272 
L 84.322818 -64.6272 
L 84.002985 -64.6272 
L 83.683152 -64.6272 
L 83.36332 -64.6272 
L 83.043487 -64.6272 
L 82.723654 -64.6272 
L 82.403821 -64.6272 
L 82.083989 -64.6272 
L 81.764156 -64.6272 
L 81.444323 -64.6272 
L 81.124491 -64.6272 
L 80.804658 -64.6272 
L 80.484825 -64.6272 
L 80.164992 -64.6272 
L 79.84516 -64.6272 
L 79.525327 -64.6272 
L 79.205494 -64.6272 
L 78.885661 -64.6272 
L 78.565829 -64.6272 
L 78.245996 -64.6272 
L 77.926163 -64.6272 
L 77.606331 -64.6272 
L 77.286498 -64.6272 
L 76.966665 -64.6272 
L 76.646832 -64.6272 
L 76.327 -64.6272 
L 76.007167 -64.6272 
L 75.687334 -64.6272 
L 75.367502 -64.6272 
L 75.047669 -64.6272 
L 74.727836 -64.6272 
L 74.408003 -64.6272 
z
" id="m1e0d5400cb"/>
    </defs>
    <g clip-path="url(#pc035dd5d9d)">
     <use style="fill:#3274a1;" x="0" xlink:href="#m1e0d5400cb" y="345.6"/>
    </g>
   </g>
   <g id="PolyCollection_10">
    <defs>
     <path d="M 84.812815 -63.828237 
L 84.812815 -64.6272 
L 87.216697 -64.6272 
L 89.620579 -64.6272 
L 92.024461 -64.6272 
L 94.428343 -64.6272 
L 96.832225 -64.6272 
L 99.236106 -64.6272 
L 101.639988 -64.6272 
L 104.04387 -64.6272 
L 106.447752 -64.6272 
L 108.851634 -64.6272 
L 111.255515 -64.6272 
L 113.659397 -64.6272 
L 116.063279 -64.6272 
L 118.467161 -64.6272 
L 120.871043 -64.6272 
L 123.274924 -64.6272 
L 125.678806 -64.6272 
L 128.082688 -64.6272 
L 130.48657 -64.6272 
L 132.890452 -64.6272 
L 135.294334 -64.6272 
L 137.698215 -64.6272 
L 140.102097 -64.6272 
L 142.505979 -64.6272 
L 144.909861 -64.6272 
L 147.313743 -64.6272 
L 149.717624 -64.6272 
L 152.121506 -64.6272 
L 154.525388 -64.6272 
L 156.92927 -64.6272 
L 159.333152 -64.6272 
L 161.737034 -64.6272 
L 164.140915 -64.6272 
L 166.544797 -64.6272 
L 168.948679 -64.6272 
L 171.352561 -64.6272 
L 173.756443 -64.6272 
L 176.160324 -64.6272 
L 178.564206 -64.6272 
L 180.968088 -64.6272 
L 183.37197 -64.6272 
L 185.775852 -64.6272 
L 188.179734 -64.6272 
L 190.583615 -64.6272 
L 192.987497 -64.6272 
L 195.391379 -64.6272 
L 197.795261 -64.6272 
L 200.199143 -64.6272 
L 202.603024 -64.6272 
L 205.006906 -64.6272 
L 207.410788 -64.6272 
L 209.81467 -64.6272 
L 212.218552 -64.6272 
L 214.622434 -64.6272 
L 217.026315 -64.6272 
L 219.430197 -64.6272 
L 221.834079 -64.6272 
L 224.237961 -64.6272 
L 226.641843 -64.6272 
L 229.045724 -64.6272 
L 231.449606 -64.6272 
L 233.853488 -64.6272 
L 236.25737 -64.6272 
L 238.661252 -64.6272 
L 241.065134 -64.6272 
L 243.469015 -64.6272 
L 245.872897 -64.6272 
L 248.276779 -64.6272 
L 250.680661 -64.6272 
L 253.084543 -64.6272 
L 255.488424 -64.6272 
L 257.892306 -64.6272 
L 260.296188 -64.6272 
L 262.70007 -64.6272 
L 265.103952 -64.6272 
L 267.507833 -64.6272 
L 269.911715 -64.6272 
L 272.315597 -64.6272 
L 274.719479 -64.6272 
L 277.123361 -64.6272 
L 279.527243 -64.6272 
L 281.931124 -64.6272 
L 284.335006 -64.6272 
L 286.738888 -64.6272 
L 289.14277 -64.6272 
L 291.546652 -64.6272 
L 293.950533 -64.6272 
L 296.354415 -64.6272 
L 298.758297 -64.6272 
L 301.162179 -64.6272 
L 303.566061 -64.6272 
L 305.969943 -64.6272 
L 308.373824 -64.6272 
L 310.777706 -64.6272 
L 313.181588 -64.6272 
L 315.58547 -64.6272 
L 317.989352 -64.6272 
L 320.393233 -64.6272 
L 322.797115 -64.6272 
L 322.797115 -64.379951 
L 322.797115 -64.379951 
L 320.393233 -64.365515 
L 317.989352 -64.350687 
L 315.58547 -64.335431 
L 313.181588 -64.319704 
L 310.777706 -64.303457 
L 308.373824 -64.286634 
L 305.969943 -64.269181 
L 303.566061 -64.251038 
L 301.162179 -64.232151 
L 298.758297 -64.21247 
L 296.354415 -64.191952 
L 293.950533 -64.170562 
L 291.546652 -64.148282 
L 289.14277 -64.125105 
L 286.738888 -64.101043 
L 284.335006 -64.076126 
L 281.931124 -64.050405 
L 279.527243 -64.023948 
L 277.123361 -63.996846 
L 274.719479 -63.96921 
L 272.315597 -63.941169 
L 269.911715 -63.912868 
L 267.507833 -63.884469 
L 265.103952 -63.856146 
L 262.70007 -63.828082 
L 260.296188 -63.800468 
L 257.892306 -63.773498 
L 255.488424 -63.747365 
L 253.084543 -63.722262 
L 250.680661 -63.698372 
L 248.276779 -63.675875 
L 245.872897 -63.654934 
L 243.469015 -63.635703 
L 241.065134 -63.618318 
L 238.661252 -63.602901 
L 236.25737 -63.589555 
L 233.853488 -63.578365 
L 231.449606 -63.569397 
L 229.045724 -63.5627 
L 226.641843 -63.558303 
L 224.237961 -63.556217 
L 221.834079 -63.556437 
L 219.430197 -63.558937 
L 217.026315 -63.563678 
L 214.622434 -63.570602 
L 212.218552 -63.579634 
L 209.81467 -63.590685 
L 207.410788 -63.603646 
L 205.006906 -63.618394 
L 202.603024 -63.634788 
L 200.199143 -63.652671 
L 197.795261 -63.671867 
L 195.391379 -63.692185 
L 192.987497 -63.713414 
L 190.583615 -63.73533 
L 188.179734 -63.757691 
L 185.775852 -63.780241 
L 183.37197 -63.802712 
L 180.968088 -63.824827 
L 178.564206 -63.846299 
L 176.160324 -63.866842 
L 173.756443 -63.886166 
L 171.352561 -63.903992 
L 168.948679 -63.920046 
L 166.544797 -63.934075 
L 164.140915 -63.945847 
L 161.737034 -63.955156 
L 159.333152 -63.961833 
L 156.92927 -63.965747 
L 154.525388 -63.96681 
L 152.121506 -63.964987 
L 149.717624 -63.960292 
L 147.313743 -63.952795 
L 144.909861 -63.942625 
L 142.505979 -63.929966 
L 140.102097 -63.915057 
L 137.698215 -63.898194 
L 135.294334 -63.879718 
L 132.890452 -63.860017 
L 130.48657 -63.839515 
L 128.082688 -63.818664 
L 125.678806 -63.797939 
L 123.274924 -63.777823 
L 120.871043 -63.758801 
L 118.467161 -63.741348 
L 116.063279 -63.725916 
L 113.659397 -63.71293 
L 111.255515 -63.702772 
L 108.851634 -63.695776 
L 106.447752 -63.69222 
L 104.04387 -63.692319 
L 101.639988 -63.696224 
L 99.236106 -63.704014 
L 96.832225 -63.715698 
L 94.428343 -63.731219 
L 92.024461 -63.750449 
L 89.620579 -63.773201 
L 87.216697 -63.799228 
L 84.812815 -63.828237 
z
" id="m37ee8f448b"/>
    </defs>
    <g clip-path="url(#pc035dd5d9d)">
     <use style="fill:#e1812c;" x="0" xlink:href="#m37ee8f448b" y="345.6"/>
    </g>
   </g>
   <g id="patch_3">
    <path clip-path="url(#pc035dd5d9d)" d="M 7.652863 68.0832 
L 7.652863 68.0832 
L 7.652863 68.0832 
L 7.652863 68.0832 
z
" style="fill:#3274a1;"/>
   </g>
   <g id="patch_4">
    <path clip-path="url(#pc035dd5d9d)" d="M 7.652863 68.0832 
L 7.652863 68.0832 
L 7.652863 68.0832 
L 7.652863 68.0832 
z
" style="fill:#e1812c;"/>
   </g>
   <g id="patch_5">
    <path d="M 57.6 307.584 
L 57.6 41.472 
" style="fill:none;stroke:#cccccc;stroke-linecap:square;stroke-linejoin:miter;stroke-width:0.8;"/>
   </g>
   <g id="patch_6">
    <path d="M 414.72 307.584 
L 414.72 41.472 
" style="fill:none;stroke:#cccccc;stroke-linecap:square;stroke-linejoin:miter;stroke-width:0.8;"/>
   </g>
   <g id="patch_7">
    <path d="M 57.6 307.584 
L 414.72 307.584 
" style="fill:none;stroke:#cccccc;stroke-linecap:square;stroke-linejoin:miter;stroke-width:0.8;"/>
   </g>
   <g id="patch_8">
    <path d="M 57.6 41.472 
L 414.72 41.472 
" style="fill:none;stroke:#cccccc;stroke-linecap:square;stroke-linejoin:miter;stroke-width:0.8;"/>
   </g>
   <g id="text_14">
    <!-- C: Loading_Time      0.119634 -->
    <defs>
     <path d="M 64.40625 67.28125 
L 64.40625 56.890625 
Q 59.421875 61.53125 53.78125 63.8125 
Q 48.140625 66.109375 41.796875 66.109375 
Q 29.296875 66.109375 22.65625 58.46875 
Q 16.015625 50.828125 16.015625 36.375 
Q 16.015625 21.96875 22.65625 14.328125 
Q 29.296875 6.6875 41.796875 6.6875 
Q 48.140625 6.6875 53.78125 8.984375 
Q 59.421875 11.28125 64.40625 15.921875 
L 64.40625 5.609375 
Q 59.234375 2.09375 53.4375 0.328125 
Q 47.65625 -1.421875 41.21875 -1.421875 
Q 24.65625 -1.421875 15.125 8.703125 
Q 5.609375 18.84375 5.609375 36.375 
Q 5.609375 53.953125 15.125 64.078125 
Q 24.65625 74.21875 41.21875 74.21875 
Q 47.75 74.21875 53.53125 72.484375 
Q 59.328125 70.75 64.40625 67.28125 
z
" id="DejaVuSans-67"/>
     <path d="M 11.71875 12.40625 
L 22.015625 12.40625 
L 22.015625 0 
L 11.71875 0 
z
M 11.71875 51.703125 
L 22.015625 51.703125 
L 22.015625 39.3125 
L 11.71875 39.3125 
z
" id="DejaVuSans-58"/>
     <path id="DejaVuSans-32"/>
    </defs>
    <g style="fill:#262626;" transform="translate(146.32875 -18.945)scale(0.12 -0.12)">
     <use xlink:href="#DejaVuSans-67"/>
     <use x="69.824219" xlink:href="#DejaVuSans-58"/>
     <use x="103.515625" xlink:href="#DejaVuSans-32"/>
     <use x="135.302734" xlink:href="#DejaVuSans-76"/>
     <use x="191" xlink:href="#DejaVuSans-111"/>
     <use x="252.181641" xlink:href="#DejaVuSans-97"/>
     <use x="313.460938" xlink:href="#DejaVuSans-100"/>
     <use x="376.9375" xlink:href="#DejaVuSans-105"/>
     <use x="404.720703" xlink:href="#DejaVuSans-110"/>
     <use x="468.099609" xlink:href="#DejaVuSans-103"/>
     <use x="531.576172" xlink:href="#DejaVuSans-95"/>
     <use x="581.576172" xlink:href="#DejaVuSans-84"/>
     <use x="642.613281" xlink:href="#DejaVuSans-105"/>
     <use x="670.396484" xlink:href="#DejaVuSans-109"/>
     <use x="767.808594" xlink:href="#DejaVuSans-101"/>
     <use x="829.332031" xlink:href="#DejaVuSans-32"/>
     <use x="861.119141" xlink:href="#DejaVuSans-32"/>
     <use x="892.90625" xlink:href="#DejaVuSans-32"/>
     <use x="924.693359" xlink:href="#DejaVuSans-32"/>
     <use x="956.480469" xlink:href="#DejaVuSans-32"/>
     <use x="988.267578" xlink:href="#DejaVuSans-32"/>
     <use x="1020.054688" xlink:href="#DejaVuSans-48"/>
     <use x="1083.677734" xlink:href="#DejaVuSans-46"/>
     <use x="1115.464844" xlink:href="#DejaVuSans-49"/>
     <use x="1179.087891" xlink:href="#DejaVuSans-49"/>
     <use x="1242.710938" xlink:href="#DejaVuSans-57"/>
     <use x="1306.333984" xlink:href="#DejaVuSans-54"/>
     <use x="1369.957031" xlink:href="#DejaVuSans-51"/>
     <use x="1433.580078" xlink:href="#DejaVuSans-52"/>
    </g>
    <!-- Status-Code     200.000000 -->
    <defs>
     <path d="M 53.515625 70.515625 
L 53.515625 60.890625 
Q 47.90625 63.578125 42.921875 64.890625 
Q 37.9375 66.21875 33.296875 66.21875 
Q 25.25 66.21875 20.875 63.09375 
Q 16.5 59.96875 16.5 54.203125 
Q 16.5 49.359375 19.40625 46.890625 
Q 22.3125 44.4375 30.421875 42.921875 
L 36.375 41.703125 
Q 47.40625 39.59375 52.65625 34.296875 
Q 57.90625 29 57.90625 20.125 
Q 57.90625 9.515625 50.796875 4.046875 
Q 43.703125 -1.421875 29.984375 -1.421875 
Q 24.8125 -1.421875 18.96875 -0.25 
Q 13.140625 0.921875 6.890625 3.21875 
L 6.890625 13.375 
Q 12.890625 10.015625 18.65625 8.296875 
Q 24.421875 6.59375 29.984375 6.59375 
Q 38.421875 6.59375 43.015625 9.90625 
Q 47.609375 13.234375 47.609375 19.390625 
Q 47.609375 24.75 44.3125 27.78125 
Q 41.015625 30.8125 33.5 32.328125 
L 27.484375 33.5 
Q 16.453125 35.6875 11.515625 40.375 
Q 6.59375 45.0625 6.59375 53.421875 
Q 6.59375 63.09375 13.40625 68.65625 
Q 20.21875 74.21875 32.171875 74.21875 
Q 37.3125 74.21875 42.625 73.28125 
Q 47.953125 72.359375 53.515625 70.515625 
z
" id="DejaVuSans-83"/>
     <path d="M 18.3125 70.21875 
L 18.3125 54.6875 
L 36.8125 54.6875 
L 36.8125 47.703125 
L 18.3125 47.703125 
L 18.3125 18.015625 
Q 18.3125 11.328125 20.140625 9.421875 
Q 21.96875 7.515625 27.59375 7.515625 
L 36.8125 7.515625 
L 36.8125 0 
L 27.59375 0 
Q 17.1875 0 13.234375 3.875 
Q 9.28125 7.765625 9.28125 18.015625 
L 9.28125 47.703125 
L 2.6875 47.703125 
L 2.6875 54.6875 
L 9.28125 54.6875 
L 9.28125 70.21875 
z
" id="DejaVuSans-116"/>
     <path d="M 8.5 21.578125 
L 8.5 54.6875 
L 17.484375 54.6875 
L 17.484375 21.921875 
Q 17.484375 14.15625 20.5 10.265625 
Q 23.53125 6.390625 29.59375 6.390625 
Q 36.859375 6.390625 41.078125 11.03125 
Q 45.3125 15.671875 45.3125 23.6875 
L 45.3125 54.6875 
L 54.296875 54.6875 
L 54.296875 0 
L 45.3125 0 
L 45.3125 8.40625 
Q 42.046875 3.421875 37.71875 1 
Q 33.40625 -1.421875 27.6875 -1.421875 
Q 18.265625 -1.421875 13.375 4.4375 
Q 8.5 10.296875 8.5 21.578125 
z
M 31.109375 56 
z
" id="DejaVuSans-117"/>
     <path d="M 44.28125 53.078125 
L 44.28125 44.578125 
Q 40.484375 46.53125 36.375 47.5 
Q 32.28125 48.484375 27.875 48.484375 
Q 21.1875 48.484375 17.84375 46.4375 
Q 14.5 44.390625 14.5 40.28125 
Q 14.5 37.15625 16.890625 35.375 
Q 19.28125 33.59375 26.515625 31.984375 
L 29.59375 31.296875 
Q 39.15625 29.25 43.1875 25.515625 
Q 47.21875 21.78125 47.21875 15.09375 
Q 47.21875 7.46875 41.1875 3.015625 
Q 35.15625 -1.421875 24.609375 -1.421875 
Q 20.21875 -1.421875 15.453125 -0.5625 
Q 10.6875 0.296875 5.421875 2 
L 5.421875 11.28125 
Q 10.40625 8.6875 15.234375 7.390625 
Q 20.0625 6.109375 24.8125 6.109375 
Q 31.15625 6.109375 34.5625 8.28125 
Q 37.984375 10.453125 37.984375 14.40625 
Q 37.984375 18.0625 35.515625 20.015625 
Q 33.0625 21.96875 24.703125 23.78125 
L 21.578125 24.515625 
Q 13.234375 26.265625 9.515625 29.90625 
Q 5.8125 33.546875 5.8125 39.890625 
Q 5.8125 47.609375 11.28125 51.796875 
Q 16.75 56 26.8125 56 
Q 31.78125 56 36.171875 55.265625 
Q 40.578125 54.546875 44.28125 53.078125 
z
" id="DejaVuSans-115"/>
     <path d="M 4.890625 31.390625 
L 31.203125 31.390625 
L 31.203125 23.390625 
L 4.890625 23.390625 
z
" id="DejaVuSans-45"/>
    </defs>
    <g style="fill:#262626;" transform="translate(153.71625 -5.173875)scale(0.12 -0.12)">
     <use xlink:href="#DejaVuSans-83"/>
     <use x="63.476562" xlink:href="#DejaVuSans-116"/>
     <use x="102.685547" xlink:href="#DejaVuSans-97"/>
     <use x="163.964844" xlink:href="#DejaVuSans-116"/>
     <use x="203.173828" xlink:href="#DejaVuSans-117"/>
     <use x="266.552734" xlink:href="#DejaVuSans-115"/>
     <use x="318.652344" xlink:href="#DejaVuSans-45"/>
     <use x="354.736328" xlink:href="#DejaVuSans-67"/>
     <use x="424.560547" xlink:href="#DejaVuSans-111"/>
     <use x="485.742188" xlink:href="#DejaVuSans-100"/>
     <use x="549.21875" xlink:href="#DejaVuSans-101"/>
     <use x="610.742188" xlink:href="#DejaVuSans-32"/>
     <use x="642.529297" xlink:href="#DejaVuSans-32"/>
     <use x="674.316406" xlink:href="#DejaVuSans-32"/>
     <use x="706.103516" xlink:href="#DejaVuSans-32"/>
     <use x="737.890625" xlink:href="#DejaVuSans-32"/>
     <use x="769.677734" xlink:href="#DejaVuSans-50"/>
     <use x="833.300781" xlink:href="#DejaVuSans-48"/>
     <use x="896.923828" xlink:href="#DejaVuSans-48"/>
     <use x="960.546875" xlink:href="#DejaVuSans-46"/>
     <use x="992.333984" xlink:href="#DejaVuSans-48"/>
     <use x="1055.957031" xlink:href="#DejaVuSans-48"/>
     <use x="1119.580078" xlink:href="#DejaVuSans-48"/>
     <use x="1183.203125" xlink:href="#DejaVuSans-48"/>
     <use x="1246.826172" xlink:href="#DejaVuSans-48"/>
     <use x="1310.449219" xlink:href="#DejaVuSans-48"/>
    </g>
    <!-- dtype: float64; F: Loading_Time      0.310864 -->
    <defs>
     <path d="M 32.171875 -5.078125 
Q 28.375 -14.84375 24.75 -17.8125 
Q 21.140625 -20.796875 15.09375 -20.796875 
L 7.90625 -20.796875 
L 7.90625 -13.28125 
L 13.1875 -13.28125 
Q 16.890625 -13.28125 18.9375 -11.515625 
Q 21 -9.765625 23.484375 -3.21875 
L 25.09375 0.875 
L 2.984375 54.6875 
L 12.5 54.6875 
L 29.59375 11.921875 
L 46.6875 54.6875 
L 56.203125 54.6875 
z
" id="DejaVuSans-121"/>
     <path d="M 18.109375 8.203125 
L 18.109375 -20.796875 
L 9.078125 -20.796875 
L 9.078125 54.6875 
L 18.109375 54.6875 
L 18.109375 46.390625 
Q 20.953125 51.265625 25.265625 53.625 
Q 29.59375 56 35.59375 56 
Q 45.5625 56 51.78125 48.09375 
Q 58.015625 40.1875 58.015625 27.296875 
Q 58.015625 14.40625 51.78125 6.484375 
Q 45.5625 -1.421875 35.59375 -1.421875 
Q 29.59375 -1.421875 25.265625 0.953125 
Q 20.953125 3.328125 18.109375 8.203125 
z
M 48.6875 27.296875 
Q 48.6875 37.203125 44.609375 42.84375 
Q 40.53125 48.484375 33.40625 48.484375 
Q 26.265625 48.484375 22.1875 42.84375 
Q 18.109375 37.203125 18.109375 27.296875 
Q 18.109375 17.390625 22.1875 11.75 
Q 26.265625 6.109375 33.40625 6.109375 
Q 40.53125 6.109375 44.609375 11.75 
Q 48.6875 17.390625 48.6875 27.296875 
z
" id="DejaVuSans-112"/>
     <path d="M 37.109375 75.984375 
L 37.109375 68.5 
L 28.515625 68.5 
Q 23.6875 68.5 21.796875 66.546875 
Q 19.921875 64.59375 19.921875 59.515625 
L 19.921875 54.6875 
L 34.71875 54.6875 
L 34.71875 47.703125 
L 19.921875 47.703125 
L 19.921875 0 
L 10.890625 0 
L 10.890625 47.703125 
L 2.296875 47.703125 
L 2.296875 54.6875 
L 10.890625 54.6875 
L 10.890625 58.5 
Q 10.890625 67.625 15.140625 71.796875 
Q 19.390625 75.984375 28.609375 75.984375 
z
" id="DejaVuSans-102"/>
     <path d="M 9.421875 75.984375 
L 18.40625 75.984375 
L 18.40625 0 
L 9.421875 0 
z
" id="DejaVuSans-108"/>
     <path d="M 11.71875 51.703125 
L 22.015625 51.703125 
L 22.015625 39.3125 
L 11.71875 39.3125 
z
M 11.71875 12.40625 
L 22.015625 12.40625 
L 22.015625 4 
L 14.015625 -11.625 
L 7.71875 -11.625 
L 11.71875 4 
z
" id="DejaVuSans-59"/>
     <path d="M 9.8125 72.90625 
L 51.703125 72.90625 
L 51.703125 64.59375 
L 19.671875 64.59375 
L 19.671875 43.109375 
L 48.578125 43.109375 
L 48.578125 34.8125 
L 19.671875 34.8125 
L 19.671875 0 
L 9.8125 0 
z
" id="DejaVuSans-70"/>
    </defs>
    <g style="fill:#262626;" transform="translate(100.89 8.2635)scale(0.12 -0.12)">
     <use xlink:href="#DejaVuSans-100"/>
     <use x="63.476562" xlink:href="#DejaVuSans-116"/>
     <use x="102.685547" xlink:href="#DejaVuSans-121"/>
     <use x="161.865234" xlink:href="#DejaVuSans-112"/>
     <use x="225.341797" xlink:href="#DejaVuSans-101"/>
     <use x="286.865234" xlink:href="#DejaVuSans-58"/>
     <use x="320.556641" xlink:href="#DejaVuSans-32"/>
     <use x="352.34375" xlink:href="#DejaVuSans-102"/>
     <use x="387.548828" xlink:href="#DejaVuSans-108"/>
     <use x="415.332031" xlink:href="#DejaVuSans-111"/>
     <use x="476.513672" xlink:href="#DejaVuSans-97"/>
     <use x="537.792969" xlink:href="#DejaVuSans-116"/>
     <use x="577.001953" xlink:href="#DejaVuSans-54"/>
     <use x="640.625" xlink:href="#DejaVuSans-52"/>
     <use x="704.248047" xlink:href="#DejaVuSans-59"/>
     <use x="737.939453" xlink:href="#DejaVuSans-32"/>
     <use x="769.726562" xlink:href="#DejaVuSans-70"/>
     <use x="827.136719" xlink:href="#DejaVuSans-58"/>
     <use x="860.828125" xlink:href="#DejaVuSans-32"/>
     <use x="892.615234" xlink:href="#DejaVuSans-76"/>
     <use x="948.3125" xlink:href="#DejaVuSans-111"/>
     <use x="1009.494141" xlink:href="#DejaVuSans-97"/>
     <use x="1070.773438" xlink:href="#DejaVuSans-100"/>
     <use x="1134.25" xlink:href="#DejaVuSans-105"/>
     <use x="1162.033203" xlink:href="#DejaVuSans-110"/>
     <use x="1225.412109" xlink:href="#DejaVuSans-103"/>
     <use x="1288.888672" xlink:href="#DejaVuSans-95"/>
     <use x="1338.888672" xlink:href="#DejaVuSans-84"/>
     <use x="1399.925781" xlink:href="#DejaVuSans-105"/>
     <use x="1427.708984" xlink:href="#DejaVuSans-109"/>
     <use x="1525.121094" xlink:href="#DejaVuSans-101"/>
     <use x="1586.644531" xlink:href="#DejaVuSans-32"/>
     <use x="1618.431641" xlink:href="#DejaVuSans-32"/>
     <use x="1650.21875" xlink:href="#DejaVuSans-32"/>
     <use x="1682.005859" xlink:href="#DejaVuSans-32"/>
     <use x="1713.792969" xlink:href="#DejaVuSans-32"/>
     <use x="1745.580078" xlink:href="#DejaVuSans-32"/>
     <use x="1777.367188" xlink:href="#DejaVuSans-48"/>
     <use x="1840.990234" xlink:href="#DejaVuSans-46"/>
     <use x="1872.777344" xlink:href="#DejaVuSans-51"/>
     <use x="1936.400391" xlink:href="#DejaVuSans-49"/>
     <use x="2000.023438" xlink:href="#DejaVuSans-48"/>
     <use x="2063.646484" xlink:href="#DejaVuSans-56"/>
     <use x="2127.269531" xlink:href="#DejaVuSans-54"/>
     <use x="2190.892578" xlink:href="#DejaVuSans-52"/>
    </g>
    <!-- Status-Code     200.000000 -->
    <g style="fill:#262626;" transform="translate(153.71625 22.034625)scale(0.12 -0.12)">
     <use xlink:href="#DejaVuSans-83"/>
     <use x="63.476562" xlink:href="#DejaVuSans-116"/>
     <use x="102.685547" xlink:href="#DejaVuSans-97"/>
     <use x="163.964844" xlink:href="#DejaVuSans-116"/>
     <use x="203.173828" xlink:href="#DejaVuSans-117"/>
     <use x="266.552734" xlink:href="#DejaVuSans-115"/>
     <use x="318.652344" xlink:href="#DejaVuSans-45"/>
     <use x="354.736328" xlink:href="#DejaVuSans-67"/>
     <use x="424.560547" xlink:href="#DejaVuSans-111"/>
     <use x="485.742188" xlink:href="#DejaVuSans-100"/>
     <use x="549.21875" xlink:href="#DejaVuSans-101"/>
     <use x="610.742188" xlink:href="#DejaVuSans-32"/>
     <use x="642.529297" xlink:href="#DejaVuSans-32"/>
     <use x="674.316406" xlink:href="#DejaVuSans-32"/>
     <use x="706.103516" xlink:href="#DejaVuSans-32"/>
     <use x="737.890625" xlink:href="#DejaVuSans-32"/>
     <use x="769.677734" xlink:href="#DejaVuSans-50"/>
     <use x="833.300781" xlink:href="#DejaVuSans-48"/>
     <use x="896.923828" xlink:href="#DejaVuSans-48"/>
     <use x="960.546875" xlink:href="#DejaVuSans-46"/>
     <use x="992.333984" xlink:href="#DejaVuSans-48"/>
     <use x="1055.957031" xlink:href="#DejaVuSans-48"/>
     <use x="1119.580078" xlink:href="#DejaVuSans-48"/>
     <use x="1183.203125" xlink:href="#DejaVuSans-48"/>
     <use x="1246.826172" xlink:href="#DejaVuSans-48"/>
     <use x="1310.449219" xlink:href="#DejaVuSans-48"/>
    </g>
    <!-- dtype: float64 -->
    <g style="fill:#262626;" transform="translate(193.904063 35.472)scale(0.12 -0.12)">
     <use xlink:href="#DejaVuSans-100"/>
     <use x="63.476562" xlink:href="#DejaVuSans-116"/>
     <use x="102.685547" xlink:href="#DejaVuSans-121"/>
     <use x="161.865234" xlink:href="#DejaVuSans-112"/>
     <use x="225.341797" xlink:href="#DejaVuSans-101"/>
     <use x="286.865234" xlink:href="#DejaVuSans-58"/>
     <use x="320.556641" xlink:href="#DejaVuSans-32"/>
     <use x="352.34375" xlink:href="#DejaVuSans-102"/>
     <use x="387.548828" xlink:href="#DejaVuSans-108"/>
     <use x="415.332031" xlink:href="#DejaVuSans-111"/>
     <use x="476.513672" xlink:href="#DejaVuSans-97"/>
     <use x="537.792969" xlink:href="#DejaVuSans-116"/>
     <use x="577.001953" xlink:href="#DejaVuSans-54"/>
     <use x="640.625" xlink:href="#DejaVuSans-52"/>
    </g>
   </g>
   <g id="legend_1">
    <g id="patch_9">
     <path d="M 368.737188 93.506375 
L 407.72 93.506375 
Q 409.72 93.506375 409.72 91.506375 
L 409.72 48.472 
Q 409.72 46.472 407.72 46.472 
L 368.737188 46.472 
Q 366.737188 46.472 366.737188 48.472 
L 366.737188 91.506375 
Q 366.737188 93.506375 368.737188 93.506375 
z
" style="fill:#ffffff;opacity:0.8;stroke:#cccccc;stroke-linejoin:miter;"/>
    </g>
    <g id="text_15">
     <!-- Mode -->
     <defs>
      <path d="M 9.8125 72.90625 
L 24.515625 72.90625 
L 43.109375 23.296875 
L 61.8125 72.90625 
L 76.515625 72.90625 
L 76.515625 0 
L 66.890625 0 
L 66.890625 64.015625 
L 48.09375 14.015625 
L 38.1875 14.015625 
L 19.390625 64.015625 
L 19.390625 0 
L 9.8125 0 
z
" id="DejaVuSans-77"/>
     </defs>
     <g style="fill:#262626;" transform="translate(374.604375 58.070438)scale(0.1 -0.1)">
      <use xlink:href="#DejaVuSans-77"/>
      <use x="86.279297" xlink:href="#DejaVuSans-111"/>
      <use x="147.460938" xlink:href="#DejaVuSans-100"/>
      <use x="210.9375" xlink:href="#DejaVuSans-101"/>
     </g>
    </g>
    <g id="patch_10">
     <path d="M 370.737188 72.748563 
L 390.737188 72.748563 
L 390.737188 65.748563 
L 370.737188 65.748563 
z
" style="fill:#3274a1;"/>
    </g>
    <g id="text_16">
     <!-- C -->
     <g style="fill:#262626;" transform="translate(398.737188 72.748563)scale(0.1 -0.1)">
      <use xlink:href="#DejaVuSans-67"/>
     </g>
    </g>
    <g id="patch_11">
     <path d="M 370.737188 87.426688 
L 390.737188 87.426688 
L 390.737188 80.426688 
L 370.737188 80.426688 
z
" style="fill:#e1812c;"/>
    </g>
    <g id="text_17">
     <!-- F -->
     <g style="fill:#262626;" transform="translate(398.737188 87.426688)scale(0.1 -0.1)">
      <use xlink:href="#DejaVuSans-70"/>
     </g>
    </g>
   </g>
  </g>
 </g>
 <defs>
  <clipPath id="pc035dd5d9d">
   <rect height="266.112" width="357.12" x="57.6" y="41.472"/>
  </clipPath>
 </defs>
</svg>
